<?xml version="1.0" encoding="utf-8"?>
<!-- Generator: Adobe Illustrator 19.1.0, SVG Export Plug-In . SVG Version: 6.00 Build 0)  -->
<svg version="1.1" xmlns="http://www.w3.org/2000/svg" xmlns:xlink="http://www.w3.org/1999/xlink" x="0px" y="0px"
	 viewBox="0 0 48 48" style="enable-background:new 0 0 48 48;" xml:space="preserve">
<style type="text/css">
	.st0{fill:#FFFFFF;}
	.st1{display:none;}
	.st2{display:inline;fill:none;stroke:#FFFFFF;stroke-width:2;stroke-miterlimit:10;}
</style>
<g id="Layer_1">
	<g>
		<path class="st0" d="M22.7,26.3h-2v7.3c0.6,0.1,1.3,0.1,2.3,0.1c2.6,0,5-1,5-3.7C28,27.3,25.7,26.3,22.7,26.3z"/>
		<path class="st0" d="M27.4,18.9c0-2-1.5-3-4.1-3c-1.3,0-2,0.1-2.5,0.2v6h1.9C25.7,22.1,27.4,20.8,27.4,18.9z"/>
		<path class="st0" d="M24,0C10.7,0,0,10.7,0,24s10.7,24,24,24s24-10.7,24-24S37.3,0,24,0z M31.4,35.7c-1.9,1.5-5,2.3-10.2,2.3
			c-2.9,0-5-0.2-6.3-0.4V12.2c1.5-0.3,4.6-0.5,7.6-0.5c3.6,0,5.8,0.3,7.6,1.5c1.8,1,3.1,2.7,3.1,5.1c0,2.3-1.3,4.5-4.3,5.5v0.1
			c3,0.8,5.1,3,5.1,6.4C34.1,32.5,33.1,34.3,31.4,35.7z"/>
	</g>
</g>
<g id="Layer_2" class="st1">
	<path class="st2" d="M24,40.9l-2.7-2.4C11.9,29.9,5.6,24.2,5.6,17.2c0-5.7,4.4-10.1,10.1-10.1c3.2,0,6.3,1.5,8.3,3.8
		c2-2.4,5.1-3.8,8.3-3.8c5.7,0,10.1,4.4,10.1,10.1c0,6.9-6.2,12.6-15.7,21.2L24,40.9z"/>
</g>
</svg>
