<?xml version="1.0" encoding="utf-8"?>
<!-- Generator: Adobe Illustrator 19.1.0, SVG Export Plug-In . SVG Version: 6.00 Build 0)  -->
<svg version="1.1" id="Layer_1" xmlns="http://www.w3.org/2000/svg" xmlns:xlink="http://www.w3.org/1999/xlink" x="0px" y="0px"
	 viewBox="0 0 48 48" style="enable-background:new 0 0 48 48;" xml:space="preserve">
<style type="text/css">
	.st0{fill:#409C46;}
	.st1{fill:#FFFFFF;}
</style>
<circle class="st0" cx="24" cy="24" r="24"/>
<g>
	<path class="st1" d="M17.2,15c1.2-0.2,3.6-0.4,5.8-0.4c2.8,0,4.4,0.3,5.9,1.1c1.4,0.7,2.4,2.1,2.4,3.9c0,1.8-1,3.4-3.3,4.3v0.1
		c2.3,0.6,4,2.3,4,4.9c0,1.8-0.8,3.2-2.1,4.2c-1.4,1.2-3.9,1.8-7.8,1.8c-2.2,0-3.9-0.1-4.9-0.3V15z M21.7,22.6h1.5
		c2.4,0,3.6-1,3.6-2.5c0-1.5-1.2-2.3-3.2-2.3c-1,0-1.5,0.1-1.9,0.1V22.6z M21.7,31.5c0.4,0.1,1,0.1,1.7,0.1c2,0,3.8-0.8,3.8-2.9
		c0-2-1.8-2.8-4.1-2.8h-1.5V31.5z"/>
</g>
</svg>
