<?xml version="1.0" encoding="utf-8"?>
<!-- Generator: Adobe Illustrator 19.1.0, SVG Export Plug-In . SVG Version: 6.00 Build 0)  -->
<svg version="1.1" xmlns="http://www.w3.org/2000/svg" xmlns:xlink="http://www.w3.org/1999/xlink" x="0px" y="0px"
	 viewBox="0 0 48 48" style="enable-background:new 0 0 48 48;" xml:space="preserve">
<style type="text/css">
	.st0{fill:#FFFFFF;}
	.st1{display:none;}
	.st2{display:inline;fill:none;stroke:#FFFFFF;stroke-width:2;stroke-miterlimit:10;}
</style>
<g id="Layer_1">
	<path class="st0" d="M24,0C10.7,0,0,10.7,0,24c0,13.3,10.7,24,24,24s24-10.7,24-24C48,10.7,37.3,0,24,0z M26.3,32.2
		c1.8,0,3.7-0.4,4.9-0.8l0.9,4.6C31,36.4,28.5,37,25.4,37c-8.9,0-13.6-5.6-13.6-12.9c0-8.8,6.3-13.7,14.1-13.7c3,0,5.3,0.6,6.4,1.2
		l-1.2,4.6c-1.2-0.5-2.8-1-4.9-1c-4.6,0-8.3,2.8-8.3,8.6C18,28.9,21.1,32.2,26.3,32.2z"/>
</g>
<g id="Layer_2" class="st1">
	<path class="st2" d="M24,40.9l-2.7-2.4C11.9,29.9,5.6,24.2,5.6,17.2c0-5.7,4.4-10.1,10.1-10.1c3.2,0,6.3,1.5,8.3,3.8
		c2-2.4,5.1-3.8,8.3-3.8c5.7,0,10.1,4.4,10.1,10.1c0,6.9-6.2,12.6-15.7,21.2L24,40.9z"/>
</g>
</svg>
