<?xml version="1.0" encoding="utf-8"?>
<!-- Generator: Adobe Illustrator 19.1.0, SVG Export Plug-In . SVG Version: 6.00 Build 0)  -->
<svg version="1.1" id="Layer_1" xmlns="http://www.w3.org/2000/svg" xmlns:xlink="http://www.w3.org/1999/xlink" x="0px" y="0px"
	 viewBox="0 0 61.4 61.4" style="enable-background:new 0 0 61.4 61.4;" xml:space="preserve">
<style type="text/css">
	.st0{fill:#FFFFFF;}
</style>
<path class="st0" d="M30.7,0C13.7,0,0,13.7,0,30.7c0,16.9,13.7,30.7,30.7,30.7c16.9,0,30.7-13.7,30.7-30.7C61.4,13.7,47.6,0,30.7,0z
	 M34.7,52.5h-8V21.3h8V52.5z M30.6,16.8c-2.6,0-4.4-1.9-4.4-4.2c0-2.4,1.8-4.3,4.4-4.3c2.7,0,4.4,1.9,4.4,4.3
	C35.1,14.9,33.4,16.8,30.6,16.8z"/>
</svg>
