<?xml version="1.0" encoding="UTF-8" standalone="no"?>
<svg width="982px" height="878px" viewBox="0 0 982 878" version="1.1" xmlns="http://www.w3.org/2000/svg" xmlns:xlink="http://www.w3.org/1999/xlink" xmlns:sketch="http://www.bohemiancoding.com/sketch/ns">
    <!-- Generator: Sketch 3.4.3 (16044) - http://www.bohemiancoding.com/sketch -->
    <title>map_space_8th_floor</title>
    <desc>Created with Sketch.</desc>
    <defs></defs>
    <g id="Page-1" stroke="none" stroke-width="1" fill="none" fill-rule="evenodd" sketch:type="MSPage">
        <g id="map_space_8th_floor" sketch:type="MSLayerGroup" fill="#FFFFFF">
            <g id="Group" sketch:type="MSShapeGroup">
                <path d="M348.1,510.3 L334.7,510.3 L334.7,510.4 L326.3,510.4 L326.3,507 L284,507 L284,508 L281.6,508 L281.6,508.3 L265.4,508.3 C265.6,509.4 266.2,512.8 268.1,516.1 C271.2,521.5 276,524.2 282.5,524.2 L282.5,524.5 L284.2,524.5 L284.2,546.6 L348.1,546.6 L348.1,510.3 L348.1,510.3 Z" id="Shape"></path>
                <path d="M174.1,68.9 L185.2,68.9 C185.6,68.9 186,68.6 186,68.1 L186,58 C186,57.6 185.7,57.2 185.2,57.2 L174.1,57.2 C173.7,57.2 173.3,57.5 173.3,58 L173.3,68.2 C173.3,68.6 173.7,68.9 174.1,68.9 L174.1,68.9 Z" id="Shape"></path>
                <path d="M326.3,475.5 L326.3,418.7 L284,418.7 L281.8,418.7 L281.5,418.7 L281.5,419 L266,418.4 C266.1,420 266.7,426.5 271.1,430.9 C273.9,433.8 277.8,435.3 282.8,435.3 L282.8,435.7 L284,435.7 L284,475.5 L326.3,475.5 L326.3,475.5 Z" id="Shape"></path>
                <path d="M200.6,68.9 L211.7,68.9 C212.1,68.9 212.5,68.6 212.5,68.1 L212.5,58 C212.5,57.6 212.2,57.2 211.7,57.2 L200.6,57.2 C200.2,57.2 199.8,57.5 199.8,58 L199.8,68.2 C199.8,68.6 200.2,68.9 200.6,68.9 L200.6,68.9 Z" id="Shape"></path>
                <path d="M22.1,670.1 L22.5,670.1 C22.6,670.1 38.5,671.1 41.4,684.9 L70.9,684.9 L70.9,563.1 L0,563.1 L0,684.9 L22.1,684.9 L22.1,670.1 L22.1,670.1 Z" id="Shape"></path>
                <path d="M339.3,612.1 L339.3,583 L283.8,583 L283.8,595.2 L283,595.2 L283,609.3 L283.7,609.3 L283.7,612.1 L339.3,612.1 L339.3,612.1 Z M311.9,585.5 C312.8,585.7 313.5,586.4 313.7,587.3 C314,588.9 312.6,590.3 311,590 C310.1,589.8 309.4,589.1 309.2,588.2 C308.9,586.6 310.3,585.2 311.9,585.5 L311.9,585.5 Z M307.6,593.6 C307.6,592.3 308.6,591.3 309.9,591.3 L313.4,591.3 C314.7,591.3 315.7,592.3 315.7,593.6 L315.7,599.9 L314,599.9 L314,608.5 L309.3,608.5 L309.3,599.9 L307.6,599.9 L307.6,593.6 L307.6,593.6 Z" id="Shape"></path>
                <path d="M339.3,568 L339.3,566.6 L339.3,563.7 L339.3,549.2 L284.2,549.2 L284.2,551.1 L283.7,551.1 L283.4,566.5 L283.8,566.5 L283.8,578.1 L339.3,578.1 L339.3,568 L339.3,568 Z M311.6,552.2 C312.9,552.2 313.9,553.2 313.9,554.5 C313.9,555.8 312.9,556.8 311.6,556.8 C310.3,556.8 309.3,555.8 309.3,554.5 C309.3,553.2 310.3,552.2 311.6,552.2 L311.6,552.2 Z M313.3,568.3 L313.3,575.2 L310,575.2 L310,568.3 L306.5,568.3 L309.4,559.5 C309.7,558.5 310.6,557.9 311.6,557.9 L311.7,557.9 C312.7,557.9 313.6,558.6 313.9,559.5 L316.8,568.3 L313.3,568.3 L313.3,568.3 Z" id="Shape"></path>
                <path d="M147.6,68.9 L158.7,68.9 C159.1,68.9 159.5,68.6 159.5,68.1 L159.5,58 C159.5,57.6 159.2,57.2 158.7,57.2 L147.6,57.2 C147.2,57.2 146.8,57.5 146.8,58 L146.8,68.2 C146.8,68.6 147.2,68.9 147.6,68.9 L147.6,68.9 Z" id="Shape"></path>
                <path d="M191.7,71.7 C191.7,71.3 191.4,70.9 190.9,70.9 L168.6,70.9 C168.2,70.9 167.8,71.2 167.8,71.7 L167.8,87 L191.6,87 L191.6,71.7 L191.7,71.7 Z" id="Shape"></path>
                <path d="M141,108.9 C141,109.3 141.3,109.7 141.8,109.7 L165.2,109.7 C165.6,109.7 166,109.4 166,108.9 L166,93.6 L141,93.6 L141,108.9 L141,108.9 Z" id="Shape"></path>
                <path d="M461.4,582.4 L508.5,617.2 L511.7,628.5 L522.9,618.5 L508.5,582.4 L461.4,582.4 Z" id="Shape"></path>
                <path d="M211.8,111.6 L200.7,111.6 C200.3,111.6 199.9,111.9 199.9,112.4 L199.9,122.6 C199.9,123 200.2,123.4 200.7,123.4 L211.8,123.4 C212.2,123.4 212.6,123.1 212.6,122.6 L212.6,112.4 C212.6,112 212.3,111.6 211.8,111.6 L211.8,111.6 Z" id="Shape"></path>
                <path d="M69.1,732.7 L68.8,732.7 C68.8,725.5 65.7,720.2 59.5,716.8 C55.7,714.7 51.8,714.1 50.6,713.9 L50.6,732.2 L50.2,732.3 L0,732.3 L0,816.6 L70.9,816.6 L73.1,816.6 L75.8,816.6 L75.8,732.7 L69.6,732.7 L69.1,732.7 L69.1,732.7 Z" id="Shape"></path>
                <path d="M193.7,108.9 C193.7,109.3 194,109.7 194.5,109.7 L217.9,109.7 C218.3,109.7 218.7,109.4 218.7,108.9 L218.7,93.6 L193.8,93.6 L193.8,108.9 L193.7,108.9 Z" id="Shape"></path>
                <path d="M167.9,108.9 C167.9,109.3 168.2,109.7 168.7,109.7 L191,109.7 C191.4,109.7 191.8,109.4 191.8,108.9 L191.8,93.6 L168,93.6 L168,108.9 L167.9,108.9 Z" id="Shape"></path>
                <path d="M218.6,71.7 C218.6,71.3 218.3,70.9 217.8,70.9 L194.4,70.9 C194,70.9 193.6,71.2 193.6,71.7 L193.6,87 L218.5,87 L218.5,71.7 L218.6,71.7 Z" id="Shape"></path>
                <path d="M438.3,576.1 L502.2,624.1 L502.2,624.2 L507.9,643.7 L533.5,622.5 L515,576.1 L438.3,576.1 L438.3,576.1 Z M511.2,629.9 L507.8,617.7 L459.1,581.7 L508.8,581.7 L508.9,581.9 L523.6,618.7 L511.2,629.9 L511.2,629.9 Z" id="Shape"></path>
                <path d="M534.2,793.7 L528.9,793.7 C528.5,793.7 528.1,794 528.1,794.5 L528.1,801.7 C528.1,802.1 528.4,802.5 528.9,802.5 L534.2,802.5 C534.6,802.5 535,802.2 535,801.7 L535,794.5 C535,794 534.6,793.7 534.2,793.7 L534.2,793.7 Z" id="Shape"></path>
                <path d="M94,716.3 C87.8,719.5 84.6,725 84.6,732.7 L84.1,732.7 L83.8,732.7 L77.8,732.7 L77.8,816.6 L171.3,816.6 L177.4,816.6 L210.8,816.6 L210.8,732.7 L103.8,732.7 L103.3,732.7 L103.1,732.7 L103.1,713.9 C101.9,714 97.9,714.4 94,716.3 L94,716.3 Z" id="Shape"></path>
                <path d="M534.2,782.8 L528.9,782.8 C528.5,782.8 528.1,783.1 528.1,783.6 L528.1,790.8 C528.1,791.2 528.4,791.6 528.9,791.6 L534.2,791.6 C534.6,791.6 535,791.3 535,790.8 L535,783.6 C535,783.2 534.6,782.8 534.2,782.8 L534.2,782.8 Z" id="Shape"></path>
                <path d="M555.9,769.8 L538,769.8 C537.6,769.8 537.2,770.1 537.2,770.6 L537.2,813.4 C537.2,813.8 537.5,814.2 538,814.2 L555.9,814.2 C556.3,814.2 556.7,813.9 556.7,813.4 L556.7,770.6 C556.6,770.2 556.3,769.8 555.9,769.8 L555.9,769.8 Z" id="Shape"></path>
                <path d="M534.2,772 L528.9,772 C528.5,772 528.1,772.3 528.1,772.8 L528.1,780 C528.1,780.4 528.4,780.8 528.9,780.8 L534.2,780.8 C534.6,780.8 535,780.5 535,780 L535,772.8 C535,772.3 534.6,772 534.2,772 L534.2,772 Z" id="Shape"></path>
                <path d="M211.6,159.8 L200.5,159.8 C200.1,159.8 199.7,160.1 199.7,160.6 L199.7,170.8 C199.7,171.2 200,171.6 200.5,171.6 L211.6,171.6 C212,171.6 212.4,171.3 212.4,170.8 L212.4,160.6 C212.4,160.2 212,159.8 211.6,159.8 L211.6,159.8 Z" id="Shape"></path>
                <path d="M370.8,566.3 L370.8,573 L433.3,584.1 L433.4,584.2 L494.3,629.5 L504.9,659.3 L546.6,626.4 L526.3,566.3 L370.8,566.3 L370.8,566.3 Z M507.4,644.9 L501.4,624.5 L435.9,575.3 L515.3,575.3 L515.4,575.5 L534.2,622.6 L507.4,644.9 L507.4,644.9 Z" id="Shape"></path>
                <path d="M362.8,557.8 L362.6,581.7 L430,592.9 L430.1,593 L487.1,635.4 L487.1,635.5 L500.1,677.3 L557.9,626.5 L533.3,557.2 L362.8,557.8 L362.8,557.8 Z M504.7,660.5 L493.9,630 L433.3,584.9 L370.3,573.7 L370.3,565.6 L526.9,565.6 L527,565.8 L547.5,626.7 L504.7,660.5 L504.7,660.5 Z" id="Shape"></path>
                <path d="M534.2,804.5 L528.9,804.5 C528.5,804.5 528.1,804.8 528.1,805.3 L528.1,812.5 C528.1,812.9 528.4,813.3 528.9,813.3 L534.2,813.3 C534.6,813.3 535,813 535,812.5 L535,805.3 C535,804.9 534.6,804.5 534.2,804.5 L534.2,804.5 Z" id="Shape"></path>
                <path d="M906,709.2 C909.4,706.1 911.2,701.4 911.2,695.1 L893.5,695.1 L893.5,693.7 L893.5,692.5 L893.5,638 L893.6,637.5 C893.7,637.5 901.1,638.4 906.4,633.7 C909.9,630.6 911.7,625.8 911.7,619.5 L893.7,619.5 L893.7,617.1 L868.3,617.1 L868.3,624.2 L867.7,624.2 C864.9,624.1 862.7,623.2 861.2,621.6 C860.3,620.7 859.8,619.6 859.5,618.7 C857.2,634.1 840.4,635.2 840.4,635.3 L840.4,635.2 L840.2,635.2 L840.2,617.1 L815.7,617.1 L815.7,619.5 L809.9,619.5 L809.9,617.1 L809.8,617.1 L809.8,650.5 L808.8,650.5 L807.2,650.5 L802.9,650.5 L802.9,649.5 L784.8,649.5 L784.8,650.5 L776.7,650.5 L776.7,649.5 L761.8,649.5 L761.8,650.5 L754.4,650.5 L739.2,650.5 L724.8,650.5 L723.7,650.5 L723.6,650.5 L721,650.5 L717.7,650.5 L700.9,650.5 L699.7,650.5 L697.9,650.5 L623.7,650.5 L623.7,636.8 L682.7,636.8 L682.7,568.9 L558.2,568.9 L558.2,553.6 L358.4,553.6 L358.4,563.7 L358.4,568.1 L358.4,689.3 L344.1,689.3 L344.1,689.4 L281.8,689.4 L281.8,689.3 L281.8,689.2 L281.8,687.3 L281.8,650 L281.8,634.1 L281.8,614.8 L281.8,612.1 L281.8,609.3 L282.3,609.3 L282.3,595.2 L281.8,595.2 L281.8,583 L281.8,578.1 L281.8,566.5 L282.7,566.5 L283,551.1 L282.3,551.1 L282.3,524.9 C266.2,524.9 264.5,508.2 264.5,508 L264.5,507.6 L281.4,507.6 L281.4,495.8 L281.8,495.8 C276.7,495.8 272.7,494.3 269.8,491.4 C265,486.5 265.2,479.5 265.2,479.2 L265.2,478.8 L281.4,478.8 L281.4,464.1 L277.4,464.1 L277.4,461.7 L232.9,461.7 L232.9,464.1 L231.1,464.1 L231.1,472.6 L129,472.6 L129,479.1 C134.2,479.7 138.2,481.6 141,484.8 C146.3,490.9 145.1,499.3 145.1,499.7 L145,500 L129,500 L129,504.4 L230,504.4 L232.5,504.4 L232.5,505.6 L232.6,505.6 L232.6,516.2 L232.6,531 L249.9,531 L249.9,531.4 C250,531.6 249.4,549.3 232.6,551.8 L232.6,573.5 L232.5,573.5 L232.5,582 L232.4,582 L232.4,611.9 L226.4,611.9 L226.4,612 L203.9,612 L203.9,635.6 L203.9,689.5 L203.9,693.4 L145.3,693.4 L145.3,689.5 L72.6,689.5 L72.6,689.4 L41.8,689.4 L41.1,689.4 C41.1,682.1 38,676.7 31.8,673.5 C27.9,671.5 24,671 22.8,670.8 L22.8,688.9 L22.1,688.9 L0,688.9 L0,730.3 L49.8,730.3 L49.8,713.1 L50.2,713.1 C50.4,713.2 68.1,714.8 69.5,730.7 L75.8,730.7 L77.8,730.7 L83.9,730.7 C85.2,713.6 103.2,713.2 103.4,713.2 L103.8,713.2 L103.8,730.7 L210.8,730.7 L212.6,730.7 L212.8,730.7 L212.8,816.6 L215.1,816.6 L215.1,816.6 L758.7,816.6 L758.7,751.3 L758.7,744.7 L758.7,733.2 L773.7,733.2 L777.9,733.2 L784.5,733.2 L802.2,733.2 L802.2,735.6 L820,735.6 L820,736.7 L859.5,736.7 L859.5,735.6 L878.1,735.6 L878.1,738.5 L859.9,738.5 L860,757.9 L859.6,757.9 C859.4,757.9 839.9,756.9 839.7,737.4 C839.5,756.9 820,757.9 819.8,757.9 L819.5,757.9 L819.5,738.5 L802.2,738.5 L802.2,739.9 L784.5,739.9 L784.5,744.7 L784.5,755 L784.5,781.2 L798.3,781.2 L798.5,781.1 L798.7,781.2 L812.3,781.2 L813,781.2 L866.8,781.2 L867.5,781.2 L894.7,781.2 L894.7,739.8 L878.2,739.8 L878.2,733.1 L893.5,733.1 L893.5,713.7 L893.3,713.7 L893.3,713 C893.4,713 900.8,713.8 906,709.2 L906,709.2 Z M234.3,689.4 C232.2,689.4 230.5,687.7 230.5,685.6 C230.5,683.5 232.2,681.8 234.3,681.8 C236.4,681.8 238.1,683.5 238.1,685.6 C238.1,687.7 236.4,689.4 234.3,689.4 L234.3,689.4 Z M397.3,812.5 C397.3,813.2 396.7,813.7 396.1,813.7 L390.8,813.7 C390.1,813.7 389.6,813.1 389.6,812.5 L389.6,805.3 C389.6,804.6 390.2,804.1 390.8,804.1 L396.1,804.1 C396.8,804.1 397.3,804.7 397.3,805.3 L397.3,812.5 L397.3,812.5 Z M397.3,801.7 C397.3,802.4 396.7,802.9 396.1,802.9 L390.8,802.9 C390.1,802.9 389.6,802.3 389.6,801.7 L389.6,794.5 C389.6,793.8 390.2,793.3 390.8,793.3 L396.1,793.3 C396.8,793.3 397.3,793.9 397.3,794.5 L397.3,801.7 L397.3,801.7 Z M397.3,790.8 C397.3,791.5 396.7,792 396.1,792 L390.8,792 C390.1,792 389.6,791.4 389.6,790.8 L389.6,783.6 C389.6,782.9 390.2,782.4 390.8,782.4 L396.1,782.4 C396.8,782.4 397.3,783 397.3,783.6 L397.3,790.8 L397.3,790.8 Z M397.3,780 C397.3,780.7 396.7,781.2 396.1,781.2 L390.8,781.2 C390.1,781.2 389.6,780.6 389.6,780 L389.6,772.8 C389.6,772.1 390.2,771.6 390.8,771.6 L396.1,771.6 C396.8,771.6 397.3,772.2 397.3,772.8 L397.3,780 L397.3,780 Z M419,813.3 C419,814 418.4,814.5 417.8,814.5 L399.9,814.5 C399.2,814.5 398.7,813.9 398.7,813.3 L398.7,770.5 C398.7,769.8 399.3,769.3 399.9,769.3 L417.8,769.3 C418.5,769.3 419,769.9 419,770.5 L419,813.3 L419,813.3 Z M409.9,735.1 C412,735.1 413.7,736.8 413.7,738.9 C413.7,741 412,742.7 409.9,742.7 C407.8,742.7 406.1,741 406.1,738.9 C406.1,736.8 407.8,735.1 409.9,735.1 L409.9,735.1 Z M406.1,685.6 C406.1,683.5 407.8,681.8 409.9,681.8 C412,681.8 413.7,683.5 413.7,685.6 C413.7,687.7 412,689.4 409.9,689.4 C407.8,689.4 406.1,687.7 406.1,685.6 L406.1,685.6 Z M427.6,812.5 C427.6,813.2 427,813.7 426.4,813.7 L421.1,813.7 C420.4,813.7 419.9,813.1 419.9,812.5 L419.9,805.3 C419.9,804.6 420.5,804.1 421.1,804.1 L426.4,804.1 C427.1,804.1 427.6,804.7 427.6,805.3 L427.6,812.5 L427.6,812.5 Z M427.6,801.7 C427.6,802.4 427,802.9 426.4,802.9 L421.1,802.9 C420.4,802.9 419.9,802.3 419.9,801.7 L419.9,794.5 C419.9,793.8 420.5,793.3 421.1,793.3 L426.4,793.3 C427.1,793.3 427.6,793.9 427.6,794.5 L427.6,801.7 L427.6,801.7 Z M427.6,790.8 C427.6,791.5 427,792 426.4,792 L421.1,792 C420.4,792 419.9,791.4 419.9,790.8 L419.9,783.6 C419.9,782.9 420.5,782.4 421.1,782.4 L426.4,782.4 C427.1,782.4 427.6,783 427.6,783.6 L427.6,790.8 L427.6,790.8 Z M427.6,780 C427.6,780.7 427,781.2 426.4,781.2 L421.1,781.2 C420.4,781.2 419.9,780.6 419.9,780 L419.9,772.8 C419.9,772.1 420.5,771.6 421.1,771.6 L426.4,771.6 C427.1,771.6 427.6,772.2 427.6,772.8 L427.6,780 L427.6,780 Z M445.2,814.5 C445.2,814.9 444.9,815.2 444.5,815.2 L443.9,815.2 C443.5,815.2 443.2,814.9 443.2,814.5 L443.2,770.2 C443.2,769.8 443.5,769.5 443.9,769.5 L444.5,769.5 C444.9,769.5 445.2,769.8 445.2,770.2 L445.2,814.5 L445.2,814.5 Z M467,812.5 C467,813.2 466.4,813.7 465.8,813.7 L460.5,813.7 C459.8,813.7 459.3,813.1 459.3,812.5 L459.3,805.3 C459.3,804.6 459.9,804.1 460.5,804.1 L465.8,804.1 C466.5,804.1 467,804.7 467,805.3 L467,812.5 L467,812.5 Z M467,801.7 C467,802.4 466.4,802.9 465.8,802.9 L460.5,802.9 C459.8,802.9 459.3,802.3 459.3,801.7 L459.3,794.5 C459.3,793.8 459.9,793.3 460.5,793.3 L465.8,793.3 C466.5,793.3 467,793.9 467,794.5 L467,801.7 L467,801.7 Z M467,790.8 C467,791.5 466.4,792 465.8,792 L460.5,792 C459.8,792 459.3,791.4 459.3,790.8 L459.3,783.6 C459.3,782.9 459.9,782.4 460.5,782.4 L465.8,782.4 C466.5,782.4 467,783 467,783.6 L467,790.8 L467,790.8 Z M467,780 C467,780.7 466.4,781.2 465.8,781.2 L460.5,781.2 C459.8,781.2 459.3,780.6 459.3,780 L459.3,772.8 C459.3,772.1 459.9,771.6 460.5,771.6 L465.8,771.6 C466.5,771.6 467,772.2 467,772.8 L467,780 L467,780 Z M488.7,813.3 C488.7,814 488.1,814.5 487.5,814.5 L469.6,814.5 C468.9,814.5 468.4,813.9 468.4,813.3 L468.4,770.5 C468.4,769.8 469,769.3 469.6,769.3 L487.5,769.3 C488.2,769.3 488.7,769.9 488.7,770.5 L488.7,813.3 L488.7,813.3 Z M497.3,812.5 C497.3,813.2 496.7,813.7 496.1,813.7 L490.8,813.7 C490.1,813.7 489.6,813.1 489.6,812.5 L489.6,805.3 C489.6,804.6 490.2,804.1 490.8,804.1 L496.1,804.1 C496.8,804.1 497.3,804.7 497.3,805.3 L497.3,812.5 L497.3,812.5 Z M497.3,801.7 C497.3,802.4 496.7,802.9 496.1,802.9 L490.8,802.9 C490.1,802.9 489.6,802.3 489.6,801.7 L489.6,794.5 C489.6,793.8 490.2,793.3 490.8,793.3 L496.1,793.3 C496.8,793.3 497.3,793.9 497.3,794.5 L497.3,801.7 L497.3,801.7 Z M497.3,790.8 C497.3,791.5 496.7,792 496.1,792 L490.8,792 C490.1,792 489.6,791.4 489.6,790.8 L489.6,783.6 C489.6,782.9 490.2,782.4 490.8,782.4 L496.1,782.4 C496.8,782.4 497.3,783 497.3,783.6 L497.3,790.8 L497.3,790.8 Z M497.3,780 C497.3,780.7 496.7,781.2 496.1,781.2 L490.8,781.2 C490.1,781.2 489.6,780.6 489.6,780 L489.6,772.8 C489.6,772.1 490.2,771.6 490.8,771.6 L496.1,771.6 C496.8,771.6 497.3,772.2 497.3,772.8 L497.3,780 L497.3,780 Z M486.4,635.8 L429.7,593.6 L361.9,582.4 L361.9,557 L362.3,557 L533.8,556.4 L533.9,556.6 L558.8,626.7 L558.6,626.9 L499.7,678.5 L486.4,635.8 L486.4,635.8 Z M512.6,814.5 C512.6,814.9 512.3,815.2 511.9,815.2 L511.3,815.2 C510.9,815.2 510.6,814.9 510.6,814.5 L510.6,770.2 C510.6,769.8 510.9,769.5 511.3,769.5 L511.9,769.5 C512.3,769.5 512.6,769.8 512.6,770.2 L512.6,814.5 L512.6,814.5 Z M515.2,742.7 C513.1,742.7 511.4,741 511.4,738.9 C511.4,736.8 513.1,735.1 515.2,735.1 C517.3,735.1 519,736.8 519,738.9 C519,741 517.3,742.7 515.2,742.7 L515.2,742.7 Z M515.2,688.5 C513.1,688.5 511.4,686.8 511.4,684.7 C511.4,682.6 513.1,680.9 515.2,680.9 C517.3,680.9 519,682.6 519,684.7 C519,686.8 517.3,688.5 515.2,688.5 L515.2,688.5 Z M535.5,812.5 C535.5,813.2 534.9,813.7 534.3,813.7 L529,813.7 C528.3,813.7 527.8,813.1 527.8,812.5 L527.8,805.3 C527.8,804.6 528.4,804.1 529,804.1 L534.3,804.1 C535,804.1 535.5,804.7 535.5,805.3 L535.5,812.5 L535.5,812.5 Z M535.5,801.7 C535.5,802.4 534.9,802.9 534.3,802.9 L529,802.9 C528.3,802.9 527.8,802.3 527.8,801.7 L527.8,794.5 C527.8,793.8 528.4,793.3 529,793.3 L534.3,793.3 C535,793.3 535.5,793.9 535.5,794.5 L535.5,801.7 L535.5,801.7 Z M535.5,790.8 C535.5,791.5 534.9,792 534.3,792 L529,792 C528.3,792 527.8,791.4 527.8,790.8 L527.8,783.6 C527.8,782.9 528.4,782.4 529,782.4 L534.3,782.4 C535,782.4 535.5,783 535.5,783.6 L535.5,790.8 L535.5,790.8 Z M535.5,780 C535.5,780.7 534.9,781.2 534.3,781.2 L529,781.2 C528.3,781.2 527.8,780.6 527.8,780 L527.8,772.8 C527.8,772.1 528.4,771.6 529,771.6 L534.3,771.6 C535,771.6 535.5,772.2 535.5,772.8 L535.5,780 L535.5,780 Z M557.1,813.3 C557.1,814 556.5,814.5 555.9,814.5 L538,814.5 C537.3,814.5 536.8,813.9 536.8,813.3 L536.8,770.5 C536.8,769.8 537.4,769.3 538,769.3 L555.9,769.3 C556.6,769.3 557.1,769.9 557.1,770.5 L557.1,813.3 L557.1,813.3 Z M565.7,812.5 C565.7,813.2 565.1,813.7 564.5,813.7 L559.2,813.7 C558.5,813.7 558,813.1 558,812.5 L558,805.3 C558,804.6 558.6,804.1 559.2,804.1 L564.5,804.1 C565.2,804.1 565.7,804.7 565.7,805.3 L565.7,812.5 L565.7,812.5 Z M565.7,801.7 C565.7,802.4 565.1,802.9 564.5,802.9 L559.2,802.9 C558.5,802.9 558,802.3 558,801.7 L558,794.5 C558,793.8 558.6,793.3 559.2,793.3 L564.5,793.3 C565.2,793.3 565.7,793.9 565.7,794.5 L565.7,801.7 L565.7,801.7 Z M565.7,790.8 C565.7,791.5 565.1,792 564.5,792 L559.2,792 C558.5,792 558,791.4 558,790.8 L558,783.6 C558,782.9 558.6,782.4 559.2,782.4 L564.5,782.4 C565.2,782.4 565.7,783 565.7,783.6 L565.7,790.8 L565.7,790.8 Z M565.7,780 C565.7,780.7 565.1,781.2 564.5,781.2 L559.2,781.2 C558.5,781.2 558,780.6 558,780 L558,772.8 C558,772.1 558.6,771.6 559.2,771.6 L564.5,771.6 C565.2,771.6 565.7,772.2 565.7,772.8 L565.7,780 L565.7,780 Z M610.7,742.7 C608.6,742.7 606.9,741 606.9,738.9 C606.9,736.8 608.6,735.1 610.7,735.1 C612.8,735.1 614.5,736.8 614.5,738.9 C614.5,741 612.8,742.7 610.7,742.7 L610.7,742.7 Z M610.7,688.5 C608.6,688.5 606.9,686.8 606.9,684.7 C606.9,682.6 608.6,680.9 610.7,680.9 C612.8,680.9 614.5,682.6 614.5,684.7 C614.5,686.8 612.8,688.5 610.7,688.5 L610.7,688.5 Z M694,742.7 C691.9,742.7 690.2,741 690.2,738.9 C690.2,736.8 691.9,735.1 694,735.1 C696.1,735.1 697.8,736.8 697.8,738.9 C697.8,741 696.1,742.7 694,742.7 L694,742.7 Z M703.8,686.4 C703.7,687.5 702.9,688.5 701.7,688.5 L692.5,688.5 C691.3,688.5 690.4,687.5 690.4,686.4 L690.4,684.4 C690.4,683.2 691.4,682.3 692.5,682.3 L701.7,682.3 C702.9,682.3 703.8,683.3 703.8,684.4 L703.8,686.4 L703.8,686.4 Z M761.7,686.3 L719.9,686.3 L719.9,682.2 L761.7,682.2 L761.7,686.3 L761.7,686.3 Z M868.2,689 L778,689 L778,681 L868.2,681 L868.2,689 L868.2,689 Z" id="Shape"></path>
                <path d="M820.4,737.4 L820.4,757.1 C823.2,756.9 839,754.9 839.2,737.4 L820.4,737.4 L820.4,737.4 Z" id="Shape"></path>
                <path d="M564.5,804.5 L559.2,804.5 C558.8,804.5 558.4,804.8 558.4,805.3 L558.4,812.5 C558.4,812.9 558.7,813.3 559.2,813.3 L564.5,813.3 C564.9,813.3 565.3,813 565.3,812.5 L565.3,805.3 C565.2,804.9 564.9,804.5 564.5,804.5 L564.5,804.5 Z" id="Shape"></path>
                <path d="M859.4,757.1 L859.4,737.4 L840.6,737.4 C840.8,754.8 856.7,756.9 859.4,757.1 L859.4,757.1 Z" id="Shape"></path>
                <path d="M194.2,407.4 C194.2,407.8 194.5,408.2 195,408.2 L218.4,408.2 C218.8,408.2 219.2,407.9 219.2,407.4 L219.2,392.1 L194.3,392.1 L194.3,407.4 L194.2,407.4 Z" id="Shape"></path>
                <path d="M564.5,782.8 L559.2,782.8 C558.8,782.8 558.4,783.1 558.4,783.6 L558.4,790.8 C558.4,791.2 558.7,791.6 559.2,791.6 L564.5,791.6 C564.9,791.6 565.3,791.3 565.3,790.8 L565.3,783.6 C565.2,783.2 564.9,782.8 564.5,782.8 L564.5,782.8 Z" id="Shape"></path>
                <path d="M564.5,772 L559.2,772 C558.8,772 558.4,772.3 558.4,772.8 L558.4,780 C558.4,780.4 558.7,780.8 559.2,780.8 L564.5,780.8 C564.9,780.8 565.3,780.5 565.3,780 L565.3,772.8 C565.2,772.3 564.9,772 564.5,772 L564.5,772 Z" id="Shape"></path>
                <path d="M165.9,71.7 C165.9,71.3 165.6,70.9 165.1,70.9 L141.7,70.9 C141.3,70.9 140.9,71.2 140.9,71.7 L140.9,87 L165.8,87 L165.8,71.7 L165.9,71.7 Z" id="Shape"></path>
                <path d="M174.3,307.7 C173.9,307.7 173.5,308 173.5,308.5 L173.5,318.7 C173.5,319.1 173.8,319.5 174.3,319.5 L185.4,319.5 C185.8,319.5 186.2,319.2 186.2,318.7 L186.2,308.5 C186.2,308.1 185.9,307.7 185.4,307.7 L174.3,307.7 L174.3,307.7 Z" id="Shape"></path>
                <path d="M165.9,267.7 C165.9,267.3 165.6,266.9 165.1,266.9 L141.7,266.9 C141.3,266.9 140.9,267.2 140.9,267.7 L140.9,283 L165.8,283 L165.8,267.7 L165.9,267.7 Z" id="Shape"></path>
                <path d="M200.8,307.7 C200.4,307.7 200,308 200,308.5 L200,318.7 C200,319.1 200.3,319.5 200.8,319.5 L211.9,319.5 C212.3,319.5 212.7,319.2 212.7,318.7 L212.7,308.5 C212.7,308.1 212.4,307.7 211.9,307.7 L200.8,307.7 L200.8,307.7 Z" id="Shape"></path>
                <path d="M159.4,410.1 L148.3,410.1 C147.9,410.1 147.5,410.4 147.5,410.9 L147.5,421.1 C147.5,421.5 147.8,421.9 148.3,421.9 L159.4,421.9 C159.8,421.9 160.2,421.6 160.2,421.1 L160.2,410.9 C160.1,410.4 159.8,410.1 159.4,410.1 L159.4,410.1 Z" id="Shape"></path>
                <path d="M147.8,307.7 C147.4,307.7 147,308 147,308.5 L147,318.7 C147,319.1 147.3,319.5 147.8,319.5 L158.9,319.5 C159.3,319.5 159.7,319.2 159.7,318.7 L159.7,308.5 C159.7,308.1 159.4,307.7 158.9,307.7 L147.8,307.7 L147.8,307.7 Z" id="Shape"></path>
                <path d="M168,304.9 C168,305.3 168.3,305.7 168.8,305.7 L191,305.7 C191.4,305.7 191.8,305.4 191.8,304.9 L191.8,289.6 L168,289.6 L168,304.9 L168,304.9 Z" id="Shape"></path>
                <path d="M141.1,304.9 C141.1,305.3 141.4,305.7 141.9,305.7 L165.3,305.7 C165.7,305.7 166.1,305.4 166.1,304.9 L166.1,289.6 L141.2,289.6 L141.2,304.9 L141.1,304.9 Z" id="Shape"></path>
                <path d="M191.7,267.7 C191.7,267.3 191.4,266.9 190.9,266.9 L168.6,266.9 C168.2,266.9 167.8,267.2 167.8,267.7 L167.8,283 L191.6,283 L191.6,267.7 L191.7,267.7 Z" id="Shape"></path>
                <path d="M218.6,267.7 C218.6,267.3 218.3,266.9 217.8,266.9 L194.4,266.9 C194,266.9 193.6,267.2 193.6,267.7 L193.6,283 L218.5,283 L218.5,267.7 L218.6,267.7 Z" id="Shape"></path>
                <path d="M168.4,407.4 C168.4,407.8 168.7,408.2 169.2,408.2 L191.5,408.2 C191.9,408.2 192.3,407.9 192.3,407.4 L192.3,392.1 L168.5,392.1 L168.5,407.4 L168.4,407.4 Z" id="Shape"></path>
                <path d="M192.2,370.2 C192.2,369.8 191.9,369.4 191.4,369.4 L169.1,369.4 C168.7,369.4 168.3,369.7 168.3,370.2 L168.3,385.5 L192.1,385.5 L192.1,370.2 L192.2,370.2 Z" id="Shape"></path>
                <path d="M219.1,370.2 C219.1,369.8 218.8,369.4 218.3,369.4 L195,369.4 C194.6,369.4 194.2,369.7 194.2,370.2 L194.2,385.5 L219.1,385.5 L219.1,370.2 L219.1,370.2 Z" id="Shape"></path>
                <path d="M212.4,410.1 L201.3,410.1 C200.9,410.1 200.5,410.4 200.5,410.9 L200.5,421.1 C200.5,421.5 200.8,421.9 201.3,421.9 L212.4,421.9 C212.8,421.9 213.2,421.6 213.2,421.1 L213.2,410.9 C213.1,410.4 212.8,410.1 212.4,410.1 L212.4,410.1 Z" id="Shape"></path>
                <path d="M141.5,407.4 C141.5,407.8 141.8,408.2 142.3,408.2 L165.7,408.2 C166.1,408.2 166.5,407.9 166.5,407.4 L166.5,392.1 L141.6,392.1 L141.6,407.4 L141.5,407.4 Z" id="Shape"></path>
                <path d="M185.9,410.1 L174.8,410.1 C174.4,410.1 174,410.4 174,410.9 L174,421.1 C174,421.5 174.3,421.9 174.8,421.9 L185.9,421.9 C186.3,421.9 186.7,421.6 186.7,421.1 L186.7,410.9 C186.6,410.4 186.3,410.1 185.9,410.1 L185.9,410.1 Z" id="Shape"></path>
                <path d="M166.4,370.2 C166.4,369.8 166.1,369.4 165.6,369.4 L142.2,369.4 C141.8,369.4 141.4,369.7 141.4,370.2 L141.4,385.5 L166.3,385.5 L166.3,370.2 L166.4,370.2 Z" id="Shape"></path>
                <path d="M211.8,253.2 L200.7,253.2 C200.3,253.2 199.9,253.5 199.9,254 L199.9,264.2 C199.9,264.6 200.2,265 200.7,265 L211.8,265 C212.2,265 212.6,264.7 212.6,264.2 L212.6,254 C212.5,253.6 212.2,253.2 211.8,253.2 L211.8,253.2 Z" id="Shape"></path>
                <path d="M167.8,211.6 C167.8,212 168.1,212.4 168.6,212.4 L190.9,212.4 C191.3,212.4 191.7,212.1 191.7,211.6 L191.7,196.3 L167.9,196.3 L167.9,211.6 L167.8,211.6 Z" id="Shape"></path>
                <path d="M140.9,211.6 C140.9,212 141.2,212.4 141.7,212.4 L165,212.4 C165.4,212.4 165.8,212.1 165.8,211.6 L165.8,196.3 L140.9,196.3 L140.9,211.6 L140.9,211.6 Z" id="Shape"></path>
                <path d="M193.6,211.6 C193.6,212 193.9,212.4 194.4,212.4 L217.8,212.4 C218.2,212.4 218.6,212.1 218.6,211.6 L218.6,196.3 L193.7,196.3 L193.7,211.6 L193.6,211.6 Z" id="Shape"></path>
                <path d="M191.6,174.4 C191.6,174 191.3,173.6 190.8,173.6 L168.5,173.6 C168.1,173.6 167.7,173.9 167.7,174.4 L167.7,189.7 L191.5,189.7 L191.5,174.4 L191.6,174.4 Z" id="Shape"></path>
                <path d="M193.8,304.9 C193.8,305.3 194.1,305.7 194.6,305.7 L218,305.7 C218.4,305.7 218.8,305.4 218.8,304.9 L218.8,289.6 L193.9,289.6 L193.9,304.9 L193.8,304.9 Z" id="Shape"></path>
                <path d="M158.6,159.8 L147.5,159.8 C147.1,159.8 146.7,160.1 146.7,160.6 L146.7,170.8 C146.7,171.2 147,171.6 147.5,171.6 L158.6,171.6 C159,171.6 159.4,171.3 159.4,170.8 L159.4,160.6 C159.4,160.2 159.1,159.8 158.6,159.8 L158.6,159.8 Z" id="Shape"></path>
                <path d="M185.1,159.8 L174,159.8 C173.6,159.8 173.2,160.1 173.2,160.6 L173.2,170.8 C173.2,171.2 173.5,171.6 174,171.6 L185.1,171.6 C185.5,171.6 185.9,171.3 185.9,170.8 L185.9,160.6 C185.9,160.2 185.5,159.8 185.1,159.8 L185.1,159.8 Z" id="Shape"></path>
                <path d="M158.9,111.6 L147.8,111.6 C147.4,111.6 147,111.9 147,112.4 L147,122.6 C147,123 147.3,123.4 147.8,123.4 L158.9,123.4 C159.3,123.4 159.7,123.1 159.7,122.6 L159.7,112.4 C159.6,112 159.3,111.6 158.9,111.6 L158.9,111.6 Z" id="Shape"></path>
                <path d="M218.5,174.4 C218.5,174 218.2,173.6 217.7,173.6 L194.3,173.6 C193.9,173.6 193.5,173.9 193.5,174.4 L193.5,189.7 L218.4,189.7 L218.4,174.4 L218.5,174.4 Z" id="Shape"></path>
                <path d="M158.8,214.3 L147.7,214.3 C147.3,214.3 146.9,214.6 146.9,215.1 L146.9,225.3 C146.9,225.7 147.2,226.1 147.7,226.1 L158.8,226.1 C159.2,226.1 159.6,225.8 159.6,225.3 L159.6,215 C159.5,214.6 159.2,214.3 158.8,214.3 L158.8,214.3 Z" id="Shape"></path>
                <path d="M165.8,174.4 C165.8,174 165.5,173.6 165,173.6 L141.6,173.6 C141.2,173.6 140.8,173.9 140.8,174.4 L140.8,189.7 L165.7,189.7 L165.7,174.4 L165.8,174.4 Z" id="Shape"></path>
                <path d="M185.3,253.2 L174.2,253.2 C173.8,253.2 173.4,253.5 173.4,254 L173.4,264.2 C173.4,264.6 173.7,265 174.2,265 L185.3,265 C185.7,265 186.1,264.7 186.1,264.2 L186.1,254 C186,253.6 185.7,253.2 185.3,253.2 L185.3,253.2 Z" id="Shape"></path>
                <path d="M158.8,253.2 L147.7,253.2 C147.3,253.2 146.9,253.5 146.9,254 L146.9,264.2 C146.9,264.6 147.2,265 147.7,265 L158.8,265 C159.2,265 159.6,264.7 159.6,264.2 L159.6,254 C159.5,253.6 159.2,253.2 158.8,253.2 L158.8,253.2 Z" id="Shape"></path>
                <path d="M211.8,214.3 L200.7,214.3 C200.3,214.3 199.9,214.6 199.9,215.1 L199.9,225.3 C199.9,225.7 200.2,226.1 200.7,226.1 L211.8,226.1 C212.2,226.1 212.6,225.8 212.6,225.3 L212.6,215 C212.5,214.6 212.2,214.3 211.8,214.3 L211.8,214.3 Z" id="Shape"></path>
                <path d="M185.3,111.6 L174.2,111.6 C173.8,111.6 173.4,111.9 173.4,112.4 L173.4,122.6 C173.4,123 173.7,123.4 174.2,123.4 L185.3,123.4 C185.7,123.4 186.1,123.1 186.1,122.6 L186.1,112.4 C186.1,112 185.8,111.6 185.3,111.6 L185.3,111.6 Z" id="Shape"></path>
                <path d="M185.3,214.3 L174.2,214.3 C173.8,214.3 173.4,214.6 173.4,215.1 L173.4,225.3 C173.4,225.7 173.7,226.1 174.2,226.1 L185.3,226.1 C185.7,226.1 186.1,225.8 186.1,225.3 L186.1,215 C186,214.6 185.7,214.3 185.3,214.3 L185.3,214.3 Z" id="Shape"></path>
                <path d="M564.5,793.7 L559.2,793.7 C558.8,793.7 558.4,794 558.4,794.5 L558.4,801.7 C558.4,802.1 558.7,802.5 559.2,802.5 L564.5,802.5 C564.9,802.5 565.3,802.2 565.3,801.7 L565.3,794.5 C565.2,794 564.9,793.7 564.5,793.7 L564.5,793.7 Z" id="Shape"></path>
                <rect id="Rectangle-path" x="799.1" y="794.1" width="13.4" height="5.7"></rect>
                <rect id="Rectangle-path" x="799.1" y="830.5" width="13.4" height="5.7"></rect>
                <path d="M784.6,877.8 L894.9,877.8 L894.9,849.8 L894.9,842.5 L881,842.5 L880.9,842.5 L867.7,842.5 L867,842.5 L813.2,842.5 L812.5,842.5 L784.6,842.5 L784.6,877.8 Z" id="Shape"></path>
                <rect id="Rectangle-path" x="799.1" y="818.8" width="13.4" height="4.8"></rect>
                <path d="M843.1,806.6 C843.1,804.3 841.3,803.4 838.8,803.4 C837.6,803.4 837,803.5 836.6,803.6 L836.6,809.9 L838.9,809.9 C841.5,809.9 843.1,808.5 843.1,806.6 L843.1,806.6 Z" id="Shape"></path>
                <rect id="Rectangle-path" x="799.1" y="800.5" width="13.4" height="5"></rect>
                <rect id="Rectangle-path" x="799.1" y="806.2" width="13.4" height="5.5"></rect>
                <rect id="Rectangle-path" x="799.1" y="812.4" width="13.4" height="5.7"></rect>
                <rect id="Rectangle-path" x="799.1" y="824.3" width="13.4" height="5.5"></rect>
                <rect id="Rectangle-path" x="867.7" y="794" width="13.2" height="5.4"></rect>
                <rect id="Rectangle-path" x="867.7" y="800.1" width="13.2" height="4.9"></rect>
                <rect id="Rectangle-path" x="867.7" y="805.7" width="13.2" height="5.6"></rect>
                <path d="M838.7,811.8 L836.6,811.8 L836.6,819.3 C837.1,819.4 837.8,819.4 838.7,819.4 C841.3,819.4 843.7,818.4 843.7,815.6 C843.7,812.9 841.4,811.8 838.7,811.8 L838.7,811.8 Z" id="Shape"></path>
                <path d="M866.9,823.2 L866.9,805.7 L866.9,805 L866.9,782 L813.2,782 L813.2,841.8 L866.9,841.8 L866.9,823.9 L866.9,823.2 L866.9,823.2 Z M844.8,819.5 C843.4,820.8 841.2,821.3 838,821.3 C836.2,821.3 834.9,821.2 834.1,821.1 L834.1,801.8 C835.2,801.6 837,801.4 838.7,801.4 C841.2,801.4 842.9,801.8 844.1,802.8 C845.1,803.6 845.7,804.7 845.7,806.3 C845.7,808.2 844.4,809.9 842.4,810.6 L842.4,810.7 C844.3,811.2 846.5,812.7 846.5,815.6 C846.4,817.3 845.7,818.6 844.8,819.5 L844.8,819.5 Z" id="Shape"></path>
                <rect id="Rectangle-path" x="867.7" y="812" width="13.2" height="5.5"></rect>
                <rect id="Rectangle-path" x="867.7" y="787.6" width="13.2" height="5.7"></rect>
                <rect id="Rectangle-path" x="867.7" y="782" width="13.2" height="4.9"></rect>
                <rect id="Rectangle-path" x="785" y="794.1" width="13.4" height="5.7"></rect>
                <rect id="Rectangle-path" x="785" y="788" width="13.4" height="5.4"></rect>
                <path id="Shape" d="M785,787.4 L785.1,787.4 L785,787.2 L785,787.4 Z"></path>
                <rect id="Rectangle-path" x="785" y="800.5" width="13.4" height="5"></rect>
                <path d="M798.4,782.1 L785.9,787.3 L798.4,787.3 L798.4,782.1 Z" id="Shape"></path>
                <rect id="Rectangle-path" x="799.1" y="788" width="13.4" height="5.4"></rect>
                <rect id="Rectangle-path" x="785" y="806.2" width="13.4" height="5.5"></rect>
                <path d="M785,786.9 L796.8,782 L785,782 L785,786.9 Z" id="Shape"></path>
                <path d="M979,816.6 L981.9,816.6 L981.9,695.2 L912.1,695.2 C912.1,701.7 910.3,706.6 906.7,709.9 C903.2,713 899,713.7 896.2,713.9 L896.2,733.2 L901.2,733.2 L901.7,733.2 L901.7,816.6 L979,816.6 L979,816.6 Z" id="Shape"></path>
                <path d="M785,841.8 L812.5,841.8 L812.5,836.9 L799.1,836.9 L799.1,841.7 L798.4,841.7 L798.4,836.9 L785,836.9 L785,841.8 Z" id="Shape"></path>
                <path d="M799.1,787.3 L811.1,787.3 L799.1,782.2 L799.1,787.3 Z" id="Shape"></path>
                <path d="M812.5,782 L800.6,782 L812.5,787.1 L812.5,782 Z" id="Shape"></path>
                <rect id="Rectangle-path" x="785" y="818.8" width="13.4" height="4.8"></rect>
                <rect id="Rectangle-path" x="785" y="830.5" width="13.4" height="5.7"></rect>
                <rect id="Rectangle-path" x="785" y="812.4" width="13.4" height="5.7"></rect>
                <rect id="Rectangle-path" x="785" y="824.3" width="13.4" height="5.5"></rect>
                <rect id="Rectangle-path" x="881.6" y="812" width="12.9" height="5.5"></rect>
                <path d="M426.4,782.8 L421.1,782.8 C420.7,782.8 420.3,783.1 420.3,783.6 L420.3,790.8 C420.3,791.2 420.6,791.6 421.1,791.6 L426.4,791.6 C426.8,791.6 427.2,791.3 427.2,790.8 L427.2,783.6 C427.1,783.2 426.8,782.8 426.4,782.8 L426.4,782.8 Z" id="Shape"></path>
                <path d="M426.4,793.7 L421.1,793.7 C420.7,793.7 420.3,794 420.3,794.5 L420.3,801.7 C420.3,802.1 420.6,802.5 421.1,802.5 L426.4,802.5 C426.8,802.5 427.2,802.2 427.2,801.7 L427.2,794.5 C427.1,794 426.8,793.7 426.4,793.7 L426.4,793.7 Z" id="Shape"></path>
                <path d="M396.1,793.7 L390.8,793.7 C390.4,793.7 390,794 390,794.5 L390,801.7 C390,802.1 390.3,802.5 390.8,802.5 L396.1,802.5 C396.5,802.5 396.9,802.2 396.9,801.7 L396.9,794.5 C396.8,794 396.5,793.7 396.1,793.7 L396.1,793.7 Z" id="Shape"></path>
                <path d="M426.4,772 L421.1,772 C420.7,772 420.3,772.3 420.3,772.8 L420.3,780 C420.3,780.4 420.6,780.8 421.1,780.8 L426.4,780.8 C426.8,780.8 427.2,780.5 427.2,780 L427.2,772.8 C427.1,772.3 426.8,772 426.4,772 L426.4,772 Z" id="Shape"></path>
                <path d="M396.1,782.8 L390.8,782.8 C390.4,782.8 390,783.1 390,783.6 L390,790.8 C390,791.2 390.3,791.6 390.8,791.6 L396.1,791.6 C396.5,791.6 396.9,791.3 396.9,790.8 L396.9,783.6 C396.8,783.2 396.5,782.8 396.1,782.8 L396.1,782.8 Z" id="Shape"></path>
                <path d="M465.8,804.5 L460.5,804.5 C460.1,804.5 459.7,804.8 459.7,805.3 L459.7,812.5 C459.7,812.9 460,813.3 460.5,813.3 L465.8,813.3 C466.2,813.3 466.6,813 466.6,812.5 L466.6,805.3 C466.5,804.9 466.2,804.5 465.8,804.5 L465.8,804.5 Z" id="Shape"></path>
                <path d="M417.8,769.8 L399.9,769.8 C399.5,769.8 399.1,770.1 399.1,770.6 L399.1,813.4 C399.1,813.8 399.4,814.2 399.9,814.2 L417.8,814.2 C418.2,814.2 418.6,813.9 418.6,813.4 L418.6,770.6 C418.5,770.2 418.2,769.8 417.8,769.8 L417.8,769.8 Z" id="Shape"></path>
                <path d="M396.1,772 L390.8,772 C390.4,772 390,772.3 390,772.8 L390,780 C390,780.4 390.3,780.8 390.8,780.8 L396.1,780.8 C396.5,780.8 396.9,780.5 396.9,780 L396.9,772.8 C396.8,772.3 396.5,772 396.1,772 L396.1,772 Z" id="Shape"></path>
                <path d="M426.4,804.5 L421.1,804.5 C420.7,804.5 420.3,804.8 420.3,805.3 L420.3,812.5 C420.3,812.9 420.6,813.3 421.1,813.3 L426.4,813.3 C426.8,813.3 427.2,813 427.2,812.5 L427.2,805.3 C427.1,804.9 426.8,804.5 426.4,804.5 L426.4,804.5 Z" id="Shape"></path>
                <path d="M496.1,804.5 L490.8,804.5 C490.4,804.5 490,804.8 490,805.3 L490,812.5 C490,812.9 490.3,813.3 490.8,813.3 L496.1,813.3 C496.5,813.3 496.9,813 496.9,812.5 L496.9,805.3 C496.8,804.9 496.5,804.5 496.1,804.5 L496.1,804.5 Z" id="Shape"></path>
                <path d="M496.1,793.7 L490.8,793.7 C490.4,793.7 490,794 490,794.5 L490,801.7 C490,802.1 490.3,802.5 490.8,802.5 L496.1,802.5 C496.5,802.5 496.9,802.2 496.9,801.7 L496.9,794.5 C496.8,794 496.5,793.7 496.1,793.7 L496.1,793.7 Z" id="Shape"></path>
                <path d="M465.8,793.7 L460.5,793.7 C460.1,793.7 459.7,794 459.7,794.5 L459.7,801.7 C459.7,802.1 460,802.5 460.5,802.5 L465.8,802.5 C466.2,802.5 466.6,802.2 466.6,801.7 L466.6,794.5 C466.5,794 466.2,793.7 465.8,793.7 L465.8,793.7 Z" id="Shape"></path>
                <path d="M496.1,782.8 L490.8,782.8 C490.4,782.8 490,783.1 490,783.6 L490,790.8 C490,791.2 490.3,791.6 490.8,791.6 L496.1,791.6 C496.5,791.6 496.9,791.3 496.9,790.8 L496.9,783.6 C496.8,783.2 496.5,782.8 496.1,782.8 L496.1,782.8 Z" id="Shape"></path>
                <path d="M465.8,782.8 L460.5,782.8 C460.1,782.8 459.7,783.1 459.7,783.6 L459.7,790.8 C459.7,791.2 460,791.6 460.5,791.6 L465.8,791.6 C466.2,791.6 466.6,791.3 466.6,790.8 L466.6,783.6 C466.5,783.2 466.2,782.8 465.8,782.8 L465.8,782.8 Z" id="Shape"></path>
                <path d="M487.5,769.8 L469.6,769.8 C469.2,769.8 468.8,770.1 468.8,770.6 L468.8,813.4 C468.8,813.8 469.1,814.2 469.6,814.2 L487.5,814.2 C487.9,814.2 488.3,813.9 488.3,813.4 L488.3,770.6 C488.2,770.2 487.9,769.8 487.5,769.8 L487.5,769.8 Z" id="Shape"></path>
                <path d="M465.8,772 L460.5,772 C460.1,772 459.7,772.3 459.7,772.8 L459.7,780 C459.7,780.4 460,780.8 460.5,780.8 L465.8,780.8 C466.2,780.8 466.6,780.5 466.6,780 L466.6,772.8 C466.5,772.3 466.2,772 465.8,772 L465.8,772 Z" id="Shape"></path>
                <path d="M284,504.4 L326.3,504.4 L326.3,478.1 L284,478.1 L284,479.2 L281.5,479.2 L281.5,479.5 L265.8,479.5 C265.8,481 266.3,486.8 270.2,490.8 C272.9,493.6 276.8,495 281.6,495 L281.8,495.8 L284,495.8 L284,504.4 L284,504.4 Z" id="Shape"></path>
                <rect id="Rectangle-path" x="881.6" y="782" width="12.9" height="4.9"></rect>
                <rect id="Rectangle-path" x="881.6" y="787.6" width="12.9" height="5.7"></rect>
                <rect id="Rectangle-path" x="881.6" y="794" width="12.9" height="5.4"></rect>
                <rect id="Rectangle-path" x="881.6" y="800.1" width="12.9" height="4.9"></rect>
                <path d="M867.7,841.9 L879.3,841.9 L867.7,836.9 L867.7,841.9 Z" id="Shape"></path>
                <path d="M880.9,836.5 L868.7,836.5 L880.9,841.7 L880.9,836.5 Z" id="Shape"></path>
                <rect id="Rectangle-path" x="867.7" y="823.9" width="13.2" height="5.7"></rect>
                <rect id="Rectangle-path" x="867.7" y="830.3" width="13.2" height="5.5"></rect>
                <path d="M496.1,772 L490.8,772 C490.4,772 490,772.3 490,772.8 L490,780 C490,780.4 490.3,780.8 490.8,780.8 L496.1,780.8 C496.5,780.8 496.9,780.5 496.9,780 L496.9,772.8 C496.8,772.3 496.5,772 496.1,772 L496.1,772 Z" id="Shape"></path>
                <path d="M894.5,841.8 L894.5,837.1 L882.7,841.8 L894.5,841.8 Z" id="Shape"></path>
                <path d="M881.6,841.5 L894,836.5 L881.6,836.5 L881.6,841.5 Z" id="Shape"></path>
                <rect id="Rectangle-path" x="867.7" y="818.2" width="13.2" height="5"></rect>
                <rect id="Rectangle-path" x="881.6" y="830.3" width="12.9" height="5.5"></rect>
                <rect id="Rectangle-path" x="881.6" y="805.7" width="12.9" height="5.6"></rect>
                <path d="M396.1,804.5 L390.8,804.5 C390.4,804.5 390,804.8 390,805.3 L390,812.5 C390,812.9 390.3,813.3 390.8,813.3 L396.1,813.3 C396.5,813.3 396.9,813 396.9,812.5 L396.9,805.3 C396.8,804.9 396.5,804.5 396.1,804.5 L396.1,804.5 Z" id="Shape"></path>
                <rect id="Rectangle-path" x="881.6" y="818.2" width="12.9" height="5"></rect>
                <rect id="Rectangle-path" x="881.6" y="823.9" width="12.9" height="5.7"></rect>
                <path d="M802.6,498.9 L791.5,498.9 C791.1,498.9 790.7,499.2 790.7,499.7 L790.7,509.9 C790.7,510.3 791,510.7 791.5,510.7 L802.6,510.7 C803,510.7 803.4,510.4 803.4,509.9 L803.4,499.7 C803.4,499.2 803,498.9 802.6,498.9 L802.6,498.9 Z" id="Shape"></path>
                <path d="M934.7,542.2 L945.8,542.2 C946.2,542.2 946.6,541.9 946.6,541.4 L946.6,531.2 C946.6,530.8 946.3,530.4 945.8,530.4 L934.7,530.4 C934.3,530.4 933.9,530.7 933.9,531.2 L933.9,541.4 C933.9,541.8 934.3,542.2 934.7,542.2 L934.7,542.2 Z" id="Shape"></path>
                <path d="M776.1,498.9 L765,498.9 C764.6,498.9 764.2,499.2 764.2,499.7 L764.2,509.9 C764.2,510.3 764.5,510.7 765,510.7 L776.1,510.7 C776.5,510.7 776.9,510.4 776.9,509.9 L776.9,499.7 C776.9,499.2 776.5,498.9 776.1,498.9 L776.1,498.9 Z" id="Shape"></path>
                <path d="M934.8,517.6 L946,517.6 C946.4,517.6 946.8,517.3 946.8,516.8 L946.8,506.6 C946.8,506.2 946.5,505.8 946,505.8 L934.9,505.8 C934.5,505.8 934.1,506.1 934.1,506.6 L934.1,516.8 C934.1,517.2 934.4,517.6 934.8,517.6 L934.8,517.6 Z" id="Shape"></path>
                <path d="M749.6,498.9 L738.5,498.9 C738.1,498.9 737.7,499.2 737.7,499.7 L737.7,509.9 C737.7,510.3 738,510.7 738.5,510.7 L749.6,510.7 C750,510.7 750.4,510.4 750.4,509.9 L750.4,499.7 C750.4,499.2 750.1,498.9 749.6,498.9 L749.6,498.9 Z" id="Shape"></path>
                <path d="M979.2,545 C979.2,544.6 978.9,544.2 978.4,544.2 L955,544.2 C954.6,544.2 954.2,544.5 954.2,545 L954.2,560.3 L979.1,560.3 L979.1,545 L979.2,545 Z" id="Shape"></path>
                <path d="M954.3,582.2 C954.3,582.6 954.6,583 955.1,583 L978.5,583 C978.9,583 979.3,582.7 979.3,582.2 L979.3,566.9 L954.4,566.9 L954.4,582.2 L954.3,582.2 Z" id="Shape"></path>
                <path d="M731.8,496.2 C731.8,496.6 732.1,497 732.6,497 L756,497 C756.4,497 756.8,496.7 756.8,496.2 L756.8,480.9 L731.9,480.9 L731.9,496.2 L731.8,496.2 Z" id="Shape"></path>
                <path d="M961.2,542.2 L972.3,542.2 C972.7,542.2 973.1,541.9 973.1,541.4 L973.1,531.2 C973.1,530.8 972.8,530.4 972.3,530.4 L961.2,530.4 C960.8,530.4 960.4,530.7 960.4,531.2 L960.4,541.4 C960.4,541.8 960.8,542.2 961.2,542.2 L961.2,542.2 Z" id="Shape"></path>
                <path d="M756.6,459 C756.6,458.6 756.3,458.2 755.8,458.2 L732.4,458.2 C732,458.2 731.6,458.5 731.6,459 L731.6,474.3 L756.5,474.3 L756.5,459 L756.6,459 Z" id="Shape"></path>
                <path d="M952.3,465.9 C952.3,465.5 952,465.1 951.5,465.1 L929.2,465.1 C928.8,465.1 928.4,465.4 928.4,465.9 L928.4,481.2 L952.2,481.2 L952.2,465.9 L952.3,465.9 Z" id="Shape"></path>
                <path d="M934.7,463.1 L945.8,463.1 C946.2,463.1 946.6,462.8 946.6,462.3 L946.6,452.1 C946.6,451.7 946.3,451.3 945.8,451.3 L934.7,451.3 C934.3,451.3 933.9,451.6 933.9,452.1 L933.9,462.3 C933.9,462.8 934.3,463.1 934.7,463.1 L934.7,463.1 Z" id="Shape"></path>
                <path d="M979.2,465.9 C979.2,465.5 978.9,465.1 978.4,465.1 L955,465.1 C954.6,465.1 954.2,465.4 954.2,465.9 L954.2,481.2 L979.1,481.2 L979.1,465.9 L979.2,465.9 Z" id="Shape"></path>
                <path d="M867.7,623.5 L867.7,617.1 L859.8,617.1 C859.9,618.2 860.4,619.9 861.7,621.2 C863,622.6 865.1,623.4 867.7,623.5 L867.7,623.5 Z" id="Shape"></path>
                <path d="M791.4,378.9 L802.5,378.9 C802.9,378.9 803.3,378.6 803.3,378.1 L803.3,367.9 C803.3,367.5 803,367.1 802.5,367.1 L791.4,367.1 C791,367.1 790.6,367.4 790.6,367.9 L790.6,378.1 C790.6,378.5 790.9,378.9 791.4,378.9 L791.4,378.9 Z" id="Shape"></path>
                <path d="M981.9,619.5 L912.2,619.5 C912.2,626 910.4,630.9 906.8,634.1 C903.4,637.2 899,637.9 896.3,638.1 L896.3,692.6 L981.9,692.6 L981.9,619.5 L981.9,619.5 Z" id="Shape"></path>
                <path d="M738.4,378.9 L749.5,378.9 C749.9,378.9 750.3,378.6 750.3,378.1 L750.3,367.9 C750.3,367.5 750,367.1 749.5,367.1 L738.4,367.1 C738,367.1 737.6,367.4 737.6,367.9 L737.6,378.1 C737.6,378.5 738,378.9 738.4,378.9 L738.4,378.9 Z" id="Shape"></path>
                <path d="M928.5,582.2 C928.5,582.6 928.8,583 929.3,583 L951.6,583 C952,583 952.4,582.7 952.4,582.2 L952.4,566.9 L928.6,566.9 L928.6,582.2 L928.5,582.2 Z" id="Shape"></path>
                <path d="M961.3,517.6 L972.4,517.6 C972.8,517.6 973.2,517.3 973.2,516.8 L973.2,506.6 C973.2,506.2 972.9,505.8 972.4,505.8 L961.3,505.8 C960.9,505.8 960.5,506.1 960.5,506.6 L960.5,516.8 C960.6,517.2 960.9,517.6 961.3,517.6 L961.3,517.6 Z" id="Shape"></path>
                <path d="M764.9,378.9 L776,378.9 C776.4,378.9 776.8,378.6 776.8,378.1 L776.8,367.9 C776.8,367.5 776.5,367.1 776,367.1 L764.9,367.1 C764.5,367.1 764.1,367.4 764.1,367.9 L764.1,378.1 C764.1,378.5 764.4,378.9 764.9,378.9 L764.9,378.9 Z" id="Shape"></path>
                <path d="M928.5,503.1 C928.5,503.5 928.8,503.9 929.3,503.9 L951.6,503.9 C952,503.9 952.4,503.6 952.4,503.1 L952.4,487.8 L928.6,487.8 L928.6,503.1 L928.5,503.1 Z" id="Shape"></path>
                <path d="M954.3,503.1 C954.3,503.5 954.6,503.9 955.1,503.9 L978.5,503.9 C978.9,503.9 979.3,503.6 979.3,503.1 L979.3,487.8 L954.4,487.8 L954.4,503.1 L954.3,503.1 Z" id="Shape"></path>
                <path d="M764.9,456.2 L776,456.2 C776.4,456.2 776.8,455.9 776.8,455.4 L776.8,445.2 C776.8,444.8 776.5,444.4 776,444.4 L764.9,444.4 C764.5,444.4 764.1,444.7 764.1,445.2 L764.1,455.4 C764.1,455.8 764.4,456.2 764.9,456.2 L764.9,456.2 Z" id="Shape"></path>
                <path d="M784.5,418.9 C784.5,419.3 784.8,419.7 785.3,419.7 L808.7,419.7 C809.1,419.7 809.5,419.4 809.5,418.9 L809.5,403.6 L784.6,403.6 L784.6,418.9 L784.5,418.9 Z" id="Shape"></path>
                <path d="M738.5,433.3 L749.6,433.3 C750,433.3 750.4,433 750.4,432.5 L750.4,422.3 C750.4,421.9 750.1,421.5 749.6,421.5 L738.5,421.5 C738.1,421.5 737.7,421.8 737.7,422.3 L737.7,432.5 C737.8,433 738.1,433.3 738.5,433.3 L738.5,433.3 Z" id="Shape"></path>
                <path d="M809.3,381.7 C809.3,381.3 809,380.9 808.5,380.9 L785.1,380.9 C784.7,380.9 784.3,381.2 784.3,381.7 L784.3,397 L809.2,397 L809.2,381.7 L809.3,381.7 Z" id="Shape"></path>
                <path d="M758.7,418.9 C758.7,419.3 759,419.7 759.5,419.7 L781.8,419.7 C782.2,419.7 782.6,419.4 782.6,418.9 L782.6,403.6 L758.8,403.6 L758.8,418.9 L758.7,418.9 Z" id="Shape"></path>
                <path d="M782.4,459 C782.4,458.6 782.1,458.2 781.6,458.2 L759.3,458.2 C758.9,458.2 758.5,458.5 758.5,459 L758.5,474.3 L782.3,474.3 L782.3,459 L782.4,459 Z" id="Shape"></path>
                <path d="M756.6,381.7 C756.6,381.3 756.3,380.9 755.8,380.9 L732.4,380.9 C732,380.9 731.6,381.2 731.6,381.7 L731.6,397 L756.5,397 L756.5,381.7 L756.6,381.7 Z" id="Shape"></path>
                <path d="M731.8,418.9 C731.8,419.3 732.1,419.7 732.6,419.7 L756,419.7 C756.4,419.7 756.8,419.4 756.8,418.9 L756.8,403.6 L731.9,403.6 L731.9,418.9 L731.8,418.9 Z" id="Shape"></path>
                <path d="M791.4,456.2 L802.5,456.2 C802.9,456.2 803.3,455.9 803.3,455.4 L803.3,445.2 C803.3,444.8 803,444.4 802.5,444.4 L791.4,444.4 C791,444.4 790.6,444.7 790.6,445.2 L790.6,455.4 C790.6,455.8 790.9,456.2 791.4,456.2 L791.4,456.2 Z" id="Shape"></path>
                <path d="M782.4,381.7 C782.4,381.3 782.1,380.9 781.6,380.9 L759.3,380.9 C758.9,380.9 758.5,381.2 758.5,381.7 L758.5,397 L782.3,397 L782.3,381.7 L782.4,381.7 Z" id="Shape"></path>
                <path d="M765,433.3 L776.1,433.3 C776.5,433.3 776.9,433 776.9,432.5 L776.9,422.3 C776.9,421.9 776.6,421.5 776.1,421.5 L765,421.5 C764.6,421.5 764.2,421.8 764.2,422.3 L764.2,432.5 C764.2,433 764.6,433.3 765,433.3 L765,433.3 Z" id="Shape"></path>
                <path d="M758.7,496.2 C758.7,496.6 759,497 759.5,497 L781.8,497 C782.2,497 782.6,496.7 782.6,496.2 L782.6,480.9 L758.8,480.9 L758.8,496.2 L758.7,496.2 Z" id="Shape"></path>
                <path d="M809.3,459 C809.3,458.6 809,458.2 808.5,458.2 L785.1,458.2 C784.7,458.2 784.3,458.5 784.3,459 L784.3,474.3 L809.2,474.3 L809.2,459 L809.3,459 Z" id="Shape"></path>
                <path d="M972.5,584.9 L961.4,584.9 C961,584.9 960.6,585.2 960.6,585.7 L960.6,595.9 C960.6,596.3 960.9,596.7 961.4,596.7 L972.5,596.7 C972.9,596.7 973.3,596.4 973.3,595.9 L973.3,585.7 C973.2,585.2 972.9,584.9 972.5,584.9 L972.5,584.9 Z" id="Shape"></path>
                <path d="M952.3,545 C952.3,544.6 952,544.2 951.5,544.2 L929.2,544.2 C928.8,544.2 928.4,544.5 928.4,545 L928.4,560.3 L952.2,560.3 L952.2,545 L952.3,545 Z" id="Shape"></path>
                <path d="M784.5,496.2 C784.5,496.6 784.8,497 785.3,497 L808.7,497 C809.1,497 809.5,496.7 809.5,496.2 L809.5,480.9 L784.6,480.9 L784.6,496.2 L784.5,496.2 Z" id="Shape"></path>
                <path d="M961.7,22.2 L972.8,22.2 C973.2,22.2 973.6,21.9 973.6,21.4 L973.6,11.2 C973.6,10.8 973.3,10.4 972.8,10.4 L961.7,10.4 C961.3,10.4 960.9,10.7 960.9,11.2 L960.9,21.4 C960.9,21.8 961.3,22.2 961.7,22.2 L961.7,22.2 Z" id="Shape"></path>
                <path d="M935.2,22.2 L946.3,22.2 C946.7,22.2 947.1,21.9 947.1,21.4 L947.1,11.2 C947.1,10.8 946.8,10.4 946.3,10.4 L935.2,10.4 C934.8,10.4 934.4,10.7 934.4,11.2 L934.4,21.4 C934.4,21.8 934.8,22.2 935.2,22.2 L935.2,22.2 Z" id="Shape"></path>
                <path d="M738.4,456.2 L749.5,456.2 C749.9,456.2 750.3,455.9 750.3,455.4 L750.3,445.2 C750.3,444.8 750,444.4 749.5,444.4 L738.4,444.4 C738,444.4 737.6,444.7 737.6,445.2 L737.6,455.4 C737.6,455.8 738,456.2 738.4,456.2 L738.4,456.2 Z" id="Shape"></path>
                <path d="M946,584.9 L934.9,584.9 C934.5,584.9 934.1,585.2 934.1,585.7 L934.1,595.9 C934.1,596.3 934.4,596.7 934.9,596.7 L946,596.7 C946.4,596.7 946.8,596.4 946.8,595.9 L946.8,585.7 C946.7,585.2 946.4,584.9 946,584.9 L946,584.9 Z" id="Shape"></path>
                <path d="M979.7,25 C979.7,24.6 979.4,24.2 978.9,24.2 L955.5,24.2 C955.1,24.2 954.7,24.5 954.7,25 L954.7,40.3 L979.6,40.3 L979.6,25 L979.7,25 Z" id="Shape"></path>
                <path d="M935.2,104.1 L946.3,104.1 C946.7,104.1 947.1,103.8 947.1,103.3 L947.1,93.1 C947.1,92.7 946.8,92.3 946.3,92.3 L935.2,92.3 C934.8,92.3 934.4,92.6 934.4,93.1 L934.4,103.3 C934.4,103.7 934.8,104.1 935.2,104.1 L935.2,104.1 Z" id="Shape"></path>
                <path d="M232.7,441.5 L232.7,460.2 L232.9,460.2 L250.6,460.2 C250.2,444.7 236,441.9 232.7,441.5 L232.7,441.5 Z" id="Shape"></path>
                <path d="M351.6,32.7 L345.3,32.7 L138,32.7 L138,338.2 L138,338.3 L138,344.4 L129,344.4 L129,460.2 L227.1,460.2 L231.1,460.2 L232,460.2 L232,441.4 L232,440.7 L232.7,440.7 L232.7,440.8 C235.9,441.2 249.1,443.7 251.1,457.2 C251.4,456.3 252,455.2 252.8,454.3 C254.4,452.6 256.7,451.8 259.7,451.7 L259.7,451.8 L259.9,451.8 C260,451.8 260.1,451.9 260.1,452 L260.1,460.2 L277.4,460.2 L281.4,460.2 L281.4,436 C276.9,435.8 273.2,434.3 270.5,431.5 C265.3,426.2 265.2,418.4 265.2,418.1 L265.2,417.7 L281.4,418.3 L281.4,411.1 C276.8,411.1 273,409.7 270.2,406.8 C264.9,401.4 265,392.9 265.1,392.5 L265.1,392.1 L281.7,392.1 L281.7,392.8 L265.8,392.8 C265.8,394.5 266.3,401.6 270.7,406.2 C273.3,408.9 276.9,410.2 281.3,410.2 L281.4,411.1 L281.4,410.7 L284,410.7 L284,416.1 L326.3,416.1 L326.3,392.6 L314.6,392.6 L281.8,392.6 L281.8,390 L314.6,390 L314.6,332.6 L327,332.6 L327,278.3 L351.6,278.3 L351.6,32.7 L351.6,32.7 Z M199.3,58 C199.3,57.3 199.9,56.8 200.5,56.8 L211.6,56.8 C212.3,56.8 212.8,57.4 212.8,58 L212.8,68.2 C212.8,68.9 212.2,69.4 211.6,69.4 L200.5,69.4 C199.8,69.4 199.3,68.8 199.3,68.2 L199.3,58 L199.3,58 Z M172.8,58 C172.8,57.3 173.4,56.8 174,56.8 L185.1,56.8 C185.8,56.8 186.3,57.4 186.3,58 L186.3,68.2 C186.3,68.9 185.7,69.4 185.1,69.4 L174,69.4 C173.3,69.4 172.8,68.8 172.8,68.2 L172.8,58 L172.8,58 Z M146.3,58 C146.3,57.3 146.9,56.8 147.5,56.8 L158.6,56.8 C159.3,56.8 159.8,57.4 159.8,58 L159.8,68.2 C159.8,68.9 159.2,69.4 158.6,69.4 L147.5,69.4 C146.8,69.4 146.3,68.8 146.3,68.2 L146.3,58 L146.3,58 Z M139.7,87.1 L140.5,87.1 L140.5,71.7 C140.5,71 141.1,70.5 141.7,70.5 L165.1,70.5 C165.8,70.5 166.3,71.1 166.3,71.7 L166.3,87 L167.3,87 L167.3,71.7 C167.3,71 167.9,70.5 168.5,70.5 L190.8,70.5 C191.5,70.5 192,71.1 192,71.7 L192,87 L193,87 L193,71.7 C193,71 193.6,70.5 194.2,70.5 L217.6,70.5 C218.3,70.5 218.8,71.1 218.8,71.7 L218.8,87 L219.5,87 L219.5,93.6 L218.8,93.6 L218.8,108.9 C218.8,109.6 218.2,110.1 217.6,110.1 L194.2,110.1 C193.5,110.1 193,109.5 193,108.9 L193,93.6 L192,93.6 L192,108.9 C192,109.6 191.4,110.1 190.8,110.1 L168.5,110.1 C167.8,110.1 167.3,109.5 167.3,108.9 L167.3,93.6 L166.3,93.6 L166.3,108.9 C166.3,109.6 165.7,110.1 165.1,110.1 L141.7,110.1 C141,110.1 140.5,109.5 140.5,108.9 L140.5,93.6 L139.7,93.6 L139.7,87.1 L139.7,87.1 Z M211.8,123.9 L200.7,123.9 C200,123.9 199.5,123.3 199.5,122.7 L199.5,112.5 C199.5,111.8 200.1,111.3 200.7,111.3 L211.8,111.3 C212.5,111.3 213,111.9 213,112.5 L213,122.7 C213.1,123.3 212.5,123.9 211.8,123.9 L211.8,123.9 Z M212.9,160.6 L212.9,170.8 C212.9,171.5 212.3,172 211.7,172 L200.6,172 C199.9,172 199.4,171.4 199.4,170.8 L199.4,160.6 C199.4,159.9 200,159.4 200.6,159.4 L211.7,159.4 C212.3,159.3 212.9,159.9 212.9,160.6 L212.9,160.6 Z M185.3,123.9 L174.2,123.9 C173.5,123.9 173,123.3 173,122.7 L173,112.5 C173,111.8 173.6,111.3 174.2,111.3 L185.3,111.3 C186,111.3 186.5,111.9 186.5,112.5 L186.5,122.7 C186.6,123.3 186,123.9 185.3,123.9 L185.3,123.9 Z M186.4,160.6 L186.4,170.8 C186.4,171.5 185.8,172 185.2,172 L174,172 C173.3,172 172.8,171.4 172.8,170.8 L172.8,160.6 C172.8,159.9 173.4,159.4 174,159.4 L185.1,159.4 C185.8,159.3 186.4,159.9 186.4,160.6 L186.4,160.6 Z M158.9,123.9 L147.8,123.9 C147.1,123.9 146.6,123.3 146.6,122.7 L146.6,112.5 C146.6,111.8 147.2,111.3 147.8,111.3 L158.9,111.3 C159.6,111.3 160.1,111.9 160.1,112.5 L160.1,122.7 C160.1,123.3 159.5,123.9 158.9,123.9 L158.9,123.9 Z M159.9,160.6 L159.9,170.8 C159.9,171.5 159.3,172 158.7,172 L147.6,172 C146.9,172 146.4,171.4 146.4,170.8 L146.4,160.6 C146.4,159.9 147,159.4 147.6,159.4 L158.7,159.4 C159.3,159.3 159.9,159.9 159.9,160.6 L159.9,160.6 Z M139.6,189.7 L140.4,189.7 L140.4,174.4 C140.4,173.7 141,173.2 141.6,173.2 L165,173.2 C165.7,173.2 166.2,173.8 166.2,174.4 L166.2,189.7 L167.2,189.7 L167.2,174.4 C167.2,173.7 167.8,173.2 168.4,173.2 L190.7,173.2 C191.4,173.2 191.9,173.8 191.9,174.4 L191.9,189.7 L192.9,189.7 L192.9,174.4 C192.9,173.7 193.5,173.2 194.1,173.2 L217.5,173.2 C218.2,173.2 218.7,173.8 218.7,174.4 L218.7,189.7 L219.4,189.7 L219.4,196.3 L219,196.3 L219,211.6 C219,212.3 218.4,212.8 217.8,212.8 L194.4,212.8 C193.7,212.8 193.2,212.2 193.2,211.6 L193.2,196.3 L192.2,196.3 L192.2,211.6 C192.2,212.3 191.6,212.8 191,212.8 L168.7,212.8 C168,212.8 167.5,212.2 167.5,211.6 L167.5,196.3 L166.5,196.3 L166.5,211.6 C166.5,212.3 165.9,212.8 165.3,212.8 L141.9,212.8 C141.2,212.8 140.7,212.2 140.7,211.6 L140.7,196.3 L139.9,196.3 L139.9,189.7 L139.6,189.7 Z M211.8,226.5 L200.7,226.5 C200,226.5 199.5,225.9 199.5,225.3 L199.5,215 C199.5,214.3 200.1,213.8 200.7,213.8 L211.8,213.8 C212.5,213.8 213,214.4 213,215 L213,225.2 C213,225.9 212.5,226.5 211.8,226.5 L211.8,226.5 Z M213,254 L213,264.2 C213,264.9 212.4,265.4 211.8,265.4 L200.7,265.4 C200,265.4 199.5,264.8 199.5,264.2 L199.5,254 C199.5,253.3 200.1,252.8 200.7,252.8 L211.8,252.8 C212.5,252.7 213,253.3 213,254 L213,254 Z M185.3,226.5 L174.2,226.5 C173.5,226.5 173,225.9 173,225.3 L173,215 C173,214.3 173.6,213.8 174.2,213.8 L185.3,213.8 C186,213.8 186.5,214.4 186.5,215 L186.5,225.2 C186.5,225.9 186,226.5 185.3,226.5 L185.3,226.5 Z M186.5,254 L186.5,264.2 C186.5,264.9 185.9,265.4 185.3,265.4 L174.2,265.4 C173.5,265.4 173,264.8 173,264.2 L173,254 C173,253.3 173.6,252.8 174.2,252.8 L185.3,252.8 C186,252.7 186.5,253.3 186.5,254 L186.5,254 Z M158.8,226.5 L147.7,226.5 C147,226.5 146.5,225.9 146.5,225.3 L146.5,215 C146.5,214.3 147.1,213.8 147.7,213.8 L158.8,213.8 C159.5,213.8 160,214.4 160,215 L160,225.2 C160,225.9 159.5,226.5 158.8,226.5 L158.8,226.5 Z M160,254 L160,264.2 C160,264.9 159.4,265.4 158.8,265.4 L147.7,265.4 C147,265.4 146.5,264.8 146.5,264.2 L146.5,254 C146.5,253.3 147.1,252.8 147.7,252.8 L158.8,252.8 C159.5,252.7 160,253.3 160,254 L160,254 Z M139.7,283.1 L140.5,283.1 L140.5,267.8 C140.5,267.1 141.1,266.6 141.7,266.6 L165.1,266.6 C165.8,266.6 166.3,267.2 166.3,267.8 L166.3,283.1 L167.3,283.1 L167.3,267.8 C167.3,267.1 167.9,266.6 168.5,266.6 L191,266.6 C191.7,266.6 192.2,267.2 192.2,267.8 L192.2,283.1 L193.2,283.1 L193.2,267.8 C193.2,267.1 193.8,266.6 194.4,266.6 L217.8,266.6 C218.5,266.6 219,267.2 219,267.8 L219,283.1 L219.7,283.1 L219.7,289.7 L219,289.7 L219,305 C219,305.7 218.4,306.2 217.8,306.2 L194.4,306.2 C193.7,306.2 193.2,305.6 193.2,305 L193.2,289.7 L192.2,289.7 L192.2,305 C192.2,305.7 191.6,306.2 191,306.2 L168.7,306.2 C168,306.2 167.5,305.6 167.5,305 L167.5,289.7 L166.5,289.7 L166.5,305 C166.5,305.7 165.9,306.2 165.3,306.2 L141.9,306.2 C141.2,306.2 140.7,305.6 140.7,305 L140.7,289.7 L139.9,289.7 L139.9,283.1 L139.7,283.1 Z M213.1,308.4 L213.1,318.6 C213.1,319.3 212.5,319.8 211.9,319.8 L200.8,319.8 C200.1,319.8 199.6,319.2 199.6,318.6 L199.6,308.4 C199.6,307.7 200.2,307.2 200.8,307.2 L211.9,307.2 C212.6,307.2 213.1,307.7 213.1,308.4 L213.1,308.4 Z M186.7,308.4 L186.7,318.6 C186.7,319.3 186.1,319.8 185.5,319.8 L174.4,319.8 C173.7,319.8 173.2,319.2 173.2,318.6 L173.2,308.4 C173.2,307.7 173.8,307.2 174.4,307.2 L185.5,307.2 C186.1,307.2 186.7,307.7 186.7,308.4 L186.7,308.4 Z M160.2,308.4 L160.2,318.6 C160.2,319.3 159.6,319.8 159,319.8 L147.9,319.8 C147.2,319.8 146.7,319.2 146.7,318.6 L146.7,308.4 C146.7,307.7 147.3,307.2 147.9,307.2 L159,307.2 C159.6,307.2 160.2,307.7 160.2,308.4 L160.2,308.4 Z M160.6,421.1 C160.6,421.8 160,422.3 159.4,422.3 L148.3,422.3 C147.6,422.3 147.1,421.7 147.1,421.1 L147.1,410.9 C147.1,410.2 147.7,409.7 148.3,409.7 L159.4,409.7 C160.1,409.7 160.6,410.3 160.6,410.9 L160.6,421.1 L160.6,421.1 Z M187.1,421.1 C187.1,421.8 186.5,422.3 185.9,422.3 L174.8,422.3 C174.1,422.3 173.6,421.7 173.6,421.1 L173.6,410.9 C173.6,410.2 174.2,409.7 174.8,409.7 L185.9,409.7 C186.6,409.7 187.1,410.3 187.1,410.9 L187.1,421.1 L187.1,421.1 Z M213.6,421.1 C213.6,421.8 213,422.3 212.4,422.3 L201.3,422.3 C200.6,422.3 200.1,421.7 200.1,421.1 L200.1,410.9 C200.1,410.2 200.7,409.7 201.3,409.7 L212.4,409.7 C213.1,409.7 213.6,410.3 213.6,410.9 L213.6,421.1 L213.6,421.1 Z M220.3,392.1 L219.6,392.1 L219.6,407.4 C219.6,408.1 219,408.6 218.4,408.6 L195,408.6 C194.3,408.6 193.8,408 193.8,407.4 L193.8,392.1 L192.8,392.1 L192.8,407.4 C192.8,408.1 192.2,408.6 191.6,408.6 L169.3,408.6 C168.6,408.6 168.1,408 168.1,407.4 L168.1,392.1 L167.1,392.1 L167.1,407.4 C167.1,408.1 166.5,408.6 165.9,408.6 L142.5,408.6 C141.8,408.6 141.3,408 141.3,407.4 L141.3,392.1 L140.5,392.1 L140.5,385.5 L141.3,385.5 L141.3,370.2 C141.3,369.5 141.9,369 142.5,369 L165.9,369 C166.6,369 167.1,369.6 167.1,370.2 L167.1,385.5 L168.1,385.5 L168.1,370.2 C168.1,369.5 168.7,369 169.3,369 L191.6,369 C192.3,369 192.8,369.6 192.8,370.2 L192.8,385.5 L193.8,385.5 L193.8,370.2 C193.8,369.5 194.4,369 195,369 L218.4,369 C219.1,369 219.6,369.6 219.6,370.2 L219.6,385.5 L220.3,385.5 L220.3,392.1 L220.3,392.1 Z M146.9,366.6 L146.9,356.4 C146.9,355.7 147.5,355.2 148.1,355.2 L159.2,355.2 C159.9,355.2 160.4,355.8 160.4,356.4 L160.4,366.6 C160.4,367.3 159.8,367.8 159.2,367.8 L148.1,367.8 C147.4,367.9 146.9,367.3 146.9,366.6 L146.9,366.6 Z M173.4,366.6 L173.4,356.4 C173.4,355.7 174,355.2 174.6,355.2 L185.7,355.2 C186.4,355.2 186.9,355.8 186.9,356.4 L186.9,366.6 C186.9,367.3 186.3,367.8 185.7,367.8 L174.6,367.8 C173.9,367.9 173.4,367.3 173.4,366.6 L173.4,366.6 Z M199.9,366.6 L199.9,356.4 C199.9,355.7 200.5,355.2 201.1,355.2 L212.2,355.2 C212.9,355.2 213.4,355.8 213.4,356.4 L213.4,366.6 C213.4,367.3 212.8,367.8 212.2,367.8 L201.1,367.8 C200.4,367.9 199.9,367.3 199.9,366.6 L199.9,366.6 Z M225.7,342.9 L142.6,342.9 L142.6,337.2 L225.7,337.2 L225.7,342.9 L225.7,342.9 Z M262.8,72.8 L277.8,72.8 L277.8,125.3 L262.8,125.3 L262.8,72.8 L262.8,72.8 Z M277.9,231.9 L262.9,231.9 L262.9,179.4 L277.9,179.4 L277.9,231.9 L277.9,231.9 Z" id="Shape"></path>
                <path d="M251.3,460.1 L250.6,460.2 L259.5,460.2 L259.5,452.4 C256.8,452.4 254.8,453.2 253.3,454.7 C251.3,456.8 251.3,459.6 251.3,460.1 C251.3,460 251.3,460 251.3,460.1 L251.3,460.1 Z" id="Shape"></path>
                <path d="M935.3,76.6 L946.4,76.6 C946.8,76.6 947.2,76.3 947.2,75.8 L947.2,65.7 C947.2,65.3 946.9,64.9 946.4,64.9 L935.3,64.9 C934.9,64.9 934.5,65.2 934.5,65.7 L934.5,75.9 C934.6,76.3 934.9,76.6 935.3,76.6 L935.3,76.6 Z" id="Shape"></path>
                <path d="M979.7,106.9 C979.7,106.5 979.4,106.1 978.9,106.1 L955.5,106.1 C955.1,106.1 954.7,106.4 954.7,106.9 L954.7,122.2 L979.6,122.2 L979.6,106.9 L979.7,106.9 Z" id="Shape"></path>
                <path d="M249.1,531.8 L232.6,531.8 L232.6,551 C238.9,550.1 243.6,546.9 246.4,541.4 C248.6,537.3 249,533.1 249.1,531.8 L249.1,531.8 Z" id="Shape"></path>
                <path d="M954.8,144.1 C954.8,144.5 955.1,144.9 955.6,144.9 L979,144.9 C979.4,144.9 979.8,144.6 979.8,144.1 L979.8,128.8 L954.9,128.8 L954.9,144.1 L954.8,144.1 Z" id="Shape"></path>
                <path d="M961.7,104.1 L972.8,104.1 C973.2,104.1 973.6,103.8 973.6,103.3 L973.6,93.1 C973.6,92.7 973.3,92.3 972.8,92.3 L961.7,92.3 C961.3,92.3 960.9,92.6 960.9,93.1 L960.9,103.3 C960.9,103.7 961.3,104.1 961.7,104.1 L961.7,104.1 Z" id="Shape"></path>
                <path d="M140.6,485.3 C137.9,482.2 134,480.4 129,479.9 L129,499.3 L144.5,499.3 C144.7,497.7 145.1,490.5 140.6,485.3 L140.6,485.3 Z" id="Shape"></path>
                <path d="M929,62.2 C929,62.6 929.3,63 929.8,63 L952,63 C952.4,63 952.8,62.7 952.8,62.2 L952.8,46.9 L929,46.9 L929,62.2 L929,62.2 Z" id="Shape"></path>
                <path d="M185.7,367.4 C186.1,367.4 186.5,367.1 186.5,366.6 L186.5,356.4 C186.5,356 186.2,355.6 185.7,355.6 L174.6,355.6 C174.2,355.6 173.8,355.9 173.8,356.4 L173.8,366.6 C173.8,367 174.1,367.4 174.6,367.4 L185.7,367.4 L185.7,367.4 Z" id="Shape"></path>
                <path d="M981.9,338.6 L981.9,0 L909.9,0 L909.9,79.5 L855.3,79.5 L855.3,0 L770,0 L770,0.7 L770.1,0.7 L770.1,188.8 L770.2,188.8 L770.2,197.5 L853.7,197.5 L853.7,193.2 L853.7,138.1 L913,138.1 L913,193.2 L913,226 L913,295.3 L912.9,295.4 L912.9,356.6 L912.9,365.4 L895.2,365.4 L844.9,365.4 L844.9,356.6 L895.2,356.6 L895.2,303.4 L842,303.4 L842,327.3 L841.5,327.3 C841.2,327.3 816.9,326.5 814.4,303 L799.2,303 L731.5,303 L712.9,303 L712.9,347.5 L721.7,347.5 L729.2,347.5 L729.2,351 L793,351 L793,353.6 L729.2,353.6 L729.2,356.6 L729.2,529.4 L749.4,529.4 L754.4,529.4 L809.7,529.4 L809.7,530.1 L809.7,532 L809.7,533.9 L808.9,533.9 L808.9,547.8 L809.8,547.8 L809.8,570.4 L808.9,570.4 L808.9,584.5 L809.8,584.5 L809.8,615.6 L809.9,615.6 L815.7,615.6 L893.7,615.6 L897.1,615.6 L981.9,615.6 L981.9,338.6 L981.9,338.6 Z M790.1,367.9 C790.1,367.2 790.7,366.7 791.3,366.7 L802.4,366.7 C803.1,366.7 803.6,367.3 803.6,367.9 L803.6,378.1 C803.6,378.8 803,379.3 802.4,379.3 L791.3,379.3 C790.6,379.3 790.1,378.7 790.1,378.1 L790.1,367.9 L790.1,367.9 Z M763.6,367.9 C763.6,367.2 764.2,366.7 764.8,366.7 L776,366.7 C776.7,366.7 777.2,367.3 777.2,367.9 L777.2,378.1 C777.2,378.8 776.6,379.3 776,379.3 L764.9,379.3 C764.2,379.3 763.7,378.7 763.7,378.1 L763.7,367.9 L763.6,367.9 Z M737.1,367.9 C737.1,367.2 737.7,366.7 738.3,366.7 L749.4,366.7 C750.1,366.7 750.6,367.3 750.6,367.9 L750.6,378.1 C750.6,378.8 750,379.3 749.4,379.3 L738.3,379.3 C737.6,379.3 737.1,378.7 737.1,378.1 L737.1,367.9 L737.1,367.9 Z M750.9,509.9 C750.9,510.6 750.3,511.1 749.7,511.1 L738.6,511.1 C737.9,511.1 737.4,510.5 737.4,509.9 L737.4,499.7 C737.4,499 738,498.5 738.6,498.5 L749.7,498.5 C750.4,498.5 750.9,499.1 750.9,499.7 L750.9,509.9 L750.9,509.9 Z M777.4,509.9 C777.4,510.6 776.8,511.1 776.2,511.1 L765,511.1 C764.3,511.1 763.8,510.5 763.8,509.9 L763.8,499.7 C763.8,499 764.4,498.5 765,498.5 L776.1,498.5 C776.8,498.5 777.3,499.1 777.3,499.7 L777.3,509.9 L777.4,509.9 Z M803.9,509.9 C803.9,510.6 803.3,511.1 802.7,511.1 L791.6,511.1 C790.9,511.1 790.4,510.5 790.4,509.9 L790.4,499.7 C790.4,499 791,498.5 791.6,498.5 L802.7,498.5 C803.4,498.5 803.9,499.1 803.9,499.7 L803.9,509.9 L803.9,509.9 Z M810.6,480.9 L809.9,480.9 L809.9,496.2 C809.9,496.9 809.3,497.4 808.7,497.4 L785.3,497.4 C784.6,497.4 784.1,496.8 784.1,496.2 L784.1,480.9 L783.1,480.9 L783.1,496.2 C783.1,496.9 782.5,497.4 781.9,497.4 L759.6,497.4 C758.9,497.4 758.4,496.8 758.4,496.2 L758.4,480.9 L757.4,480.9 L757.4,496.2 C757.4,496.9 756.8,497.4 756.2,497.4 L732.8,497.4 C732.1,497.4 731.6,496.8 731.6,496.2 L731.6,480.9 L730.8,480.9 L730.8,474.3 L731.6,474.3 L731.6,459 C731.6,458.3 732.2,457.8 732.8,457.8 L756.2,457.8 C756.9,457.8 757.4,458.4 757.4,459 L757.4,474.3 L758.4,474.3 L758.4,459 C758.4,458.3 759,457.8 759.6,457.8 L781.9,457.8 C782.6,457.8 783.1,458.4 783.1,459 L783.1,474.3 L784.1,474.3 L784.1,459 C784.1,458.3 784.7,457.8 785.3,457.8 L808.7,457.8 C809.4,457.8 809.9,458.4 809.9,459 L809.9,474.3 L810.6,474.3 L810.6,480.9 L810.6,480.9 Z M738.4,444 L749.5,444 C750.2,444 750.7,444.6 750.7,445.2 L750.7,455.4 C750.7,456.1 750.1,456.6 749.5,456.6 L738.4,456.6 C737.7,456.6 737.2,456 737.2,455.4 L737.2,445.2 C737.1,444.5 737.7,444 738.4,444 L738.4,444 Z M737.3,432.5 L737.3,422.3 C737.3,421.6 737.9,421.1 738.5,421.1 L749.6,421.1 C750.3,421.1 750.8,421.7 750.8,422.3 L750.8,432.5 C750.8,433.2 750.2,433.7 749.6,433.7 L738.5,433.7 C737.8,433.8 737.3,433.2 737.3,432.5 L737.3,432.5 Z M764.9,444 L776,444 C776.7,444 777.2,444.6 777.2,445.2 L777.2,455.4 C777.2,456.1 776.6,456.6 776,456.6 L764.9,456.6 C764.2,456.6 763.7,456 763.7,455.4 L763.7,445.2 C763.6,444.5 764.2,444 764.9,444 L764.9,444 Z M763.7,432.5 L763.7,422.3 C763.7,421.6 764.3,421.1 764.9,421.1 L776,421.1 C776.7,421.1 777.2,421.7 777.2,422.3 L777.2,432.5 C777.2,433.2 776.6,433.7 776,433.7 L765,433.7 C764.3,433.8 763.7,433.2 763.7,432.5 L763.7,432.5 Z M791.4,444 L802.5,444 C803.2,444 803.7,444.6 803.7,445.2 L803.7,455.4 C803.7,456.1 803.1,456.6 802.5,456.6 L791.4,456.6 C790.7,456.6 790.2,456 790.2,455.4 L790.2,445.2 C790.1,444.5 790.7,444 791.4,444 L791.4,444 Z M790.2,432.5 L790.2,422.3 C790.2,421.6 790.8,421.1 791.4,421.1 L802.5,421.1 C803.2,421.1 803.7,421.7 803.7,422.3 L803.7,432.5 C803.7,433.2 803.1,433.7 802.5,433.7 L791.4,433.7 C790.8,433.8 790.2,433.2 790.2,432.5 L790.2,432.5 Z M810.6,403.5 L809.9,403.5 L809.9,418.8 C809.9,419.5 809.3,420 808.7,420 L785.3,420 C784.6,420 784.1,419.4 784.1,418.8 L784.1,403.5 L783.1,403.5 L783.1,418.8 C783.1,419.5 782.5,420 781.9,420 L759.6,420 C758.9,420 758.4,419.4 758.4,418.8 L758.4,403.5 L757.4,403.5 L757.4,418.8 C757.4,419.5 756.8,420 756.2,420 L732.8,420 C732.1,420 731.6,419.4 731.6,418.8 L731.6,403.5 L730.8,403.5 L730.8,397 L731.6,397 L731.6,381.7 C731.6,381 732.2,380.5 732.8,380.5 L756.2,380.5 C756.9,380.5 757.4,381.1 757.4,381.7 L757.4,397 L758.4,397 L758.4,381.7 C758.4,381 759,380.5 759.6,380.5 L781.9,380.5 C782.6,380.5 783.1,381.1 783.1,381.7 L783.1,397 L784.1,397 L784.1,381.7 C784.1,381 784.7,380.5 785.3,380.5 L808.7,380.5 C809.4,380.5 809.9,381.1 809.9,381.7 L809.9,397 L810.6,397 L810.6,403.5 L810.6,403.5 Z M850.7,453.8 L897.1,453.8 L897.1,456.5 L850.7,456.5 L850.7,453.8 L850.7,453.8 Z M904.6,532 L861.8,532 L861.8,584.5 L839.9,584.5 L839.9,532 L839.9,529.4 L861.8,529.4 L904.6,529.4 L904.6,532 L904.6,532 Z M960.4,11.2 C960.4,10.5 961,10 961.6,10 L972.7,10 C973.4,10 973.9,10.6 973.9,11.2 L973.9,21.4 C973.9,22.1 973.3,22.6 972.7,22.6 L961.6,22.6 C960.9,22.6 960.4,22 960.4,21.4 L960.4,11.2 L960.4,11.2 Z M933.9,11.2 C933.9,10.5 934.5,10 935.1,10 L946.2,10 C946.9,10 947.4,10.6 947.4,11.2 L947.4,21.4 C947.4,22.1 946.8,22.6 946.2,22.6 L935.1,22.6 C934.4,22.6 933.9,22 933.9,21.4 L933.9,11.2 L933.9,11.2 Z M947.2,595.9 C947.2,596.6 946.6,597.1 946,597.1 L934.9,597.1 C934.2,597.1 933.7,596.5 933.7,595.9 L933.7,585.7 C933.7,585 934.3,584.5 934.9,584.5 L946,584.5 C946.7,584.5 947.2,585.1 947.2,585.7 L947.2,595.9 L947.2,595.9 Z M973.7,595.9 C973.7,596.6 973.1,597.1 972.5,597.1 L961.4,597.1 C960.7,597.1 960.2,596.5 960.2,595.9 L960.2,585.7 C960.2,585 960.8,584.5 961.4,584.5 L972.5,584.5 C973.2,584.5 973.7,585.1 973.7,585.7 L973.7,595.9 L973.7,595.9 Z M980.4,566.9 L979.7,566.9 L979.7,582.2 C979.7,582.9 979.1,583.4 978.5,583.4 L955.1,583.4 C954.4,583.4 953.9,582.8 953.9,582.2 L953.9,566.9 L952.9,566.9 L952.9,582.2 C952.9,582.9 952.3,583.4 951.7,583.4 L929.4,583.4 C928.7,583.4 928.2,582.8 928.2,582.2 L928.2,566.9 L927.3,566.9 L927.3,560.3 L928.2,560.3 L928.2,545 C928.2,544.3 928.8,543.8 929.4,543.8 L951.7,543.8 C952.4,543.8 952.9,544.4 952.9,545 L952.9,560.3 L953.9,560.3 L953.9,545 C953.9,544.3 954.5,543.8 955.1,543.8 L978.5,543.8 C979.2,543.8 979.7,544.4 979.7,545 L979.7,560.3 L980.4,560.3 L980.4,566.9 L980.4,566.9 Z M934.7,530 L945.8,530 C946.5,530 947,530.6 947,531.2 L947,541.4 C947,542.1 946.4,542.6 945.8,542.6 L934.7,542.6 C934,542.6 933.5,542 933.5,541.4 L933.5,531.2 C933.4,530.5 934,530 934.7,530 L934.7,530 Z M933.6,516.8 L933.6,506.6 C933.6,505.9 934.2,505.4 934.8,505.4 L946,505.4 C946.7,505.4 947.2,506 947.2,506.6 L947.2,516.8 C947.2,517.5 946.6,518 946,518 L934.9,518 C934.1,518.1 933.6,517.5 933.6,516.8 L933.6,516.8 Z M961.2,530 L972.3,530 C973,530 973.5,530.6 973.5,531.2 L973.5,541.4 C973.5,542.1 972.9,542.6 972.3,542.6 L961.2,542.6 C960.5,542.6 960,542 960,541.4 L960,531.2 C959.9,530.5 960.5,530 961.2,530 L961.2,530 Z M960.1,516.8 L960.1,506.6 C960.1,505.9 960.7,505.4 961.3,505.4 L972.4,505.4 C973.1,505.4 973.6,506 973.6,506.6 L973.6,516.8 C973.6,517.5 973,518 972.4,518 L961.3,518 C960.6,518.1 960.1,517.5 960.1,516.8 L960.1,516.8 Z M980.4,487.8 L979.7,487.8 L979.7,503.1 C979.7,503.8 979.1,504.3 978.5,504.3 L955.1,504.3 C954.4,504.3 953.9,503.7 953.9,503.1 L953.9,487.8 L952.9,487.8 L952.9,503.1 C952.9,503.8 952.3,504.3 951.7,504.3 L929.4,504.3 C928.7,504.3 928.2,503.7 928.2,503.1 L928.2,487.8 L927.3,487.8 L927.3,481.2 L928.2,481.2 L928.2,465.9 C928.2,465.2 928.8,464.7 929.4,464.7 L951.7,464.7 C952.4,464.7 952.9,465.3 952.9,465.9 L952.9,481.2 L953.9,481.2 L953.9,465.9 C953.9,465.2 954.5,464.7 955.1,464.7 L978.5,464.7 C979.2,464.7 979.7,465.3 979.7,465.9 L979.7,481.2 L980.4,481.2 L980.4,487.8 L980.4,487.8 Z M934.7,450.9 L945.8,450.9 C946.5,450.9 947,451.5 947,452.1 L947,462.3 C947,463 946.4,463.5 945.8,463.5 L934.7,463.5 C934,463.5 933.5,462.9 933.5,462.3 L933.5,452.1 C933.4,451.5 934,450.9 934.7,450.9 L934.7,450.9 Z M933.6,438.7 L933.6,428.5 C933.6,427.8 934.2,427.3 934.8,427.3 L946,427.3 C946.7,427.3 947.2,427.9 947.2,428.5 L947.2,438.7 C947.2,439.4 946.6,439.9 946,439.9 L934.9,439.9 C934.1,439.9 933.6,439.3 933.6,438.7 L933.6,438.7 Z M961.2,450.9 L972.3,450.9 C973,450.9 973.5,451.5 973.5,452.1 L973.5,462.3 C973.5,463 972.9,463.5 972.3,463.5 L961.2,463.5 C960.5,463.5 960,462.9 960,462.3 L960,452.1 C959.9,451.5 960.5,450.9 961.2,450.9 L961.2,450.9 Z M960.1,438.7 L960.1,428.5 C960.1,427.8 960.7,427.3 961.3,427.3 L972.4,427.3 C973.1,427.3 973.6,427.9 973.6,428.5 L973.6,438.7 C973.6,439.4 973,439.9 972.4,439.9 L961.3,439.9 C960.6,439.9 960.1,439.3 960.1,438.7 L960.1,438.7 Z M980.4,409.7 L979.7,409.7 L979.7,425 C979.7,425.7 979.1,426.2 978.5,426.2 L955.1,426.2 C954.4,426.2 953.9,425.6 953.9,425 L953.9,409.7 L952.9,409.7 L952.9,425 C952.9,425.7 952.3,426.2 951.7,426.2 L929.4,426.2 C928.7,426.2 928.2,425.6 928.2,425 L928.2,409.7 L927.3,409.7 L927.3,403.1 L928.2,403.1 L928.2,387.8 C928.2,387.1 928.8,386.6 929.4,386.6 L951.7,386.6 C952.4,386.6 952.9,387.2 952.9,387.8 L952.9,403.1 L953.9,403.1 L953.9,387.8 C953.9,387.1 954.5,386.6 955.1,386.6 L978.5,386.6 C979.2,386.6 979.7,387.2 979.7,387.8 L979.7,403.1 L980.4,403.1 L980.4,409.7 L980.4,409.7 Z M934.7,372.7 L945.8,372.7 C946.5,372.7 947,373.3 947,373.9 L947,384.1 C947,384.8 946.4,385.3 945.8,385.3 L934.7,385.3 C934,385.3 933.5,384.7 933.5,384.1 L933.5,374 C933.4,373.3 934,372.7 934.7,372.7 L934.7,372.7 Z M934.1,157.8 L934.1,147.6 C934.1,146.9 934.7,146.4 935.3,146.4 L946.4,146.4 C947.1,146.4 947.6,147 947.6,147.6 L947.6,157.8 C947.6,158.5 947,159 946.4,159 L935.3,159 C934.6,159 934.1,158.5 934.1,157.8 L934.1,157.8 Z M961.2,372.7 L972.3,372.7 C973,372.7 973.5,373.3 973.5,373.9 L973.5,384.1 C973.5,384.8 972.9,385.3 972.3,385.3 L961.2,385.3 C960.5,385.3 960,384.7 960,384.1 L960,374 C959.9,373.3 960.5,372.7 961.2,372.7 L961.2,372.7 Z M960.6,157.8 L960.6,147.6 C960.6,146.9 961.2,146.4 961.8,146.4 L972.9,146.4 C973.6,146.4 974.1,147 974.1,147.6 L974.1,157.8 C974.1,158.5 973.5,159 972.9,159 L961.8,159 C961.1,159 960.6,158.5 960.6,157.8 L960.6,157.8 Z M980.9,128.8 L980.2,128.8 L980.2,144.1 C980.2,144.8 979.6,145.3 979,145.3 L955.6,145.3 C954.9,145.3 954.4,144.7 954.4,144.1 L954.4,128.8 L953.4,128.8 L953.4,144.1 C953.4,144.8 952.8,145.3 952.2,145.3 L929.9,145.3 C929.2,145.3 928.7,144.7 928.7,144.1 L928.7,128.8 L927.8,128.8 L927.8,122.2 L928.7,122.2 L928.7,106.9 C928.7,106.2 929.3,105.7 929.9,105.7 L952,105.7 C952.7,105.7 953.2,106.3 953.2,106.9 L953.2,122.2 L954.2,122.2 L954.2,106.9 C954.2,106.2 954.8,105.7 955.4,105.7 L978.8,105.7 C979.5,105.7 980,106.3 980,106.9 L980,122.2 L980.7,122.2 L980.7,128.8 L980.9,128.8 Z M935.2,91.9 L946.3,91.9 C947,91.9 947.5,92.5 947.5,93.1 L947.5,103.3 C947.5,104 946.9,104.5 946.3,104.5 L935.2,104.5 C934.5,104.5 934,103.9 934,103.3 L934,93.1 C933.9,92.4 934.5,91.9 935.2,91.9 L935.2,91.9 Z M934.1,75.9 L934.1,65.7 C934.1,65 934.7,64.5 935.3,64.5 L946.4,64.5 C947.1,64.5 947.6,65.1 947.6,65.7 L947.6,75.9 C947.6,76.6 947,77.1 946.4,77.1 L935.3,77.1 C934.6,77.1 934.1,76.6 934.1,75.9 L934.1,75.9 Z M961.7,91.9 L972.8,91.9 C973.5,91.9 974,92.5 974,93.1 L974,103.3 C974,104 973.4,104.5 972.8,104.5 L961.7,104.5 C961,104.5 960.5,103.9 960.5,103.3 L960.5,93.1 C960.4,92.4 961,91.9 961.7,91.9 L961.7,91.9 Z M960.6,75.9 L960.6,65.7 C960.6,65 961.2,64.5 961.8,64.5 L972.9,64.5 C973.6,64.5 974.1,65.1 974.1,65.7 L974.1,75.9 C974.1,76.6 973.5,77.1 972.9,77.1 L961.8,77.1 C961.1,77.1 960.6,76.6 960.6,75.9 L960.6,75.9 Z M980.9,46.9 L980.2,46.9 L980.2,62.2 C980.2,62.9 979.6,63.4 979,63.4 L955.6,63.4 C954.9,63.4 954.4,62.8 954.4,62.2 L954.4,46.9 L953.4,46.9 L953.4,62.2 C953.4,62.9 952.8,63.4 952.2,63.4 L929.9,63.4 C929.2,63.4 928.7,62.8 928.7,62.2 L928.7,46.9 L927.8,46.9 L927.8,40.3 L928.7,40.3 L928.7,25 C928.7,24.3 929.3,23.8 929.9,23.8 L952,23.8 C952.7,23.8 953.2,24.4 953.2,25 L953.2,40.3 L954.2,40.3 L954.2,25 C954.2,24.3 954.8,23.8 955.4,23.8 L978.8,23.8 C979.5,23.8 980,24.4 980,25 L980,40.3 L980.7,40.3 L980.7,46.9 L980.9,46.9 Z" id="Shape"></path>
                <path d="M828.3,322.6 C833.8,325.5 839.3,326.1 841,326.2 L841,303 L815.4,303 C816.4,312 820.7,318.6 828.3,322.6 L828.3,322.6 Z" id="Shape"></path>
                <path d="M159.3,367.4 C159.7,367.4 160.1,367.1 160.1,366.6 L160.1,356.4 C160.1,356 159.8,355.6 159.3,355.6 L148.2,355.6 C147.8,355.6 147.4,355.9 147.4,356.4 L147.4,366.6 C147.4,367 147.7,367.4 148.2,367.4 L159.3,367.4 L159.3,367.4 Z" id="Shape"></path>
                <path d="M212.2,367.4 C212.6,367.4 213,367.1 213,366.6 L213,356.4 C213,356 212.7,355.6 212.2,355.6 L201.1,355.6 C200.7,355.6 200.3,355.9 200.3,356.4 L200.3,366.6 C200.3,367 200.6,367.4 201.1,367.4 L212.2,367.4 L212.2,367.4 Z" id="Shape"></path>
                <path d="M952.8,25 C952.8,24.6 952.5,24.2 952,24.2 L929.7,24.2 C929.3,24.2 928.9,24.5 928.9,25 L928.9,40.3 L952.7,40.3 L952.7,25 L952.8,25 Z" id="Shape"></path>
                <path d="M954.8,62.2 C954.8,62.6 955.1,63 955.6,63 L979,63 C979.4,63 979.8,62.7 979.8,62.2 L979.8,46.9 L954.9,46.9 L954.9,62.2 L954.8,62.2 Z" id="Shape"></path>
                <path d="M961.8,76.6 L972.9,76.6 C973.3,76.6 973.7,76.3 973.7,75.8 L973.7,65.7 C973.7,65.3 973.4,64.9 972.9,64.9 L961.8,64.9 C961.4,64.9 961,65.2 961,65.7 L961,75.9 C961.1,76.3 961.4,76.6 961.8,76.6 L961.8,76.6 Z" id="Shape"></path>
                <path d="M929,144.1 C929,144.5 929.3,144.9 929.8,144.9 L952,144.9 C952.4,144.9 952.8,144.6 952.8,144.1 L952.8,128.8 L929,128.8 L929,144.1 L929,144.1 Z" id="Shape"></path>
                <path d="M791.5,433.3 L802.6,433.3 C803,433.3 803.4,433 803.4,432.5 L803.4,422.3 C803.4,421.9 803.1,421.5 802.6,421.5 L791.5,421.5 C791.1,421.5 790.7,421.8 790.7,422.3 L790.7,432.5 C790.7,433 791.1,433.3 791.5,433.3 L791.5,433.3 Z" id="Shape"></path>
                <path d="M972.9,158.5 C973.3,158.5 973.7,158.2 973.7,157.7 L973.7,147.5 C973.7,147.1 973.4,146.7 972.9,146.7 L961.8,146.7 C961.4,146.7 961,147 961,147.5 L961,157.7 C961,158.1 961.3,158.5 961.8,158.5 L972.9,158.5 L972.9,158.5 Z" id="Shape"></path>
                <path d="M952.3,387.8 C952.3,387.4 952,387 951.5,387 L929.2,387 C928.8,387 928.4,387.3 928.4,387.8 L928.4,403.1 L952.2,403.1 L952.2,387.8 L952.3,387.8 Z" id="Shape"></path>
                <path d="M928.5,425 C928.5,425.4 928.8,425.8 929.3,425.8 L951.6,425.8 C952,425.8 952.4,425.5 952.4,425 L952.4,409.7 L928.6,409.7 L928.6,425 L928.5,425 Z" id="Shape"></path>
                <path d="M802.9,648.8 L802.9,647.9 L807.2,647.9 L807.2,617.1 L807.2,615.6 L807.2,589.6 L782,589.6 L782,647.9 L784.8,647.9 L784.8,648.8 L802.9,648.8 L802.9,648.8 Z M795,604.6 C796.1,604.8 797,605.7 797.2,606.8 C797.6,608.8 795.9,610.5 793.9,610.1 C792.7,609.9 791.7,609 791.7,607.9 C791.3,605.9 793,604.2 795,604.6 L795,604.6 Z M789.6,614.4 C789.6,612.8 790.9,611.6 792.4,611.6 L796.6,611.6 C798.2,611.6 799.4,612.9 799.4,614.4 L799.4,622.2 L797.3,622.2 L797.3,632.8 L791.7,632.8 L791.7,622.2 L789.6,622.2 L789.6,614.4 L789.6,614.4 Z" id="Shape"></path>
                <path d="M979.2,387.8 C979.2,387.4 978.9,387 978.4,387 L955,387 C954.6,387 954.2,387.3 954.2,387.8 L954.2,403.1 L979.1,403.1 L979.1,387.8 L979.2,387.8 Z" id="Shape"></path>
                <path d="M954.3,425 C954.3,425.4 954.6,425.8 955.1,425.8 L978.5,425.8 C978.9,425.8 979.3,425.5 979.3,425 L979.3,409.7 L954.4,409.7 L954.4,425 L954.3,425 Z" id="Shape"></path>
                <path d="M934.7,385 L945.8,385 C946.2,385 946.6,384.7 946.6,384.2 L946.6,374 C946.6,373.6 946.3,373.2 945.8,373.2 L934.7,373.2 C934.3,373.2 933.9,373.5 933.9,374 L933.9,384.2 C933.9,384.6 934.3,385 934.7,385 L934.7,385 Z" id="Shape"></path>
                <path d="M934.8,439.4 L946,439.4 C946.4,439.4 946.8,439.1 946.8,438.6 L946.8,428.4 C946.8,428 946.5,427.6 946,427.6 L934.9,427.6 C934.5,427.6 934.1,427.9 934.1,428.4 L934.1,438.6 C934.1,439.1 934.4,439.4 934.8,439.4 L934.8,439.4 Z" id="Shape"></path>
                <path d="M754.4,595.7 L754.4,647.9 L761.8,647.9 L761.8,648.8 L776.7,648.8 L776.7,647.9 L779.4,647.9 L779.4,589.6 L754.4,589.6 L754.4,595.7 L754.4,595.7 Z M766.9,604.6 C768.4,604.6 769.7,605.8 769.7,607.4 C769.7,608.9 768.5,610.2 766.9,610.2 C765.4,610.2 764.1,608.9 764.1,607.4 C764.1,605.9 765.3,604.6 766.9,604.6 L766.9,604.6 Z M764,613.5 C764.4,612.4 765.5,611.6 766.7,611.6 L766.9,611.6 C768.1,611.6 769.2,612.3 769.6,613.5 L773.2,624.3 L769,624.3 L769,632.8 L764.6,632.8 L764.6,624.3 L760.4,624.3 L764,613.5 L764,613.5 Z" id="Shape"></path>
                <path d="M754.4,532 L754.4,558.4 L807.2,558.4 L807.2,547.8 L808.2,547.8 L808.2,533.9 L807.2,533.9 L807.2,532 L754.4,532 L754.4,532 Z M780.7,533.3 C782,533.3 783,534.3 783,535.6 C783,536.9 782,537.9 780.7,537.9 C779.4,537.9 778.4,536.9 778.4,535.6 C778.4,534.3 779.4,533.3 780.7,533.3 L780.7,533.3 Z M782.4,549.5 L782.4,556.4 L779.1,556.4 L779.1,549.5 L775.6,549.5 L778.5,540.7 C778.8,539.7 779.7,539.1 780.7,539.1 L780.8,539.1 C781.8,539.1 782.7,539.8 783,540.7 L785.9,549.5 L782.4,549.5 L782.4,549.5 Z" id="Shape"></path>
                <path d="M961.2,463.1 L972.3,463.1 C972.7,463.1 973.1,462.8 973.1,462.3 L973.1,452.1 C973.1,451.7 972.8,451.3 972.3,451.3 L961.2,451.3 C960.8,451.3 960.4,451.6 960.4,452.1 L960.4,462.3 C960.4,462.8 960.8,463.1 961.2,463.1 L961.2,463.1 Z" id="Shape"></path>
                <path d="M961.3,439.4 L972.4,439.4 C972.8,439.4 973.2,439.1 973.2,438.6 L973.2,428.4 C973.2,428 972.9,427.6 972.4,427.6 L961.3,427.6 C960.9,427.6 960.5,427.9 960.5,428.4 L960.5,438.6 C960.6,439.1 960.9,439.4 961.3,439.4 L961.3,439.4 Z" id="Shape"></path>
                <path d="M961.2,385 L972.3,385 C972.7,385 973.1,384.7 973.1,384.2 L973.1,374 C973.1,373.6 972.8,373.2 972.3,373.2 L961.2,373.2 C960.8,373.2 960.4,373.5 960.4,374 L960.4,384.2 C960.4,384.6 960.8,385 961.2,385 L961.2,385 Z" id="Shape"></path>
                <path d="M946.5,158.5 C946.9,158.5 947.3,158.2 947.3,157.7 L947.3,147.5 C947.3,147.1 947,146.7 946.5,146.7 L935.4,146.7 C935,146.7 934.6,147 934.6,147.5 L934.6,157.7 C934.6,158.1 934.9,158.5 935.4,158.5 L946.5,158.5 L946.5,158.5 Z" id="Shape"></path>
                <path d="M754.4,585.9 L754.4,587 L807.2,587 L807.2,584.5 L808.2,584.5 L808.2,570.4 L807.2,570.4 L807.2,561.1 L754.4,561.1 L754.4,585.9 L754.4,585.9 Z M780.8,562.5 C781.7,562.7 782.4,563.4 782.6,564.3 C782.9,565.9 781.5,567.3 779.9,567 C779,566.7 778.4,566 778.1,565.2 C777.8,563.6 779.2,562.2 780.8,562.5 L780.8,562.5 Z M776.5,570.5 C776.5,569.2 777.5,568.2 778.8,568.2 L782.3,568.2 C783.6,568.2 784.6,569.2 784.6,570.5 L784.6,576.8 L782.9,576.8 L782.9,585.4 L778.2,585.4 L778.2,576.8 L776.5,576.8 L776.5,570.5 L776.5,570.5 Z" id="Shape"></path>
                <path d="M952.8,106.9 C952.8,106.5 952.5,106.1 952,106.1 L929.7,106.1 C929.3,106.1 928.9,106.4 928.9,106.9 L928.9,122.2 L952.7,122.2 L952.7,106.9 L952.8,106.9 Z" id="Shape"></path>
                <path d="M858.9,617.1 L840.9,617.1 L840.9,634.6 C842.2,634.4 845.9,633.8 849.6,631.8 C855.3,628.7 858.4,623.8 858.9,617.1 L858.9,617.1 Z" id="Shape"></path>
            </g>
        </g>
    </g>
</svg>