<?xml version="1.0" encoding="UTF-8" standalone="no"?>
<svg width="982px" height="878px" viewBox="0 0 982 878" version="1.1" xmlns="http://www.w3.org/2000/svg" xmlns:xlink="http://www.w3.org/1999/xlink" xmlns:sketch="http://www.bohemiancoding.com/sketch/ns">
    <!-- Generator: Sketch 3.4.3 (16044) - http://www.bohemiancoding.com/sketch -->
    <title>map_general_8th_floor</title>
    <desc>Created with Sketch.</desc>
    <defs></defs>
    <g id="Page-1" stroke="none" stroke-width="1" fill="none" fill-rule="evenodd" sketch:type="MSPage">
        <g id="map_general_8th_floor" sketch:type="MSLayerGroup" fill="#FFFFFF">
            <g id="Group" sketch:type="MSShapeGroup">
                <rect id="Rectangle-path" x="867.7" y="830.3" width="13.2" height="5.5"></rect>
                <path d="M880.9,836.5 L868.7,836.5 L880.9,841.7 L880.9,836.5 Z" id="Shape"></path>
                <rect id="Rectangle-path" x="867.7" y="823.9" width="13.2" height="5.7"></rect>
                <rect id="Rectangle-path" x="881.6" y="794" width="12.9" height="5.4"></rect>
                <path d="M867.7,841.9 L879.3,841.9 L867.7,836.9 L867.7,841.9 Z" id="Shape"></path>
                <rect id="Rectangle-path" x="881.6" y="787.6" width="12.9" height="5.7"></rect>
                <rect id="Rectangle-path" x="881.6" y="782" width="12.9" height="4.9"></rect>
                <rect id="Rectangle-path" x="867.7" y="794" width="13.2" height="5.4"></rect>
                <rect id="Rectangle-path" x="867.7" y="800.1" width="13.2" height="4.9"></rect>
                <rect id="Rectangle-path" x="867.7" y="818.2" width="13.2" height="5"></rect>
                <rect id="Rectangle-path" x="867.7" y="782" width="13.2" height="4.9"></rect>
                <rect id="Rectangle-path" x="867.7" y="812" width="13.2" height="5.5"></rect>
                <rect id="Rectangle-path" x="867.7" y="805.7" width="13.2" height="5.6"></rect>
                <path d="M370.8,566.3 L370.8,573 L433.3,584.1 L433.4,584.2 L494.3,629.5 L504.9,659.3 L546.6,626.4 L526.3,566.3 L370.8,566.3 L370.8,566.3 Z M507.4,644.9 L501.4,624.5 L435.9,575.3 L515.3,575.3 L515.4,575.5 L534.2,622.6 L507.4,644.9 L507.4,644.9 Z" id="Shape"></path>
                <path d="M881.6,841.5 L894,836.5 L881.6,836.5 L881.6,841.5 Z" id="Shape"></path>
                <path d="M461.4,582.4 L508.5,617.2 L511.7,628.5 L522.9,618.5 L508.5,582.4 L461.4,582.4 Z" id="Shape"></path>
                <path d="M894.5,841.8 L894.5,837.1 L882.7,841.8 L894.5,841.8 Z" id="Shape"></path>
                <path d="M284,504.4 L326.3,504.4 L326.3,478.1 L284,478.1 L284,479.2 L281.5,479.2 L281.5,479.5 L265.8,479.5 C265.8,481 266.3,486.8 270.2,490.8 C272.9,493.6 276.8,495 281.6,495 L281.8,495.8 L284,495.8 L284,504.4 L284,504.4 Z" id="Shape"></path>
                <rect id="Rectangle-path" x="867.7" y="787.6" width="13.2" height="5.7"></rect>
                <path d="M438.3,576.1 L502.2,624.1 L502.2,624.2 L507.9,643.7 L533.5,622.5 L515,576.1 L438.3,576.1 L438.3,576.1 Z M511.2,629.9 L507.8,617.7 L459.1,581.7 L508.8,581.7 L508.9,581.9 L523.6,618.7 L511.2,629.9 L511.2,629.9 Z" id="Shape"></path>
                <rect id="Rectangle-path" x="881.6" y="805.7" width="12.9" height="5.6"></rect>
                <rect id="Rectangle-path" x="881.6" y="812" width="12.9" height="5.5"></rect>
                <rect id="Rectangle-path" x="881.6" y="800.1" width="12.9" height="4.9"></rect>
                <rect id="Rectangle-path" x="881.6" y="818.2" width="12.9" height="5"></rect>
                <rect id="Rectangle-path" x="881.6" y="830.3" width="12.9" height="5.5"></rect>
                <rect id="Rectangle-path" x="881.6" y="823.9" width="12.9" height="5.7"></rect>
                <path d="M798.4,782.1 L785.9,787.3 L798.4,787.3 L798.4,782.1 Z" id="Shape"></path>
                <rect id="Rectangle-path" x="785" y="818.8" width="13.4" height="4.8"></rect>
                <rect id="Rectangle-path" x="785" y="806.2" width="13.4" height="5.5"></rect>
                <path d="M799.1,787.3 L811.1,787.3 L799.1,782.2 L799.1,787.3 Z" id="Shape"></path>
                <rect id="Rectangle-path" x="785" y="830.5" width="13.4" height="5.7"></rect>
                <rect id="Rectangle-path" x="785" y="800.5" width="13.4" height="5"></rect>
                <path d="M785,841.8 L812.5,841.8 L812.5,836.9 L799.1,836.9 L799.1,841.7 L798.4,841.7 L798.4,836.9 L785,836.9 L785,841.8 Z" id="Shape"></path>
                <rect id="Rectangle-path" x="785" y="824.3" width="13.4" height="5.5"></rect>
                <path d="M785,786.9 L796.8,782 L785,782 L785,786.9 Z" id="Shape"></path>
                <path d="M979,816.6 L981.9,816.6 L981.9,695.2 L912.1,695.2 C912.1,701.7 910.3,706.6 906.7,709.9 C903.2,713 899,713.7 896.2,713.9 L896.2,733.2 L901.2,733.2 L901.7,733.2 L901.7,816.6 L979,816.6 L979,816.6 Z" id="Shape"></path>
                <path d="M362.8,557.8 L362.6,581.7 L430,592.9 L430.1,593 L487.1,635.4 L487.1,635.5 L500.1,677.3 L557.9,626.5 L533.3,557.2 L362.8,557.8 L362.8,557.8 Z M504.7,660.5 L493.9,630 L433.3,584.9 L370.3,573.7 L370.3,565.6 L526.9,565.6 L527,565.8 L547.5,626.7 L504.7,660.5 L504.7,660.5 Z" id="Shape"></path>
                <path id="Shape" d="M785,787.4 L785.1,787.4 L785,787.2 L785,787.4 Z"></path>
                <rect id="Rectangle-path" x="785" y="794.1" width="13.4" height="5.7"></rect>
                <rect id="Rectangle-path" x="785" y="788" width="13.4" height="5.4"></rect>
                <path d="M784.6,877.8 L894.9,877.8 L894.9,849.8 L894.9,842.5 L881,842.5 L880.9,842.5 L867.7,842.5 L867,842.5 L813.2,842.5 L812.5,842.5 L784.6,842.5 L784.6,877.8 Z" id="Shape"></path>
                <path d="M866.9,823.2 L866.9,805.7 L866.9,805 L866.9,782 L813.2,782 L813.2,841.8 L866.9,841.8 L866.9,823.9 L866.9,823.2 L866.9,823.2 Z M844.8,819.5 C843.4,820.8 841.2,821.3 838,821.3 C836.2,821.3 834.9,821.2 834.1,821.1 L834.1,801.8 C835.2,801.6 837,801.4 838.7,801.4 C841.2,801.4 842.9,801.8 844.1,802.8 C845.1,803.6 845.7,804.7 845.7,806.3 C845.7,808.2 844.4,809.9 842.4,810.6 L842.4,810.7 C844.3,811.2 846.5,812.7 846.5,815.6 C846.4,817.3 845.7,818.6 844.8,819.5 L844.8,819.5 Z" id="Shape"></path>
                <rect id="Rectangle-path" x="799.1" y="830.5" width="13.4" height="5.7"></rect>
                <rect id="Rectangle-path" x="799.1" y="818.8" width="13.4" height="4.8"></rect>
                <rect id="Rectangle-path" x="799.1" y="824.3" width="13.4" height="5.5"></rect>
                <path d="M843.1,806.6 C843.1,804.3 841.3,803.4 838.8,803.4 C837.6,803.4 837,803.5 836.6,803.6 L836.6,809.9 L838.9,809.9 C841.5,809.9 843.1,808.5 843.1,806.6 L843.1,806.6 Z" id="Shape"></path>
                <path d="M838.7,811.8 L836.6,811.8 L836.6,819.3 C837.1,819.4 837.8,819.4 838.7,819.4 C841.3,819.4 843.7,818.4 843.7,815.6 C843.7,812.9 841.4,811.8 838.7,811.8 L838.7,811.8 Z" id="Shape"></path>
                <rect id="Rectangle-path" x="799.1" y="806.2" width="13.4" height="5.5"></rect>
                <rect id="Rectangle-path" x="799.1" y="812.4" width="13.4" height="5.7"></rect>
                <rect id="Rectangle-path" x="799.1" y="788" width="13.4" height="5.4"></rect>
                <rect id="Rectangle-path" x="799.1" y="794.1" width="13.4" height="5.7"></rect>
                <path d="M812.5,782 L800.6,782 L812.5,787.1 L812.5,782 Z" id="Shape"></path>
                <rect id="Rectangle-path" x="799.1" y="800.5" width="13.4" height="5"></rect>
                <rect id="Rectangle-path" x="785" y="812.4" width="13.4" height="5.7"></rect>
                <path d="M339.3,568 L339.3,566.6 L339.3,563.7 L339.3,549.2 L284.2,549.2 L284.2,551.1 L283.7,551.1 L283.4,566.5 L283.8,566.5 L283.8,578.1 L339.3,578.1 L339.3,568 L339.3,568 Z M311.6,552.2 C312.9,552.2 313.9,553.2 313.9,554.5 C313.9,555.8 312.9,556.8 311.6,556.8 C310.3,556.8 309.3,555.8 309.3,554.5 C309.3,553.2 310.3,552.2 311.6,552.2 L311.6,552.2 Z M313.3,568.3 L313.3,575.2 L310,575.2 L310,568.3 L306.5,568.3 L309.4,559.5 C309.7,558.5 310.6,557.9 311.6,557.9 L311.7,557.9 C312.7,557.9 313.6,558.6 313.9,559.5 L316.8,568.3 L313.3,568.3 L313.3,568.3 Z" id="Shape"></path>
                <path d="M858.9,617.1 L840.9,617.1 L840.9,634.6 C842.2,634.4 845.9,633.8 849.6,631.8 C855.3,628.7 858.4,623.8 858.9,617.1 L858.9,617.1 Z" id="Shape"></path>
                <path d="M69.1,732.7 L68.8,732.7 C68.8,725.5 65.7,720.2 59.5,716.8 C55.7,714.7 51.8,714.1 50.6,713.9 L50.6,732.2 L50.2,732.3 L0,732.3 L0,816.6 L70.9,816.6 L73.1,816.6 L75.8,816.6 L75.8,732.7 L69.6,732.7 L69.1,732.7 L69.1,732.7 Z" id="Shape"></path>
                <path d="M867.7,623.5 L867.7,617.1 L859.8,617.1 C859.9,618.2 860.4,619.9 861.7,621.2 C863,622.6 865.1,623.4 867.7,623.5 L867.7,623.5 Z" id="Shape"></path>
                <path d="M749.6,498.9 L738.5,498.9 C738.1,498.9 737.7,499.2 737.7,499.7 L737.7,509.9 C737.7,510.3 738,510.7 738.5,510.7 L749.6,510.7 C750,510.7 750.4,510.4 750.4,509.9 L750.4,499.7 C750.4,499.2 750.1,498.9 749.6,498.9 L749.6,498.9 Z" id="Shape"></path>
                <path d="M22.1,670.1 L22.5,670.1 C22.6,670.1 38.5,671.1 41.4,684.9 L70.9,684.9 L70.9,563.1 L0,563.1 L0,684.9 L22.1,684.9 L22.1,670.1 L22.1,670.1 Z" id="Shape"></path>
                <path d="M339.3,612.1 L339.3,583 L283.8,583 L283.8,595.2 L283,595.2 L283,609.3 L283.7,609.3 L283.7,612.1 L339.3,612.1 L339.3,612.1 Z M311.9,585.5 C312.8,585.7 313.5,586.4 313.7,587.3 C314,588.9 312.6,590.3 311,590 C310.1,589.8 309.4,589.1 309.2,588.2 C308.9,586.6 310.3,585.2 311.9,585.5 L311.9,585.5 Z M307.6,593.6 C307.6,592.3 308.6,591.3 309.9,591.3 L313.4,591.3 C314.7,591.3 315.7,592.3 315.7,593.6 L315.7,599.9 L314,599.9 L314,608.5 L309.3,608.5 L309.3,599.9 L307.6,599.9 L307.6,593.6 L307.6,593.6 Z" id="Shape"></path>
                <path d="M326.3,475.5 L326.3,418.7 L284,418.7 L281.8,418.7 L281.5,418.7 L281.5,419 L266,418.4 C266.1,420 266.7,426.5 271.1,430.9 C273.9,433.8 277.8,435.3 282.8,435.3 L282.8,435.7 L284,435.7 L284,475.5 L326.3,475.5 L326.3,475.5 Z" id="Shape"></path>
                <path d="M981.9,619.5 L912.2,619.5 C912.2,626 910.4,630.9 906.8,634.1 C903.4,637.2 899,637.9 896.3,638.1 L896.3,692.6 L981.9,692.6 L981.9,619.5 L981.9,619.5 Z" id="Shape"></path>
                <path d="M754.4,532 L754.4,558.4 L807.2,558.4 L807.2,547.8 L808.2,547.8 L808.2,533.9 L807.2,533.9 L807.2,532 L754.4,532 L754.4,532 Z M780.7,533.3 C782,533.3 783,534.3 783,535.6 C783,536.9 782,537.9 780.7,537.9 C779.4,537.9 778.4,536.9 778.4,535.6 C778.4,534.3 779.4,533.3 780.7,533.3 L780.7,533.3 Z M782.4,549.5 L782.4,556.4 L779.1,556.4 L779.1,549.5 L775.6,549.5 L778.5,540.7 C778.8,539.7 779.7,539.1 780.7,539.1 L780.8,539.1 C781.8,539.1 782.7,539.8 783,540.7 L785.9,549.5 L782.4,549.5 L782.4,549.5 Z" id="Shape"></path>
                <path d="M754.4,595.7 L754.4,647.9 L761.8,647.9 L761.8,648.8 L776.7,648.8 L776.7,647.9 L779.4,647.9 L779.4,589.6 L754.4,589.6 L754.4,595.7 L754.4,595.7 Z M766.9,604.6 C768.4,604.6 769.7,605.8 769.7,607.4 C769.7,608.9 768.5,610.2 766.9,610.2 C765.4,610.2 764.1,608.9 764.1,607.4 C764.1,605.9 765.3,604.6 766.9,604.6 L766.9,604.6 Z M764,613.5 C764.4,612.4 765.5,611.6 766.7,611.6 L766.9,611.6 C768.1,611.6 769.2,612.3 769.6,613.5 L773.2,624.3 L769,624.3 L769,632.8 L764.6,632.8 L764.6,624.3 L760.4,624.3 L764,613.5 L764,613.5 Z" id="Shape"></path>
                <path d="M249.1,531.8 L232.6,531.8 L232.6,551 C238.9,550.1 243.6,546.9 246.4,541.4 C248.6,537.3 249,533.1 249.1,531.8 L249.1,531.8 Z" id="Shape"></path>
                <path d="M140.6,485.3 C137.9,482.2 134,480.4 129,479.9 L129,499.3 L144.5,499.3 C144.7,497.7 145.1,490.5 140.6,485.3 L140.6,485.3 Z" id="Shape"></path>
                <path d="M754.4,585.9 L754.4,587 L807.2,587 L807.2,584.5 L808.2,584.5 L808.2,570.4 L807.2,570.4 L807.2,561.1 L754.4,561.1 L754.4,585.9 L754.4,585.9 Z M780.8,562.5 C781.7,562.7 782.4,563.4 782.6,564.3 C782.9,565.9 781.5,567.3 779.9,567 C779,566.7 778.4,566 778.1,565.2 C777.8,563.6 779.2,562.2 780.8,562.5 L780.8,562.5 Z M776.5,570.5 C776.5,569.2 777.5,568.2 778.8,568.2 L782.3,568.2 C783.6,568.2 784.6,569.2 784.6,570.5 L784.6,576.8 L782.9,576.8 L782.9,585.4 L778.2,585.4 L778.2,576.8 L776.5,576.8 L776.5,570.5 L776.5,570.5 Z" id="Shape"></path>
                <path d="M251.3,460.1 L250.6,460.2 L259.5,460.2 L259.5,452.4 C256.8,452.4 254.8,453.2 253.3,454.7 C251.3,456.8 251.3,459.6 251.3,460.1 C251.3,460 251.3,460 251.3,460.1 L251.3,460.1 Z" id="Shape"></path>
                <path d="M802.9,648.8 L802.9,647.9 L807.2,647.9 L807.2,617.1 L807.2,615.6 L807.2,589.6 L782,589.6 L782,647.9 L784.8,647.9 L784.8,648.8 L802.9,648.8 L802.9,648.8 Z M795,604.6 C796.1,604.8 797,605.7 797.2,606.8 C797.6,608.8 795.9,610.5 793.9,610.1 C792.7,609.9 791.7,609 791.7,607.9 C791.3,605.9 793,604.2 795,604.6 L795,604.6 Z M789.6,614.4 C789.6,612.8 790.9,611.6 792.4,611.6 L796.6,611.6 C798.2,611.6 799.4,612.9 799.4,614.4 L799.4,622.2 L797.3,622.2 L797.3,632.8 L791.7,632.8 L791.7,622.2 L789.6,622.2 L789.6,614.4 L789.6,614.4 Z" id="Shape"></path>
                <path d="M232.7,441.5 L232.7,460.2 L232.9,460.2 L250.6,460.2 C250.2,444.7 236,441.9 232.7,441.5 L232.7,441.5 Z" id="Shape"></path>
                <path d="M351.6,32.7 L345.3,32.7 L138,32.7 L138,338.2 L138,338.3 L138,344.4 L129,344.4 L129,460.2 L227.1,460.2 L231.1,460.2 L232,460.2 L232,441.4 L232,440.7 L232.7,440.7 L232.7,440.8 C235.9,441.2 249.1,443.7 251.1,457.2 C251.4,456.3 252,455.2 252.8,454.3 C254.4,452.6 256.7,451.8 259.7,451.7 L259.7,451.8 L259.9,451.8 C260,451.8 260.1,451.9 260.1,452 L260.1,460.2 L277.4,460.2 L281.4,460.2 L281.4,436 C276.9,435.8 273.2,434.3 270.5,431.5 C265.3,426.2 265.2,418.4 265.2,418.1 L265.2,417.7 L281.4,418.3 L281.4,411.1 C276.8,411.1 273,409.7 270.2,406.8 C264.9,401.4 265,392.9 265.1,392.5 L265.1,392.1 L281.7,392.1 L281.7,392.8 L265.8,392.8 C265.8,394.5 266.3,401.6 270.7,406.2 C273.3,408.9 276.9,410.2 281.3,410.2 L281.4,411.1 L281.4,410.7 L284,410.7 L284,416.1 L326.3,416.1 L326.3,392.6 L314.6,392.6 L281.8,392.6 L281.8,390 L314.6,390 L314.6,332.6 L327,332.6 L327,278.3 L351.6,278.3 L351.6,32.7 L351.6,32.7 Z M225.7,342.9 L142.6,342.9 L142.6,337.2 L225.7,337.2 L225.7,342.9 L225.7,342.9 Z M262.8,72.8 L277.8,72.8 L277.8,125.3 L262.8,125.3 L262.8,72.8 L262.8,72.8 Z M277.9,231.9 L262.9,231.9 L262.9,179.4 L277.9,179.4 L277.9,231.9 L277.9,231.9 Z" id="Shape"></path>
                <path d="M348.1,510.3 L334.7,510.3 L334.7,510.4 L326.3,510.4 L326.3,507 L284,507 L284,508 L281.6,508 L281.6,508.3 L265.4,508.3 C265.6,509.4 266.2,512.8 268.1,516.1 C271.2,521.5 276,524.2 282.5,524.2 L282.5,524.5 L284.2,524.5 L284.2,546.6 L348.1,546.6 L348.1,510.3 L348.1,510.3 Z" id="Shape"></path>
                <path d="M94,716.3 C87.8,719.5 84.6,725 84.6,732.7 L84.1,732.7 L83.8,732.7 L77.8,732.7 L77.8,816.6 L171.3,816.6 L177.4,816.6 L210.8,816.6 L210.8,732.7 L103.8,732.7 L103.3,732.7 L103.1,732.7 L103.1,713.9 C101.9,714 97.9,714.4 94,716.3 L94,716.3 Z" id="Shape"></path>
                <path d="M802.6,498.9 L791.5,498.9 C791.1,498.9 790.7,499.2 790.7,499.7 L790.7,509.9 C790.7,510.3 791,510.7 791.5,510.7 L802.6,510.7 C803,510.7 803.4,510.4 803.4,509.9 L803.4,499.7 C803.4,499.2 803,498.9 802.6,498.9 L802.6,498.9 Z" id="Shape"></path>
                <path d="M981.9,338.6 L981.9,0 L909.9,0 L909.9,79.5 L855.3,79.5 L855.3,0 L770,0 L770,0.7 L770.1,0.7 L770.1,188.8 L770.2,188.8 L770.2,197.5 L853.7,197.5 L853.7,193.2 L853.7,138.1 L913,138.1 L913,193.2 L913,226 L913,295.3 L912.9,295.4 L912.9,356.6 L912.9,365.4 L895.2,365.4 L844.9,365.4 L844.9,356.6 L895.2,356.6 L895.2,303.4 L842,303.4 L842,327.3 L841.5,327.3 C841.2,327.3 816.9,326.5 814.4,303 L799.2,303 L731.5,303 L712.9,303 L712.9,347.5 L721.7,347.5 L729.2,347.5 L729.2,351 L793,351 L793,353.6 L729.2,353.6 L729.2,356.6 L729.2,529.4 L749.4,529.4 L754.4,529.4 L809.7,529.4 L809.7,530.1 L809.7,532 L809.7,533.9 L808.9,533.9 L808.9,547.8 L809.8,547.8 L809.8,570.4 L808.9,570.4 L808.9,584.5 L809.8,584.5 L809.8,615.6 L809.9,615.6 L815.7,615.6 L893.7,615.6 L897.1,615.6 L981.9,615.6 L981.9,338.6 L981.9,338.6 Z M750.9,509.9 C750.9,510.6 750.3,511.1 749.7,511.1 L738.6,511.1 C737.9,511.1 737.4,510.5 737.4,509.9 L737.4,499.7 C737.4,499 738,498.5 738.6,498.5 L749.7,498.5 C750.4,498.5 750.9,499.1 750.9,499.7 L750.9,509.9 L750.9,509.9 Z M777.4,509.9 C777.4,510.6 776.8,511.1 776.2,511.1 L765,511.1 C764.3,511.1 763.8,510.5 763.8,509.9 L763.8,499.7 C763.8,499 764.4,498.5 765,498.5 L776.1,498.5 C776.8,498.5 777.3,499.1 777.3,499.7 L777.3,509.9 L777.4,509.9 Z M803.9,509.9 C803.9,510.6 803.3,511.1 802.7,511.1 L791.6,511.1 C790.9,511.1 790.4,510.5 790.4,509.9 L790.4,499.7 C790.4,499 791,498.5 791.6,498.5 L802.7,498.5 C803.4,498.5 803.9,499.1 803.9,499.7 L803.9,509.9 L803.9,509.9 Z M850.7,453.8 L897.1,453.8 L897.1,456.5 L850.7,456.5 L850.7,453.8 L850.7,453.8 Z M904.6,532 L861.8,532 L861.8,584.5 L839.9,584.5 L839.9,532 L839.9,529.4 L861.8,529.4 L904.6,529.4 L904.6,532 L904.6,532 Z" id="Shape"></path>
                <path d="M828.3,322.6 C833.8,325.5 839.3,326.1 841,326.2 L841,303 L815.4,303 C816.4,312 820.7,318.6 828.3,322.6 L828.3,322.6 Z" id="Shape"></path>
                <path d="M859.4,757.1 L859.4,737.4 L840.6,737.4 C840.8,754.8 856.7,756.9 859.4,757.1 L859.4,757.1 Z" id="Shape"></path>
                <path d="M906,709.2 C909.4,706.1 911.2,701.4 911.2,695.1 L893.5,695.1 L893.5,693.7 L893.5,692.5 L893.5,638 L893.6,637.5 C893.7,637.5 901.1,638.4 906.4,633.7 C909.9,630.6 911.7,625.8 911.7,619.5 L893.7,619.5 L893.7,617.1 L868.3,617.1 L868.3,624.2 L867.7,624.2 C864.9,624.1 862.7,623.2 861.2,621.6 C860.3,620.7 859.8,619.6 859.5,618.7 C857.2,634.1 840.4,635.2 840.4,635.3 L840.4,635.2 L840.2,635.2 L840.2,617.1 L815.7,617.1 L815.7,619.5 L809.9,619.5 L809.9,617.1 L809.8,617.1 L809.8,650.5 L808.8,650.5 L807.2,650.5 L802.9,650.5 L802.9,649.5 L784.8,649.5 L784.8,650.5 L776.7,650.5 L776.7,649.5 L761.8,649.5 L761.8,650.5 L754.4,650.5 L739.2,650.5 L724.8,650.5 L723.7,650.5 L723.6,650.5 L721,650.5 L717.7,650.5 L700.9,650.5 L699.7,650.5 L697.9,650.5 L623.7,650.5 L623.7,636.8 L682.7,636.8 L682.7,568.9 L558.2,568.9 L558.2,553.6 L358.4,553.6 L358.4,563.7 L358.4,568.1 L358.4,689.3 L344.1,689.3 L344.1,689.4 L281.8,689.4 L281.8,689.3 L281.8,689.2 L281.8,687.3 L281.8,650 L281.8,634.1 L281.8,614.8 L281.8,612.1 L281.8,609.3 L282.3,609.3 L282.3,595.2 L281.8,595.2 L281.8,583 L281.8,578.1 L281.8,566.5 L282.7,566.5 L283,551.1 L282.3,551.1 L282.3,524.9 C266.2,524.9 264.5,508.2 264.5,508 L264.5,507.6 L281.4,507.6 L281.4,495.8 L281.8,495.8 C276.7,495.8 272.7,494.3 269.8,491.4 C265,486.5 265.2,479.5 265.2,479.2 L265.2,478.8 L281.4,478.8 L281.4,464.1 L277.4,464.1 L277.4,461.7 L232.9,461.7 L232.9,464.1 L231.1,464.1 L231.1,472.6 L129,472.6 L129,479.1 C134.2,479.7 138.2,481.6 141,484.8 C146.3,490.9 145.1,499.3 145.1,499.7 L145,500 L129,500 L129,504.4 L230,504.4 L232.5,504.4 L232.5,505.6 L232.6,505.6 L232.6,516.2 L232.6,531 L249.9,531 L249.9,531.4 C250,531.6 249.4,549.3 232.6,551.8 L232.6,573.5 L232.5,573.5 L232.5,582 L232.4,582 L232.4,611.9 L226.4,611.9 L226.4,612 L203.9,612 L203.9,635.6 L203.9,689.5 L203.9,693.4 L145.3,693.4 L145.3,689.5 L72.6,689.5 L72.6,689.4 L41.8,689.4 L41.1,689.4 C41.1,682.1 38,676.7 31.8,673.5 C27.9,671.5 24,671 22.8,670.8 L22.8,688.9 L22.1,688.9 L0,688.9 L0,730.3 L49.8,730.3 L49.8,713.1 L50.2,713.1 C50.4,713.2 68.1,714.8 69.5,730.7 L75.8,730.7 L77.8,730.7 L83.9,730.7 C85.2,713.6 103.2,713.2 103.4,713.2 L103.8,713.2 L103.8,730.7 L210.8,730.7 L212.6,730.7 L212.8,730.7 L212.8,816.6 L215.1,816.6 L215.1,816.6 L758.7,816.6 L758.7,751.3 L758.7,744.7 L758.7,733.2 L773.7,733.2 L777.9,733.2 L784.5,733.2 L802.2,733.2 L802.2,735.6 L820,735.6 L820,736.7 L859.5,736.7 L859.5,735.6 L878.1,735.6 L878.1,738.5 L859.9,738.5 L860,757.9 L859.6,757.9 C859.4,757.9 839.9,756.9 839.7,737.4 C839.5,756.9 820,757.9 819.8,757.9 L819.5,757.9 L819.5,738.5 L802.2,738.5 L802.2,739.9 L784.5,739.9 L784.5,744.7 L784.5,755 L784.5,781.2 L798.3,781.2 L798.5,781.1 L798.7,781.2 L812.3,781.2 L813,781.2 L866.8,781.2 L867.5,781.2 L894.7,781.2 L894.7,739.8 L878.2,739.8 L878.2,733.1 L893.5,733.1 L893.5,713.7 L893.3,713.7 L893.3,713 C893.4,713 900.8,713.8 906,709.2 L906,709.2 Z M234.3,689.4 C232.2,689.4 230.5,687.7 230.5,685.6 C230.5,683.5 232.2,681.8 234.3,681.8 C236.4,681.8 238.1,683.5 238.1,685.6 C238.1,687.7 236.4,689.4 234.3,689.4 L234.3,689.4 Z M409.9,742.7 C407.8,742.7 406.1,741 406.1,738.9 C406.1,736.8 407.8,735.1 409.9,735.1 C412,735.1 413.7,736.8 413.7,738.9 C413.7,741 412,742.7 409.9,742.7 L409.9,742.7 Z M409.9,689.4 C407.8,689.4 406.1,687.7 406.1,685.6 C406.1,683.5 407.8,681.8 409.9,681.8 C412,681.8 413.7,683.5 413.7,685.6 C413.7,687.7 412,689.4 409.9,689.4 L409.9,689.4 Z M515.2,742.7 C513.1,742.7 511.4,741 511.4,738.9 C511.4,736.8 513.1,735.1 515.2,735.1 C517.3,735.1 519,736.8 519,738.9 C519,741 517.3,742.7 515.2,742.7 L515.2,742.7 Z M515.2,688.5 C513.1,688.5 511.4,686.8 511.4,684.7 C511.4,682.6 513.1,680.9 515.2,680.9 C517.3,680.9 519,682.6 519,684.7 C519,686.8 517.3,688.5 515.2,688.5 L515.2,688.5 Z M558.6,626.9 L499.7,678.5 L486.4,635.8 L429.7,593.6 L361.9,582.4 L361.9,557 L362.3,557 L533.8,556.4 L533.9,556.6 L558.8,626.7 L558.6,626.9 L558.6,626.9 Z M610.7,742.7 C608.6,742.7 606.9,741 606.9,738.9 C606.9,736.8 608.6,735.1 610.7,735.1 C612.8,735.1 614.5,736.8 614.5,738.9 C614.5,741 612.8,742.7 610.7,742.7 L610.7,742.7 Z M610.7,688.5 C608.6,688.5 606.9,686.8 606.9,684.7 C606.9,682.6 608.6,680.9 610.7,680.9 C612.8,680.9 614.5,682.6 614.5,684.7 C614.5,686.8 612.8,688.5 610.7,688.5 L610.7,688.5 Z M694,742.7 C691.9,742.7 690.2,741 690.2,738.9 C690.2,736.8 691.9,735.1 694,735.1 C696.1,735.1 697.8,736.8 697.8,738.9 C697.8,741 696.1,742.7 694,742.7 L694,742.7 Z M703.8,686.4 C703.7,687.5 702.9,688.5 701.7,688.5 L692.5,688.5 C691.3,688.5 690.4,687.5 690.4,686.4 L690.4,684.4 C690.4,683.2 691.4,682.3 692.5,682.3 L701.7,682.3 C702.9,682.3 703.8,683.3 703.8,684.4 L703.8,686.4 L703.8,686.4 Z M761.7,686.3 L719.9,686.3 L719.9,682.2 L761.7,682.2 L761.7,686.3 L761.7,686.3 Z M868.2,689 L778,689 L778,681 L868.2,681 L868.2,689 L868.2,689 Z" id="Shape"></path>
                <path d="M776.1,498.9 L765,498.9 C764.6,498.9 764.2,499.2 764.2,499.7 L764.2,509.9 C764.2,510.3 764.5,510.7 765,510.7 L776.1,510.7 C776.5,510.7 776.9,510.4 776.9,509.9 L776.9,499.7 C776.9,499.2 776.5,498.9 776.1,498.9 L776.1,498.9 Z" id="Shape"></path>
                <path d="M820.4,737.4 L820.4,757.1 C823.2,756.9 839,754.9 839.2,737.4 L820.4,737.4 L820.4,737.4 Z" id="Shape"></path>
            </g>
        </g>
    </g>
</svg>