<?xml version="1.0" encoding="UTF-8" standalone="no"?>
<svg width="743px" height="1276px" viewBox="0 0 743 1276" version="1.1" xmlns="http://www.w3.org/2000/svg" xmlns:xlink="http://www.w3.org/1999/xlink" xmlns:sketch="http://www.bohemiancoding.com/sketch/ns">
    <!-- Generator: Sketch 3.4.3 (16044) - http://www.bohemiancoding.com/sketch -->
    <title>map_general_7th_floor</title>
    <desc>Created with Sketch.</desc>
    <defs></defs>
    <g id="Page-1" stroke="none" stroke-width="1" fill="none" fill-rule="evenodd" sketch:type="MSPage">
        <g id="map_general_7th_floor" sketch:type="MSLayerGroup" fill="#FFFFFF">
            <g id="Group" sketch:type="MSShapeGroup">
                <path d="M149.7,216.9 L135.5,216.9 L135,248.8 L149.2,248.9 L149.7,216.9 Z" id="Shape"></path>
                <path d="M148.7,282.3 L149.2,249.7 L135,249.6 L134.5,282.3 L139.4,282.3 L148.7,282.3 Z" id="Shape"></path>
                <path d="M163.7,249.8 L150,249.7 L149.5,282.3 L163.2,282.3 L163.7,249.8 Z" id="Shape"></path>
                <path d="M164.2,216.9 L150.5,216.9 L150,248.9 L163.7,249 L164.2,216.9 Z" id="Shape"></path>
                <path d="M105.4,282.3 L115.9,282.3 L119,282.3 L119.5,249.4 L105.9,249.3 L105.4,282.3 Z" id="Shape"></path>
                <path d="M134.7,216.9 L120.8,216.9 L120.3,248.6 L134.2,248.8 L134.7,216.9 Z" id="Shape"></path>
                <path d="M134.2,249.6 L120.3,249.4 L119.8,282.3 L133.7,282.3 L134.2,249.6 Z" id="Shape"></path>
                <path d="M120,216.9 L106.4,216.9 L105.9,248.5 L119.5,248.6 L120,216.9 Z" id="Shape"></path>
                <path d="M209.2,216.9 L195,216.9 L194.5,249.3 L208.7,249.5 L209.2,216.9 Z" id="Shape"></path>
                <path d="M209.5,249.5 L222,249.6 L210.1,217.5 L209.5,249.5 Z" id="Shape"></path>
                <path d="M208.7,250.3 L194.5,250.1 L194,282.3 L208.1,282.3 L208.7,250.3 Z" id="Shape"></path>
                <path d="M222.7,216.9 L210.7,216.9 L222.2,247.9 L222.7,216.9 Z" id="Shape"></path>
                <path d="M178.6,250 L164.5,249.9 L164,282.3 L178.1,282.3 L178.6,250 Z" id="Shape"></path>
                <path d="M193.7,250.1 L179.4,250 L178.9,282.3 L193.2,282.3 L193.7,250.1 Z" id="Shape"></path>
                <path d="M194.2,216.9 L179.9,216.9 L179.4,249.2 L193.7,249.3 L194.2,216.9 Z" id="Shape"></path>
                <path d="M179.1,216.9 L165,216.9 L164.5,249.1 L178.6,249.2 L179.1,216.9 Z" id="Shape"></path>
                <path d="M152.2,136.1 L166.3,136.1 L166.9,104.3 L152.8,104.1 L152.2,136.1 Z" id="Shape"></path>
                <path d="M181.6,136.1 L195.8,136.1 L196.4,104.6 L182.2,104.4 L181.6,136.1 Z" id="Shape"></path>
                <path d="M167.1,136.1 L180.8,136.1 L181.4,104.4 L167.7,104.3 L167.1,136.1 Z" id="Shape"></path>
                <path d="M137.1,136.1 L151.4,136.1 L152,104.1 L137.7,104 L137.1,136.1 Z" id="Shape"></path>
                <path d="M210.1,136.1 L225.5,136.1 L225.5,104.8 L210.6,104.7 L210.1,136.1 Z" id="Shape"></path>
                <path d="M225.5,71.1 L123.4,71.1 L122.8,103.1 L136.9,103.2 L137.4,71.1 L138.2,71.1 L137.7,103.2 L152,103.3 L152.5,71.1 L153.3,71.1 L152.8,103.3 L166.9,103.5 L167.4,71.1 L168.2,71.1 L167.7,103.5 L181.4,103.6 L181.9,71.1 L182.7,71.1 L182.2,103.6 L196.4,103.8 L196.9,71.1 L197.7,71.1 L197.2,103.8 L209.9,103.9 L210.4,71.1 L211.2,71.1 L210.7,103.9 L225.5,104 L225.5,71.1 Z" id="Shape"></path>
                <path d="M196.6,136.1 L209.3,136.1 L209.8,104.7 L197.2,104.6 L196.6,136.1 Z" id="Shape"></path>
                <path d="M214.5,825.2 L93.2,825.2 L93.2,885.4 L215.4,885.4 L215.4,865.6 L218.3,865.6 L218.3,830.5 L214.5,830.5 L214.5,825.2 L214.5,825.2 L214.5,825.2 Z M166.8,834.9 C168.5,835.2 169.9,836.6 170.2,838.3 C170.8,841.3 168.2,843.9 165.2,843.3 C163.6,843 162.2,841.6 161.8,839.9 C161.2,836.9 163.8,834.3 166.8,834.9 L166.8,834.9 Z M143.8,834.8 C146.2,834.8 148.1,836.7 148.1,839.1 C148.1,841.5 146.2,843.4 143.8,843.4 C141.5,843.4 139.5,841.5 139.5,839.1 C139.5,836.7 141.4,834.8 143.8,834.8 L143.8,834.8 Z M147,864.7 L147,877.5 L140.5,877.5 L140.5,864.7 L134.1,864.7 L139.5,848.4 C140.1,846.7 141.8,845.5 143.6,845.5 L143.9,845.5 C145.8,845.5 147.4,846.6 148,848.4 L153.4,864.7 L147,864.7 L147,864.7 Z M173.6,861.5 L170.3,861.5 L170.3,877.5 L161.8,877.5 L161.8,861.5 L158.6,861.5 L158.6,849.8 C158.6,847.5 160.5,845.5 162.9,845.5 L169.3,845.5 C171.6,845.5 173.6,847.4 173.6,849.8 L173.6,861.5 L173.6,861.5 Z" id="Shape"></path>
                <path d="M122.2,136.1 L136.3,136.1 L136.9,104 L122.8,103.9 L122.2,136.1 Z" id="Shape"></path>
                <path d="M104.5,215.6 L228.7,215.6 L228.7,137.3 L104.5,137.3 L104.5,215.6 L104.5,215.6 Z M172.4,156.6 C176.9,156.6 179.7,157.6 180.9,158.2 L179.8,162 C178,161.1 175.5,160.5 172.6,160.5 C164.2,160.5 158.6,165.9 158.6,175.3 C158.6,184.1 163.7,189.7 172.4,189.7 C175.2,189.7 178.1,189.1 179.9,188.2 L180.9,191.8 C179.2,192.6 175.8,193.5 171.4,193.5 C161.3,193.5 153.7,187.1 153.7,175.4 C153.7,164.2 161.3,156.6 172.4,156.6 L172.4,156.6 Z" id="Shape"></path>
                <path d="M324.8,288.4 L324.8,308.3 L221.2,308.3 L221.2,820.2 L221.2,825.3 L221.2,830.5 L219.1,830.5 L219.1,865.6 L220.5,865.6 L220.5,915.8 L218.3,915.8 L218.3,950.9 L220.5,950.9 L220.5,967.5 L218.2,967.5 L218.2,1009.4 L220.9,1009.4 L220.9,1197.1 L354.2,1197.1 L354.2,1201.9 L411.3,1201.9 L411.3,1197.1 L415.6,1197.1 L415.6,1171.8 L487.9,1171.8 L487.9,1193.8 L517.5,1193.8 L517.5,978.6 L517.5,971.9 L517.5,61.1 L449.4,61.1 L449.4,124.4 L324.8,124.4 L324.8,127.5 L313.3,127.5 L313.3,165.6 L324.8,165.6 L324.8,190.8 L313.3,190.8 L313.3,230.5 L324.8,230.5 L324.8,282.3 L324.8,288.4 L324.8,288.4 Z M294.8,636.7 L318.9,636.7 L318.9,658.5 L294.8,658.5 L294.8,636.7 L294.8,636.7 Z M439.8,985 L292,985 L292,960.2 L292,820.2 L341.8,820.2 L341.8,960.2 L439.8,960.2 L439.8,985 L439.8,985 Z M442.6,890.6 L420.8,890.6 L420.8,866.9 L442.6,866.9 L442.6,890.6 L442.6,890.6 Z M446,823.9 C446,824.2 445.8,824.4 445.5,824.4 L347.9,824.4 C347.7,824.4 347.4,824.2 347.4,823.9 L347.4,821.4 C347.4,821.1 347.6,820.9 347.9,820.9 L445.5,820.9 C445.8,820.9 446,821.1 446,821.4 L446,823.9 L446,823.9 Z M420.8,658.5 L420.8,636.7 L444.9,636.7 L444.9,658.5 L420.8,658.5 L420.8,658.5 Z M423.6,417.5 L423.6,406.3 L443.2,406.3 L443.2,366.1 L420.2,366.1 L420.2,286.2 L465,286.2 L465,366.1 L448.5,366.1 L448.5,406.3 L448.5,413.1 L448.5,425.1 L423.6,425.1 L423.6,422.5 L324.8,422.5 L324.8,422.6 L294.8,422.6 L294.8,397.1 L324.8,397.1 L324.8,417.5 L423.6,417.5 L423.6,417.5 Z" id="Shape"></path>
                <path d="M396,1275.1 L396,1272.1 L415.6,1272.1 L415.6,1216.6 L415.6,1205.2 L411.6,1205.2 L411.6,1246.5 L411.2,1246.5 C411.3,1246.5 409.8,1246.7 407.3,1246.7 C401.2,1246.7 389.4,1245.5 380.2,1237.5 C372.5,1230.7 368.2,1220.6 367.4,1207.4 C366.8,1209.6 365.7,1211.4 364.2,1212.8 C360.7,1216 356,1216.3 354.6,1216.3 L354.2,1216.3 L353.8,1216.3 L353.8,1205.2 L220.9,1205.2 L220.9,1205.2 L218,1205.2 L215.2,1205.2 L193.5,1205.2 L193.5,1272.1 L207,1272.1 L207,1275.1 L396,1275.1 L396,1275.1 Z M271.5,1261 L271.9,1261 C272.1,1261 277.9,1260.7 282,1264.6 C283.5,1266 284.5,1267.9 285.2,1270 C286,1256.7 290.3,1246.5 298,1239.8 C310.9,1228.5 328.9,1230.7 329.1,1230.8 L329.5,1230.8 L329.5,1274.9 L329.4,1274.9 L328.6,1274.9 L328.6,1231.5 C326,1231.3 310.1,1230.2 298.5,1240.4 C290.1,1247.8 285.8,1259.4 285.8,1274.8 L285.8,1274.8 L285.8,1274.9 L285,1274.9 C285,1270.7 283.8,1267.5 281.4,1265.2 C278.2,1262.2 273.7,1261.9 272.4,1261.9 L272.4,1274.9 L272.3,1274.9 L271.5,1274.9 L271.5,1261 L271.5,1261 Z" id="Shape"></path>
                <path d="M122,103.8 L109.5,103.7 L121.4,135.6 L122,103.8 Z" id="Shape"></path>
                <path d="M122,103 L122.5,73.1 L109.3,102.9 L122,103 Z" id="Shape"></path>
                <path d="M109.2,136.1 L120.8,136.1 L109.2,105.1 L109.2,136.1 Z" id="Shape"></path>
                <path d="M109.2,100.9 L122.5,71.1 L109.2,71.1 L109.2,100.9 Z" id="Shape"></path>
                <path d="M272.4,228.5 L311.6,230 L311.6,191.6 C277.8,192 272.9,223.5 272.4,228.5 L272.4,228.5 Z" id="Shape"></path>
                <rect id="Rectangle-path" x="39.2" y="182.9" width="31.9" height="15.3"></rect>
                <rect id="Rectangle-path" x="39.2" y="168.5" width="31.9" height="13.6"></rect>
                <rect id="Rectangle-path" x="39.2" y="153.6" width="31.9" height="14.1"></rect>
                <path d="M71.1,199 L40.3,199 L71.1,212.6 L71.1,199 Z" id="Shape"></path>
                <rect id="Rectangle-path" x="71.9" y="139.2" width="31.3" height="13.6"></rect>
                <rect id="Rectangle-path" x="71.9" y="153.6" width="31.3" height="14.1"></rect>
                <path d="M39.2,212.6 L69.1,212.6 L39.2,199.5 L39.2,212.6 Z" id="Shape"></path>
                <rect id="Rectangle-path" x="39.2" y="139.2" width="31.9" height="13.6"></rect>
                <rect id="Rectangle-path" x="524.2" y="369.4" width="218.4" height="296.7"></rect>
                <rect id="Rectangle-path" x="524.2" y="672.8" width="218.4" height="299.1"></rect>
                <rect id="Rectangle-path" x="524.2" y="61.1" width="218.4" height="301.6"></rect>
                <rect id="Rectangle-path" x="524.2" y="978.6" width="218.4" height="215.2"></rect>
                <path d="M0,857.6 L78.9,857.6 L78.9,825.2 L78.9,820.2 L93.2,820.2 L214.5,820.2 L214.5,566.7 L0,566.7 L0,857.6 Z" id="Shape"></path>
                <path d="M0,560 L214.5,560 L214.5,308.3 L115.9,308.3 L115.9,299.1 L0,299.1 L0,560 Z" id="Shape"></path>
                <path d="M209,280.1 L222.2,250.4 L222.2,250.4 L209.5,250.3 L209,280.1 Z" id="Shape"></path>
                <rect id="Rectangle-path" x="71.9" y="168.5" width="31.3" height="13.6"></rect>
                <path d="M39.2,282.3 L104.6,282.3 L105.6,216.9 L103.2,216.9 L103.2,213.4 L71.3,213.4 L71.1,213.5 L70.9,213.4 L39.2,213.4 L39.2,282.3 Z" id="Shape"></path>
                <path d="M71.9,212.3 L102.8,199 L71.9,199 L71.9,212.3 Z" id="Shape"></path>
                <path d="M39.2,138.4 L103.2,138.4 L103.2,136.1 L108.4,136.1 L108.4,71.1 L39.2,71.1 L39.2,138.4 Z" id="Shape"></path>
                <path d="M279.4,146.9 C286.2,159.2 297.1,165.3 311.6,164.9 L311.6,128.2 L273.5,128.2 C273.8,130.6 275,138.9 279.4,146.9 L279.4,146.9 Z" id="Shape"></path>
                <path d="M380.7,1236.9 C392.3,1247.1 408.2,1246 410.8,1245.8 L410.8,1202.7 L368,1202.7 C368,1218 372.3,1229.5 380.7,1236.9 L380.7,1236.9 Z" id="Shape"></path>
                <path d="M229.3,71.1 L226.4,71.1 L226.4,136.1 L229.9,136.1 L229.9,216.9 L229.9,216.9 L223.5,216.9 L223,249.9 L223.1,250.2 L223,250.2 L222.5,282.3 L309.8,282.3 L309.8,231.1 L271,229.6 L271,229 C271,228.6 273.9,192 309.8,190.3 L309.8,166.2 C275.2,165.9 272.2,128 272.1,127.6 L272.1,126.9 L309.8,126.9 L309.8,124.4 L309.8,120.6 L309.8,71.1 L309.8,55.5 L309.8,0 L229.3,0 L229.3,71.1 L229.3,71.1 Z" id="Shape"></path>
                <rect id="Rectangle-path" x="71.9" y="182.9" width="31.3" height="15.3"></rect>
                <path d="M222.2,252.4 L208.9,282.3 L221.7,282.3 L222.2,252.4 Z" id="Shape"></path>
                <path d="M93.2,955.1 L155.2,955.1 L158.7,955.1 L215.4,955.1 L215.4,950.9 L217.5,950.9 L217.5,915.8 L215.4,915.8 L215.4,895.7 L93.2,895.7 L93.2,955.1 L93.2,955.1 Z M166.4,904.7 C168.1,905 169.5,906.4 169.8,908.1 C170.4,911.1 167.8,913.7 164.8,913.1 C163.1,912.7 161.7,911.4 161.4,909.7 C160.8,906.7 163.4,904.1 166.4,904.7 L166.4,904.7 Z M158.2,919.6 C158.2,917.3 160.1,915.3 162.5,915.3 L168.9,915.3 C171.2,915.3 173.2,917.2 173.2,919.6 L173.2,931.3 L170,931.3 L170,947.3 L161.4,947.3 L161.4,931.3 L158.2,931.3 L158.2,919.6 L158.2,919.6 Z M143.4,904.5 C145.8,904.5 147.7,906.4 147.7,908.8 C147.7,911.2 145.8,913.1 143.4,913.1 C141,913.1 139.1,911.2 139.1,908.8 C139.1,906.4 141,904.5 143.4,904.5 L143.4,904.5 Z M139.1,918.2 C139.7,916.5 141.4,915.3 143.2,915.3 L143.5,915.3 C145.4,915.3 147,916.4 147.6,918.2 L153,934.5 L146.6,934.5 L146.6,947.3 L140.1,947.3 L140.1,934.5 L133.7,934.5 L139.1,918.2 L139.1,918.2 Z" id="Shape"></path>
                <path d="M103.2,199.7 L73.2,212.6 L103.2,212.6 L103.2,199.7 Z" id="Shape"></path>
                <path d="M367.2,1202.7 L354.6,1202.7 L354.6,1215.5 C355.9,1215.5 360.4,1215.2 363.6,1212.2 C366,1210 367.2,1206.8 367.2,1202.7 L367.2,1202.7 Z" id="Shape"></path>
                <path d="M215.2,1009.4 L217.4,1009.4 L217.4,967.5 L215.4,967.5 L215.4,960.2 L158.7,960.2 L158.7,1023.7 L215.2,1023.7 L215.2,1009.4 Z" id="Shape"></path>
            </g>
        </g>
    </g>
</svg>