<?xml version="1.0" encoding="UTF-8" standalone="no"?>
<svg width="743px" height="1276px" viewBox="0 0 743 1276" version="1.1" xmlns="http://www.w3.org/2000/svg" xmlns:xlink="http://www.w3.org/1999/xlink" xmlns:sketch="http://www.bohemiancoding.com/sketch/ns">
    <!-- Generator: Sketch 3.4.3 (16044) - http://www.bohemiancoding.com/sketch -->
    <title>map_space_7th_floor</title>
    <desc>Created with Sketch.</desc>
    <defs></defs>
    <g id="Page-1" stroke="none" stroke-width="1" fill="none" fill-rule="evenodd" sketch:type="MSPage">
        <g id="map_space_7th_floor" sketch:type="MSLayerGroup" fill="#FFFFFF">
            <g id="Group" sketch:type="MSShapeGroup">
                <path d="M215.2,1009.4 L217.4,1009.4 L217.4,967.5 L215.4,967.5 L215.4,960.2 L158.7,960.2 L158.7,1023.7 L215.2,1023.7 L215.2,1009.4 Z" id="Shape"></path>
                <rect id="Rectangle-path" x="39.2" y="139.2" width="31.9" height="13.6"></rect>
                <rect id="Rectangle-path" x="71.9" y="153.6" width="31.3" height="14.1"></rect>
                <rect id="Rectangle-path" x="71.9" y="139.2" width="31.3" height="13.6"></rect>
                <rect id="Rectangle-path" x="39.2" y="168.5" width="31.9" height="13.6"></rect>
                <path d="M39.2,212.6 L69.1,212.6 L39.2,199.5 L39.2,212.6 Z" id="Shape"></path>
                <rect id="Rectangle-path" x="71.9" y="168.5" width="31.3" height="13.6"></rect>
                <path d="M39.2,282.3 L104.6,282.3 L105.6,216.9 L103.2,216.9 L103.2,213.4 L71.3,213.4 L71.1,213.5 L70.9,213.4 L39.2,213.4 L39.2,282.3 Z" id="Shape"></path>
                <path d="M71.1,199 L40.3,199 L71.1,212.6 L71.1,199 Z" id="Shape"></path>
                <rect id="Rectangle-path" x="39.2" y="182.9" width="31.9" height="15.3"></rect>
                <path d="M272.4,228.5 L311.6,230 L311.6,191.6 C277.8,192 272.9,223.5 272.4,228.5 L272.4,228.5 Z" id="Shape"></path>
                <path d="M279.4,146.9 C286.2,159.2 297.1,165.3 311.6,164.9 L311.6,128.2 L273.5,128.2 C273.8,130.6 275,138.9 279.4,146.9 L279.4,146.9 Z" id="Shape"></path>
                <path d="M165.9,371.2 L192.1,371.2 C192.4,371.2 192.6,371 192.6,370.7 L192.6,341.7 C192.6,341.4 192.4,341.2 192.1,341.2 L165.9,341.2 C165.6,341.2 165.4,341.4 165.4,341.7 L165.4,370.7 C165.4,370.9 165.6,371.2 165.9,371.2 L165.9,371.2 Z" id="Shape"></path>
                <rect id="Rectangle-path" x="71.9" y="182.9" width="31.3" height="15.3"></rect>
                <path d="M367.2,1202.7 L354.6,1202.7 L354.6,1215.5 C355.9,1215.5 360.4,1215.2 363.6,1212.2 C366,1210 367.2,1206.8 367.2,1202.7 L367.2,1202.7 Z" id="Shape"></path>
                <path d="M380.7,1236.9 C392.3,1247.1 408.2,1246 410.8,1245.8 L410.8,1202.7 L368,1202.7 C368,1218 372.3,1229.5 380.7,1236.9 L380.7,1236.9 Z" id="Shape"></path>
                <path d="M103.2,199.7 L73.2,212.6 L103.2,212.6 L103.2,199.7 Z" id="Shape"></path>
                <path d="M229.3,71.1 L226.4,71.1 L226.4,136.1 L229.9,136.1 L229.9,216.9 L229.9,216.9 L223.5,216.9 L223,249.9 L223.1,250.2 L223,250.2 L222.5,282.3 L309.8,282.3 L309.8,231.1 L271,229.6 L271,229 C271,228.6 273.9,192 309.8,190.3 L309.8,166.2 C275.2,165.9 272.2,128 272.1,127.6 L272.1,126.9 L309.8,126.9 L309.8,124.4 L309.8,120.6 L309.8,71.1 L309.8,55.5 L309.8,0 L229.3,0 L229.3,71.1 L229.3,71.1 Z" id="Shape"></path>
                <path d="M71.9,212.3 L102.8,199 L71.9,199 L71.9,212.3 Z" id="Shape"></path>
                <path d="M39.2,138.4 L103.2,138.4 L103.2,136.1 L108.4,136.1 L108.4,71.1 L39.2,71.1 L39.2,138.4 Z" id="Shape"></path>
                <rect id="Rectangle-path" x="39.2" y="153.6" width="31.9" height="14.1"></rect>
                <path d="M158.6,730.3 L184.8,730.3 C185.1,730.3 185.3,730.1 185.3,729.8 L185.3,700.8 C185.3,700.5 185.1,700.3 184.8,700.3 L158.6,700.3 C158.3,700.3 158.1,700.5 158.1,700.8 L158.1,729.8 C158.1,730.1 158.3,730.3 158.6,730.3 L158.6,730.3 Z" id="Shape"></path>
                <path d="M40.6,489.7 L66.8,489.7 C67.1,489.7 67.3,489.5 67.3,489.2 L67.3,460.2 C67.3,459.9 67.1,459.7 66.8,459.7 L40.6,459.7 C40.3,459.7 40.1,459.9 40.1,460.2 L40.1,489.2 C40.1,489.5 40.4,489.7 40.6,489.7 L40.6,489.7 Z" id="Shape"></path>
                <path d="M158.6,790.1 L184.8,790.1 C185.1,790.1 185.3,789.9 185.3,789.6 L185.3,760.6 C185.3,760.3 185.1,760.1 184.8,760.1 L158.6,760.1 C158.3,760.1 158.1,760.3 158.1,760.6 L158.1,789.6 C158.1,789.9 158.3,790.1 158.6,790.1 L158.6,790.1 Z" id="Shape"></path>
                <path d="M158.6,670.5 L184.8,670.5 C185.1,670.5 185.3,670.3 185.3,670 L185.3,641 C185.3,640.7 185.1,640.5 184.8,640.5 L158.6,640.5 C158.3,640.5 158.1,640.7 158.1,641 L158.1,670 C158.1,670.2 158.3,670.5 158.6,670.5 L158.6,670.5 Z" id="Shape"></path>
                <path d="M0,560 L214.5,560 L214.5,308.3 L115.9,308.3 L115.9,299.1 L0,299.1 L0,560 L0,560 Z M164.4,341.7 C164.4,340.9 165.1,340.2 165.9,340.2 L192.1,340.2 C192.9,340.2 193.6,340.9 193.6,341.7 L193.6,370.7 C193.6,371.5 192.9,372.2 192.1,372.2 L165.9,372.2 C165.1,372.2 164.4,371.5 164.4,370.7 L164.4,341.7 L164.4,341.7 Z M164.4,401.5 C164.4,400.7 165.1,400 165.9,400 L192.1,400 C192.9,400 193.6,400.7 193.6,401.5 L193.6,430.5 C193.6,431.3 192.9,432 192.1,432 L165.9,432 C165.1,432 164.4,431.3 164.4,430.5 L164.4,401.5 L164.4,401.5 Z M164.4,461.3 C164.4,460.5 165.1,459.8 165.9,459.8 L192.1,459.8 C192.9,459.8 193.6,460.5 193.6,461.3 L193.6,490.3 C193.6,491.1 192.9,491.8 192.1,491.8 L165.9,491.8 C165.1,491.8 164.4,491.1 164.4,490.3 L164.4,461.3 L164.4,461.3 Z M71.5,448.5 C71.5,447.7 72.2,447 73,447 L109.9,447 L109.9,444.6 L73,444.6 C72.2,444.6 71.5,443.9 71.5,443.1 L71.5,388.9 C71.5,388.1 72.2,387.4 73,387.4 L109.9,387.4 L109.9,385 L73,385 C72.2,385 71.5,384.3 71.5,383.5 L71.5,329.3 C71.5,328.5 72.2,327.8 73,327.8 L109.9,327.8 L109.9,325.9 L124,325.9 L124,327.8 L160.5,327.8 C161.3,327.8 162,328.5 162,329.3 L162,383.5 C162,384.3 161.3,385 160.5,385 L124,385 L124,387.4 L160.5,387.4 C161.3,387.4 162,388.1 162,388.9 L162,443.1 C162,443.9 161.3,444.6 160.5,444.6 L124,444.6 L124,447 L160.5,447 C161.3,447 162,447.7 162,448.5 L162,502.7 C162,503.5 161.3,504.2 160.5,504.2 L124,504.2 L124,507.2 L109.9,507.2 L109.9,504.2 L73,504.2 C72.2,504.2 71.5,503.5 71.5,502.7 L71.5,448.5 L71.5,448.5 Z M39.1,340.5 C39.1,339.7 39.8,339 40.6,339 L66.8,339 C67.6,339 68.3,339.7 68.3,340.5 L68.3,369.5 C68.3,370.3 67.6,371 66.8,371 L40.6,371 C39.8,371 39.1,370.3 39.1,369.5 L39.1,340.5 L39.1,340.5 Z M39.1,400.4 C39.1,399.6 39.8,398.9 40.6,398.9 L66.8,398.9 C67.6,398.9 68.3,399.6 68.3,400.4 L68.3,429.4 C68.3,430.2 67.6,430.9 66.8,430.9 L40.6,430.9 C39.8,430.9 39.1,430.2 39.1,429.4 L39.1,400.4 L39.1,400.4 Z M39.1,460.2 C39.1,459.4 39.8,458.7 40.6,458.7 L66.8,458.7 C67.6,458.7 68.3,459.4 68.3,460.2 L68.3,489.2 C68.3,490 67.6,490.7 66.8,490.7 L40.6,490.7 C39.8,490.7 39.1,490 39.1,489.2 L39.1,460.2 L39.1,460.2 Z" id="Shape"></path>
                <path d="M153.3,683.3 C153.6,683.3 153.8,683.1 153.8,682.8 L153.8,628.6 C153.8,628.3 153.6,628.1 153.3,628.1 L116.8,628.1 L116.8,683.3 L153.3,683.3 L153.3,683.3 Z" id="Shape"></path>
                <path d="M165.9,431 L192.1,431 C192.4,431 192.6,430.8 192.6,430.5 L192.6,401.5 C192.6,401.2 192.4,401 192.1,401 L165.9,401 C165.6,401 165.4,401.2 165.4,401.5 L165.4,430.5 C165.4,430.8 165.6,431 165.9,431 L165.9,431 Z" id="Shape"></path>
                <path d="M65.7,628.1 C65.4,628.1 65.2,628.3 65.2,628.6 L65.2,682.8 C65.2,683.1 65.4,683.3 65.7,683.3 L102.6,683.3 L102.6,628.1 L65.7,628.1 L65.7,628.1 Z" id="Shape"></path>
                <path d="M65.7,687.7 C65.4,687.7 65.2,687.9 65.2,688.2 L65.2,742.4 C65.2,742.7 65.4,742.9 65.7,742.9 L102.6,742.9 L102.6,687.7 L65.7,687.7 L65.7,687.7 Z" id="Shape"></path>
                <path d="M153.3,742.9 C153.6,742.9 153.8,742.7 153.8,742.4 L153.8,688.2 C153.8,687.9 153.6,687.7 153.3,687.7 L116.8,687.7 L116.8,742.9 L153.3,742.9 L153.3,742.9 Z" id="Shape"></path>
                <path d="M153.3,802.4 C153.6,802.4 153.8,802.2 153.8,801.9 L153.8,747.7 C153.8,747.4 153.6,747.2 153.3,747.2 L116.8,747.2 L116.8,802.4 L153.3,802.4 L153.3,802.4 Z" id="Shape"></path>
                <path d="M160.5,384 C160.8,384 161,383.8 161,383.5 L161,329.3 C161,329 160.8,328.8 160.5,328.8 L124,328.8 L124,384 L160.5,384 L160.5,384 Z" id="Shape"></path>
                <path d="M160.5,443.6 C160.8,443.6 161,443.4 161,443.1 L161,388.9 C161,388.6 160.8,388.4 160.5,388.4 L124,388.4 L124,443.6 L160.5,443.6 L160.5,443.6 Z" id="Shape"></path>
                <path d="M73,328.8 C72.7,328.8 72.5,329 72.5,329.3 L72.5,383.5 C72.5,383.8 72.7,384 73,384 L109.9,384 L109.9,328.8 L73,328.8 L73,328.8 Z" id="Shape"></path>
                <path d="M165.9,490.8 L192.1,490.8 C192.4,490.8 192.6,490.6 192.6,490.3 L192.6,461.3 C192.6,461 192.4,460.8 192.1,460.8 L165.9,460.8 C165.6,460.8 165.4,461 165.4,461.3 L165.4,490.3 C165.4,490.6 165.6,490.8 165.9,490.8 L165.9,490.8 Z" id="Shape"></path>
                <path d="M160.5,503.2 C160.8,503.2 161,503 161,502.7 L161,448.5 C161,448.2 160.8,448 160.5,448 L124,448 L124,503.2 L160.5,503.2 L160.5,503.2 Z" id="Shape"></path>
                <path d="M73,503.2 L109.9,503.2 L109.9,448 L73,448 C72.7,448 72.5,448.2 72.5,448.5 L72.5,502.7 C72.5,502.9 72.7,503.2 73,503.2 L73,503.2 Z" id="Shape"></path>
                <path d="M73,388.4 C72.7,388.4 72.5,388.6 72.5,388.9 L72.5,443.1 C72.5,443.4 72.7,443.6 73,443.6 L109.9,443.6 L109.9,388.4 L73,388.4 L73,388.4 Z" id="Shape"></path>
                <path d="M40.6,370.1 L66.8,370.1 C67.1,370.1 67.3,369.9 67.3,369.6 L67.3,340.6 C67.3,340.3 67.1,340.1 66.8,340.1 L40.6,340.1 C40.3,340.1 40.1,340.3 40.1,340.6 L40.1,369.6 C40.1,369.8 40.4,370.1 40.6,370.1 L40.6,370.1 Z" id="Shape"></path>
                <path d="M40.6,429.9 L66.8,429.9 C67.1,429.9 67.3,429.7 67.3,429.4 L67.3,400.4 C67.3,400.1 67.1,399.9 66.8,399.9 L40.6,399.9 C40.3,399.9 40.1,400.1 40.1,400.4 L40.1,429.4 C40.1,429.7 40.4,429.9 40.6,429.9 L40.6,429.9 Z" id="Shape"></path>
                <path d="M310.2,516 L310.2,562 C310.2,562.3 310.4,562.5 310.7,562.5 L428.2,562.5 C428.5,562.5 428.7,562.3 428.7,562 L428.7,516 C428.7,515.7 428.5,515.5 428.2,515.5 L310.7,515.5 C310.5,515.5 310.2,515.7 310.2,516 L310.2,516 Z" id="Shape"></path>
                <path d="M359.2,578 C359.2,583.3 363.5,587.5 368.7,587.5 C374,587.5 378.2,583.2 378.2,578 C378.2,572.7 373.9,568.5 368.7,568.5 C363.5,568.5 359.2,572.7 359.2,578 L359.2,578 Z" id="Shape"></path>
                <path d="M396,1275.1 L396,1272.1 L415.6,1272.1 L415.6,1216.6 L415.6,1205.2 L411.6,1205.2 L411.6,1246.5 L411.2,1246.5 C411.3,1246.5 409.8,1246.7 407.3,1246.7 C401.2,1246.7 389.4,1245.5 380.2,1237.5 C372.5,1230.7 368.2,1220.6 367.4,1207.4 C366.8,1209.6 365.7,1211.4 364.2,1212.8 C360.7,1216 356,1216.3 354.6,1216.3 L354.2,1216.3 L353.8,1216.3 L353.8,1205.2 L220.9,1205.2 L220.9,1205.2 L218,1205.2 L215.2,1205.2 L193.5,1205.2 L193.5,1272.1 L207,1272.1 L207,1275.1 L396,1275.1 L396,1275.1 Z M271.5,1261 L271.9,1261 C272.1,1261 277.9,1260.7 282,1264.6 C283.5,1266 284.5,1267.9 285.2,1270 C286,1256.7 290.3,1246.5 298,1239.8 C310.9,1228.5 328.9,1230.7 329.1,1230.8 L329.5,1230.8 L329.5,1274.9 L329.4,1274.9 L328.6,1274.9 L328.6,1231.5 C326,1231.3 310.1,1230.2 298.5,1240.4 C290.1,1247.8 285.8,1259.4 285.8,1274.8 L285.8,1274.8 L285.8,1274.9 L285,1274.9 C285,1270.7 283.8,1267.5 281.4,1265.2 C278.2,1262.2 273.7,1261.9 272.4,1261.9 L272.4,1274.9 L272.3,1274.9 L271.5,1274.9 L271.5,1261 L271.5,1261 Z" id="Shape"></path>
                <path d="M382.5,578 C382.5,583.3 386.8,587.5 392,587.5 C397.2,587.5 401.5,583.2 401.5,578 C401.5,572.7 397.2,568.5 392,568.5 C386.8,568.5 382.5,572.7 382.5,578 L382.5,578 Z" id="Shape"></path>
                <path d="M93.2,955.1 L155.2,955.1 L158.7,955.1 L215.4,955.1 L215.4,950.9 L217.5,950.9 L217.5,915.8 L215.4,915.8 L215.4,895.7 L93.2,895.7 L93.2,955.1 L93.2,955.1 Z M166.4,904.7 C168.1,905 169.5,906.4 169.8,908.1 C170.4,911.1 167.8,913.7 164.8,913.1 C163.1,912.7 161.7,911.4 161.4,909.7 C160.8,906.7 163.4,904.1 166.4,904.7 L166.4,904.7 Z M158.2,919.6 C158.2,917.3 160.1,915.3 162.5,915.3 L168.9,915.3 C171.2,915.3 173.2,917.2 173.2,919.6 L173.2,931.3 L170,931.3 L170,947.3 L161.4,947.3 L161.4,931.3 L158.2,931.3 L158.2,919.6 L158.2,919.6 Z M143.4,904.5 C145.8,904.5 147.7,906.4 147.7,908.8 C147.7,911.2 145.8,913.1 143.4,913.1 C141,913.1 139.1,911.2 139.1,908.8 C139.1,906.4 141,904.5 143.4,904.5 L143.4,904.5 Z M139.1,918.2 C139.7,916.5 141.4,915.3 143.2,915.3 L143.5,915.3 C145.4,915.3 147,916.4 147.6,918.2 L153,934.5 L146.6,934.5 L146.6,947.3 L140.1,947.3 L140.1,934.5 L133.7,934.5 L139.1,918.2 L139.1,918.2 Z" id="Shape"></path>
                <path d="M335.9,578 C335.9,583.3 340.2,587.5 345.4,587.5 C350.7,587.5 354.9,583.2 354.9,578 C354.9,572.7 350.6,568.5 345.4,568.5 C340.2,568.5 335.9,572.7 335.9,578 L335.9,578 Z" id="Shape"></path>
                <path d="M122,103 L122.5,73.1 L109.3,102.9 L122,103 Z" id="Shape"></path>
                <path d="M137.1,136.1 L151.4,136.1 L152,104.1 L137.7,104 L137.1,136.1 Z" id="Shape"></path>
                <path d="M152.2,136.1 L166.3,136.1 L166.9,104.3 L152.8,104.1 L152.2,136.1 Z" id="Shape"></path>
                <path d="M324.8,288.4 L324.8,308.3 L221.2,308.3 L221.2,820.2 L221.2,825.3 L221.2,830.5 L219.1,830.5 L219.1,865.6 L220.5,865.6 L220.5,915.8 L218.3,915.8 L218.3,950.9 L220.5,950.9 L220.5,967.5 L218.2,967.5 L218.2,1009.4 L220.9,1009.4 L220.9,1197.1 L354.2,1197.1 L354.2,1201.9 L411.3,1201.9 L411.3,1197.1 L415.6,1197.1 L415.6,1171.8 L487.9,1171.8 L487.9,1193.8 L517.5,1193.8 L517.5,978.6 L517.5,971.9 L517.5,61.1 L449.4,61.1 L449.4,124.4 L324.8,124.4 L324.8,127.5 L313.3,127.5 L313.3,165.6 L324.8,165.6 L324.8,190.8 L313.3,190.8 L313.3,230.5 L324.8,230.5 L324.8,282.3 L324.8,288.4 L324.8,288.4 Z M294.8,636.7 L318.9,636.7 L318.9,658.5 L318.8,658.5 L318.8,659.4 L294.8,659.4 L294.8,658.5 L294.8,658.5 L294.8,636.7 L294.8,636.7 Z M428.2,514.5 C429,514.5 429.7,515.2 429.7,516 L429.7,562 C429.7,562.8 429,563.5 428.2,563.5 L310.7,563.5 C309.9,563.5 309.2,562.8 309.2,562 L309.2,516 C309.2,515.2 309.9,514.5 310.7,514.5 L428.2,514.5 L428.2,514.5 Z M311.6,501.4 C311.6,495.6 316.3,490.9 322.1,490.9 C327.9,490.9 332.6,495.6 332.6,501.4 C332.6,507.2 327.9,511.9 322.1,511.9 C316.3,511.9 311.6,507.2 311.6,501.4 L311.6,501.4 Z M334.9,501.4 C334.9,495.6 339.6,490.9 345.4,490.9 C351.2,490.9 355.9,495.6 355.9,501.4 C355.9,507.2 351.2,511.9 345.4,511.9 C339.6,511.9 334.9,507.2 334.9,501.4 L334.9,501.4 Z M358.2,501.4 C358.2,495.6 362.9,490.9 368.7,490.9 C374.5,490.9 379.2,495.6 379.2,501.4 C379.2,507.2 374.5,511.9 368.7,511.9 C362.9,511.9 358.2,507.2 358.2,501.4 L358.2,501.4 Z M381.5,501.4 C381.5,495.6 386.2,490.9 392,490.9 C397.8,490.9 402.5,495.6 402.5,501.4 C402.5,507.2 397.8,511.9 392,511.9 C386.2,511.9 381.5,507.2 381.5,501.4 L381.5,501.4 Z M404.8,501.4 C404.8,495.6 409.5,490.9 415.3,490.9 C421.1,490.9 425.8,495.6 425.8,501.4 C425.8,507.2 421.1,511.9 415.3,511.9 C409.5,511.9 404.8,507.2 404.8,501.4 L404.8,501.4 Z M420.3,637.7 L420.8,637.7 L420.8,636.7 L444.9,636.7 L444.9,658.5 L444.3,658.5 L444.3,659.4 L420.3,659.4 L420.3,637.7 L420.3,637.7 Z M415.3,588.5 C409.5,588.5 404.8,583.8 404.8,578 C404.8,572.2 409.5,567.5 415.3,567.5 C421.1,567.5 425.8,572.2 425.8,578 C425.8,583.8 421.1,588.5 415.3,588.5 L415.3,588.5 Z M402.5,578 C402.5,583.8 397.8,588.5 392,588.5 C386.2,588.5 381.5,583.8 381.5,578 C381.5,572.2 386.2,567.5 392,567.5 C397.8,567.5 402.5,572.2 402.5,578 L402.5,578 Z M379.3,578 C379.3,583.8 374.6,588.5 368.8,588.5 C363,588.5 358.3,583.8 358.3,578 C358.3,572.2 363,567.5 368.8,567.5 C374.5,567.5 379.3,572.2 379.3,578 L379.3,578 Z M356,578 C356,583.8 351.3,588.5 345.5,588.5 C339.7,588.5 335,583.8 335,578 C335,572.2 339.7,567.5 345.5,567.5 C351.2,567.5 356,572.2 356,578 L356,578 Z M332.7,578 C332.7,583.8 328,588.5 322.2,588.5 C316.4,588.5 311.7,583.8 311.7,578 C311.7,572.2 316.4,567.5 322.2,567.5 C328,567.5 332.7,572.2 332.7,578 L332.7,578 Z M439.8,985 L292,985 L292,960.2 L292,820.2 L341.8,820.2 L341.8,960.2 L439.8,960.2 L439.8,985 L439.8,985 Z M442.6,890.6 L420.8,890.6 L420.8,866.9 L442.6,866.9 L442.6,890.6 L442.6,890.6 Z M446,823.9 C446,824.2 445.8,824.4 445.5,824.4 L347.9,824.4 C347.7,824.4 347.4,824.2 347.4,823.9 L347.4,821.4 C347.4,821.1 347.6,820.9 347.9,820.9 L445.5,820.9 C445.8,820.9 446,821.1 446,821.4 L446,823.9 L446,823.9 Z M423.1,417.5 L423.1,408.2 L423.6,408.2 L423.6,406.3 L442.6,406.3 L442.6,368.1 L443.2,368.1 L443.2,366.1 L420.2,366.1 L420.2,286.2 L465,286.2 L465,366.1 L448.5,366.1 L448.5,406.3 L448.5,413.1 L448.5,425.1 L447.9,425.1 L447.9,426.9 L423.1,426.9 L423.1,424.4 L324.7,424.4 L322.2,424.4 L294.9,424.4 L294.9,422.6 L294.9,422.6 L294.9,397.1 L324.9,397.1 L324.9,417.5 L423.1,417.5 L423.1,417.5 Z" id="Shape"></path>
                <path d="M312.6,578 C312.6,583.3 316.9,587.5 322.1,587.5 C327.4,587.5 331.6,583.2 331.6,578 C331.6,572.7 327.3,568.5 322.1,568.5 C316.9,568.5 312.6,572.7 312.6,578 L312.6,578 Z" id="Shape"></path>
                <path d="M122.2,136.1 L136.3,136.1 L136.9,104 L122.8,103.9 L122.2,136.1 Z" id="Shape"></path>
                <path d="M331.7,501.4 C331.7,496.1 327.4,491.9 322.2,491.9 C316.9,491.9 312.7,496.2 312.7,501.4 C312.7,506.7 317,510.9 322.2,510.9 C327.4,510.9 331.7,506.6 331.7,501.4 L331.7,501.4 Z" id="Shape"></path>
                <path d="M355,501.4 C355,496.1 350.7,491.9 345.5,491.9 C340.2,491.9 336,496.2 336,501.4 C336,506.7 340.3,510.9 345.5,510.9 C350.7,510.9 355,506.6 355,501.4 L355,501.4 Z" id="Shape"></path>
                <path d="M65.7,802.4 L102.6,802.4 L102.6,747.2 L65.7,747.2 C65.4,747.2 65.2,747.4 65.2,747.7 L65.2,801.9 C65.2,802.2 65.5,802.4 65.7,802.4 L65.7,802.4 Z" id="Shape"></path>
                <path d="M378.3,501.4 C378.3,496.1 374,491.9 368.8,491.9 C363.5,491.9 359.3,496.2 359.3,501.4 C359.3,506.7 363.6,510.9 368.8,510.9 C374,510.9 378.3,506.6 378.3,501.4 L378.3,501.4 Z" id="Shape"></path>
                <path d="M109.2,136.1 L120.8,136.1 L109.2,105.1 L109.2,136.1 Z" id="Shape"></path>
                <path d="M401.5,501.4 C401.5,496.1 397.2,491.9 392,491.9 C386.8,491.9 382.5,496.2 382.5,501.4 C382.5,506.7 386.8,510.9 392,510.9 C397.2,510.9 401.5,506.6 401.5,501.4 L401.5,501.4 Z" id="Shape"></path>
                <path d="M104.5,215.6 L228.7,215.6 L228.7,137.3 L104.5,137.3 L104.5,215.6 L104.5,215.6 Z M172.4,156.6 C176.9,156.6 179.7,157.6 180.9,158.2 L179.8,162 C178,161.1 175.5,160.5 172.6,160.5 C164.2,160.5 158.6,165.9 158.6,175.3 C158.6,184.1 163.7,189.7 172.4,189.7 C175.2,189.7 178.1,189.1 179.9,188.2 L180.9,191.8 C179.2,192.6 175.8,193.5 171.4,193.5 C161.3,193.5 153.7,187.1 153.7,175.4 C153.7,164.2 161.3,156.6 172.4,156.6 L172.4,156.6 Z" id="Shape"></path>
                <path d="M424.8,501.4 C424.8,496.1 420.5,491.9 415.3,491.9 C410,491.9 405.8,496.2 405.8,501.4 C405.8,506.7 410.1,510.9 415.3,510.9 C420.6,510.9 424.8,506.6 424.8,501.4 L424.8,501.4 Z" id="Shape"></path>
                <path d="M415.3,568.5 C410,568.5 405.8,572.8 405.8,578 C405.8,583.3 410.1,587.5 415.3,587.5 C420.6,587.5 424.8,583.2 424.8,578 C424.8,572.7 420.6,568.5 415.3,568.5 L415.3,568.5 Z" id="Shape"></path>
                <path d="M122,103.8 L109.5,103.7 L121.4,135.6 L122,103.8 Z" id="Shape"></path>
                <path d="M208.7,250.3 L194.5,250.1 L194,282.3 L208.1,282.3 L208.7,250.3 Z" id="Shape"></path>
                <path d="M179.1,216.9 L165,216.9 L164.5,249.1 L178.6,249.2 L179.1,216.9 Z" id="Shape"></path>
                <path d="M194.2,216.9 L179.9,216.9 L179.4,249.2 L193.7,249.3 L194.2,216.9 Z" id="Shape"></path>
                <path d="M193.7,250.1 L179.4,250 L178.9,282.3 L193.2,282.3 L193.7,250.1 Z" id="Shape"></path>
                <path d="M209.2,216.9 L195,216.9 L194.5,249.3 L208.7,249.5 L209.2,216.9 Z" id="Shape"></path>
                <path d="M222.2,252.4 L208.9,282.3 L221.7,282.3 L222.2,252.4 Z" id="Shape"></path>
                <path d="M209.5,249.5 L222,249.6 L210.1,217.5 L209.5,249.5 Z" id="Shape"></path>
                <path d="M209,280.1 L222.2,250.4 L222.2,250.4 L209.5,250.3 L209,280.1 Z" id="Shape"></path>
                <path d="M222.7,216.9 L210.7,216.9 L222.2,247.9 L222.7,216.9 Z" id="Shape"></path>
                <path d="M120,216.9 L106.4,216.9 L105.9,248.5 L119.5,248.6 L120,216.9 Z" id="Shape"></path>
                <path d="M105.4,282.3 L115.9,282.3 L119,282.3 L119.5,249.4 L105.9,249.3 L105.4,282.3 Z" id="Shape"></path>
                <path d="M178.6,250 L164.5,249.9 L164,282.3 L178.1,282.3 L178.6,250 Z" id="Shape"></path>
                <path d="M134.2,249.6 L120.3,249.4 L119.8,282.3 L133.7,282.3 L134.2,249.6 Z" id="Shape"></path>
                <path d="M214.5,825.2 L93.2,825.2 L93.2,885.4 L215.4,885.4 L215.4,865.6 L218.3,865.6 L218.3,830.5 L214.5,830.5 L214.5,825.2 L214.5,825.2 L214.5,825.2 Z M166.8,834.9 C168.5,835.2 169.9,836.6 170.2,838.3 C170.8,841.3 168.2,843.9 165.2,843.3 C163.6,843 162.2,841.6 161.8,839.9 C161.2,836.9 163.8,834.3 166.8,834.9 L166.8,834.9 Z M143.8,834.8 C146.2,834.8 148.1,836.7 148.1,839.1 C148.1,841.5 146.2,843.4 143.8,843.4 C141.5,843.4 139.5,841.5 139.5,839.1 C139.5,836.7 141.4,834.8 143.8,834.8 L143.8,834.8 Z M147,864.7 L147,877.5 L140.5,877.5 L140.5,864.7 L134.1,864.7 L139.5,848.4 C140.1,846.7 141.8,845.5 143.6,845.5 L143.9,845.5 C145.8,845.5 147.4,846.6 148,848.4 L153.4,864.7 L147,864.7 L147,864.7 Z M173.6,861.5 L170.3,861.5 L170.3,877.5 L161.8,877.5 L161.8,861.5 L158.6,861.5 L158.6,849.8 C158.6,847.5 160.5,845.5 162.9,845.5 L169.3,845.5 C171.6,845.5 173.6,847.4 173.6,849.8 L173.6,861.5 L173.6,861.5 Z" id="Shape"></path>
                <path d="M134.7,216.9 L120.8,216.9 L120.3,248.6 L134.2,248.8 L134.7,216.9 Z" id="Shape"></path>
                <path d="M164.2,216.9 L150.5,216.9 L150,248.9 L163.7,249 L164.2,216.9 Z" id="Shape"></path>
                <path d="M163.7,249.8 L150,249.7 L149.5,282.3 L163.2,282.3 L163.7,249.8 Z" id="Shape"></path>
                <path d="M148.7,282.3 L149.2,249.7 L135,249.6 L134.5,282.3 L139.4,282.3 L148.7,282.3 Z" id="Shape"></path>
                <path d="M149.7,216.9 L135.5,216.9 L135,248.8 L149.2,248.9 L149.7,216.9 Z" id="Shape"></path>
                <path d="M109.2,100.9 L122.5,71.1 L109.2,71.1 L109.2,100.9 Z" id="Shape"></path>
                <path d="M708,210.8 L681.8,210.8 C681.5,210.8 681.3,211 681.3,211.3 L681.3,240.3 C681.3,240.6 681.5,240.8 681.8,240.8 L708,240.8 C708.3,240.8 708.5,240.6 708.5,240.3 L708.5,211.3 C708.5,211.1 708.2,210.8 708,210.8 L708,210.8 Z" id="Shape"></path>
                <path d="M676.4,78.8 L639.9,78.8 L639.9,134 L676.4,134 C676.7,134 676.9,133.8 676.9,133.5 L676.9,79.3 C676.9,79.1 676.7,78.8 676.4,78.8 L676.4,78.8 Z" id="Shape"></path>
                <path d="M553.8,1099.8 L580,1099.8 C580.3,1099.8 580.5,1099.6 580.5,1099.3 L580.5,1070.3 C580.5,1070 580.3,1069.8 580,1069.8 L553.8,1069.8 C553.5,1069.8 553.3,1070 553.3,1070.3 L553.3,1099.3 C553.3,1099.6 553.5,1099.8 553.8,1099.8 L553.8,1099.8 Z" id="Shape"></path>
                <path d="M524.2,1193.8 L742.6,1193.8 L742.6,978.6 L524.2,978.6 L524.2,1193.8 L524.2,1193.8 Z M677.5,1071.4 C677.5,1070.6 678.2,1069.9 679,1069.9 L705.2,1069.9 C706,1069.9 706.7,1070.6 706.7,1071.4 L706.7,1100.4 C706.7,1101.2 706,1101.9 705.2,1101.9 L679,1101.9 C678.2,1101.9 677.5,1101.2 677.5,1100.4 L677.5,1071.4 L677.5,1071.4 Z M677.5,1131.3 C677.5,1130.5 678.2,1129.8 679,1129.8 L705.2,1129.8 C706,1129.8 706.7,1130.5 706.7,1131.3 L706.7,1160.3 C706.7,1161.1 706,1161.8 705.2,1161.8 L679,1161.8 C678.2,1161.8 677.5,1161.1 677.5,1160.3 L677.5,1131.3 L677.5,1131.3 Z M584.6,1118.5 C584.6,1117.7 585.3,1117 586.1,1117 L623,1117 L623,1114.6 L586.1,1114.6 C585.3,1114.6 584.6,1113.9 584.6,1113.1 L584.6,1058.9 C584.6,1058.1 585.3,1057.4 586.1,1057.4 L623,1057.4 L623,1053.9 L637.1,1053.9 L637.1,1057.4 L673.6,1057.4 C674.4,1057.4 675.1,1058.1 675.1,1058.9 L675.1,1113.1 C675.1,1113.9 674.4,1114.6 673.6,1114.6 L637.1,1114.6 L637.1,1117 L673.6,1117 C674.4,1117 675.1,1117.7 675.1,1118.5 L675.1,1172.7 C675.1,1173.5 674.4,1174.2 673.6,1174.2 L637.1,1174.2 L637.1,1177.2 L623,1177.2 L623,1174.2 L586.1,1174.2 C585.3,1174.2 584.6,1173.5 584.6,1172.7 L584.6,1118.5 L584.6,1118.5 Z M552.3,1070.3 C552.3,1069.5 553,1068.8 553.8,1068.8 L580,1068.8 C580.8,1068.8 581.5,1069.5 581.5,1070.3 L581.5,1099.3 C581.5,1100.1 580.8,1100.8 580,1100.8 L553.8,1100.8 C553,1100.8 552.3,1100.1 552.3,1099.3 L552.3,1070.3 L552.3,1070.3 Z M552.3,1130.1 C552.3,1129.3 553,1128.6 553.8,1128.6 L580,1128.6 C580.8,1128.6 581.5,1129.3 581.5,1130.1 L581.5,1159.1 C581.5,1159.9 580.8,1160.6 580,1160.6 L553.8,1160.6 C553,1160.6 552.3,1159.9 552.3,1159.1 L552.3,1130.1 L552.3,1130.1 Z" id="Shape"></path>
                <path d="M708,151 L681.8,151 C681.5,151 681.3,151.2 681.3,151.5 L681.3,180.5 C681.3,180.8 681.5,181 681.8,181 L708,181 C708.3,181 708.5,180.8 708.5,180.5 L708.5,151.5 C708.5,151.2 708.2,151 708,151 L708,151 Z" id="Shape"></path>
                <path d="M708,91.2 L681.8,91.2 C681.5,91.2 681.3,91.4 681.3,91.7 L681.3,120.7 C681.3,121 681.5,121.2 681.8,121.2 L708,121.2 C708.3,121.2 708.5,121 708.5,120.7 L708.5,91.7 C708.5,91.4 708.2,91.2 708,91.2 L708,91.2 Z" id="Shape"></path>
                <path d="M742.6,61.1 L524.2,61.1 L524.2,362.7 L742.6,362.7 L742.6,61.1 L742.6,61.1 Z M584.2,239.2 C584.2,240 583.5,240.7 582.7,240.7 L556.5,240.7 C555.7,240.7 555,240 555,239.2 L555,210.2 C555,209.4 555.7,208.7 556.5,208.7 L582.7,208.7 C583.5,208.7 584.2,209.4 584.2,210.2 L584.2,239.2 L584.2,239.2 Z M584.2,179.4 C584.2,180.2 583.5,180.9 582.7,180.9 L556.5,180.9 C555.7,180.9 555,180.2 555,179.4 L555,150.4 C555,149.6 555.7,148.9 556.5,148.9 L582.7,148.9 C583.5,148.9 584.2,149.6 584.2,150.4 L584.2,179.4 L584.2,179.4 Z M584.2,119.6 C584.2,120.4 583.5,121.1 582.7,121.1 L556.5,121.1 C555.7,121.1 555,120.4 555,119.6 L555,90.6 C555,89.8 555.7,89.1 556.5,89.1 L582.7,89.1 C583.5,89.1 584.2,89.8 584.2,90.6 L584.2,119.6 L584.2,119.6 Z M677.9,133.5 C677.9,134.3 677.2,135 676.4,135 L639.9,135 L639.9,137.4 L676.4,137.4 C677.2,137.4 677.9,138.1 677.9,138.9 L677.9,193.1 C677.9,193.9 677.2,194.6 676.4,194.6 L639.9,194.6 L639.9,197 L676.4,197 C677.2,197 677.9,197.7 677.9,198.5 L677.9,252.7 C677.9,253.5 677.2,254.2 676.4,254.2 L639.9,254.2 L639.9,257.2 L625.8,257.2 L625.8,254.2 L588.9,254.2 C588.1,254.2 587.4,253.5 587.4,252.7 L587.4,198.5 C587.4,197.7 588.1,197 588.9,197 L625.8,197 L625.8,194.6 L588.9,194.6 C588.1,194.6 587.4,193.9 587.4,193.1 L587.4,138.9 C587.4,138.1 588.1,137.4 588.9,137.4 L625.8,137.4 L625.8,135 L588.9,135 C588.1,135 587.4,134.3 587.4,133.5 L587.4,79.3 C587.4,78.5 588.1,77.8 588.9,77.8 L625.8,77.8 L625.8,75.9 L639.9,75.9 L639.9,77.8 L676.4,77.8 C677.2,77.8 677.9,78.5 677.9,79.3 L677.9,133.5 L677.9,133.5 Z M709.5,240.4 C709.5,241.2 708.8,241.9 708,241.9 L681.8,241.9 C681,241.9 680.3,241.2 680.3,240.4 L680.3,211.4 C680.3,210.6 681,209.9 681.8,209.9 L708,209.9 C708.8,209.9 709.5,210.6 709.5,211.4 L709.5,240.4 L709.5,240.4 Z M709.5,180.5 C709.5,181.3 708.8,182 708,182 L681.8,182 C681,182 680.3,181.3 680.3,180.5 L680.3,151.5 C680.3,150.7 681,150 681.8,150 L708,150 C708.8,150 709.5,150.7 709.5,151.5 L709.5,180.5 L709.5,180.5 Z M709.5,120.7 C709.5,121.5 708.8,122.2 708,122.2 L681.8,122.2 C681,122.2 680.3,121.5 680.3,120.7 L680.3,91.7 C680.3,90.9 681,90.2 681.8,90.2 L708,90.2 C708.8,90.2 709.5,90.9 709.5,91.7 L709.5,120.7 L709.5,120.7 Z" id="Shape"></path>
                <path d="M687.8,732.1 L714,732.1 C714.3,732.1 714.5,731.9 714.5,731.6 L714.5,702.6 C714.5,702.3 714.3,702.1 714,702.1 L687.8,702.1 C687.5,702.1 687.3,702.3 687.3,702.6 L687.3,731.6 C687.3,731.9 687.5,732.1 687.8,732.1 L687.8,732.1 Z" id="Shape"></path>
                <path d="M196.6,136.1 L209.3,136.1 L209.8,104.7 L197.2,104.6 L196.6,136.1 Z" id="Shape"></path>
                <path d="M676.4,253.2 C676.7,253.2 676.9,253 676.9,252.7 L676.9,198.5 C676.9,198.2 676.7,198 676.4,198 L639.9,198 L639.9,253.2 L676.4,253.2 L676.4,253.2 Z" id="Shape"></path>
                <path d="M582.7,90.1 L556.5,90.1 C556.2,90.1 556,90.3 556,90.6 L556,119.6 C556,119.9 556.2,120.1 556.5,120.1 L582.7,120.1 C583,120.1 583.2,119.9 583.2,119.6 L583.2,90.6 C583.2,90.3 583,90.1 582.7,90.1 L582.7,90.1 Z" id="Shape"></path>
                <path d="M225.5,71.1 L123.4,71.1 L122.8,103.1 L136.9,103.2 L137.4,71.1 L138.2,71.1 L137.7,103.2 L152,103.3 L152.5,71.1 L153.3,71.1 L152.8,103.3 L166.9,103.5 L167.4,71.1 L168.2,71.1 L167.7,103.5 L181.4,103.6 L181.9,71.1 L182.7,71.1 L182.2,103.6 L196.4,103.8 L196.9,71.1 L197.7,71.1 L197.2,103.8 L209.9,103.9 L210.4,71.1 L211.2,71.1 L210.7,103.9 L225.5,104 L225.5,71.1 Z" id="Shape"></path>
                <path d="M588.9,78.8 C588.6,78.8 588.4,79 588.4,79.3 L588.4,133.5 C588.4,133.8 588.6,134 588.9,134 L625.8,134 L625.8,78.8 L588.9,78.8 L588.9,78.8 Z" id="Shape"></path>
                <path d="M582.7,149.9 L556.5,149.9 C556.2,149.9 556,150.1 556,150.4 L556,179.4 C556,179.7 556.2,179.9 556.5,179.9 L582.7,179.9 C583,179.9 583.2,179.7 583.2,179.4 L583.2,150.4 C583.2,150.1 583,149.9 582.7,149.9 L582.7,149.9 Z" id="Shape"></path>
                <path d="M553.8,1159.7 L580,1159.7 C580.3,1159.7 580.5,1159.5 580.5,1159.2 L580.5,1130.2 C580.5,1129.9 580.3,1129.7 580,1129.7 L553.8,1129.7 C553.5,1129.7 553.3,1129.9 553.3,1130.2 L553.3,1159.2 C553.3,1159.4 553.5,1159.7 553.8,1159.7 L553.8,1159.7 Z" id="Shape"></path>
                <path d="M676.4,193.6 C676.7,193.6 676.9,193.4 676.9,193.1 L676.9,138.9 C676.9,138.6 676.7,138.4 676.4,138.4 L639.9,138.4 L639.9,193.6 L676.4,193.6 L676.4,193.6 Z" id="Shape"></path>
                <path d="M588.9,138.4 C588.6,138.4 588.4,138.6 588.4,138.9 L588.4,193.1 C588.4,193.4 588.6,193.6 588.9,193.6 L625.8,193.6 L625.8,138.4 L588.9,138.4 L588.9,138.4 Z" id="Shape"></path>
                <path d="M588.9,198 C588.6,198 588.4,198.2 588.4,198.5 L588.4,252.7 C588.4,253 588.6,253.2 588.9,253.2 L625.8,253.2 L625.8,198 L588.9,198 L588.9,198 Z" id="Shape"></path>
                <path d="M687.8,792 L714,792 C714.3,792 714.5,791.8 714.5,791.5 L714.5,762.5 C714.5,762.2 714.3,762 714,762 L687.8,762 C687.5,762 687.3,762.2 687.3,762.5 L687.3,791.5 C687.3,791.7 687.5,792 687.8,792 L687.8,792 Z" id="Shape"></path>
                <path d="M210.1,136.1 L225.5,136.1 L225.5,104.8 L210.6,104.7 L210.1,136.1 Z" id="Shape"></path>
                <path d="M167.1,136.1 L180.8,136.1 L181.4,104.4 L167.7,104.3 L167.1,136.1 Z" id="Shape"></path>
                <path d="M679,1100.9 L705.2,1100.9 C705.5,1100.9 705.7,1100.7 705.7,1100.4 L705.7,1071.4 C705.7,1071.1 705.5,1070.9 705.2,1070.9 L679,1070.9 C678.7,1070.9 678.5,1071.1 678.5,1071.4 L678.5,1100.4 C678.5,1100.7 678.7,1100.9 679,1100.9 L679,1100.9 Z" id="Shape"></path>
                <path d="M679,1160.8 L705.2,1160.8 C705.5,1160.8 705.7,1160.6 705.7,1160.3 L705.7,1131.3 C705.7,1131 705.5,1130.8 705.2,1130.8 L679,1130.8 C678.7,1130.8 678.5,1131 678.5,1131.3 L678.5,1160.3 C678.5,1160.6 678.7,1160.8 679,1160.8 L679,1160.8 Z" id="Shape"></path>
                <path d="M524.2,971.9 L742.6,971.9 L742.6,672.8 L524.2,672.8 L524.2,971.9 L524.2,971.9 Z M686.3,702.6 C686.3,701.8 687,701.1 687.8,701.1 L714,701.1 C714.8,701.1 715.5,701.8 715.5,702.6 L715.5,731.6 C715.5,732.4 714.8,733.1 714,733.1 L687.8,733.1 C687,733.1 686.3,732.4 686.3,731.6 L686.3,702.6 L686.3,702.6 Z M686.3,762.4 C686.3,761.6 687,760.9 687.8,760.9 L714,760.9 C714.8,760.9 715.5,761.6 715.5,762.4 L715.5,791.4 C715.5,792.2 714.8,792.9 714,792.9 L687.8,792.9 C687,792.9 686.3,792.2 686.3,791.4 L686.3,762.4 L686.3,762.4 Z M686.3,822.3 C686.3,821.5 687,820.8 687.8,820.8 L714,820.8 C714.8,820.8 715.5,821.5 715.5,822.3 L715.5,851.3 C715.5,852.1 714.8,852.8 714,852.8 L687.8,852.8 C687,852.8 686.3,852.1 686.3,851.3 L686.3,822.3 L686.3,822.3 Z M593.4,809.5 C593.4,808.7 594.1,808 594.9,808 L631.8,808 L631.8,805.6 L594.9,805.6 C594.1,805.6 593.4,804.9 593.4,804.1 L593.4,749.9 C593.4,749.1 594.1,748.4 594.9,748.4 L631.8,748.4 L631.8,746 L594.9,746 C594.1,746 593.4,745.3 593.4,744.5 L593.4,690.3 C593.4,689.5 594.1,688.8 594.9,688.8 L631.8,688.8 L631.8,686.9 L645.9,686.9 L645.9,688.8 L682.4,688.8 C683.2,688.8 683.9,689.5 683.9,690.3 L683.9,744.5 C683.9,745.3 683.2,746 682.4,746 L645.9,746 L645.9,748.4 L682.4,748.4 C683.2,748.4 683.9,749.1 683.9,749.9 L683.9,804 C683.9,804.8 683.2,805.5 682.4,805.5 L645.9,805.5 L645.9,807.9 L682.4,807.9 C683.2,807.9 683.9,808.6 683.9,809.4 L683.9,863.6 C683.9,864.4 683.2,865.1 682.4,865.1 L645.9,865.1 L645.9,868.1 L631.8,868.1 L631.8,865.1 L594.9,865.1 C594.1,865.1 593.4,864.4 593.4,863.6 L593.4,809.5 L593.4,809.5 Z M561,701.5 C561,700.7 561.7,700 562.5,700 L588.7,700 C589.5,700 590.2,700.7 590.2,701.5 L590.2,730.5 C590.2,731.3 589.5,732 588.7,732 L562.5,732 C561.7,732 561,731.3 561,730.5 L561,701.5 L561,701.5 Z M561,761.3 C561,760.5 561.7,759.8 562.5,759.8 L588.7,759.8 C589.5,759.8 590.2,760.5 590.2,761.3 L590.2,790.3 C590.2,791.1 589.5,791.8 588.7,791.8 L562.5,791.8 C561.7,791.8 561,791.1 561,790.3 L561,761.3 L561,761.3 Z M561,821.2 C561,820.4 561.7,819.7 562.5,819.7 L588.7,819.7 C589.5,819.7 590.2,820.4 590.2,821.2 L590.2,850.2 C590.2,851 589.5,851.7 588.7,851.7 L562.5,851.7 C561.7,851.7 561,851 561,850.2 L561,821.2 L561,821.2 Z" id="Shape"></path>
                <path d="M181.6,136.1 L195.8,136.1 L196.4,104.6 L182.2,104.4 L181.6,136.1 Z" id="Shape"></path>
                <path d="M673.6,1173.1 C673.9,1173.1 674.1,1172.9 674.1,1172.6 L674.1,1118.4 C674.1,1118.1 673.9,1117.9 673.6,1117.9 L637.1,1117.9 L637.1,1173.1 L673.6,1173.1 L673.6,1173.1 Z" id="Shape"></path>
                <path d="M586.1,1058.4 C585.8,1058.4 585.6,1058.6 585.6,1058.9 L585.6,1113.1 C585.6,1113.4 585.8,1113.6 586.1,1113.6 L623,1113.6 L623,1058.4 L586.1,1058.4 L586.1,1058.4 Z" id="Shape"></path>
                <path d="M562.5,850.7 L588.7,850.7 C589,850.7 589.2,850.5 589.2,850.2 L589.2,821.2 C589.2,820.9 589,820.7 588.7,820.7 L562.5,820.7 C562.2,820.7 562,820.9 562,821.2 L562,850.2 C562,850.4 562.3,850.7 562.5,850.7 L562.5,850.7 Z" id="Shape"></path>
                <path d="M673.6,1113.5 C673.9,1113.5 674.1,1113.3 674.1,1113 L674.1,1058.8 C674.1,1058.5 673.9,1058.3 673.6,1058.3 L637.1,1058.3 L637.1,1113.5 L673.6,1113.5 L673.6,1113.5 Z" id="Shape"></path>
                <path d="M687.8,851.8 L714,851.8 C714.3,851.8 714.5,851.6 714.5,851.3 L714.5,822.3 C714.5,822 714.3,821.8 714,821.8 L687.8,821.8 C687.5,821.8 687.3,822 687.3,822.3 L687.3,851.3 C687.3,851.6 687.5,851.8 687.8,851.8 L687.8,851.8 Z" id="Shape"></path>
                <path d="M586.1,1173.1 L623,1173.1 L623,1118 L586.1,1118 C585.8,1118 585.6,1118.2 585.6,1118.5 L585.6,1172.7 C585.6,1172.9 585.8,1173.1 586.1,1173.1 L586.1,1173.1 Z" id="Shape"></path>
                <path d="M594.9,689.8 C594.6,689.8 594.4,690 594.4,690.3 L594.4,744.5 C594.4,744.8 594.6,745 594.9,745 L631.8,745 L631.8,689.8 L594.9,689.8 L594.9,689.8 Z" id="Shape"></path>
                <path d="M594.9,749.4 C594.6,749.4 594.4,749.6 594.4,749.9 L594.4,804 C594.4,804.3 594.6,804.5 594.9,804.5 L631.8,804.5 L631.8,749.3 L594.9,749.3 L594.9,749.4 Z" id="Shape"></path>
                <path d="M682.4,744.9 C682.7,744.9 682.9,744.7 682.9,744.4 L682.9,690.2 C682.9,689.9 682.7,689.7 682.4,689.7 L645.9,689.7 L645.9,744.9 L682.4,744.9 L682.4,744.9 Z" id="Shape"></path>
                <path d="M594.9,864.1 L631.8,864.1 L631.8,809 L594.9,809 C594.6,809 594.4,809.2 594.4,809.5 L594.4,863.7 C594.4,863.9 594.6,864.1 594.9,864.1 L594.9,864.1 Z" id="Shape"></path>
                <path d="M562.5,731 L588.7,731 C589,731 589.2,730.8 589.2,730.5 L589.2,701.5 C589.2,701.2 589,701 588.7,701 L562.5,701 C562.2,701 562,701.2 562,701.5 L562,730.5 C562,730.8 562.3,731 562.5,731 L562.5,731 Z" id="Shape"></path>
                <path d="M562.5,790.8 L588.7,790.8 C589,790.8 589.2,790.6 589.2,790.3 L589.2,761.3 C589.2,761 589,760.8 588.7,760.8 L562.5,760.8 C562.2,760.8 562,761 562,761.3 L562,790.3 C562,790.6 562.3,790.8 562.5,790.8 L562.5,790.8 Z" id="Shape"></path>
                <path d="M682.4,864.1 C682.7,864.1 682.9,863.9 682.9,863.6 L682.9,809.4 C682.9,809.1 682.7,808.9 682.4,808.9 L645.9,808.9 L645.9,864.1 L682.4,864.1 L682.4,864.1 Z" id="Shape"></path>
                <path d="M682.4,804.5 C682.7,804.5 682.9,804.3 682.9,804 L682.9,749.8 C682.9,749.5 682.7,749.3 682.4,749.3 L645.9,749.3 L645.9,804.5 L682.4,804.5 L682.4,804.5 Z" id="Shape"></path>
                <path d="M595.3,478.6 C595,478.6 594.8,478.8 594.8,479.1 L594.8,533.3 C594.8,533.6 595,533.8 595.3,533.8 L632.2,533.8 L632.2,478.6 L595.3,478.6 L595.3,478.6 Z" id="Shape"></path>
                <path d="M682.8,533.7 C683.1,533.7 683.3,533.5 683.3,533.2 L683.3,479 C683.3,478.7 683.1,478.5 682.8,478.5 L646.3,478.5 L646.3,533.7 L682.8,533.7 L682.8,533.7 Z" id="Shape"></path>
                <path d="M682.8,593.3 C683.1,593.3 683.3,593.1 683.3,592.8 L683.3,538.6 C683.3,538.3 683.1,538.1 682.8,538.1 L646.3,538.1 L646.3,593.3 L682.8,593.3 L682.8,593.3 Z" id="Shape"></path>
                <path d="M595.3,538.2 C595,538.2 594.8,538.4 594.8,538.7 L594.8,592.9 C594.8,593.2 595,593.4 595.3,593.4 L632.2,593.4 L632.2,538.2 L595.3,538.2 L595.3,538.2 Z" id="Shape"></path>
                <path d="M688.2,520.9 L714.4,520.9 C714.7,520.9 714.9,520.7 714.9,520.4 L714.9,491.4 C714.9,491.1 714.7,490.9 714.4,490.9 L688.2,490.9 C687.9,490.9 687.7,491.1 687.7,491.4 L687.7,520.4 C687.7,520.7 687.9,520.9 688.2,520.9 L688.2,520.9 Z" id="Shape"></path>
                <path d="M688.2,640.6 L714.4,640.6 C714.7,640.6 714.9,640.4 714.9,640.1 L714.9,611.1 C714.9,610.8 714.7,610.6 714.4,610.6 L688.2,610.6 C687.9,610.6 687.7,610.8 687.7,611.1 L687.7,640.1 C687.7,640.3 687.9,640.6 688.2,640.6 L688.2,640.6 Z" id="Shape"></path>
                <path d="M0,857.6 L78.9,857.6 L78.9,825.2 L78.9,820.2 L93.2,820.2 L214.5,820.2 L214.5,566.7 L0,566.7 L0,857.6 L0,857.6 Z M157.1,640.9 C157.1,640.1 157.8,639.4 158.6,639.4 L184.8,639.4 C185.6,639.4 186.3,640.1 186.3,640.9 L186.3,669.9 C186.3,670.7 185.6,671.4 184.8,671.4 L158.6,671.4 C157.8,671.4 157.1,670.7 157.1,669.9 L157.1,640.9 L157.1,640.9 Z M157.1,700.8 C157.1,700 157.8,699.3 158.6,699.3 L184.8,699.3 C185.6,699.3 186.3,700 186.3,700.8 L186.3,729.8 C186.3,730.6 185.6,731.3 184.8,731.3 L158.6,731.3 C157.8,731.3 157.1,730.6 157.1,729.8 L157.1,700.8 L157.1,700.8 Z M157.1,760.6 C157.1,759.8 157.8,759.1 158.6,759.1 L184.8,759.1 C185.6,759.1 186.3,759.8 186.3,760.6 L186.3,789.6 C186.3,790.4 185.6,791.1 184.8,791.1 L158.6,791.1 C157.8,791.1 157.1,790.4 157.1,789.6 L157.1,760.6 L157.1,760.6 Z M64.2,747.8 C64.2,747 64.9,746.3 65.7,746.3 L102.6,746.3 L102.6,743.9 L65.7,743.9 C64.9,743.9 64.2,743.2 64.2,742.4 L64.2,688.2 C64.2,687.4 64.9,686.7 65.7,686.7 L102.6,686.7 L102.6,684.3 L65.7,684.3 C64.9,684.3 64.2,683.6 64.2,682.8 L64.2,628.6 C64.2,627.8 64.9,627.1 65.7,627.1 L102.6,627.1 L102.6,625.2 L116.7,625.2 L116.7,627.1 L153.2,627.1 C154,627.1 154.7,627.8 154.7,628.6 L154.7,682.8 C154.7,683.6 154,684.3 153.2,684.3 L116.7,684.3 L116.7,686.7 L153.2,686.7 C154,686.7 154.7,687.4 154.7,688.2 L154.7,742.4 C154.7,743.2 154,743.9 153.2,743.9 L116.7,743.9 L116.7,746.3 L153.2,746.3 C154,746.3 154.7,747 154.7,747.8 L154.7,802 C154.7,802.8 154,803.5 153.2,803.5 L116.7,803.5 L116.7,806.5 L102.6,806.5 L102.6,803.5 L65.7,803.5 C64.9,803.5 64.2,802.8 64.2,802 L64.2,747.8 L64.2,747.8 Z M31.9,639.8 C31.9,639 32.6,638.3 33.4,638.3 L59.6,638.3 C60.4,638.3 61.1,639 61.1,639.8 L61.1,668.8 C61.1,669.6 60.4,670.3 59.6,670.3 L33.4,670.3 C32.6,670.3 31.9,669.6 31.9,668.8 L31.9,639.8 L31.9,639.8 Z M31.9,699.7 C31.9,698.9 32.6,698.2 33.4,698.2 L59.6,698.2 C60.4,698.2 61.1,698.9 61.1,699.7 L61.1,728.7 C61.1,729.5 60.4,730.2 59.6,730.2 L33.4,730.2 C32.6,730.2 31.9,729.5 31.9,728.7 L31.9,699.7 L31.9,699.7 Z M31.9,759.5 C31.9,758.7 32.6,758 33.4,758 L59.6,758 C60.4,758 61.1,758.7 61.1,759.5 L61.1,788.5 C61.1,789.3 60.4,790 59.6,790 L33.4,790 C32.6,790 31.9,789.3 31.9,788.5 L31.9,759.5 L31.9,759.5 Z" id="Shape"></path>
                <path d="M682.8,652.9 C683.1,652.9 683.3,652.7 683.3,652.4 L683.3,598.2 C683.3,597.9 683.1,597.7 682.8,597.7 L646.3,597.7 L646.3,652.9 L682.8,652.9 L682.8,652.9 Z" id="Shape"></path>
                <path d="M582.7,209.7 L556.5,209.7 C556.2,209.7 556,209.9 556,210.2 L556,239.2 C556,239.5 556.2,239.7 556.5,239.7 L582.7,239.7 C583,239.7 583.2,239.5 583.2,239.2 L583.2,210.2 C583.2,209.9 583,209.7 582.7,209.7 L582.7,209.7 Z" id="Shape"></path>
                <path d="M33.4,789 L59.6,789 C59.9,789 60.1,788.8 60.1,788.5 L60.1,759.5 C60.1,759.2 59.9,759 59.6,759 L33.4,759 C33.1,759 32.9,759.2 32.9,759.5 L32.9,788.5 C32.9,788.8 33.1,789 33.4,789 L33.4,789 Z" id="Shape"></path>
                <path d="M688.2,580.7 L714.4,580.7 C714.7,580.7 714.9,580.5 714.9,580.2 L714.9,551.2 C714.9,550.9 714.7,550.7 714.4,550.7 L688.2,550.7 C687.9,550.7 687.7,550.9 687.7,551.2 L687.7,580.2 C687.7,580.5 687.9,580.7 688.2,580.7 L688.2,580.7 Z" id="Shape"></path>
                <path d="M563,579.6 L589.2,579.6 C589.5,579.6 589.7,579.4 589.7,579.1 L589.7,550.1 C589.7,549.8 589.5,549.6 589.2,549.6 L563,549.6 C562.7,549.6 562.5,549.8 562.5,550.1 L562.5,579.1 C562.5,579.4 562.7,579.6 563,579.6 L563,579.6 Z" id="Shape"></path>
                <path d="M33.4,729.2 L59.6,729.2 C59.9,729.2 60.1,729 60.1,728.7 L60.1,699.7 C60.1,699.4 59.9,699.2 59.6,699.2 L33.4,699.2 C33.1,699.2 32.9,699.4 32.9,699.7 L32.9,728.7 C32.9,728.9 33.1,729.2 33.4,729.2 L33.4,729.2 Z" id="Shape"></path>
                <path d="M563,519.8 L589.2,519.8 C589.5,519.8 589.7,519.6 589.7,519.3 L589.7,490.3 C589.7,490 589.5,489.8 589.2,489.8 L563,489.8 C562.7,489.8 562.5,490 562.5,490.3 L562.5,519.3 C562.5,519.6 562.7,519.8 563,519.8 L563,519.8 Z" id="Shape"></path>
                <path d="M524.2,666.1 L742.6,666.1 L742.6,369.4 L524.2,369.4 L524.2,666.1 L524.2,666.1 Z M686.7,491.4 C686.7,490.6 687.4,489.9 688.2,489.9 L714.4,489.9 C715.2,489.9 715.9,490.6 715.9,491.4 L715.9,520.4 C715.9,521.2 715.2,521.9 714.4,521.9 L688.2,521.9 C687.4,521.9 686.7,521.2 686.7,520.4 L686.7,491.4 L686.7,491.4 Z M686.7,551.2 C686.7,550.4 687.4,549.7 688.2,549.7 L714.4,549.7 C715.2,549.7 715.9,550.4 715.9,551.2 L715.9,580.2 C715.9,581 715.2,581.7 714.4,581.7 L688.2,581.7 C687.4,581.7 686.7,581 686.7,580.2 L686.7,551.2 L686.7,551.2 Z M686.7,611.1 C686.7,610.3 687.4,609.6 688.2,609.6 L714.4,609.6 C715.2,609.6 715.9,610.3 715.9,611.1 L715.9,640.1 C715.9,640.9 715.2,641.6 714.4,641.6 L688.2,641.6 C687.4,641.6 686.7,640.9 686.7,640.1 L686.7,611.1 L686.7,611.1 Z M593.8,598.2 C593.8,597.4 594.5,596.7 595.3,596.7 L632.2,596.7 L632.2,594.3 L595.3,594.3 C594.5,594.3 593.8,593.6 593.8,592.8 L593.8,538.6 C593.8,537.8 594.5,537.1 595.3,537.1 L632.2,537.1 L632.2,534.7 L595.3,534.7 C594.5,534.7 593.8,534 593.8,533.2 L593.8,479 C593.8,478.2 594.5,477.5 595.3,477.5 L632.2,477.5 L632.2,475.6 L646.3,475.6 L646.3,477.5 L682.8,477.5 C683.6,477.5 684.3,478.2 684.3,479 L684.3,533.2 C684.3,534 683.6,534.7 682.8,534.7 L646.3,534.7 L646.3,537.1 L682.8,537.1 C683.6,537.1 684.3,537.8 684.3,538.6 L684.3,592.8 C684.3,593.6 683.6,594.3 682.8,594.3 L646.3,594.3 L646.3,596.7 L682.8,596.7 C683.6,596.7 684.3,597.4 684.3,598.2 L684.3,652.4 C684.3,653.2 683.6,653.9 682.8,653.9 L646.3,653.9 L646.3,656.9 L632.2,656.9 L632.2,653.9 L595.3,653.9 C594.5,653.9 593.8,653.2 593.8,652.4 L593.8,598.2 L593.8,598.2 Z M561.5,490.3 C561.5,489.5 562.2,488.8 563,488.8 L589.2,488.8 C590,488.8 590.7,489.5 590.7,490.3 L590.7,519.3 C590.7,520.1 590,520.8 589.2,520.8 L563,520.8 C562.2,520.8 561.5,520.1 561.5,519.3 L561.5,490.3 L561.5,490.3 Z M561.5,550.1 C561.5,549.3 562.2,548.6 563,548.6 L589.2,548.6 C590,548.6 590.7,549.3 590.7,550.1 L590.7,579.1 C590.7,579.9 590,580.6 589.2,580.6 L563,580.6 C562.2,580.6 561.5,579.9 561.5,579.1 L561.5,550.1 L561.5,550.1 Z M561.5,609.9 C561.5,609.1 562.2,608.4 563,608.4 L589.2,608.4 C590,608.4 590.7,609.1 590.7,609.9 L590.7,638.9 C590.7,639.7 590,640.4 589.2,640.4 L563,640.4 C562.2,640.4 561.5,639.7 561.5,638.9 L561.5,609.9 L561.5,609.9 Z" id="Shape"></path>
                <path d="M33.4,669.3 L59.6,669.3 C59.9,669.3 60.1,669.1 60.1,668.8 L60.1,639.8 C60.1,639.5 59.9,639.3 59.6,639.3 L33.4,639.3 C33.1,639.3 32.9,639.5 32.9,639.8 L32.9,668.8 C32.9,669.1 33.1,669.3 33.4,669.3 L33.4,669.3 Z" id="Shape"></path>
                <path d="M595.3,652.9 L632.2,652.9 L632.2,597.7 L595.3,597.7 C595,597.7 594.8,597.9 594.8,598.2 L594.8,652.4 C594.8,652.7 595,652.9 595.3,652.9 L595.3,652.9 Z" id="Shape"></path>
                <path d="M563,639.5 L589.2,639.5 C589.5,639.5 589.7,639.3 589.7,639 L589.7,610 C589.7,609.7 589.5,609.5 589.2,609.5 L563,609.5 C562.7,609.5 562.5,609.7 562.5,610 L562.5,639 C562.5,639.2 562.7,639.5 563,639.5 L563,639.5 Z" id="Shape"></path>
            </g>
        </g>
    </g>
</svg>