solid OpenSCAD_Model
  facet normal -1 0 0
    outer loop
      vertex 0 3.95 -3.7
      vertex 0 0 -3.7
      vertex 0 3.95 7.3
    endloop
  endfacet
  facet normal -1 0 0
    outer loop
      vertex 0 18.95 7.3
      vertex 0 22.9 -3.7
      vertex 0 18.95 -3.7
    endloop
  endfacet
  facet normal -1 0 0
    outer loop
      vertex 0 22.9 -3.7
      vertex 0 18.95 7.3
      vertex 0 22.9 12.8
    endloop
  endfacet
  facet normal -1 0 0
    outer loop
      vertex 0 3.95 7.3
      vertex 0 22.9 12.8
      vertex 0 18.95 7.3
    endloop
  endfacet
  facet normal -1 0 0
    outer loop
      vertex 0 3.95 7.3
      vertex 0 0 12.8
      vertex 0 22.9 12.8
    endloop
  endfacet
  facet normal -1 0 0
    outer loop
      vertex 0 0 12.8
      vertex 0 3.95 7.3
      vertex 0 0 -3.7
    endloop
  endfacet
  facet normal 0 -1 0
    outer loop
      vertex 2 0 -9.2
      vertex 66 0 -3.7
      vertex 2 0 -3.7
    endloop
  endfacet
  facet normal 0 -1 -0
    outer loop
      vertex 66 0 -3.7
      vertex 2 0 -9.2
      vertex 66 0 -9.2
    endloop
  endfacet
  facet normal 0 -1 0
    outer loop
      vertex 2 0 -3.7
      vertex 0 0 12.8
      vertex 0 0 -3.7
    endloop
  endfacet
  facet normal 0 -1 0
    outer loop
      vertex 66 0 -3.7
      vertex 0 0 12.8
      vertex 2 0 -3.7
    endloop
  endfacet
  facet normal 0 -1 0
    outer loop
      vertex 0 0 12.8
      vertex 66 0 -3.7
      vertex 76.12 0 12.8
    endloop
  endfacet
  facet normal 0 -1 -0
    outer loop
      vertex 76.12 0 12.8
      vertex 66 0 -3.7
      vertex 76.12 0 -3.7
    endloop
  endfacet
  facet normal 0 1 0
    outer loop
      vertex 76.12 22.9 12.8
      vertex 66 22.9 1.3
      vertex 66 22.9 12.8
    endloop
  endfacet
  facet normal 0 1 0
    outer loop
      vertex 66 22.9 1.3
      vertex 66 22.9 0.299999
      vertex 2 22.9 1.3
    endloop
  endfacet
  facet normal 0 1 -0
    outer loop
      vertex 76.12 22.9 -3.7
      vertex 66 22.9 1.3
      vertex 76.12 22.9 12.8
    endloop
  endfacet
  facet normal 0 1 0
    outer loop
      vertex 66 22.9 1.3
      vertex 76.12 22.9 -3.7
      vertex 66 22.9 0.299999
    endloop
  endfacet
  facet normal 0 1 0
    outer loop
      vertex 66 22.9 0.299999
      vertex 76.12 22.9 -3.7
      vertex 66 22.9 -3.7
    endloop
  endfacet
  facet normal 0 1 -0
    outer loop
      vertex 2 22.9 1.3
      vertex 0 22.9 12.8
      vertex 2 22.9 12.8
    endloop
  endfacet
  facet normal 0 1 0
    outer loop
      vertex 2 22.9 0.299999
      vertex 2 22.9 1.3
      vertex 66 22.9 0.299999
    endloop
  endfacet
  facet normal 0 1 0
    outer loop
      vertex 0 22.9 -3.7
      vertex 2 22.9 1.3
      vertex 2 22.9 0.299999
    endloop
  endfacet
  facet normal 0 1 0
    outer loop
      vertex 0 22.9 -3.7
      vertex 2 22.9 0.299999
      vertex 2 22.9 -3.7
    endloop
  endfacet
  facet normal 0 1 0
    outer loop
      vertex 2 22.9 1.3
      vertex 0 22.9 -3.7
      vertex 0 22.9 12.8
    endloop
  endfacet
  facet normal -1 0 0
    outer loop
      vertex -102 3.95 -3.7
      vertex -102 18.95 7.3
      vertex -102 18.95 -3.7
    endloop
  endfacet
  facet normal -1 -0 0
    outer loop
      vertex -102 18.95 7.3
      vertex -102 3.95 -3.7
      vertex -102 3.95 7.3
    endloop
  endfacet
  facet normal -0 0 1
    outer loop
      vertex -102 18.95 7.3
      vertex 0 3.95 7.3
      vertex 0 18.95 7.3
    endloop
  endfacet
  facet normal 0 0 1
    outer loop
      vertex 0 3.95 7.3
      vertex -102 18.95 7.3
      vertex -102 3.95 7.3
    endloop
  endfacet
  facet normal 0 1 -0
    outer loop
      vertex 0 18.95 -3.7
      vertex -102 18.95 7.3
      vertex 0 18.95 7.3
    endloop
  endfacet
  facet normal 0 1 0
    outer loop
      vertex -102 18.95 7.3
      vertex 0 18.95 -3.7
      vertex -102 18.95 -3.7
    endloop
  endfacet
  facet normal 0 0 -1
    outer loop
      vertex -102 3.95 -3.7
      vertex 0 18.95 -3.7
      vertex 0 3.95 -3.7
    endloop
  endfacet
  facet normal -0 0 -1
    outer loop
      vertex 0 18.95 -3.7
      vertex -102 3.95 -3.7
      vertex -102 18.95 -3.7
    endloop
  endfacet
  facet normal 0 0 -1
    outer loop
      vertex 0 0 -3.7
      vertex 2 3 -3.7
      vertex 2 0 -3.7
    endloop
  endfacet
  facet normal 0 0 -1
    outer loop
      vertex 0 18.95 -3.7
      vertex 2 3 -3.7
      vertex 0 3.95 -3.7
    endloop
  endfacet
  facet normal -0 0 -1
    outer loop
      vertex 2 3 -3.7
      vertex 0 0 -3.7
      vertex 0 3.95 -3.7
    endloop
  endfacet
  facet normal 0 0 -1
    outer loop
      vertex 2 3 -3.7
      vertex 0 18.95 -3.7
      vertex 2 20.3 -3.7
    endloop
  endfacet
  facet normal 0 0 -1
    outer loop
      vertex 0 22.9 -3.7
      vertex 2 20.3 -3.7
      vertex 0 18.95 -3.7
    endloop
  endfacet
  facet normal 0 0 -1
    outer loop
      vertex 2 20.3 -3.7
      vertex 0 22.9 -3.7
      vertex 2 22.9 -3.7
    endloop
  endfacet
  facet normal 0 0 -1
    outer loop
      vertex 63.12 14.9 -3.7
      vertex 67.8472 8.77279 -3.7
      vertex 63.12 8 -3.7
    endloop
  endfacet
  facet normal 0 0 -1
    outer loop
      vertex 67.457 6.81117 -3.7
      vertex 62.9678 7.23463 -3.7
      vertex 63.12 8 -3.7
    endloop
  endfacet
  facet normal 0 0 -1
    outer loop
      vertex 66 3 -3.7
      vertex 62.5342 6.58579 -3.7
      vertex 62.9678 7.23463 -3.7
    endloop
  endfacet
  facet normal 0 0 -1
    outer loop
      vertex 66 3 -3.7
      vertex 61.8854 6.15224 -3.7
      vertex 62.5342 6.58579 -3.7
    endloop
  endfacet
  facet normal 0 0 -1
    outer loop
      vertex 66 3 -3.7
      vertex 61.12 6 -3.7
      vertex 61.8854 6.15224 -3.7
    endloop
  endfacet
  facet normal 0 0 -1
    outer loop
      vertex 66 3 -3.7
      vertex 10 5.8 -3.7
      vertex 61.12 6 -3.7
    endloop
  endfacet
  facet normal -0 0 -1
    outer loop
      vertex 7.8 8 -3.7
      vertex 2 3 -3.7
      vertex 7.8 14.9 -3.7
    endloop
  endfacet
  facet normal -0 0 -1
    outer loop
      vertex 7.96746 7.1581 -3.7
      vertex 2 3 -3.7
      vertex 7.8 8 -3.7
    endloop
  endfacet
  facet normal -0 0 -1
    outer loop
      vertex 8.44436 6.44436 -3.7
      vertex 2 3 -3.7
      vertex 7.96746 7.1581 -3.7
    endloop
  endfacet
  facet normal -0 0 -1
    outer loop
      vertex 9.1581 5.96746 -3.7
      vertex 2 3 -3.7
      vertex 8.44436 6.44436 -3.7
    endloop
  endfacet
  facet normal -0 0 -1
    outer loop
      vertex 10 5.8 -3.7
      vertex 2 3 -3.7
      vertex 9.1581 5.96746 -3.7
    endloop
  endfacet
  facet normal 0 0 -1
    outer loop
      vertex 2 3 -3.7
      vertex 10 5.8 -3.7
      vertex 66 3 -3.7
    endloop
  endfacet
  facet normal 0 0 -1
    outer loop
      vertex 67.8472 8.77279 -3.7
      vertex 63.12 14.9 -3.7
      vertex 66 20.3 -3.7
    endloop
  endfacet
  facet normal 0 0 -1
    outer loop
      vertex 62.9678 15.6654 -3.7
      vertex 66 20.3 -3.7
      vertex 63.12 14.9 -3.7
    endloop
  endfacet
  facet normal 0 0 -1
    outer loop
      vertex 62.5342 16.3142 -3.7
      vertex 66 20.3 -3.7
      vertex 62.9678 15.6654 -3.7
    endloop
  endfacet
  facet normal 0 0 -1
    outer loop
      vertex 61.8854 16.7478 -3.7
      vertex 66 20.3 -3.7
      vertex 62.5342 16.3142 -3.7
    endloop
  endfacet
  facet normal 0 0 -1
    outer loop
      vertex 61.12 16.9 -3.7
      vertex 66 20.3 -3.7
      vertex 61.8854 16.7478 -3.7
    endloop
  endfacet
  facet normal 0 0 -1
    outer loop
      vertex 10 17.1 -3.7
      vertex 66 20.3 -3.7
      vertex 61.12 16.9 -3.7
    endloop
  endfacet
  facet normal 0 0 -1
    outer loop
      vertex 2 20.3 -3.7
      vertex 7.8 14.9 -3.7
      vertex 2 3 -3.7
    endloop
  endfacet
  facet normal 0 0 -1
    outer loop
      vertex 10 17.1 -3.7
      vertex 2 20.3 -3.7
      vertex 66 20.3 -3.7
    endloop
  endfacet
  facet normal 0 0 -1
    outer loop
      vertex 9.1581 16.9325 -3.7
      vertex 2 20.3 -3.7
      vertex 10 17.1 -3.7
    endloop
  endfacet
  facet normal 0 0 -1
    outer loop
      vertex 8.44436 16.4556 -3.7
      vertex 2 20.3 -3.7
      vertex 9.1581 16.9325 -3.7
    endloop
  endfacet
  facet normal 0 0 -1
    outer loop
      vertex 7.96746 15.7419 -3.7
      vertex 2 20.3 -3.7
      vertex 8.44436 16.4556 -3.7
    endloop
  endfacet
  facet normal 0 0 -1
    outer loop
      vertex 7.8 14.9 -3.7
      vertex 2 20.3 -3.7
      vertex 7.96746 15.7419 -3.7
    endloop
  endfacet
  facet normal 0 0 -1
    outer loop
      vertex 70.783 8.18883 -3.7
      vertex 76.12 0 -3.7
      vertex 70.92 7.5 -3.7
    endloop
  endfacet
  facet normal 0 0 -1
    outer loop
      vertex 76.12 0 -3.7
      vertex 70.783 6.81117 -3.7
      vertex 70.92 7.5 -3.7
    endloop
  endfacet
  facet normal 0 0 -1
    outer loop
      vertex 76.12 0 -3.7
      vertex 70.3928 6.22721 -3.7
      vertex 70.783 6.81117 -3.7
    endloop
  endfacet
  facet normal 0 0 -1
    outer loop
      vertex 76.12 0 -3.7
      vertex 69.8088 5.83702 -3.7
      vertex 70.3928 6.22721 -3.7
    endloop
  endfacet
  facet normal 0 0 -1
    outer loop
      vertex 66 0 -3.7
      vertex 69.8088 5.83702 -3.7
      vertex 76.12 0 -3.7
    endloop
  endfacet
  facet normal 0 0 -1
    outer loop
      vertex 69.8088 5.83702 -3.7
      vertex 66 0 -3.7
      vertex 69.12 5.7 -3.7
    endloop
  endfacet
  facet normal 0 0 -1
    outer loop
      vertex 66 3 -3.7
      vertex 69.12 5.7 -3.7
      vertex 66 0 -3.7
    endloop
  endfacet
  facet normal -0 0 -1
    outer loop
      vertex 67.8472 6.22721 -3.7
      vertex 66 3 -3.7
      vertex 67.457 6.81117 -3.7
    endloop
  endfacet
  facet normal -0 0 -1
    outer loop
      vertex 68.4312 5.83702 -3.7
      vertex 66 3 -3.7
      vertex 67.8472 6.22721 -3.7
    endloop
  endfacet
  facet normal -0 0 -1
    outer loop
      vertex 69.12 5.7 -3.7
      vertex 66 3 -3.7
      vertex 68.4312 5.83702 -3.7
    endloop
  endfacet
  facet normal 0 0 -1
    outer loop
      vertex 76.12 0 -3.7
      vertex 70.783 8.18883 -3.7
      vertex 76.12 22.9 -3.7
    endloop
  endfacet
  facet normal 0 0 -1
    outer loop
      vertex 70.3928 8.77279 -3.7
      vertex 76.12 22.9 -3.7
      vertex 70.783 8.18883 -3.7
    endloop
  endfacet
  facet normal 0 0 -1
    outer loop
      vertex 69.8088 9.16298 -3.7
      vertex 76.12 22.9 -3.7
      vertex 70.3928 8.77279 -3.7
    endloop
  endfacet
  facet normal 0 0 -1
    outer loop
      vertex 66 20.3 -3.7
      vertex 69.8088 9.16298 -3.7
      vertex 69.12 9.3 -3.7
    endloop
  endfacet
  facet normal 0 0 -1
    outer loop
      vertex 66 20.3 -3.7
      vertex 69.12 9.3 -3.7
      vertex 68.4312 9.16298 -3.7
    endloop
  endfacet
  facet normal 0 0 -1
    outer loop
      vertex 66 20.3 -3.7
      vertex 68.4312 9.16298 -3.7
      vertex 67.8472 8.77279 -3.7
    endloop
  endfacet
  facet normal 0 0 -1
    outer loop
      vertex 63.12 8 -3.7
      vertex 67.8472 8.77279 -3.7
      vertex 67.457 8.18883 -3.7
    endloop
  endfacet
  facet normal 0 0 -1
    outer loop
      vertex 62.9678 7.23463 -3.7
      vertex 67.457 6.81117 -3.7
      vertex 66 3 -3.7
    endloop
  endfacet
  facet normal 0 0 -1
    outer loop
      vertex 67.457 6.81117 -3.7
      vertex 63.12 8 -3.7
      vertex 67.32 7.5 -3.7
    endloop
  endfacet
  facet normal 0 0 -1
    outer loop
      vertex 63.12 8 -3.7
      vertex 67.457 8.18883 -3.7
      vertex 67.32 7.5 -3.7
    endloop
  endfacet
  facet normal 0 0 -1
    outer loop
      vertex 69.8088 9.16298 -3.7
      vertex 66 20.3 -3.7
      vertex 76.12 22.9 -3.7
    endloop
  endfacet
  facet normal -0 0 -1
    outer loop
      vertex 76.12 22.9 -3.7
      vertex 66 20.3 -3.7
      vertex 66 22.9 -3.7
    endloop
  endfacet
  facet normal 0 -1 0
    outer loop
      vertex -102 3.95 -3.7
      vertex 0 3.95 7.3
      vertex -102 3.95 7.3
    endloop
  endfacet
  facet normal 0 -1 -0
    outer loop
      vertex 0 3.95 7.3
      vertex -102 3.95 -3.7
      vertex 0 3.95 -3.7
    endloop
  endfacet
  facet normal 0 0 1
    outer loop
      vertex 66 23.3 12.8
      vertex 2 23.3 12.8
      vertex 66 22.9 12.8
    endloop
  endfacet
  facet normal -0 0 1
    outer loop
      vertex 70.033 9.61117 12.8
      vertex 70.17 6.5 12.8
      vertex 70.17 10.3 12.8
    endloop
  endfacet
  facet normal 0 0 1
    outer loop
      vertex 70.033 9.61117 12.8
      vertex 70.033 7.18883 12.8
      vertex 70.17 6.5 12.8
    endloop
  endfacet
  facet normal -0 0 1
    outer loop
      vertex 69.6428 9.02721 12.8
      vertex 70.033 7.18883 12.8
      vertex 70.033 9.61117 12.8
    endloop
  endfacet
  facet normal 0 0 1
    outer loop
      vertex 69.6428 9.02721 12.8
      vertex 69.6428 7.77279 12.8
      vertex 70.033 7.18883 12.8
    endloop
  endfacet
  facet normal -0 0 1
    outer loop
      vertex 69.0588 8.63702 12.8
      vertex 69.6428 7.77279 12.8
      vertex 69.6428 9.02721 12.8
    endloop
  endfacet
  facet normal 0 0 1
    outer loop
      vertex 69.0588 8.63702 12.8
      vertex 69.0588 8.16298 12.8
      vertex 69.6428 7.77279 12.8
    endloop
  endfacet
  facet normal -0 0 1
    outer loop
      vertex 68.37 8.5 12.8
      vertex 69.0588 8.16298 12.8
      vertex 69.0588 8.63702 12.8
    endloop
  endfacet
  facet normal 0 0 1
    outer loop
      vertex 68.37 8.5 12.8
      vertex 68.37 8.3 12.8
      vertex 69.0588 8.16298 12.8
    endloop
  endfacet
  facet normal 0 0 1
    outer loop
      vertex 67.6812 8.63702 12.8
      vertex 68.37 8.3 12.8
      vertex 68.37 8.5 12.8
    endloop
  endfacet
  facet normal 0 0 1
    outer loop
      vertex 67.6812 8.63702 12.8
      vertex 67.6812 8.16298 12.8
      vertex 68.37 8.3 12.8
    endloop
  endfacet
  facet normal 0 0 1
    outer loop
      vertex 67.0972 9.02721 12.8
      vertex 67.6812 8.16298 12.8
      vertex 67.6812 8.63702 12.8
    endloop
  endfacet
  facet normal 0 0 1
    outer loop
      vertex 67.0972 9.02721 12.8
      vertex 67.0972 7.77279 12.8
      vertex 67.6812 8.16298 12.8
    endloop
  endfacet
  facet normal 0 0 1
    outer loop
      vertex 66.707 9.61117 12.8
      vertex 67.0972 7.77279 12.8
      vertex 67.0972 9.02721 12.8
    endloop
  endfacet
  facet normal 0 0 1
    outer loop
      vertex 66.707 9.61117 12.8
      vertex 66.707 7.18883 12.8
      vertex 67.0972 7.77279 12.8
    endloop
  endfacet
  facet normal 0 0 1
    outer loop
      vertex 66.57 10.3 12.8
      vertex 66.707 7.18883 12.8
      vertex 66.707 9.61117 12.8
    endloop
  endfacet
  facet normal 0 0 1
    outer loop
      vertex 66.707 7.18883 12.8
      vertex 66.57 10.3 12.8
      vertex 66.57 6.5 12.8
    endloop
  endfacet
  facet normal 0 0 1
    outer loop
      vertex 76.12 22.9 12.8
      vertex 70.17 10.3 12.8
      vertex 76.12 0 12.8
    endloop
  endfacet
  facet normal 0 0 1
    outer loop
      vertex 76.12 22.9 12.8
      vertex 70.033 10.9888 12.8
      vertex 70.17 10.3 12.8
    endloop
  endfacet
  facet normal 0 0 1
    outer loop
      vertex 76.12 22.9 12.8
      vertex 69.6428 11.5728 12.8
      vertex 70.033 10.9888 12.8
    endloop
  endfacet
  facet normal 0 0 1
    outer loop
      vertex 76.12 22.9 12.8
      vertex 69.0588 11.963 12.8
      vertex 69.6428 11.5728 12.8
    endloop
  endfacet
  facet normal -0 0 1
    outer loop
      vertex 66 22.9 12.8
      vertex 69.0588 11.963 12.8
      vertex 76.12 22.9 12.8
    endloop
  endfacet
  facet normal 0 0 1
    outer loop
      vertex 69.0588 11.963 12.8
      vertex 66 22.9 12.8
      vertex 68.37 12.1 12.8
    endloop
  endfacet
  facet normal 0 0 1
    outer loop
      vertex 68.37 12.1 12.8
      vertex 66 22.9 12.8
      vertex 67.6812 11.963 12.8
    endloop
  endfacet
  facet normal -0 0 1
    outer loop
      vertex 2 22.9 12.8
      vertex 66.57 10.3 12.8
      vertex 66 22.9 12.8
    endloop
  endfacet
  facet normal 0 0 1
    outer loop
      vertex 66.707 10.9888 12.8
      vertex 66 22.9 12.8
      vertex 66.57 10.3 12.8
    endloop
  endfacet
  facet normal 0 0 1
    outer loop
      vertex 67.0972 11.5728 12.8
      vertex 66 22.9 12.8
      vertex 66.707 10.9888 12.8
    endloop
  endfacet
  facet normal 0 0 1
    outer loop
      vertex 67.6812 11.963 12.8
      vertex 66 22.9 12.8
      vertex 67.0972 11.5728 12.8
    endloop
  endfacet
  facet normal -0 0 1
    outer loop
      vertex 70.17 6.5 12.8
      vertex 76.12 0 12.8
      vertex 70.17 10.3 12.8
    endloop
  endfacet
  facet normal -0 0 1
    outer loop
      vertex 70.033 5.81117 12.8
      vertex 76.12 0 12.8
      vertex 70.17 6.5 12.8
    endloop
  endfacet
  facet normal -0 0 1
    outer loop
      vertex 69.6428 5.22721 12.8
      vertex 76.12 0 12.8
      vertex 70.033 5.81117 12.8
    endloop
  endfacet
  facet normal -0 0 1
    outer loop
      vertex 69.0588 4.83702 12.8
      vertex 76.12 0 12.8
      vertex 69.6428 5.22721 12.8
    endloop
  endfacet
  facet normal -0 0 1
    outer loop
      vertex 68.37 4.7 12.8
      vertex 76.12 0 12.8
      vertex 69.0588 4.83702 12.8
    endloop
  endfacet
  facet normal 0 0 1
    outer loop
      vertex 67.6812 4.83702 12.8
      vertex 76.12 0 12.8
      vertex 68.37 4.7 12.8
    endloop
  endfacet
  facet normal 0 0 1
    outer loop
      vertex 2 22.9 12.8
      vertex 66 22.9 12.8
      vertex 2 23.3 12.8
    endloop
  endfacet
  facet normal 0 0 1
    outer loop
      vertex 66.57 10.3 12.8
      vertex 2 22.9 12.8
      vertex 66.57 6.5 12.8
    endloop
  endfacet
  facet normal 0 0 1
    outer loop
      vertex 0 0 12.8
      vertex 66.57 6.5 12.8
      vertex 2 22.9 12.8
    endloop
  endfacet
  facet normal 0 0 1
    outer loop
      vertex 66.57 6.5 12.8
      vertex 0 0 12.8
      vertex 66.707 5.81117 12.8
    endloop
  endfacet
  facet normal 0 0 1
    outer loop
      vertex 66.707 5.81117 12.8
      vertex 0 0 12.8
      vertex 67.0972 5.22721 12.8
    endloop
  endfacet
  facet normal 0 0 1
    outer loop
      vertex 67.0972 5.22721 12.8
      vertex 0 0 12.8
      vertex 67.6812 4.83702 12.8
    endloop
  endfacet
  facet normal 0 0 1
    outer loop
      vertex 0 0 12.8
      vertex 2 22.9 12.8
      vertex 0 22.9 12.8
    endloop
  endfacet
  facet normal 0 0 1
    outer loop
      vertex 67.6812 4.83702 12.8
      vertex 0 0 12.8
      vertex 76.12 0 12.8
    endloop
  endfacet
  facet normal 1 -0 0
    outer loop
      vertex 76.12 0 12.8
      vertex 76.12 22.9 -3.7
      vertex 76.12 22.9 12.8
    endloop
  endfacet
  facet normal 1 0 0
    outer loop
      vertex 76.12 22.9 -3.7
      vertex 76.12 0 12.8
      vertex 76.12 0 -3.7
    endloop
  endfacet
  facet normal 0.980785 0.19509 0
    outer loop
      vertex 70.17 6.5 101.3
      vertex 70.033 7.18883 12.8
      vertex 70.033 7.18883 101.3
    endloop
  endfacet
  facet normal 0.980785 0.19509 0
    outer loop
      vertex 70.033 7.18883 12.8
      vertex 70.17 6.5 101.3
      vertex 70.17 6.5 12.8
    endloop
  endfacet
  facet normal -0.195088 0.980786 0
    outer loop
      vertex 68.37 8.3 12.8
      vertex 67.6812 8.16298 101.3
      vertex 68.37 8.3 101.3
    endloop
  endfacet
  facet normal -0.195088 0.980786 0
    outer loop
      vertex 67.6812 8.16298 101.3
      vertex 68.37 8.3 12.8
      vertex 67.6812 8.16298 12.8
    endloop
  endfacet
  facet normal 0.19509 -0.980785 0
    outer loop
      vertex 68.37 4.7 12.8
      vertex 69.0588 4.83702 101.3
      vertex 68.37 4.7 101.3
    endloop
  endfacet
  facet normal 0.19509 -0.980785 0
    outer loop
      vertex 69.0588 4.83702 101.3
      vertex 68.37 4.7 12.8
      vertex 69.0588 4.83702 12.8
    endloop
  endfacet
  facet normal 0.555571 0.831469 -0
    outer loop
      vertex 69.6428 7.77279 12.8
      vertex 69.0588 8.16298 101.3
      vertex 69.6428 7.77279 101.3
    endloop
  endfacet
  facet normal 0.555571 0.831469 0
    outer loop
      vertex 69.0588 8.16298 101.3
      vertex 69.6428 7.77279 12.8
      vertex 69.0588 8.16298 12.8
    endloop
  endfacet
  facet normal 0.83147 0.555569 0
    outer loop
      vertex 70.033 7.18883 101.3
      vertex 69.6428 7.77279 12.8
      vertex 69.6428 7.77279 101.3
    endloop
  endfacet
  facet normal 0.83147 0.555569 0
    outer loop
      vertex 69.6428 7.77279 12.8
      vertex 70.033 7.18883 101.3
      vertex 70.033 7.18883 12.8
    endloop
  endfacet
  facet normal 0.19509 0.980785 -0
    outer loop
      vertex 69.0588 8.16298 12.8
      vertex 68.37 8.3 101.3
      vertex 69.0588 8.16298 101.3
    endloop
  endfacet
  facet normal 0.19509 0.980785 0
    outer loop
      vertex 68.37 8.3 101.3
      vertex 69.0588 8.16298 12.8
      vertex 68.37 8.3 12.8
    endloop
  endfacet
  facet normal -0.83147 0.555569 0
    outer loop
      vertex 66.707 7.18883 12.8
      vertex 67.0972 7.77279 101.3
      vertex 67.0972 7.77279 12.8
    endloop
  endfacet
  facet normal -0.83147 0.555569 0
    outer loop
      vertex 67.0972 7.77279 101.3
      vertex 66.707 7.18883 12.8
      vertex 66.707 7.18883 101.3
    endloop
  endfacet
  facet normal -0.980785 0.19509 0
    outer loop
      vertex 66.57 6.5 12.8
      vertex 66.707 7.18883 101.3
      vertex 66.707 7.18883 12.8
    endloop
  endfacet
  facet normal -0.980785 0.19509 0
    outer loop
      vertex 66.707 7.18883 101.3
      vertex 66.57 6.5 12.8
      vertex 66.57 6.5 101.3
    endloop
  endfacet
  facet normal 0 0 1
    outer loop
      vertex 70.033 7.18883 101.3
      vertex 70.033 5.81117 101.3
      vertex 70.17 6.5 101.3
    endloop
  endfacet
  facet normal 0 0 1
    outer loop
      vertex 69.6428 7.77279 101.3
      vertex 70.033 5.81117 101.3
      vertex 70.033 7.18883 101.3
    endloop
  endfacet
  facet normal 0 0 1
    outer loop
      vertex 69.6428 7.77279 101.3
      vertex 69.6428 5.22721 101.3
      vertex 70.033 5.81117 101.3
    endloop
  endfacet
  facet normal 0 0 1
    outer loop
      vertex 69.0588 8.16298 101.3
      vertex 69.6428 5.22721 101.3
      vertex 69.6428 7.77279 101.3
    endloop
  endfacet
  facet normal 0 0 1
    outer loop
      vertex 69.0588 8.16298 101.3
      vertex 69.0588 4.83702 101.3
      vertex 69.6428 5.22721 101.3
    endloop
  endfacet
  facet normal 0 0 1
    outer loop
      vertex 68.37 8.3 101.3
      vertex 69.0588 4.83702 101.3
      vertex 69.0588 8.16298 101.3
    endloop
  endfacet
  facet normal 0 0 1
    outer loop
      vertex 68.37 8.3 101.3
      vertex 68.37 4.7 101.3
      vertex 69.0588 4.83702 101.3
    endloop
  endfacet
  facet normal -0 0 1
    outer loop
      vertex 67.6812 8.16298 101.3
      vertex 68.37 4.7 101.3
      vertex 68.37 8.3 101.3
    endloop
  endfacet
  facet normal 0 0 1
    outer loop
      vertex 67.6812 8.16298 101.3
      vertex 67.6812 4.83702 101.3
      vertex 68.37 4.7 101.3
    endloop
  endfacet
  facet normal -0 0 1
    outer loop
      vertex 67.0972 7.77279 101.3
      vertex 67.6812 4.83702 101.3
      vertex 67.6812 8.16298 101.3
    endloop
  endfacet
  facet normal 0 0 1
    outer loop
      vertex 67.0972 7.77279 101.3
      vertex 67.0972 5.22721 101.3
      vertex 67.6812 4.83702 101.3
    endloop
  endfacet
  facet normal -0 0 1
    outer loop
      vertex 66.707 7.18883 101.3
      vertex 67.0972 5.22721 101.3
      vertex 67.0972 7.77279 101.3
    endloop
  endfacet
  facet normal 0 0 1
    outer loop
      vertex 66.707 7.18883 101.3
      vertex 66.707 5.81117 101.3
      vertex 67.0972 5.22721 101.3
    endloop
  endfacet
  facet normal 0 -0 1
    outer loop
      vertex 66.707 5.81117 101.3
      vertex 66.707 7.18883 101.3
      vertex 66.57 6.5 101.3
    endloop
  endfacet
  facet normal -0.555571 0.831469 0
    outer loop
      vertex 67.6812 8.16298 12.8
      vertex 67.0972 7.77279 101.3
      vertex 67.6812 8.16298 101.3
    endloop
  endfacet
  facet normal -0.555571 0.831469 0
    outer loop
      vertex 67.0972 7.77279 101.3
      vertex 67.6812 8.16298 12.8
      vertex 67.0972 7.77279 12.8
    endloop
  endfacet
  facet normal 0.980785 -0.19509 0
    outer loop
      vertex 70.033 5.81117 101.3
      vertex 70.17 6.5 12.8
      vertex 70.17 6.5 101.3
    endloop
  endfacet
  facet normal 0.980785 -0.19509 0
    outer loop
      vertex 70.17 6.5 12.8
      vertex 70.033 5.81117 101.3
      vertex 70.033 5.81117 12.8
    endloop
  endfacet
  facet normal 0.555571 -0.831469 0
    outer loop
      vertex 69.0588 4.83702 12.8
      vertex 69.6428 5.22721 101.3
      vertex 69.0588 4.83702 101.3
    endloop
  endfacet
  facet normal 0.555571 -0.831469 0
    outer loop
      vertex 69.6428 5.22721 101.3
      vertex 69.0588 4.83702 12.8
      vertex 69.6428 5.22721 12.8
    endloop
  endfacet
  facet normal -0.195088 -0.980786 0
    outer loop
      vertex 67.6812 4.83702 12.8
      vertex 68.37 4.7 101.3
      vertex 67.6812 4.83702 101.3
    endloop
  endfacet
  facet normal -0.195088 -0.980786 -0
    outer loop
      vertex 68.37 4.7 101.3
      vertex 67.6812 4.83702 12.8
      vertex 68.37 4.7 12.8
    endloop
  endfacet
  facet normal -0.83147 -0.555569 0
    outer loop
      vertex 67.0972 5.22721 12.8
      vertex 66.707 5.81117 101.3
      vertex 66.707 5.81117 12.8
    endloop
  endfacet
  facet normal -0.83147 -0.555569 0
    outer loop
      vertex 66.707 5.81117 101.3
      vertex 67.0972 5.22721 12.8
      vertex 67.0972 5.22721 101.3
    endloop
  endfacet
  facet normal -0.980785 -0.19509 0
    outer loop
      vertex 66.707 5.81117 12.8
      vertex 66.57 6.5 101.3
      vertex 66.57 6.5 12.8
    endloop
  endfacet
  facet normal -0.980785 -0.19509 0
    outer loop
      vertex 66.57 6.5 101.3
      vertex 66.707 5.81117 12.8
      vertex 66.707 5.81117 101.3
    endloop
  endfacet
  facet normal 0.83147 -0.555569 0
    outer loop
      vertex 69.6428 5.22721 101.3
      vertex 70.033 5.81117 12.8
      vertex 70.033 5.81117 101.3
    endloop
  endfacet
  facet normal 0.83147 -0.555569 0
    outer loop
      vertex 70.033 5.81117 12.8
      vertex 69.6428 5.22721 101.3
      vertex 69.6428 5.22721 12.8
    endloop
  endfacet
  facet normal -0.555571 -0.831469 0
    outer loop
      vertex 67.0972 5.22721 12.8
      vertex 67.6812 4.83702 101.3
      vertex 67.0972 5.22721 101.3
    endloop
  endfacet
  facet normal -0.555571 -0.831469 -0
    outer loop
      vertex 67.6812 4.83702 101.3
      vertex 67.0972 5.22721 12.8
      vertex 67.6812 4.83702 12.8
    endloop
  endfacet
  facet normal 0.980785 0.19509 0
    outer loop
      vertex 70.17 10.3 101.3
      vertex 70.033 10.9888 12.8
      vertex 70.033 10.9888 101.3
    endloop
  endfacet
  facet normal 0.980785 0.19509 0
    outer loop
      vertex 70.033 10.9888 12.8
      vertex 70.17 10.3 101.3
      vertex 70.17 10.3 12.8
    endloop
  endfacet
  facet normal -0.980785 0.19509 0
    outer loop
      vertex 66.57 10.3 12.8
      vertex 66.707 10.9888 101.3
      vertex 66.707 10.9888 12.8
    endloop
  endfacet
  facet normal -0.980785 0.19509 0
    outer loop
      vertex 66.707 10.9888 101.3
      vertex 66.57 10.3 12.8
      vertex 66.57 10.3 101.3
    endloop
  endfacet
  facet normal -0.195088 0.980786 0
    outer loop
      vertex 68.37 12.1 12.8
      vertex 67.6812 11.963 101.3
      vertex 68.37 12.1 101.3
    endloop
  endfacet
  facet normal -0.195088 0.980786 0
    outer loop
      vertex 67.6812 11.963 101.3
      vertex 68.37 12.1 12.8
      vertex 67.6812 11.963 12.8
    endloop
  endfacet
  facet normal 0 0 1
    outer loop
      vertex 70.033 10.9888 101.3
      vertex 70.033 9.61117 101.3
      vertex 70.17 10.3 101.3
    endloop
  endfacet
  facet normal 0 0 1
    outer loop
      vertex 69.6428 11.5728 101.3
      vertex 70.033 9.61117 101.3
      vertex 70.033 10.9888 101.3
    endloop
  endfacet
  facet normal 0 0 1
    outer loop
      vertex 69.6428 11.5728 101.3
      vertex 69.6428 9.02721 101.3
      vertex 70.033 9.61117 101.3
    endloop
  endfacet
  facet normal 0 0 1
    outer loop
      vertex 69.0588 11.963 101.3
      vertex 69.6428 9.02721 101.3
      vertex 69.6428 11.5728 101.3
    endloop
  endfacet
  facet normal 0 0 1
    outer loop
      vertex 69.0588 11.963 101.3
      vertex 69.0588 8.63702 101.3
      vertex 69.6428 9.02721 101.3
    endloop
  endfacet
  facet normal 0 0 1
    outer loop
      vertex 68.37 12.1 101.3
      vertex 69.0588 8.63702 101.3
      vertex 69.0588 11.963 101.3
    endloop
  endfacet
  facet normal 0 0 1
    outer loop
      vertex 68.37 12.1 101.3
      vertex 68.37 8.5 101.3
      vertex 69.0588 8.63702 101.3
    endloop
  endfacet
  facet normal -0 0 1
    outer loop
      vertex 67.6812 11.963 101.3
      vertex 68.37 8.5 101.3
      vertex 68.37 12.1 101.3
    endloop
  endfacet
  facet normal 0 0 1
    outer loop
      vertex 67.6812 11.963 101.3
      vertex 67.6812 8.63702 101.3
      vertex 68.37 8.5 101.3
    endloop
  endfacet
  facet normal -0 0 1
    outer loop
      vertex 67.0972 11.5728 101.3
      vertex 67.6812 8.63702 101.3
      vertex 67.6812 11.963 101.3
    endloop
  endfacet
  facet normal 0 0 1
    outer loop
      vertex 67.0972 11.5728 101.3
      vertex 67.0972 9.02721 101.3
      vertex 67.6812 8.63702 101.3
    endloop
  endfacet
  facet normal -0 0 1
    outer loop
      vertex 66.707 10.9888 101.3
      vertex 67.0972 9.02721 101.3
      vertex 67.0972 11.5728 101.3
    endloop
  endfacet
  facet normal 0 0 1
    outer loop
      vertex 66.707 10.9888 101.3
      vertex 66.707 9.61117 101.3
      vertex 67.0972 9.02721 101.3
    endloop
  endfacet
  facet normal 0 -0 1
    outer loop
      vertex 66.707 9.61117 101.3
      vertex 66.707 10.9888 101.3
      vertex 66.57 10.3 101.3
    endloop
  endfacet
  facet normal 0.19509 -0.980785 0
    outer loop
      vertex 68.37 8.5 12.8
      vertex 69.0588 8.63702 101.3
      vertex 68.37 8.5 101.3
    endloop
  endfacet
  facet normal 0.19509 -0.980785 0
    outer loop
      vertex 69.0588 8.63702 101.3
      vertex 68.37 8.5 12.8
      vertex 69.0588 8.63702 12.8
    endloop
  endfacet
  facet normal 0.555571 -0.831469 0
    outer loop
      vertex 69.0588 8.63702 12.8
      vertex 69.6428 9.02721 101.3
      vertex 69.0588 8.63702 101.3
    endloop
  endfacet
  facet normal 0.555571 -0.831469 0
    outer loop
      vertex 69.6428 9.02721 101.3
      vertex 69.0588 8.63702 12.8
      vertex 69.6428 9.02721 12.8
    endloop
  endfacet
  facet normal 0.555571 0.831469 -0
    outer loop
      vertex 69.6428 11.5728 12.8
      vertex 69.0588 11.963 101.3
      vertex 69.6428 11.5728 101.3
    endloop
  endfacet
  facet normal 0.555571 0.831469 0
    outer loop
      vertex 69.0588 11.963 101.3
      vertex 69.6428 11.5728 12.8
      vertex 69.0588 11.963 12.8
    endloop
  endfacet
  facet normal 0.83147 0.555569 0
    outer loop
      vertex 70.033 10.9888 101.3
      vertex 69.6428 11.5728 12.8
      vertex 69.6428 11.5728 101.3
    endloop
  endfacet
  facet normal 0.83147 0.555569 0
    outer loop
      vertex 69.6428 11.5728 12.8
      vertex 70.033 10.9888 101.3
      vertex 70.033 10.9888 12.8
    endloop
  endfacet
  facet normal 0.19509 0.980785 -0
    outer loop
      vertex 69.0588 11.963 12.8
      vertex 68.37 12.1 101.3
      vertex 69.0588 11.963 101.3
    endloop
  endfacet
  facet normal 0.19509 0.980785 0
    outer loop
      vertex 68.37 12.1 101.3
      vertex 69.0588 11.963 12.8
      vertex 68.37 12.1 12.8
    endloop
  endfacet
  facet normal -0.83147 0.555569 0
    outer loop
      vertex 66.707 10.9888 12.8
      vertex 67.0972 11.5728 101.3
      vertex 67.0972 11.5728 12.8
    endloop
  endfacet
  facet normal -0.83147 0.555569 0
    outer loop
      vertex 67.0972 11.5728 101.3
      vertex 66.707 10.9888 12.8
      vertex 66.707 10.9888 101.3
    endloop
  endfacet
  facet normal -0.555571 0.831469 0
    outer loop
      vertex 67.6812 11.963 12.8
      vertex 67.0972 11.5728 101.3
      vertex 67.6812 11.963 101.3
    endloop
  endfacet
  facet normal -0.555571 0.831469 0
    outer loop
      vertex 67.0972 11.5728 101.3
      vertex 67.6812 11.963 12.8
      vertex 67.0972 11.5728 12.8
    endloop
  endfacet
  facet normal 0.83147 -0.555569 0
    outer loop
      vertex 69.6428 9.02721 101.3
      vertex 70.033 9.61117 12.8
      vertex 70.033 9.61117 101.3
    endloop
  endfacet
  facet normal 0.83147 -0.555569 0
    outer loop
      vertex 70.033 9.61117 12.8
      vertex 69.6428 9.02721 101.3
      vertex 69.6428 9.02721 12.8
    endloop
  endfacet
  facet normal 0.980785 -0.19509 0
    outer loop
      vertex 70.033 9.61117 101.3
      vertex 70.17 10.3 12.8
      vertex 70.17 10.3 101.3
    endloop
  endfacet
  facet normal 0.980785 -0.19509 0
    outer loop
      vertex 70.17 10.3 12.8
      vertex 70.033 9.61117 101.3
      vertex 70.033 9.61117 12.8
    endloop
  endfacet
  facet normal -0.980785 -0.19509 0
    outer loop
      vertex 66.707 9.61117 12.8
      vertex 66.57 10.3 101.3
      vertex 66.57 10.3 12.8
    endloop
  endfacet
  facet normal -0.980785 -0.19509 0
    outer loop
      vertex 66.57 10.3 101.3
      vertex 66.707 9.61117 12.8
      vertex 66.707 9.61117 101.3
    endloop
  endfacet
  facet normal -0.555571 -0.831469 0
    outer loop
      vertex 67.0972 9.02721 12.8
      vertex 67.6812 8.63702 101.3
      vertex 67.0972 9.02721 101.3
    endloop
  endfacet
  facet normal -0.555571 -0.831469 -0
    outer loop
      vertex 67.6812 8.63702 101.3
      vertex 67.0972 9.02721 12.8
      vertex 67.6812 8.63702 12.8
    endloop
  endfacet
  facet normal -0.83147 -0.555569 0
    outer loop
      vertex 67.0972 9.02721 12.8
      vertex 66.707 9.61117 101.3
      vertex 66.707 9.61117 12.8
    endloop
  endfacet
  facet normal -0.83147 -0.555569 0
    outer loop
      vertex 66.707 9.61117 101.3
      vertex 67.0972 9.02721 12.8
      vertex 67.0972 9.02721 101.3
    endloop
  endfacet
  facet normal -0.195088 -0.980786 0
    outer loop
      vertex 67.6812 8.63702 12.8
      vertex 68.37 8.5 101.3
      vertex 67.6812 8.63702 101.3
    endloop
  endfacet
  facet normal -0.195088 -0.980786 -0
    outer loop
      vertex 68.37 8.5 101.3
      vertex 67.6812 8.63702 12.8
      vertex 68.37 8.5 12.8
    endloop
  endfacet
  facet normal 0.980785 0.19509 0
    outer loop
      vertex 70.92 7.5 -3.7
      vertex 70.783 8.18883 -100
      vertex 70.783 8.18883 -3.7
    endloop
  endfacet
  facet normal 0.980785 0.19509 0
    outer loop
      vertex 70.783 8.18883 -100
      vertex 70.92 7.5 -3.7
      vertex 70.92 7.5 -100
    endloop
  endfacet
  facet normal -0.195088 0.980786 0
    outer loop
      vertex 69.12 9.3 -100
      vertex 68.4312 9.16298 -3.7
      vertex 69.12 9.3 -3.7
    endloop
  endfacet
  facet normal -0.195088 0.980786 0
    outer loop
      vertex 68.4312 9.16298 -3.7
      vertex 69.12 9.3 -100
      vertex 68.4312 9.16298 -100
    endloop
  endfacet
  facet normal 0.19509 -0.980785 0
    outer loop
      vertex 69.12 5.7 -100
      vertex 69.8088 5.83702 -3.7
      vertex 69.12 5.7 -3.7
    endloop
  endfacet
  facet normal 0.19509 -0.980785 0
    outer loop
      vertex 69.8088 5.83702 -3.7
      vertex 69.12 5.7 -100
      vertex 69.8088 5.83702 -100
    endloop
  endfacet
  facet normal 0.555571 0.831469 -0
    outer loop
      vertex 70.3928 8.77279 -100
      vertex 69.8088 9.16298 -3.7
      vertex 70.3928 8.77279 -3.7
    endloop
  endfacet
  facet normal 0.555571 0.831469 0
    outer loop
      vertex 69.8088 9.16298 -3.7
      vertex 70.3928 8.77279 -100
      vertex 69.8088 9.16298 -100
    endloop
  endfacet
  facet normal 0.83147 0.555569 0
    outer loop
      vertex 70.783 8.18883 -3.7
      vertex 70.3928 8.77279 -100
      vertex 70.3928 8.77279 -3.7
    endloop
  endfacet
  facet normal 0.83147 0.555569 0
    outer loop
      vertex 70.3928 8.77279 -100
      vertex 70.783 8.18883 -3.7
      vertex 70.783 8.18883 -100
    endloop
  endfacet
  facet normal 0.19509 0.980785 -0
    outer loop
      vertex 69.8088 9.16298 -100
      vertex 69.12 9.3 -3.7
      vertex 69.8088 9.16298 -3.7
    endloop
  endfacet
  facet normal 0.19509 0.980785 0
    outer loop
      vertex 69.12 9.3 -3.7
      vertex 69.8088 9.16298 -100
      vertex 69.12 9.3 -100
    endloop
  endfacet
  facet normal -0.83147 0.555569 0
    outer loop
      vertex 67.457 8.18883 -100
      vertex 67.8472 8.77279 -3.7
      vertex 67.8472 8.77279 -100
    endloop
  endfacet
  facet normal -0.83147 0.555569 0
    outer loop
      vertex 67.8472 8.77279 -3.7
      vertex 67.457 8.18883 -100
      vertex 67.457 8.18883 -3.7
    endloop
  endfacet
  facet normal 0 0 -1
    outer loop
      vertex 70.783 6.81117 -100
      vertex 70.783 8.18883 -100
      vertex 70.92 7.5 -100
    endloop
  endfacet
  facet normal 0 0 -1
    outer loop
      vertex 70.3928 6.22721 -100
      vertex 70.783 8.18883 -100
      vertex 70.783 6.81117 -100
    endloop
  endfacet
  facet normal 0 0 -1
    outer loop
      vertex 70.3928 6.22721 -100
      vertex 70.3928 8.77279 -100
      vertex 70.783 8.18883 -100
    endloop
  endfacet
  facet normal 0 0 -1
    outer loop
      vertex 69.8088 5.83702 -100
      vertex 70.3928 8.77279 -100
      vertex 70.3928 6.22721 -100
    endloop
  endfacet
  facet normal 0 0 -1
    outer loop
      vertex 69.8088 5.83702 -100
      vertex 69.8088 9.16298 -100
      vertex 70.3928 8.77279 -100
    endloop
  endfacet
  facet normal 0 0 -1
    outer loop
      vertex 69.12 5.7 -100
      vertex 69.8088 9.16298 -100
      vertex 69.8088 5.83702 -100
    endloop
  endfacet
  facet normal 0 0 -1
    outer loop
      vertex 69.12 5.7 -100
      vertex 69.12 9.3 -100
      vertex 69.8088 9.16298 -100
    endloop
  endfacet
  facet normal 0 0 -1
    outer loop
      vertex 68.4312 5.83702 -100
      vertex 69.12 9.3 -100
      vertex 69.12 5.7 -100
    endloop
  endfacet
  facet normal 0 0 -1
    outer loop
      vertex 68.4312 5.83702 -100
      vertex 68.4312 9.16298 -100
      vertex 69.12 9.3 -100
    endloop
  endfacet
  facet normal 0 0 -1
    outer loop
      vertex 67.8472 6.22721 -100
      vertex 68.4312 9.16298 -100
      vertex 68.4312 5.83702 -100
    endloop
  endfacet
  facet normal 0 0 -1
    outer loop
      vertex 67.8472 6.22721 -100
      vertex 67.8472 8.77279 -100
      vertex 68.4312 9.16298 -100
    endloop
  endfacet
  facet normal 0 0 -1
    outer loop
      vertex 67.457 6.81117 -100
      vertex 67.8472 8.77279 -100
      vertex 67.8472 6.22721 -100
    endloop
  endfacet
  facet normal 0 0 -1
    outer loop
      vertex 67.457 6.81117 -100
      vertex 67.457 8.18883 -100
      vertex 67.8472 8.77279 -100
    endloop
  endfacet
  facet normal 0 -0 -1
    outer loop
      vertex 67.457 8.18883 -100
      vertex 67.457 6.81117 -100
      vertex 67.32 7.5 -100
    endloop
  endfacet
  facet normal -0.980785 0.19509 0
    outer loop
      vertex 67.32 7.5 -100
      vertex 67.457 8.18883 -3.7
      vertex 67.457 8.18883 -100
    endloop
  endfacet
  facet normal -0.980785 0.19509 0
    outer loop
      vertex 67.457 8.18883 -3.7
      vertex 67.32 7.5 -100
      vertex 67.32 7.5 -3.7
    endloop
  endfacet
  facet normal -0.555571 0.831469 0
    outer loop
      vertex 68.4312 9.16298 -100
      vertex 67.8472 8.77279 -3.7
      vertex 68.4312 9.16298 -3.7
    endloop
  endfacet
  facet normal -0.555571 0.831469 0
    outer loop
      vertex 67.8472 8.77279 -3.7
      vertex 68.4312 9.16298 -100
      vertex 67.8472 8.77279 -100
    endloop
  endfacet
  facet normal 0.555571 -0.831469 0
    outer loop
      vertex 69.8088 5.83702 -100
      vertex 70.3928 6.22721 -3.7
      vertex 69.8088 5.83702 -3.7
    endloop
  endfacet
  facet normal 0.555571 -0.831469 0
    outer loop
      vertex 70.3928 6.22721 -3.7
      vertex 69.8088 5.83702 -100
      vertex 70.3928 6.22721 -100
    endloop
  endfacet
  facet normal 0.980785 -0.19509 0
    outer loop
      vertex 70.783 6.81117 -3.7
      vertex 70.92 7.5 -100
      vertex 70.92 7.5 -3.7
    endloop
  endfacet
  facet normal 0.980785 -0.19509 0
    outer loop
      vertex 70.92 7.5 -100
      vertex 70.783 6.81117 -3.7
      vertex 70.783 6.81117 -100
    endloop
  endfacet
  facet normal -0.195088 -0.980786 0
    outer loop
      vertex 68.4312 5.83702 -100
      vertex 69.12 5.7 -3.7
      vertex 68.4312 5.83702 -3.7
    endloop
  endfacet
  facet normal -0.195088 -0.980786 -0
    outer loop
      vertex 69.12 5.7 -3.7
      vertex 68.4312 5.83702 -100
      vertex 69.12 5.7 -100
    endloop
  endfacet
  facet normal -0.83147 -0.555569 0
    outer loop
      vertex 67.8472 6.22721 -100
      vertex 67.457 6.81117 -3.7
      vertex 67.457 6.81117 -100
    endloop
  endfacet
  facet normal -0.83147 -0.555569 0
    outer loop
      vertex 67.457 6.81117 -3.7
      vertex 67.8472 6.22721 -100
      vertex 67.8472 6.22721 -3.7
    endloop
  endfacet
  facet normal -0.980785 -0.19509 0
    outer loop
      vertex 67.457 6.81117 -100
      vertex 67.32 7.5 -3.7
      vertex 67.32 7.5 -100
    endloop
  endfacet
  facet normal -0.980785 -0.19509 0
    outer loop
      vertex 67.32 7.5 -3.7
      vertex 67.457 6.81117 -100
      vertex 67.457 6.81117 -3.7
    endloop
  endfacet
  facet normal 0.83147 -0.555569 0
    outer loop
      vertex 70.3928 6.22721 -3.7
      vertex 70.783 6.81117 -100
      vertex 70.783 6.81117 -3.7
    endloop
  endfacet
  facet normal 0.83147 -0.555569 0
    outer loop
      vertex 70.783 6.81117 -100
      vertex 70.3928 6.22721 -3.7
      vertex 70.3928 6.22721 -100
    endloop
  endfacet
  facet normal -0.555571 -0.831469 0
    outer loop
      vertex 67.8472 6.22721 -100
      vertex 68.4312 5.83702 -3.7
      vertex 67.8472 6.22721 -3.7
    endloop
  endfacet
  facet normal -0.555571 -0.831469 -0
    outer loop
      vertex 68.4312 5.83702 -3.7
      vertex 67.8472 6.22721 -100
      vertex 68.4312 5.83702 -100
    endloop
  endfacet
  facet normal -0.19509 -0.980785 0
    outer loop
      vertex 9.1581 5.96746 -100
      vertex 10 5.8 -3.7
      vertex 9.1581 5.96746 -3.7
    endloop
  endfacet
  facet normal -0.19509 -0.980785 -0
    outer loop
      vertex 10 5.8 -3.7
      vertex 9.1581 5.96746 -100
      vertex 10 5.8 -100
    endloop
  endfacet
  facet normal -0.980785 -0.19509 0
    outer loop
      vertex 7.96746 7.1581 -100
      vertex 7.8 8 -3.7
      vertex 7.8 8 -100
    endloop
  endfacet
  facet normal -0.980785 -0.19509 0
    outer loop
      vertex 7.8 8 -3.7
      vertex 7.96746 7.1581 -100
      vertex 7.96746 7.1581 -3.7
    endloop
  endfacet
  facet normal 0.195089 0.980785 -0
    outer loop
      vertex 61.8854 16.7478 -100
      vertex 61.12 16.9 -3.7
      vertex 61.8854 16.7478 -3.7
    endloop
  endfacet
  facet normal 0.195089 0.980785 0
    outer loop
      vertex 61.12 16.9 -3.7
      vertex 61.8854 16.7478 -100
      vertex 61.12 16.9 -100
    endloop
  endfacet
  facet normal 0.00391235 -0.999992 0
    outer loop
      vertex 10 5.8 -100
      vertex 61.12 6 -3.7
      vertex 10 5.8 -3.7
    endloop
  endfacet
  facet normal 0.00391235 -0.999992 0
    outer loop
      vertex 61.12 6 -3.7
      vertex 10 5.8 -100
      vertex 61.12 6 -100
    endloop
  endfacet
  facet normal -0.83147 -0.55557 0
    outer loop
      vertex 8.44436 6.44436 -100
      vertex 7.96746 7.1581 -3.7
      vertex 7.96746 7.1581 -100
    endloop
  endfacet
  facet normal -0.83147 -0.55557 0
    outer loop
      vertex 7.96746 7.1581 -3.7
      vertex 8.44436 6.44436 -100
      vertex 8.44436 6.44436 -3.7
    endloop
  endfacet
  facet normal 1 -0 0
    outer loop
      vertex 63.12 8 -3.7
      vertex 63.12 14.9 -100
      vertex 63.12 14.9 -3.7
    endloop
  endfacet
  facet normal 1 0 0
    outer loop
      vertex 63.12 14.9 -100
      vertex 63.12 8 -3.7
      vertex 63.12 8 -100
    endloop
  endfacet
  facet normal 0.980785 -0.19509 0
    outer loop
      vertex 62.9678 7.23463 -3.7
      vertex 63.12 8 -100
      vertex 63.12 8 -3.7
    endloop
  endfacet
  facet normal 0.980785 -0.19509 0
    outer loop
      vertex 63.12 8 -100
      vertex 62.9678 7.23463 -3.7
      vertex 62.9678 7.23463 -100
    endloop
  endfacet
  facet normal 0.195089 -0.980785 0
    outer loop
      vertex 61.12 6 -100
      vertex 61.8854 6.15224 -3.7
      vertex 61.12 6 -3.7
    endloop
  endfacet
  facet normal 0.195089 -0.980785 0
    outer loop
      vertex 61.8854 6.15224 -3.7
      vertex 61.12 6 -100
      vertex 61.8854 6.15224 -100
    endloop
  endfacet
  facet normal 0.00391231 0.999992 -0
    outer loop
      vertex 61.12 16.9 -100
      vertex 10 17.1 -3.7
      vertex 61.12 16.9 -3.7
    endloop
  endfacet
  facet normal 0.00391231 0.999992 0
    outer loop
      vertex 10 17.1 -3.7
      vertex 61.12 16.9 -100
      vertex 10 17.1 -100
    endloop
  endfacet
  facet normal 0.980785 0.19509 0
    outer loop
      vertex 63.12 14.9 -3.7
      vertex 62.9678 15.6654 -100
      vertex 62.9678 15.6654 -3.7
    endloop
  endfacet
  facet normal 0.980785 0.19509 0
    outer loop
      vertex 62.9678 15.6654 -100
      vertex 63.12 14.9 -3.7
      vertex 63.12 14.9 -100
    endloop
  endfacet
  facet normal -0.55557 -0.83147 0
    outer loop
      vertex 8.44436 6.44436 -100
      vertex 9.1581 5.96746 -3.7
      vertex 8.44436 6.44436 -3.7
    endloop
  endfacet
  facet normal -0.55557 -0.83147 -0
    outer loop
      vertex 9.1581 5.96746 -3.7
      vertex 8.44436 6.44436 -100
      vertex 9.1581 5.96746 -100
    endloop
  endfacet
  facet normal 0 0 -1
    outer loop
      vertex 61.12 6 -100
      vertex 63.12 8 -100
      vertex 62.9678 7.23463 -100
    endloop
  endfacet
  facet normal -0 0 -1
    outer loop
      vertex 63.12 8 -100
      vertex 61.12 6 -100
      vertex 63.12 14.9 -100
    endloop
  endfacet
  facet normal 0 0 -1
    outer loop
      vertex 61.12 6 -100
      vertex 62.9678 7.23463 -100
      vertex 62.5342 6.58579 -100
    endloop
  endfacet
  facet normal 0 0 -1
    outer loop
      vertex 61.12 16.9 -100
      vertex 63.12 14.9 -100
      vertex 61.12 6 -100
    endloop
  endfacet
  facet normal 0 0 -1
    outer loop
      vertex 61.12 6 -100
      vertex 62.5342 6.58579 -100
      vertex 61.8854 6.15224 -100
    endloop
  endfacet
  facet normal 0 0 -1
    outer loop
      vertex 63.12 14.9 -100
      vertex 61.12 16.9 -100
      vertex 62.9678 15.6654 -100
    endloop
  endfacet
  facet normal 0 0 -1
    outer loop
      vertex 62.9678 15.6654 -100
      vertex 61.12 16.9 -100
      vertex 62.5342 16.3142 -100
    endloop
  endfacet
  facet normal 0 0 -1
    outer loop
      vertex 62.5342 16.3142 -100
      vertex 61.12 16.9 -100
      vertex 61.8854 16.7478 -100
    endloop
  endfacet
  facet normal 0 0 -1
    outer loop
      vertex 10 5.8 -100
      vertex 61.12 16.9 -100
      vertex 61.12 6 -100
    endloop
  endfacet
  facet normal 0 0 -1
    outer loop
      vertex 10 5.8 -100
      vertex 10 17.1 -100
      vertex 61.12 16.9 -100
    endloop
  endfacet
  facet normal 0 0 -1
    outer loop
      vertex 7.8 8 -100
      vertex 10 5.8 -100
      vertex 9.1581 5.96746 -100
    endloop
  endfacet
  facet normal 0 0 -1
    outer loop
      vertex 10 5.8 -100
      vertex 7.8 8 -100
      vertex 10 17.1 -100
    endloop
  endfacet
  facet normal 0 0 -1
    outer loop
      vertex 7.8 8 -100
      vertex 9.1581 5.96746 -100
      vertex 8.44436 6.44436 -100
    endloop
  endfacet
  facet normal 0 0 -1
    outer loop
      vertex 7.8 14.9 -100
      vertex 10 17.1 -100
      vertex 7.8 8 -100
    endloop
  endfacet
  facet normal 0 0 -1
    outer loop
      vertex 7.8 8 -100
      vertex 8.44436 6.44436 -100
      vertex 7.96746 7.1581 -100
    endloop
  endfacet
  facet normal 0 0 -1
    outer loop
      vertex 10 17.1 -100
      vertex 7.8 14.9 -100
      vertex 9.1581 16.9325 -100
    endloop
  endfacet
  facet normal 0 0 -1
    outer loop
      vertex 9.1581 16.9325 -100
      vertex 7.8 14.9 -100
      vertex 8.44436 16.4556 -100
    endloop
  endfacet
  facet normal 0 0 -1
    outer loop
      vertex 8.44436 16.4556 -100
      vertex 7.8 14.9 -100
      vertex 7.96746 15.7419 -100
    endloop
  endfacet
  facet normal -0.19509 0.980785 0
    outer loop
      vertex 10 17.1 -100
      vertex 9.1581 16.9325 -3.7
      vertex 10 17.1 -3.7
    endloop
  endfacet
  facet normal -0.19509 0.980785 0
    outer loop
      vertex 9.1581 16.9325 -3.7
      vertex 10 17.1 -100
      vertex 9.1581 16.9325 -100
    endloop
  endfacet
  facet normal -0.83147 0.55557 0
    outer loop
      vertex 7.96746 15.7419 -100
      vertex 8.44436 16.4556 -3.7
      vertex 8.44436 16.4556 -100
    endloop
  endfacet
  facet normal -0.83147 0.55557 0
    outer loop
      vertex 8.44436 16.4556 -3.7
      vertex 7.96746 15.7419 -100
      vertex 7.96746 15.7419 -3.7
    endloop
  endfacet
  facet normal 0.83147 -0.555569 0
    outer loop
      vertex 62.5342 6.58579 -3.7
      vertex 62.9678 7.23463 -100
      vertex 62.9678 7.23463 -3.7
    endloop
  endfacet
  facet normal 0.83147 -0.555569 0
    outer loop
      vertex 62.9678 7.23463 -100
      vertex 62.5342 6.58579 -3.7
      vertex 62.5342 6.58579 -100
    endloop
  endfacet
  facet normal -1 0 0
    outer loop
      vertex 7.8 8 -100
      vertex 7.8 14.9 -3.7
      vertex 7.8 14.9 -100
    endloop
  endfacet
  facet normal -1 -0 0
    outer loop
      vertex 7.8 14.9 -3.7
      vertex 7.8 8 -100
      vertex 7.8 8 -3.7
    endloop
  endfacet
  facet normal -0.980785 0.19509 0
    outer loop
      vertex 7.8 14.9 -100
      vertex 7.96746 15.7419 -3.7
      vertex 7.96746 15.7419 -100
    endloop
  endfacet
  facet normal -0.980785 0.19509 0
    outer loop
      vertex 7.96746 15.7419 -3.7
      vertex 7.8 14.9 -100
      vertex 7.8 14.9 -3.7
    endloop
  endfacet
  facet normal -0.555569 0.831471 0
    outer loop
      vertex 9.1581 16.9325 -100
      vertex 8.44436 16.4556 -3.7
      vertex 9.1581 16.9325 -3.7
    endloop
  endfacet
  facet normal -0.555569 0.831471 0
    outer loop
      vertex 8.44436 16.4556 -3.7
      vertex 9.1581 16.9325 -100
      vertex 8.44436 16.4556 -100
    endloop
  endfacet
  facet normal 0.55557 -0.831469 0
    outer loop
      vertex 61.8854 6.15224 -100
      vertex 62.5342 6.58579 -3.7
      vertex 61.8854 6.15224 -3.7
    endloop
  endfacet
  facet normal 0.55557 -0.831469 0
    outer loop
      vertex 62.5342 6.58579 -3.7
      vertex 61.8854 6.15224 -100
      vertex 62.5342 6.58579 -100
    endloop
  endfacet
  facet normal 0.555571 0.831469 -0
    outer loop
      vertex 62.5342 16.3142 -100
      vertex 61.8854 16.7478 -3.7
      vertex 62.5342 16.3142 -3.7
    endloop
  endfacet
  facet normal 0.555571 0.831469 0
    outer loop
      vertex 61.8854 16.7478 -3.7
      vertex 62.5342 16.3142 -100
      vertex 61.8854 16.7478 -100
    endloop
  endfacet
  facet normal 0.83147 0.555569 0
    outer loop
      vertex 62.9678 15.6654 -3.7
      vertex 62.5342 16.3142 -100
      vertex 62.5342 16.3142 -3.7
    endloop
  endfacet
  facet normal 0.83147 0.555569 0
    outer loop
      vertex 62.5342 16.3142 -100
      vertex 62.9678 15.6654 -3.7
      vertex 62.9678 15.6654 -100
    endloop
  endfacet
  facet normal -1 0 0
    outer loop
      vertex 2 22.9 1.3
      vertex 2 23.3 12.8
      vertex 2 23.3 1.3
    endloop
  endfacet
  facet normal -1 -0 0
    outer loop
      vertex 2 23.3 12.8
      vertex 2 22.9 1.3
      vertex 2 22.9 12.8
    endloop
  endfacet
  facet normal 0 0 -1
    outer loop
      vertex 2 22.9 1.3
      vertex 66 23.3 1.3
      vertex 66 22.9 1.3
    endloop
  endfacet
  facet normal -0 0 -1
    outer loop
      vertex 66 23.3 1.3
      vertex 2 22.9 1.3
      vertex 2 23.3 1.3
    endloop
  endfacet
  facet normal 1 -0 0
    outer loop
      vertex 66 22.9 12.8
      vertex 66 23.3 1.3
      vertex 66 23.3 12.8
    endloop
  endfacet
  facet normal 1 0 0
    outer loop
      vertex 66 23.3 1.3
      vertex 66 22.9 12.8
      vertex 66 22.9 1.3
    endloop
  endfacet
  facet normal 0 1 -0
    outer loop
      vertex 66 23.3 1.3
      vertex 2 23.3 12.8
      vertex 66 23.3 12.8
    endloop
  endfacet
  facet normal 0 1 0
    outer loop
      vertex 2 23.3 12.8
      vertex 66 23.3 1.3
      vertex 2 23.3 1.3
    endloop
  endfacet
  facet normal -1 0 0
    outer loop
      vertex 2 0 -9.2
      vertex 2 3 -3.7
      vertex 2 3 -9.2
    endloop
  endfacet
  facet normal -1 -0 0
    outer loop
      vertex 2 3 -3.7
      vertex 2 0 -9.2
      vertex 2 0 -3.7
    endloop
  endfacet
  facet normal 1 -0 0
    outer loop
      vertex 66 0 -3.7
      vertex 66 3 -9.2
      vertex 66 3 -3.7
    endloop
  endfacet
  facet normal 1 0 0
    outer loop
      vertex 66 3 -9.2
      vertex 66 0 -3.7
      vertex 66 0 -9.2
    endloop
  endfacet
  facet normal 0 1 -0
    outer loop
      vertex 66 3 -9.2
      vertex 2 3 -3.7
      vertex 66 3 -3.7
    endloop
  endfacet
  facet normal 0 1 0
    outer loop
      vertex 2 3 -3.7
      vertex 66 3 -9.2
      vertex 2 3 -9.2
    endloop
  endfacet
  facet normal 0 0 -1
    outer loop
      vertex 2 0 -9.2
      vertex 66 3 -9.2
      vertex 66 0 -9.2
    endloop
  endfacet
  facet normal -0 0 -1
    outer loop
      vertex 66 3 -9.2
      vertex 2 0 -9.2
      vertex 2 3 -9.2
    endloop
  endfacet
  facet normal -1 0 0
    outer loop
      vertex 2 23.3 -9.2
      vertex 2 22.9 -3.7
      vertex 2 23.3 0.299999
    endloop
  endfacet
  facet normal -1 0 0
    outer loop
      vertex 2 20.3 -9.2
      vertex 2 22.9 -3.7
      vertex 2 23.3 -9.2
    endloop
  endfacet
  facet normal -1 -0 0
    outer loop
      vertex 2 22.9 -3.7
      vertex 2 20.3 -9.2
      vertex 2 20.3 -3.7
    endloop
  endfacet
  facet normal -1 -0 0
    outer loop
      vertex 2 23.3 0.299999
      vertex 2 22.9 -3.7
      vertex 2 22.9 0.299999
    endloop
  endfacet
  facet normal -0 0 1
    outer loop
      vertex 2 23.3 0.299999
      vertex 66 22.9 0.299999
      vertex 66 23.3 0.299999
    endloop
  endfacet
  facet normal 0 0 1
    outer loop
      vertex 66 22.9 0.299999
      vertex 2 23.3 0.299999
      vertex 2 22.9 0.299999
    endloop
  endfacet
  facet normal 1 0 0
    outer loop
      vertex 66 22.9 -3.7
      vertex 66 23.3 0.299999
      vertex 66 22.9 0.299999
    endloop
  endfacet
  facet normal 1 0 0
    outer loop
      vertex 66 23.3 0.299999
      vertex 66 22.9 -3.7
      vertex 66 23.3 -9.2
    endloop
  endfacet
  facet normal 1 0 0
    outer loop
      vertex 66 20.3 -9.2
      vertex 66 22.9 -3.7
      vertex 66 20.3 -3.7
    endloop
  endfacet
  facet normal 1 0 0
    outer loop
      vertex 66 22.9 -3.7
      vertex 66 20.3 -9.2
      vertex 66 23.3 -9.2
    endloop
  endfacet
  facet normal 0 1 -0
    outer loop
      vertex 66 23.3 -9.2
      vertex 2 23.3 0.299999
      vertex 66 23.3 0.299999
    endloop
  endfacet
  facet normal 0 1 0
    outer loop
      vertex 2 23.3 0.299999
      vertex 66 23.3 -9.2
      vertex 2 23.3 -9.2
    endloop
  endfacet
  facet normal 0 0 -1
    outer loop
      vertex 2 20.3 -9.2
      vertex 66 23.3 -9.2
      vertex 66 20.3 -9.2
    endloop
  endfacet
  facet normal -0 0 -1
    outer loop
      vertex 66 23.3 -9.2
      vertex 2 20.3 -9.2
      vertex 2 23.3 -9.2
    endloop
  endfacet
  facet normal 0 -1 0
    outer loop
      vertex 2 20.3 -9.2
      vertex 66 20.3 -3.7
      vertex 2 20.3 -3.7
    endloop
  endfacet
  facet normal 0 -1 -0
    outer loop
      vertex 66 20.3 -3.7
      vertex 2 20.3 -9.2
      vertex 66 20.3 -9.2
    endloop
  endfacet
endsolid OpenSCAD_Model
