solid OpenSCAD_Model
  facet normal 0.83147 -0.55557 0
    outer loop
      vertex 1.34515 19.3384 1.3
      vertex 1.61612 19.7439 0
      vertex 1.61612 19.7439 1.3
    endloop
  endfacet
  facet normal 0.83147 -0.55557 0
    outer loop
      vertex 1.61612 19.7439 0
      vertex 1.34515 19.3384 1.3
      vertex 1.34515 19.3384 0
    endloop
  endfacet
  facet normal 0.980785 -0.195089 0
    outer loop
      vertex 1.26392 18.93 1.3
      vertex 1.34515 19.3384 0
      vertex 1.34515 19.3384 1.3
    endloop
  endfacet
  facet normal 0.980785 -0.195089 0
    outer loop
      vertex 1.34515 19.3384 0
      vertex 1.26392 18.93 1.3
      vertex 1.26392 18.93 0
    endloop
  endfacet
  facet normal 0.555568 -0.831471 0
    outer loop
      vertex 1.61612 19.7439 0
      vertex 2 20.0004 1.3
      vertex 1.61612 19.7439 1.3
    endloop
  endfacet
  facet normal 0.555568 -0.831471 0
    outer loop
      vertex 2 20.0004 1.3
      vertex 1.61612 19.7439 0
      vertex 2 20.0004 0
    endloop
  endfacet
  facet normal -0.980784 -0.195097 0
    outer loop
      vertex 70.37 2 0
      vertex 70.2748 2.47835 1.3
      vertex 70.2748 2.47835 0
    endloop
  endfacet
  facet normal -0.980784 -0.195097 0
    outer loop
      vertex 70.2748 2.47835 1.3
      vertex 70.37 2 0
      vertex 70.37 2 1.3
    endloop
  endfacet
  facet normal 0.195091 -0.980785 0
    outer loop
      vertex 68.6416 3.15485 0
      vertex 69.12 3.25 1.3
      vertex 68.6416 3.15485 1.3
    endloop
  endfacet
  facet normal 0.195091 -0.980785 0
    outer loop
      vertex 69.12 3.25 1.3
      vertex 68.6416 3.15485 0
      vertex 69.12 3.25 0
    endloop
  endfacet
  facet normal -0.195092 0.980785 0
    outer loop
      vertex 69.5984 0.84515 0
      vertex 69.12 0.75 1.3
      vertex 69.5984 0.84515 1.3
    endloop
  endfacet
  facet normal -0.195092 0.980785 0
    outer loop
      vertex 69.12 0.75 1.3
      vertex 69.5984 0.84515 0
      vertex 69.12 0.75 0
    endloop
  endfacet
  facet normal -0.555566 0.831472 0
    outer loop
      vertex 70.0039 1.11612 0
      vertex 69.5984 0.84515 1.3
      vertex 70.0039 1.11612 1.3
    endloop
  endfacet
  facet normal -0.555566 0.831472 0
    outer loop
      vertex 69.5984 0.84515 1.3
      vertex 70.0039 1.11612 0
      vertex 69.5984 0.84515 0
    endloop
  endfacet
  facet normal -0.555566 -0.831472 0
    outer loop
      vertex 69.5984 3.15485 0
      vertex 70.0039 2.88388 1.3
      vertex 69.5984 3.15485 1.3
    endloop
  endfacet
  facet normal -0.555566 -0.831472 -0
    outer loop
      vertex 70.0039 2.88388 1.3
      vertex 69.5984 3.15485 0
      vertex 70.0039 2.88388 0
    endloop
  endfacet
  facet normal -0.83147 -0.555569 0
    outer loop
      vertex 70.2748 2.47835 0
      vertex 70.0039 2.88388 1.3
      vertex 70.0039 2.88388 0
    endloop
  endfacet
  facet normal -0.83147 -0.555569 0
    outer loop
      vertex 70.0039 2.88388 1.3
      vertex 70.2748 2.47835 0
      vertex 70.2748 2.47835 1.3
    endloop
  endfacet
  facet normal -0.195094 -0.980785 0
    outer loop
      vertex 69.12 3.25 0
      vertex 69.5984 3.15485 1.3
      vertex 69.12 3.25 1.3
    endloop
  endfacet
  facet normal -0.195094 -0.980785 -0
    outer loop
      vertex 69.5984 3.15485 1.3
      vertex 69.12 3.25 0
      vertex 69.5984 3.15485 0
    endloop
  endfacet
  facet normal 0.83147 -0.555569 0
    outer loop
      vertex 67.9651 2.47835 1.3
      vertex 68.2361 2.88388 0
      vertex 68.2361 2.88388 1.3
    endloop
  endfacet
  facet normal 0.83147 -0.555569 0
    outer loop
      vertex 68.2361 2.88388 0
      vertex 67.9651 2.47835 1.3
      vertex 67.9651 2.47835 0
    endloop
  endfacet
  facet normal 0.980787 -0.195082 0
    outer loop
      vertex 67.87 2 1.3
      vertex 67.9651 2.47835 0
      vertex 67.9651 2.47835 1.3
    endloop
  endfacet
  facet normal 0.980787 -0.195082 0
    outer loop
      vertex 67.9651 2.47835 0
      vertex 67.87 2 1.3
      vertex 67.87 2 0
    endloop
  endfacet
  facet normal 0.555566 -0.831472 0
    outer loop
      vertex 68.2361 2.88388 0
      vertex 68.6416 3.15485 1.3
      vertex 68.2361 2.88388 1.3
    endloop
  endfacet
  facet normal 0.555566 -0.831472 0
    outer loop
      vertex 68.6416 3.15485 1.3
      vertex 68.2361 2.88388 0
      vertex 68.6416 3.15485 0
    endloop
  endfacet
  facet normal -0.980784 0.195097 0
    outer loop
      vertex 70.2748 1.52165 0
      vertex 70.37 2 1.3
      vertex 70.37 2 0
    endloop
  endfacet
  facet normal -0.980784 0.195097 0
    outer loop
      vertex 70.37 2 1.3
      vertex 70.2748 1.52165 0
      vertex 70.2748 1.52165 1.3
    endloop
  endfacet
  facet normal 0.195089 0.980786 -0
    outer loop
      vertex 69.12 0.75 0
      vertex 68.6416 0.84515 1.3
      vertex 69.12 0.75 1.3
    endloop
  endfacet
  facet normal 0.195089 0.980786 0
    outer loop
      vertex 68.6416 0.84515 1.3
      vertex 69.12 0.75 0
      vertex 68.6416 0.84515 0
    endloop
  endfacet
  facet normal 0.83147 0.555569 0
    outer loop
      vertex 68.2361 1.11612 1.3
      vertex 67.9651 1.52165 0
      vertex 67.9651 1.52165 1.3
    endloop
  endfacet
  facet normal 0.83147 0.555569 0
    outer loop
      vertex 67.9651 1.52165 0
      vertex 68.2361 1.11612 1.3
      vertex 68.2361 1.11612 0
    endloop
  endfacet
  facet normal 0.980787 0.195082 0
    outer loop
      vertex 67.9651 1.52165 1.3
      vertex 67.87 2 0
      vertex 67.87 2 1.3
    endloop
  endfacet
  facet normal 0.980787 0.195082 0
    outer loop
      vertex 67.87 2 0
      vertex 67.9651 1.52165 1.3
      vertex 67.9651 1.52165 0
    endloop
  endfacet
  facet normal -0.83147 0.555569 0
    outer loop
      vertex 70.0039 1.11612 0
      vertex 70.2748 1.52165 1.3
      vertex 70.2748 1.52165 0
    endloop
  endfacet
  facet normal -0.83147 0.555569 0
    outer loop
      vertex 70.2748 1.52165 1.3
      vertex 70.0039 1.11612 0
      vertex 70.0039 1.11612 1.3
    endloop
  endfacet
  facet normal 0.555566 0.831472 -0
    outer loop
      vertex 68.6416 0.84515 0
      vertex 68.2361 1.11612 1.3
      vertex 68.6416 0.84515 1.3
    endloop
  endfacet
  facet normal 0.555566 0.831472 0
    outer loop
      vertex 68.2361 1.11612 1.3
      vertex 68.6416 0.84515 0
      vertex 68.2361 1.11612 0
    endloop
  endfacet
  facet normal -1 0 0
    outer loop
      vertex 0 0 0
      vertex 0 3.93 1.3
      vertex 0 3.93 0
    endloop
  endfacet
  facet normal -1 -0 0
    outer loop
      vertex 0 3.93 1.3
      vertex 0 0 0
      vertex 0 0 1.3
    endloop
  endfacet
  facet normal -1 0 0
    outer loop
      vertex 0 18.93 0
      vertex 0 22.86 1.3
      vertex 0 22.86 0
    endloop
  endfacet
  facet normal -1 -0 0
    outer loop
      vertex 0 22.86 1.3
      vertex 0 18.93 0
      vertex 0 18.93 1.3
    endloop
  endfacet
  facet normal -0 0 1
    outer loop
      vertex 66 22.86 1.3
      vertex 71.12 18.93 1.3
      vertex 71.12 22.86 1.3
    endloop
  endfacet
  facet normal 0 0 1
    outer loop
      vertex 71.12 18.93 1.3
      vertex 66 22.86 1.3
      vertex 66 18.93 1.3
    endloop
  endfacet
  facet normal -0 0 1
    outer loop
      vertex 0 22.86 1.3
      vertex 2 20.0004 1.3
      vertex 2 22.86 1.3
    endloop
  endfacet
  facet normal 0 0 1
    outer loop
      vertex 2 20.0004 1.3
      vertex 0 22.86 1.3
      vertex 1.61612 19.7439 1.3
    endloop
  endfacet
  facet normal 0 0 1
    outer loop
      vertex 0 18.93 1.3
      vertex 1.61612 19.7439 1.3
      vertex 0 22.86 1.3
    endloop
  endfacet
  facet normal 0 0 1
    outer loop
      vertex 1.61612 19.7439 1.3
      vertex 0 18.93 1.3
      vertex 1.34515 19.3384 1.3
    endloop
  endfacet
  facet normal 0 0 1
    outer loop
      vertex 1.34515 19.3384 1.3
      vertex 0 18.93 1.3
      vertex 1.26392 18.93 1.3
    endloop
  endfacet
  facet normal 0 0 1
    outer loop
      vertex 71.12 3.93 1.3
      vertex 70.37 2 1.3
      vertex 71.12 0 1.3
    endloop
  endfacet
  facet normal 0 0 1
    outer loop
      vertex 71.12 3.93 1.3
      vertex 70.2748 2.47835 1.3
      vertex 70.37 2 1.3
    endloop
  endfacet
  facet normal 0 0 1
    outer loop
      vertex 71.12 3.93 1.3
      vertex 70.0039 2.88388 1.3
      vertex 70.2748 2.47835 1.3
    endloop
  endfacet
  facet normal 0 0 1
    outer loop
      vertex 71.12 3.93 1.3
      vertex 69.5984 3.15485 1.3
      vertex 70.0039 2.88388 1.3
    endloop
  endfacet
  facet normal 0 0 1
    outer loop
      vertex 71.12 3.93 1.3
      vertex 69.12 3.25 1.3
      vertex 69.5984 3.15485 1.3
    endloop
  endfacet
  facet normal -0 0 1
    outer loop
      vertex 66 3.93 1.3
      vertex 69.12 3.25 1.3
      vertex 71.12 3.93 1.3
    endloop
  endfacet
  facet normal 0 0 1
    outer loop
      vertex 67.9651 2.47835 1.3
      vertex 66 3.93 1.3
      vertex 67.87 2 1.3
    endloop
  endfacet
  facet normal 0 0 1
    outer loop
      vertex 68.2361 2.88388 1.3
      vertex 66 3.93 1.3
      vertex 67.9651 2.47835 1.3
    endloop
  endfacet
  facet normal 0 0 1
    outer loop
      vertex 68.6416 3.15485 1.3
      vertex 66 3.93 1.3
      vertex 68.2361 2.88388 1.3
    endloop
  endfacet
  facet normal 0 0 1
    outer loop
      vertex 69.12 3.25 1.3
      vertex 66 3.93 1.3
      vertex 68.6416 3.15485 1.3
    endloop
  endfacet
  facet normal -0 0 1
    outer loop
      vertex 70.2748 1.52165 1.3
      vertex 71.12 0 1.3
      vertex 70.37 2 1.3
    endloop
  endfacet
  facet normal -0 0 1
    outer loop
      vertex 70.0039 1.11612 1.3
      vertex 71.12 0 1.3
      vertex 70.2748 1.52165 1.3
    endloop
  endfacet
  facet normal -0 0 1
    outer loop
      vertex 69.5984 0.84515 1.3
      vertex 71.12 0 1.3
      vertex 70.0039 1.11612 1.3
    endloop
  endfacet
  facet normal -0 0 1
    outer loop
      vertex 69.12 0.75 1.3
      vertex 71.12 0 1.3
      vertex 69.5984 0.84515 1.3
    endloop
  endfacet
  facet normal 0 0 1
    outer loop
      vertex 66 0 1.3
      vertex 69.12 0.75 1.3
      vertex 68.6416 0.84515 1.3
    endloop
  endfacet
  facet normal 0 0 1
    outer loop
      vertex 66 0 1.3
      vertex 67.87 2 1.3
      vertex 66 3.93 1.3
    endloop
  endfacet
  facet normal 0 0 1
    outer loop
      vertex 67.87 2 1.3
      vertex 66 0 1.3
      vertex 67.9651 1.52165 1.3
    endloop
  endfacet
  facet normal 0 0 1
    outer loop
      vertex 69.12 0.75 1.3
      vertex 66 0 1.3
      vertex 71.12 0 1.3
    endloop
  endfacet
  facet normal 0 0 1
    outer loop
      vertex 68.2361 1.11612 1.3
      vertex 66 0 1.3
      vertex 68.6416 0.84515 1.3
    endloop
  endfacet
  facet normal 0 0 1
    outer loop
      vertex 67.9651 1.52165 1.3
      vertex 66 0 1.3
      vertex 68.2361 1.11612 1.3
    endloop
  endfacet
  facet normal -0 0 1
    outer loop
      vertex 0 3.93 1.3
      vertex 2 0 1.3
      vertex 2 3.93 1.3
    endloop
  endfacet
  facet normal 0 0 1
    outer loop
      vertex 2 0 1.3
      vertex 0 3.93 1.3
      vertex 0 0 1.3
    endloop
  endfacet
  facet normal 1 -0 0
    outer loop
      vertex 71.12 0 1.3
      vertex 71.12 3.93 0
      vertex 71.12 3.93 1.3
    endloop
  endfacet
  facet normal 1 0 0
    outer loop
      vertex 71.12 3.93 0
      vertex 71.12 0 1.3
      vertex 71.12 0 0
    endloop
  endfacet
  facet normal 1 -0 0
    outer loop
      vertex 71.12 18.93 1.3
      vertex 71.12 22.86 0
      vertex 71.12 22.86 1.3
    endloop
  endfacet
  facet normal 1 0 0
    outer loop
      vertex 71.12 22.86 0
      vertex 71.12 18.93 1.3
      vertex 71.12 18.93 0
    endloop
  endfacet
  facet normal 0 0 -1
    outer loop
      vertex 71.12 18.93 0
      vertex 66 20.26 0
      vertex 71.12 22.86 0
    endloop
  endfacet
  facet normal 0 0 -1
    outer loop
      vertex 2 18.93 0
      vertex 66 20.26 0
      vertex 71.12 18.93 0
    endloop
  endfacet
  facet normal 0 0 -1
    outer loop
      vertex 2 20.0004 0
      vertex 66 20.26 0
      vertex 2 18.93 0
    endloop
  endfacet
  facet normal 0 0 -1
    outer loop
      vertex 2 20.0004 0
      vertex 2 20.26 0
      vertex 66 20.26 0
    endloop
  endfacet
  facet normal 0 0 -1
    outer loop
      vertex 1.61612 19.7439 0
      vertex 2 20.26 0
      vertex 2 20.0004 0
    endloop
  endfacet
  facet normal -0 0 -1
    outer loop
      vertex 2 20.26 0
      vertex 1.61612 19.7439 0
      vertex 0 22.86 0
    endloop
  endfacet
  facet normal 0 0 -1
    outer loop
      vertex 0 18.93 0
      vertex 1.61612 19.7439 0
      vertex 1.34515 19.3384 0
    endloop
  endfacet
  facet normal 0 0 -1
    outer loop
      vertex 0 18.93 0
      vertex 1.34515 19.3384 0
      vertex 1.26392 18.93 0
    endloop
  endfacet
  facet normal -0 0 -1
    outer loop
      vertex 1.61612 19.7439 0
      vertex 0 18.93 0
      vertex 0 22.86 0
    endloop
  endfacet
  facet normal 0 0 -1
    outer loop
      vertex 2 20.26 0
      vertex 0 22.86 0
      vertex 2 22.86 0
    endloop
  endfacet
  facet normal -0 0 -1
    outer loop
      vertex 71.12 22.86 0
      vertex 66 20.26 0
      vertex 66 22.86 0
    endloop
  endfacet
  facet normal 0 0 -1
    outer loop
      vertex 2 0 0
      vertex 0 0 0
      vertex 2 2.6 0
    endloop
  endfacet
  facet normal 0 0 -1
    outer loop
      vertex 71.12 0 0
      vertex 70.37 2 0
      vertex 71.12 3.93 0
    endloop
  endfacet
  facet normal 0 0 -1
    outer loop
      vertex 71.12 0 0
      vertex 70.2748 1.52165 0
      vertex 70.37 2 0
    endloop
  endfacet
  facet normal 0 0 -1
    outer loop
      vertex 71.12 0 0
      vertex 70.0039 1.11612 0
      vertex 70.2748 1.52165 0
    endloop
  endfacet
  facet normal 0 0 -1
    outer loop
      vertex 71.12 0 0
      vertex 69.5984 0.84515 0
      vertex 70.0039 1.11612 0
    endloop
  endfacet
  facet normal 0 0 -1
    outer loop
      vertex 71.12 0 0
      vertex 69.12 0.75 0
      vertex 69.5984 0.84515 0
    endloop
  endfacet
  facet normal 0 0 -1
    outer loop
      vertex 66 0 0
      vertex 69.12 0.75 0
      vertex 71.12 0 0
    endloop
  endfacet
  facet normal 0 0 -1
    outer loop
      vertex 66 2.6 0
      vertex 67.9651 1.52165 0
      vertex 66 0 0
    endloop
  endfacet
  facet normal -0 0 -1
    outer loop
      vertex 68.2361 1.11612 0
      vertex 66 0 0
      vertex 67.9651 1.52165 0
    endloop
  endfacet
  facet normal -0 0 -1
    outer loop
      vertex 68.6416 0.84515 0
      vertex 66 0 0
      vertex 68.2361 1.11612 0
    endloop
  endfacet
  facet normal -0 0 -1
    outer loop
      vertex 69.12 0.75 0
      vertex 66 0 0
      vertex 68.6416 0.84515 0
    endloop
  endfacet
  facet normal 0 0 -1
    outer loop
      vertex 70.2748 2.47835 0
      vertex 71.12 3.93 0
      vertex 70.37 2 0
    endloop
  endfacet
  facet normal 0 0 -1
    outer loop
      vertex 70.0039 2.88388 0
      vertex 71.12 3.93 0
      vertex 70.2748 2.47835 0
    endloop
  endfacet
  facet normal 0 0 -1
    outer loop
      vertex 69.5984 3.15485 0
      vertex 71.12 3.93 0
      vertex 70.0039 2.88388 0
    endloop
  endfacet
  facet normal 0 0 -1
    outer loop
      vertex 69.12 3.25 0
      vertex 71.12 3.93 0
      vertex 69.5984 3.15485 0
    endloop
  endfacet
  facet normal 0 0 -1
    outer loop
      vertex 68.6416 3.15485 0
      vertex 71.12 3.93 0
      vertex 69.12 3.25 0
    endloop
  endfacet
  facet normal 0 0 -1
    outer loop
      vertex 67.9651 1.52165 0
      vertex 66 2.6 0
      vertex 67.87 2 0
    endloop
  endfacet
  facet normal 0 0 -1
    outer loop
      vertex 67.87 2 0
      vertex 66 2.6 0
      vertex 67.9651 2.47835 0
    endloop
  endfacet
  facet normal 0 0 -1
    outer loop
      vertex 67.9651 2.47835 0
      vertex 66 2.6 0
      vertex 68.2361 2.88388 0
    endloop
  endfacet
  facet normal 0 0 -1
    outer loop
      vertex 66 2.6 0
      vertex 68.6416 3.15485 0
      vertex 68.2361 2.88388 0
    endloop
  endfacet
  facet normal 0 0 -1
    outer loop
      vertex 66 2.6 0
      vertex 71.12 3.93 0
      vertex 68.6416 3.15485 0
    endloop
  endfacet
  facet normal 0 0 -1
    outer loop
      vertex 0 3.93 0
      vertex 66 2.6 0
      vertex 2 2.6 0
    endloop
  endfacet
  facet normal 0 0 -1
    outer loop
      vertex 66 2.6 0
      vertex 0 3.93 0
      vertex 71.12 3.93 0
    endloop
  endfacet
  facet normal 0 0 -1
    outer loop
      vertex 0 3.93 0
      vertex 2 2.6 0
      vertex 0 0 0
    endloop
  endfacet
  facet normal 0 -1 0
    outer loop
      vertex 2 0 -9.2
      vertex 66 0 0
      vertex 2 0 0
    endloop
  endfacet
  facet normal 0 -1 -0
    outer loop
      vertex 66 0 0
      vertex 2 0 -9.2
      vertex 66 0 -9.2
    endloop
  endfacet
  facet normal 0 -1 0
    outer loop
      vertex 2 0 0
      vertex 2 0 1.3
      vertex 0 0 1.3
    endloop
  endfacet
  facet normal 0 -1 0
    outer loop
      vertex 2 0 1.3
      vertex 2 0 0
      vertex 66 0 1.3
    endloop
  endfacet
  facet normal 0 -1 0
    outer loop
      vertex 2 0 0
      vertex 0 0 1.3
      vertex 0 0 0
    endloop
  endfacet
  facet normal 0 -1 -0
    outer loop
      vertex 66 0 1.3
      vertex 2 0 0
      vertex 66 0 0
    endloop
  endfacet
  facet normal 0 -1 0
    outer loop
      vertex 66 0 1.3
      vertex 66 0 0
      vertex 71.12 0 1.3
    endloop
  endfacet
  facet normal 0 -1 -0
    outer loop
      vertex 71.12 0 1.3
      vertex 66 0 0
      vertex 71.12 0 0
    endloop
  endfacet
  facet normal 0 -1 0
    outer loop
      vertex 2 0 1.3
      vertex 66 0 10.5
      vertex 2 0 10.5
    endloop
  endfacet
  facet normal 0 -1 -0
    outer loop
      vertex 66 0 10.5
      vertex 2 0 1.3
      vertex 66 0 1.3
    endloop
  endfacet
  facet normal 0 1 -0
    outer loop
      vertex 66 22.86 -9.2
      vertex 2 22.86 0
      vertex 66 22.86 0
    endloop
  endfacet
  facet normal 0 1 0
    outer loop
      vertex 2 22.86 0
      vertex 66 22.86 -9.2
      vertex 2 22.86 -9.2
    endloop
  endfacet
  facet normal 0 1 0
    outer loop
      vertex 66 22.86 0
      vertex 66 22.86 1.3
      vertex 71.12 22.86 1.3
    endloop
  endfacet
  facet normal 0 1 0
    outer loop
      vertex 66 22.86 1.3
      vertex 66 22.86 0
      vertex 2 22.86 1.3
    endloop
  endfacet
  facet normal 0 1 0
    outer loop
      vertex 66 22.86 0
      vertex 71.12 22.86 1.3
      vertex 71.12 22.86 0
    endloop
  endfacet
  facet normal 0 1 0
    outer loop
      vertex 2 22.86 0
      vertex 2 22.86 1.3
      vertex 66 22.86 0
    endloop
  endfacet
  facet normal 0 1 0
    outer loop
      vertex 2 22.86 1.3
      vertex 2 22.86 0
      vertex 0 22.86 1.3
    endloop
  endfacet
  facet normal 0 1 0
    outer loop
      vertex 0 22.86 1.3
      vertex 2 22.86 0
      vertex 0 22.86 0
    endloop
  endfacet
  facet normal 0 1 -0
    outer loop
      vertex 66 22.86 1.3
      vertex 2 22.86 10.5
      vertex 66 22.86 10.5
    endloop
  endfacet
  facet normal 0 1 0
    outer loop
      vertex 2 22.86 10.5
      vertex 66 22.86 1.3
      vertex 2 22.86 1.3
    endloop
  endfacet
  facet normal -1 0 0
    outer loop
      vertex -102 3.93 -2.7
      vertex -102 18.93 8.3
      vertex -102 18.93 -2.7
    endloop
  endfacet
  facet normal -1 -0 0
    outer loop
      vertex -102 18.93 8.3
      vertex -102 3.93 -2.7
      vertex -102 3.93 8.3
    endloop
  endfacet
  facet normal -0 0 1
    outer loop
      vertex -102 18.93 8.3
      vertex 2 17.698 8.3
      vertex 2 18.93 8.3
    endloop
  endfacet
  facet normal 0 0 1
    outer loop
      vertex 2 17.698 8.3
      vertex -102 18.93 8.3
      vertex 2 4.43797 8.3
    endloop
  endfacet
  facet normal 0 0 1
    outer loop
      vertex -102 3.93 8.3
      vertex 2 4.43797 8.3
      vertex -102 18.93 8.3
    endloop
  endfacet
  facet normal 0 0 1
    outer loop
      vertex 2 4.43797 8.3
      vertex -102 3.93 8.3
      vertex 2 3.93 8.3
    endloop
  endfacet
  facet normal 0 0 1
    outer loop
      vertex 2 4.43797 8.3
      vertex 66.37 10.3 8.3
      vertex 2 17.698 8.3
    endloop
  endfacet
  facet normal 0 0 1
    outer loop
      vertex 66.37 10.3 8.3
      vertex 2 4.43797 8.3
      vertex 66 4.43797 8.3
    endloop
  endfacet
  facet normal -0 0 1
    outer loop
      vertex 70.2178 7.26537 8.3
      vertex 74.62 3.93 8.3
      vertex 70.2178 9.53463 8.3
    endloop
  endfacet
  facet normal 0 0 1
    outer loop
      vertex 74.62 3.93 8.3
      vertex 70.2178 7.26537 8.3
      vertex 70.37 6.5 8.3
    endloop
  endfacet
  facet normal -0 0 1
    outer loop
      vertex 69.7842 8.88579 8.3
      vertex 70.2178 7.26537 8.3
      vertex 70.2178 9.53463 8.3
    endloop
  endfacet
  facet normal 0 0 1
    outer loop
      vertex 69.7842 8.88579 8.3
      vertex 69.7842 7.91421 8.3
      vertex 70.2178 7.26537 8.3
    endloop
  endfacet
  facet normal -0 0 1
    outer loop
      vertex 69.1354 8.45224 8.3
      vertex 69.7842 7.91421 8.3
      vertex 69.7842 8.88579 8.3
    endloop
  endfacet
  facet normal 0 0 1
    outer loop
      vertex 69.1354 8.45224 8.3
      vertex 69.1354 8.34776 8.3
      vertex 69.7842 7.91421 8.3
    endloop
  endfacet
  facet normal 0 -0 1
    outer loop
      vertex 69.1354 8.34776 8.3
      vertex 69.1354 8.45224 8.3
      vertex 68.8727 8.4 8.3
    endloop
  endfacet
  facet normal 0 0 1
    outer loop
      vertex 74.62 18.93 8.3
      vertex 70.37 10.3 8.3
      vertex 74.62 3.93 8.3
    endloop
  endfacet
  facet normal 0 0 1
    outer loop
      vertex 74.62 18.93 8.3
      vertex 70.2178 11.0654 8.3
      vertex 70.37 10.3 8.3
    endloop
  endfacet
  facet normal 0 0 1
    outer loop
      vertex 74.62 18.93 8.3
      vertex 69.7842 11.7142 8.3
      vertex 70.2178 11.0654 8.3
    endloop
  endfacet
  facet normal 0 0 1
    outer loop
      vertex 74.62 18.93 8.3
      vertex 69.1354 12.1478 8.3
      vertex 69.7842 11.7142 8.3
    endloop
  endfacet
  facet normal -0 0 1
    outer loop
      vertex 66 17.698 8.3
      vertex 69.1354 12.1478 8.3
      vertex 74.62 18.93 8.3
    endloop
  endfacet
  facet normal 0 0 1
    outer loop
      vertex 69.1354 12.1478 8.3
      vertex 66 17.698 8.3
      vertex 68.37 12.3 8.3
    endloop
  endfacet
  facet normal 0 0 1
    outer loop
      vertex 68.37 12.3 8.3
      vertex 66 17.698 8.3
      vertex 67.6046 12.1478 8.3
    endloop
  endfacet
  facet normal 0 0 1
    outer loop
      vertex 66.5222 11.0654 8.3
      vertex 66 17.698 8.3
      vertex 66.37 10.3 8.3
    endloop
  endfacet
  facet normal 0 0 1
    outer loop
      vertex 66.9558 11.7142 8.3
      vertex 66 17.698 8.3
      vertex 66.5222 11.0654 8.3
    endloop
  endfacet
  facet normal 0 0 1
    outer loop
      vertex 67.6046 12.1478 8.3
      vertex 66 17.698 8.3
      vertex 66.9558 11.7142 8.3
    endloop
  endfacet
  facet normal 0 0 1
    outer loop
      vertex 66 17.698 8.3
      vertex 74.62 18.93 8.3
      vertex 66 18.93 8.3
    endloop
  endfacet
  facet normal -0 0 1
    outer loop
      vertex 70.2178 9.53463 8.3
      vertex 74.62 3.93 8.3
      vertex 70.37 10.3 8.3
    endloop
  endfacet
  facet normal -0 0 1
    outer loop
      vertex 70.2178 5.73463 8.3
      vertex 74.62 3.93 8.3
      vertex 70.37 6.5 8.3
    endloop
  endfacet
  facet normal -0 0 1
    outer loop
      vertex 69.7842 5.08579 8.3
      vertex 74.62 3.93 8.3
      vertex 70.2178 5.73463 8.3
    endloop
  endfacet
  facet normal -0 0 1
    outer loop
      vertex 69.1354 4.65224 8.3
      vertex 74.62 3.93 8.3
      vertex 69.7842 5.08579 8.3
    endloop
  endfacet
  facet normal -0 0 1
    outer loop
      vertex 68.37 4.5 8.3
      vertex 74.62 3.93 8.3
      vertex 69.1354 4.65224 8.3
    endloop
  endfacet
  facet normal -0 0 1
    outer loop
      vertex 2 17.698 8.3
      vertex 66.37 10.3 8.3
      vertex 66 17.698 8.3
    endloop
  endfacet
  facet normal 0 0 1
    outer loop
      vertex 66.37 10.3 8.3
      vertex 66 4.43797 8.3
      vertex 66.37 6.5 8.3
    endloop
  endfacet
  facet normal 0 0 1
    outer loop
      vertex 66 4.43797 8.3
      vertex 66.5222 5.73463 8.3
      vertex 66.37 6.5 8.3
    endloop
  endfacet
  facet normal 0 0 1
    outer loop
      vertex 66 4.43797 8.3
      vertex 66.9558 5.08579 8.3
      vertex 66.5222 5.73463 8.3
    endloop
  endfacet
  facet normal 0 0 1
    outer loop
      vertex 66 4.43797 8.3
      vertex 67.6046 4.65224 8.3
      vertex 66.9558 5.08579 8.3
    endloop
  endfacet
  facet normal 0 0 1
    outer loop
      vertex 66 3.93 8.3
      vertex 67.6046 4.65224 8.3
      vertex 66 4.43797 8.3
    endloop
  endfacet
  facet normal 0 0 1
    outer loop
      vertex 67.6046 4.65224 8.3
      vertex 66 3.93 8.3
      vertex 68.37 4.5 8.3
    endloop
  endfacet
  facet normal 0 0 1
    outer loop
      vertex 68.37 4.5 8.3
      vertex 66 3.93 8.3
      vertex 74.62 3.93 8.3
    endloop
  endfacet
  facet normal 0 0 1
    outer loop
      vertex 67.6046 8.45224 8.3
      vertex 67.6046 8.34776 8.3
      vertex 67.8673 8.4 8.3
    endloop
  endfacet
  facet normal 0 0 1
    outer loop
      vertex 66.9558 8.88579 8.3
      vertex 67.6046 8.34776 8.3
      vertex 67.6046 8.45224 8.3
    endloop
  endfacet
  facet normal 0 0 1
    outer loop
      vertex 66.9558 8.88579 8.3
      vertex 66.9558 7.91421 8.3
      vertex 67.6046 8.34776 8.3
    endloop
  endfacet
  facet normal 0 0 1
    outer loop
      vertex 66.5222 9.53463 8.3
      vertex 66.9558 7.91421 8.3
      vertex 66.9558 8.88579 8.3
    endloop
  endfacet
  facet normal 0 0 1
    outer loop
      vertex 66.5222 9.53463 8.3
      vertex 66.5222 7.26537 8.3
      vertex 66.9558 7.91421 8.3
    endloop
  endfacet
  facet normal 0 0 1
    outer loop
      vertex 66.37 10.3 8.3
      vertex 66.5222 7.26537 8.3
      vertex 66.5222 9.53463 8.3
    endloop
  endfacet
  facet normal 0 0 1
    outer loop
      vertex 66.5222 7.26537 8.3
      vertex 66.37 10.3 8.3
      vertex 66.37 6.5 8.3
    endloop
  endfacet
  facet normal 1 -0 0
    outer loop
      vertex 74.62 3.93 8.3
      vertex 74.62 18.93 -2.7
      vertex 74.62 18.93 8.3
    endloop
  endfacet
  facet normal 1 0 0
    outer loop
      vertex 74.62 18.93 -2.7
      vertex 74.62 3.93 8.3
      vertex 74.62 3.93 -2.7
    endloop
  endfacet
  facet normal 0 1 0
    outer loop
      vertex 74.62 18.93 8.3
      vertex 71.12 18.93 1.3
      vertex 66 18.93 8.3
    endloop
  endfacet
  facet normal 0 1 -0
    outer loop
      vertex 74.62 18.93 -2.7
      vertex 71.12 18.93 1.3
      vertex 74.62 18.93 8.3
    endloop
  endfacet
  facet normal 0 1 0
    outer loop
      vertex 74.62 18.93 -2.7
      vertex 2 18.93 0
      vertex 71.12 18.93 0
    endloop
  endfacet
  facet normal 0 1 0
    outer loop
      vertex 2 18.93 0
      vertex 74.62 18.93 -2.7
      vertex 1.26392 18.93 0
    endloop
  endfacet
  facet normal 0 1 0
    outer loop
      vertex 1.26392 18.93 0
      vertex 74.62 18.93 -2.7
      vertex 0 18.93 0
    endloop
  endfacet
  facet normal 0 1 0
    outer loop
      vertex 71.12 18.93 1.3
      vertex 74.62 18.93 -2.7
      vertex 71.12 18.93 0
    endloop
  endfacet
  facet normal 0 1 0
    outer loop
      vertex 66 18.93 8.3
      vertex 71.12 18.93 1.3
      vertex 66 18.93 1.3
    endloop
  endfacet
  facet normal 0 1 0
    outer loop
      vertex 0 18.93 1.3
      vertex 2 18.93 8.3
      vertex 1.26392 18.93 1.3
    endloop
  endfacet
  facet normal 0 1 -0
    outer loop
      vertex 2 18.93 0
      vertex 1.26392 18.93 1.3
      vertex 2 18.93 8.3
    endloop
  endfacet
  facet normal 0 1 0
    outer loop
      vertex 1.26392 18.93 1.3
      vertex 2 18.93 0
      vertex 1.26392 18.93 0
    endloop
  endfacet
  facet normal 0 1 0
    outer loop
      vertex 2 18.93 8.3
      vertex 0 18.93 1.3
      vertex -102 18.93 8.3
    endloop
  endfacet
  facet normal 0 1 0
    outer loop
      vertex -102 18.93 -2.7
      vertex 0 18.93 1.3
      vertex 0 18.93 0
    endloop
  endfacet
  facet normal 0 1 0
    outer loop
      vertex 0 18.93 1.3
      vertex -102 18.93 -2.7
      vertex -102 18.93 8.3
    endloop
  endfacet
  facet normal 0 1 0
    outer loop
      vertex -102 18.93 -2.7
      vertex 0 18.93 0
      vertex 74.62 18.93 -2.7
    endloop
  endfacet
  facet normal 0 0 -1
    outer loop
      vertex 70.9678 8.26537 -2.7
      vertex 74.62 3.93 -2.7
      vertex 71.12 7.5 -2.7
    endloop
  endfacet
  facet normal 0 0 -1
    outer loop
      vertex 74.62 3.93 -2.7
      vertex 70.9678 6.73463 -2.7
      vertex 71.12 7.5 -2.7
    endloop
  endfacet
  facet normal 0 0 -1
    outer loop
      vertex 74.62 3.93 -2.7
      vertex 70.5342 6.08579 -2.7
      vertex 70.9678 6.73463 -2.7
    endloop
  endfacet
  facet normal 0 0 -1
    outer loop
      vertex 74.62 3.93 -2.7
      vertex 69.8854 5.65224 -2.7
      vertex 70.5342 6.08579 -2.7
    endloop
  endfacet
  facet normal 0 0 -1
    outer loop
      vertex 74.62 3.93 -2.7
      vertex 69.12 5.5 -2.7
      vertex 69.8854 5.65224 -2.7
    endloop
  endfacet
  facet normal 0 0 -1
    outer loop
      vertex 61.12 6 -2.7
      vertex 69.12 5.5 -2.7
      vertex 74.62 3.93 -2.7
    endloop
  endfacet
  facet normal 0 0 -1
    outer loop
      vertex 62.9678 7.23463 -2.7
      vertex 67.12 7.5 -2.7
      vertex 67.2722 6.73463 -2.7
    endloop
  endfacet
  facet normal 0 0 -1
    outer loop
      vertex 62.5342 6.58579 -2.7
      vertex 67.2722 6.73463 -2.7
      vertex 67.7058 6.08579 -2.7
    endloop
  endfacet
  facet normal 0 0 -1
    outer loop
      vertex 61.8854 6.15224 -2.7
      vertex 67.7058 6.08579 -2.7
      vertex 68.3546 5.65224 -2.7
    endloop
  endfacet
  facet normal -0 0 -1
    outer loop
      vertex 67.12 7.5 -2.7
      vertex 62.9678 7.23463 -2.7
      vertex 63.12 8 -2.7
    endloop
  endfacet
  facet normal -0 0 -1
    outer loop
      vertex 67.2722 6.73463 -2.7
      vertex 62.5342 6.58579 -2.7
      vertex 62.9678 7.23463 -2.7
    endloop
  endfacet
  facet normal 0 0 -1
    outer loop
      vertex 69.12 5.5 -2.7
      vertex 61.12 6 -2.7
      vertex 68.3546 5.65224 -2.7
    endloop
  endfacet
  facet normal 0 0 -1
    outer loop
      vertex 67.7058 6.08579 -2.7
      vertex 61.8854 6.15224 -2.7
      vertex 62.5342 6.58579 -2.7
    endloop
  endfacet
  facet normal 0 0 -1
    outer loop
      vertex 68.3546 5.65224 -2.7
      vertex 61.12 6 -2.7
      vertex 61.8854 6.15224 -2.7
    endloop
  endfacet
  facet normal 0 0 -1
    outer loop
      vertex 74.62 3.93 -2.7
      vertex 10 5.8 -2.7
      vertex 61.12 6 -2.7
    endloop
  endfacet
  facet normal -0 0 -1
    outer loop
      vertex 7.8 8 -2.7
      vertex -102 3.93 -2.7
      vertex 7.8 14.86 -2.7
    endloop
  endfacet
  facet normal -0 0 -1
    outer loop
      vertex 7.96746 7.1581 -2.7
      vertex -102 3.93 -2.7
      vertex 7.8 8 -2.7
    endloop
  endfacet
  facet normal -0 0 -1
    outer loop
      vertex 8.44436 6.44436 -2.7
      vertex -102 3.93 -2.7
      vertex 7.96746 7.1581 -2.7
    endloop
  endfacet
  facet normal -0 0 -1
    outer loop
      vertex 9.1581 5.96746 -2.7
      vertex -102 3.93 -2.7
      vertex 8.44436 6.44436 -2.7
    endloop
  endfacet
  facet normal -0 0 -1
    outer loop
      vertex 10 5.8 -2.7
      vertex -102 3.93 -2.7
      vertex 9.1581 5.96746 -2.7
    endloop
  endfacet
  facet normal 0 0 -1
    outer loop
      vertex -102 3.93 -2.7
      vertex 10 5.8 -2.7
      vertex 74.62 3.93 -2.7
    endloop
  endfacet
  facet normal 0 0 -1
    outer loop
      vertex 74.62 3.93 -2.7
      vertex 70.9678 8.26537 -2.7
      vertex 74.62 18.93 -2.7
    endloop
  endfacet
  facet normal 0 0 -1
    outer loop
      vertex 70.5342 8.91421 -2.7
      vertex 74.62 18.93 -2.7
      vertex 70.9678 8.26537 -2.7
    endloop
  endfacet
  facet normal 0 0 -1
    outer loop
      vertex 69.8854 9.34776 -2.7
      vertex 74.62 18.93 -2.7
      vertex 70.5342 8.91421 -2.7
    endloop
  endfacet
  facet normal 0 0 -1
    outer loop
      vertex 69.12 9.5 -2.7
      vertex 74.62 18.93 -2.7
      vertex 69.8854 9.34776 -2.7
    endloop
  endfacet
  facet normal 0 0 -1
    outer loop
      vertex 63.12 14.86 -2.7
      vertex 69.12 9.5 -2.7
      vertex 68.3546 9.34776 -2.7
    endloop
  endfacet
  facet normal 0 0 -1
    outer loop
      vertex 63.12 14.86 -2.7
      vertex 68.3546 9.34776 -2.7
      vertex 67.7058 8.91421 -2.7
    endloop
  endfacet
  facet normal 0 0 -1
    outer loop
      vertex 63.12 8 -2.7
      vertex 67.2722 8.26537 -2.7
      vertex 67.12 7.5 -2.7
    endloop
  endfacet
  facet normal 0 0 -1
    outer loop
      vertex 63.12 8 -2.7
      vertex 67.7058 8.91421 -2.7
      vertex 67.2722 8.26537 -2.7
    endloop
  endfacet
  facet normal 0 0 -1
    outer loop
      vertex 63.12 14.86 -2.7
      vertex 67.7058 8.91421 -2.7
      vertex 63.12 8 -2.7
    endloop
  endfacet
  facet normal 0 0 -1
    outer loop
      vertex 69.12 9.5 -2.7
      vertex 63.12 14.86 -2.7
      vertex 74.62 18.93 -2.7
    endloop
  endfacet
  facet normal 0 0 -1
    outer loop
      vertex 62.9678 15.6254 -2.7
      vertex 74.62 18.93 -2.7
      vertex 63.12 14.86 -2.7
    endloop
  endfacet
  facet normal 0 0 -1
    outer loop
      vertex 62.5342 16.2742 -2.7
      vertex 74.62 18.93 -2.7
      vertex 62.9678 15.6254 -2.7
    endloop
  endfacet
  facet normal 0 0 -1
    outer loop
      vertex 61.8854 16.7078 -2.7
      vertex 74.62 18.93 -2.7
      vertex 62.5342 16.2742 -2.7
    endloop
  endfacet
  facet normal 0 0 -1
    outer loop
      vertex 61.12 16.86 -2.7
      vertex 74.62 18.93 -2.7
      vertex 61.8854 16.7078 -2.7
    endloop
  endfacet
  facet normal 0 0 -1
    outer loop
      vertex 10 17.06 -2.7
      vertex 74.62 18.93 -2.7
      vertex 61.12 16.86 -2.7
    endloop
  endfacet
  facet normal 0 0 -1
    outer loop
      vertex -102 18.93 -2.7
      vertex 7.8 14.86 -2.7
      vertex -102 3.93 -2.7
    endloop
  endfacet
  facet normal 0 0 -1
    outer loop
      vertex 7.8 14.86 -2.7
      vertex -102 18.93 -2.7
      vertex 7.96746 15.7019 -2.7
    endloop
  endfacet
  facet normal 0 0 -1
    outer loop
      vertex 7.96746 15.7019 -2.7
      vertex -102 18.93 -2.7
      vertex 8.44436 16.4156 -2.7
    endloop
  endfacet
  facet normal 0 0 -1
    outer loop
      vertex 8.44436 16.4156 -2.7
      vertex -102 18.93 -2.7
      vertex 9.1581 16.8925 -2.7
    endloop
  endfacet
  facet normal 0 0 -1
    outer loop
      vertex 10 17.06 -2.7
      vertex -102 18.93 -2.7
      vertex 74.62 18.93 -2.7
    endloop
  endfacet
  facet normal 0 0 -1
    outer loop
      vertex 9.1581 16.8925 -2.7
      vertex -102 18.93 -2.7
      vertex 10 17.06 -2.7
    endloop
  endfacet
  facet normal 0 -1 0
    outer loop
      vertex -102 3.93 8.3
      vertex 0 3.93 1.3
      vertex 2 3.93 8.3
    endloop
  endfacet
  facet normal 0 -1 0
    outer loop
      vertex -102 3.93 -2.7
      vertex 0 3.93 1.3
      vertex -102 3.93 8.3
    endloop
  endfacet
  facet normal 0 -1 0
    outer loop
      vertex 74.62 3.93 -2.7
      vertex 0 3.93 0
      vertex -102 3.93 -2.7
    endloop
  endfacet
  facet normal 0 -1 -0
    outer loop
      vertex 0 3.93 1.3
      vertex -102 3.93 -2.7
      vertex 0 3.93 0
    endloop
  endfacet
  facet normal 0 -1 -0
    outer loop
      vertex 2 3.93 8.3
      vertex 0 3.93 1.3
      vertex 2 3.93 1.3
    endloop
  endfacet
  facet normal 0 -1 0
    outer loop
      vertex 71.12 3.93 1.3
      vertex 66 3.93 8.3
      vertex 66 3.93 1.3
    endloop
  endfacet
  facet normal 0 -1 0
    outer loop
      vertex 66 3.93 8.3
      vertex 71.12 3.93 1.3
      vertex 74.62 3.93 8.3
    endloop
  endfacet
  facet normal 0 -1 0
    outer loop
      vertex 74.62 3.93 -2.7
      vertex 71.12 3.93 1.3
      vertex 71.12 3.93 0
    endloop
  endfacet
  facet normal 0 -1 0
    outer loop
      vertex 71.12 3.93 1.3
      vertex 74.62 3.93 -2.7
      vertex 74.62 3.93 8.3
    endloop
  endfacet
  facet normal 0 -1 0
    outer loop
      vertex 0 3.93 0
      vertex 74.62 3.93 -2.7
      vertex 71.12 3.93 0
    endloop
  endfacet
  facet normal 1 0 0
    outer loop
      vertex 66 2.6 10.5
      vertex 66 3.93 8.3
      vertex 66 4.43797 8.3
    endloop
  endfacet
  facet normal 1 -0 0
    outer loop
      vertex 66 0 10.5
      vertex 66 3.93 8.3
      vertex 66 2.6 10.5
    endloop
  endfacet
  facet normal 1 0 0
    outer loop
      vertex 66 3.93 8.3
      vertex 66 0 10.5
      vertex 66 0 1.3
    endloop
  endfacet
  facet normal 1 0 0
    outer loop
      vertex 66 3.93 8.3
      vertex 66 0 1.3
      vertex 66 3.93 1.3
    endloop
  endfacet
  facet normal 0.980784 0.195095 0
    outer loop
      vertex 70.37 6.5 101.3
      vertex 70.2178 7.26537 8.3
      vertex 70.2178 7.26537 101.3
    endloop
  endfacet
  facet normal 0.980784 0.195095 0
    outer loop
      vertex 70.2178 7.26537 8.3
      vertex 70.37 6.5 101.3
      vertex 70.37 6.5 8.3
    endloop
  endfacet
  facet normal -0.195091 0.980785 0
    outer loop
      vertex 67.8673 8.4 8.3
      vertex 67.6046 8.34776 101.3
      vertex 67.8673 8.4 101.3
    endloop
  endfacet
  facet normal -0.195091 0.980785 0
    outer loop
      vertex 67.6046 8.34776 101.3
      vertex 67.8673 8.4 8.3
      vertex 67.6046 8.34776 8.3
    endloop
  endfacet
  facet normal 0.19509 -0.980785 0
    outer loop
      vertex 68.37 4.5 8.3
      vertex 69.1354 4.65224 101.3
      vertex 68.37 4.5 101.3
    endloop
  endfacet
  facet normal 0.19509 -0.980785 0
    outer loop
      vertex 69.1354 4.65224 101.3
      vertex 68.37 4.5 8.3
      vertex 69.1354 4.65224 8.3
    endloop
  endfacet
  facet normal 0.555573 0.831468 -0
    outer loop
      vertex 69.7842 7.91421 8.3
      vertex 69.1354 8.34776 101.3
      vertex 69.7842 7.91421 101.3
    endloop
  endfacet
  facet normal 0.555573 0.831468 0
    outer loop
      vertex 69.1354 8.34776 101.3
      vertex 69.7842 7.91421 8.3
      vertex 69.1354 8.34776 8.3
    endloop
  endfacet
  facet normal 0.831468 0.555572 0
    outer loop
      vertex 70.2178 7.26537 101.3
      vertex 69.7842 7.91421 8.3
      vertex 69.7842 7.91421 101.3
    endloop
  endfacet
  facet normal 0.831468 0.555572 0
    outer loop
      vertex 69.7842 7.91421 8.3
      vertex 70.2178 7.26537 101.3
      vertex 70.2178 7.26537 8.3
    endloop
  endfacet
  facet normal 0.195091 0.980785 -0
    outer loop
      vertex 69.1354 8.34776 8.3
      vertex 68.8727 8.4 101.3
      vertex 69.1354 8.34776 101.3
    endloop
  endfacet
  facet normal 0.195091 0.980785 0
    outer loop
      vertex 68.8727 8.4 101.3
      vertex 69.1354 8.34776 8.3
      vertex 68.8727 8.4 8.3
    endloop
  endfacet
  facet normal -0.831468 0.555572 0
    outer loop
      vertex 66.5222 7.26537 8.3
      vertex 66.9558 7.91421 101.3
      vertex 66.9558 7.91421 8.3
    endloop
  endfacet
  facet normal -0.831468 0.555572 0
    outer loop
      vertex 66.9558 7.91421 101.3
      vertex 66.5222 7.26537 8.3
      vertex 66.5222 7.26537 101.3
    endloop
  endfacet
  facet normal -0.980786 0.195085 0
    outer loop
      vertex 66.37 6.5 8.3
      vertex 66.5222 7.26537 101.3
      vertex 66.5222 7.26537 8.3
    endloop
  endfacet
  facet normal -0.980786 0.195085 0
    outer loop
      vertex 66.5222 7.26537 101.3
      vertex 66.37 6.5 8.3
      vertex 66.37 6.5 101.3
    endloop
  endfacet
  facet normal 0 0 1
    outer loop
      vertex 70.2178 11.0654 101.3
      vertex 70.2178 9.53463 101.3
      vertex 70.37 10.3 101.3
    endloop
  endfacet
  facet normal 0 0 1
    outer loop
      vertex 68.8727 8.4 101.3
      vertex 70.2178 11.0654 101.3
      vertex 69.7842 11.7142 101.3
    endloop
  endfacet
  facet normal 0 0 1
    outer loop
      vertex 70.2178 11.0654 101.3
      vertex 68.8727 8.4 101.3
      vertex 70.2178 9.53463 101.3
    endloop
  endfacet
  facet normal 0 0 1
    outer loop
      vertex 68.8727 8.4 101.3
      vertex 69.7842 11.7142 101.3
      vertex 69.1354 12.1478 101.3
    endloop
  endfacet
  facet normal 0 0 1
    outer loop
      vertex 70.2178 9.53463 101.3
      vertex 68.8727 8.4 101.3
      vertex 69.7842 8.88579 101.3
    endloop
  endfacet
  facet normal 0 0 1
    outer loop
      vertex 69.7842 8.88579 101.3
      vertex 68.8727 8.4 101.3
      vertex 69.1354 8.45224 101.3
    endloop
  endfacet
  facet normal 0 -0 1
    outer loop
      vertex 68.8727 8.4 101.3
      vertex 69.1354 12.1478 101.3
      vertex 68.37 12.3 101.3
    endloop
  endfacet
  facet normal 0 0 1
    outer loop
      vertex 70.2178 7.26537 101.3
      vertex 70.2178 5.73463 101.3
      vertex 70.37 6.5 101.3
    endloop
  endfacet
  facet normal 0 0 1
    outer loop
      vertex 68.8727 8.4 101.3
      vertex 70.2178 7.26537 101.3
      vertex 69.7842 7.91421 101.3
    endloop
  endfacet
  facet normal 0 0 1
    outer loop
      vertex 70.2178 7.26537 101.3
      vertex 68.8727 8.4 101.3
      vertex 70.2178 5.73463 101.3
    endloop
  endfacet
  facet normal 0 0 1
    outer loop
      vertex 68.8727 8.4 101.3
      vertex 69.7842 7.91421 101.3
      vertex 69.1354 8.34776 101.3
    endloop
  endfacet
  facet normal 0 0 1
    outer loop
      vertex 70.2178 5.73463 101.3
      vertex 68.8727 8.4 101.3
      vertex 69.7842 5.08579 101.3
    endloop
  endfacet
  facet normal 0 0 1
    outer loop
      vertex 69.7842 5.08579 101.3
      vertex 68.8727 8.4 101.3
      vertex 69.1354 4.65224 101.3
    endloop
  endfacet
  facet normal 0 0 1
    outer loop
      vertex 67.8673 8.4 101.3
      vertex 68.8727 8.4 101.3
      vertex 68.37 12.3 101.3
    endloop
  endfacet
  facet normal 0 0 1
    outer loop
      vertex 68.8727 8.4 101.3
      vertex 67.8673 8.4 101.3
      vertex 69.1354 4.65224 101.3
    endloop
  endfacet
  facet normal 0 0 1
    outer loop
      vertex 69.1354 4.65224 101.3
      vertex 67.8673 8.4 101.3
      vertex 68.37 4.5 101.3
    endloop
  endfacet
  facet normal -0 0 1
    outer loop
      vertex 67.6046 12.1478 101.3
      vertex 67.8673 8.4 101.3
      vertex 68.37 12.3 101.3
    endloop
  endfacet
  facet normal -0 0 1
    outer loop
      vertex 66.9558 11.7142 101.3
      vertex 67.8673 8.4 101.3
      vertex 67.6046 12.1478 101.3
    endloop
  endfacet
  facet normal -0 0 1
    outer loop
      vertex 66.5222 11.0654 101.3
      vertex 67.8673 8.4 101.3
      vertex 66.9558 11.7142 101.3
    endloop
  endfacet
  facet normal 0 0 1
    outer loop
      vertex 67.8673 8.4 101.3
      vertex 66.9558 8.88579 101.3
      vertex 67.6046 8.45224 101.3
    endloop
  endfacet
  facet normal -0 0 1
    outer loop
      vertex 66.37 10.3 101.3
      vertex 67.8673 8.4 101.3
      vertex 66.5222 11.0654 101.3
    endloop
  endfacet
  facet normal 0 0 1
    outer loop
      vertex 67.8673 8.4 101.3
      vertex 66.5222 9.53463 101.3
      vertex 66.9558 8.88579 101.3
    endloop
  endfacet
  facet normal 0 0 1
    outer loop
      vertex 67.8673 8.4 101.3
      vertex 66.37 10.3 101.3
      vertex 66.5222 9.53463 101.3
    endloop
  endfacet
  facet normal 0 0 1
    outer loop
      vertex 66.9558 7.91421 101.3
      vertex 67.8673 8.4 101.3
      vertex 67.6046 8.34776 101.3
    endloop
  endfacet
  facet normal 0 0 1
    outer loop
      vertex 67.8673 8.4 101.3
      vertex 67.6046 4.65224 101.3
      vertex 68.37 4.5 101.3
    endloop
  endfacet
  facet normal 0 0 1
    outer loop
      vertex 66.5222 7.26537 101.3
      vertex 67.8673 8.4 101.3
      vertex 66.9558 7.91421 101.3
    endloop
  endfacet
  facet normal 0 0 1
    outer loop
      vertex 67.8673 8.4 101.3
      vertex 66.9558 5.08579 101.3
      vertex 67.6046 4.65224 101.3
    endloop
  endfacet
  facet normal 0 0 1
    outer loop
      vertex 66.37 6.5 101.3
      vertex 67.8673 8.4 101.3
      vertex 66.5222 7.26537 101.3
    endloop
  endfacet
  facet normal 0 0 1
    outer loop
      vertex 67.8673 8.4 101.3
      vertex 66.5222 5.73463 101.3
      vertex 66.9558 5.08579 101.3
    endloop
  endfacet
  facet normal 0 0 1
    outer loop
      vertex 67.8673 8.4 101.3
      vertex 66.37 6.5 101.3
      vertex 66.5222 5.73463 101.3
    endloop
  endfacet
  facet normal -0.555573 0.831468 0
    outer loop
      vertex 67.6046 8.34776 8.3
      vertex 66.9558 7.91421 101.3
      vertex 67.6046 8.34776 101.3
    endloop
  endfacet
  facet normal -0.555573 0.831468 0
    outer loop
      vertex 66.9558 7.91421 101.3
      vertex 67.6046 8.34776 8.3
      vertex 66.9558 7.91421 8.3
    endloop
  endfacet
  facet normal 0.980784 -0.195095 0
    outer loop
      vertex 70.2178 5.73463 101.3
      vertex 70.37 6.5 8.3
      vertex 70.37 6.5 101.3
    endloop
  endfacet
  facet normal 0.980784 -0.195095 0
    outer loop
      vertex 70.37 6.5 8.3
      vertex 70.2178 5.73463 101.3
      vertex 70.2178 5.73463 8.3
    endloop
  endfacet
  facet normal -0.195089 -0.980786 0
    outer loop
      vertex 67.6046 4.65224 8.3
      vertex 68.37 4.5 101.3
      vertex 67.6046 4.65224 101.3
    endloop
  endfacet
  facet normal -0.195089 -0.980786 -0
    outer loop
      vertex 68.37 4.5 101.3
      vertex 67.6046 4.65224 8.3
      vertex 68.37 4.5 8.3
    endloop
  endfacet
  facet normal -0.831468 -0.555572 0
    outer loop
      vertex 66.9558 5.08579 8.3
      vertex 66.5222 5.73463 101.3
      vertex 66.5222 5.73463 8.3
    endloop
  endfacet
  facet normal -0.831468 -0.555572 0
    outer loop
      vertex 66.5222 5.73463 101.3
      vertex 66.9558 5.08579 8.3
      vertex 66.9558 5.08579 101.3
    endloop
  endfacet
  facet normal -0.980786 -0.195085 0
    outer loop
      vertex 66.5222 5.73463 8.3
      vertex 66.37 6.5 101.3
      vertex 66.37 6.5 8.3
    endloop
  endfacet
  facet normal -0.980786 -0.195085 0
    outer loop
      vertex 66.37 6.5 101.3
      vertex 66.5222 5.73463 8.3
      vertex 66.5222 5.73463 101.3
    endloop
  endfacet
  facet normal 0.831468 -0.555572 0
    outer loop
      vertex 69.7842 5.08579 101.3
      vertex 70.2178 5.73463 8.3
      vertex 70.2178 5.73463 101.3
    endloop
  endfacet
  facet normal 0.831468 -0.555572 0
    outer loop
      vertex 70.2178 5.73463 8.3
      vertex 69.7842 5.08579 101.3
      vertex 69.7842 5.08579 8.3
    endloop
  endfacet
  facet normal 0.555573 -0.831468 0
    outer loop
      vertex 69.1354 4.65224 8.3
      vertex 69.7842 5.08579 101.3
      vertex 69.1354 4.65224 101.3
    endloop
  endfacet
  facet normal 0.555573 -0.831468 0
    outer loop
      vertex 69.7842 5.08579 101.3
      vertex 69.1354 4.65224 8.3
      vertex 69.7842 5.08579 8.3
    endloop
  endfacet
  facet normal -0.555573 -0.831468 0
    outer loop
      vertex 66.9558 5.08579 8.3
      vertex 67.6046 4.65224 101.3
      vertex 66.9558 5.08579 101.3
    endloop
  endfacet
  facet normal -0.555573 -0.831468 -0
    outer loop
      vertex 67.6046 4.65224 101.3
      vertex 66.9558 5.08579 8.3
      vertex 67.6046 4.65224 8.3
    endloop
  endfacet
  facet normal 0.980784 0.195095 0
    outer loop
      vertex 70.37 10.3 101.3
      vertex 70.2178 11.0654 8.3
      vertex 70.2178 11.0654 101.3
    endloop
  endfacet
  facet normal 0.980784 0.195095 0
    outer loop
      vertex 70.2178 11.0654 8.3
      vertex 70.37 10.3 101.3
      vertex 70.37 10.3 8.3
    endloop
  endfacet
  facet normal -0.195089 0.980786 0
    outer loop
      vertex 68.37 12.3 8.3
      vertex 67.6046 12.1478 101.3
      vertex 68.37 12.3 101.3
    endloop
  endfacet
  facet normal -0.195089 0.980786 0
    outer loop
      vertex 67.6046 12.1478 101.3
      vertex 68.37 12.3 8.3
      vertex 67.6046 12.1478 8.3
    endloop
  endfacet
  facet normal 0.555574 -0.831467 0
    outer loop
      vertex 69.1354 8.45224 8.3
      vertex 69.7842 8.88579 101.3
      vertex 69.1354 8.45224 101.3
    endloop
  endfacet
  facet normal 0.555574 -0.831467 0
    outer loop
      vertex 69.7842 8.88579 101.3
      vertex 69.1354 8.45224 8.3
      vertex 69.7842 8.88579 8.3
    endloop
  endfacet
  facet normal 0.555573 0.831468 -0
    outer loop
      vertex 69.7842 11.7142 8.3
      vertex 69.1354 12.1478 101.3
      vertex 69.7842 11.7142 101.3
    endloop
  endfacet
  facet normal 0.555573 0.831468 0
    outer loop
      vertex 69.1354 12.1478 101.3
      vertex 69.7842 11.7142 8.3
      vertex 69.1354 12.1478 8.3
    endloop
  endfacet
  facet normal 0.831468 0.555572 0
    outer loop
      vertex 70.2178 11.0654 101.3
      vertex 69.7842 11.7142 8.3
      vertex 69.7842 11.7142 101.3
    endloop
  endfacet
  facet normal 0.831468 0.555572 0
    outer loop
      vertex 69.7842 11.7142 8.3
      vertex 70.2178 11.0654 101.3
      vertex 70.2178 11.0654 8.3
    endloop
  endfacet
  facet normal 0.19509 0.980785 -0
    outer loop
      vertex 69.1354 12.1478 8.3
      vertex 68.37 12.3 101.3
      vertex 69.1354 12.1478 101.3
    endloop
  endfacet
  facet normal 0.19509 0.980785 0
    outer loop
      vertex 68.37 12.3 101.3
      vertex 69.1354 12.1478 8.3
      vertex 68.37 12.3 8.3
    endloop
  endfacet
  facet normal -0.831468 0.555572 0
    outer loop
      vertex 66.5222 11.0654 8.3
      vertex 66.9558 11.7142 101.3
      vertex 66.9558 11.7142 8.3
    endloop
  endfacet
  facet normal -0.831468 0.555572 0
    outer loop
      vertex 66.9558 11.7142 101.3
      vertex 66.5222 11.0654 8.3
      vertex 66.5222 11.0654 101.3
    endloop
  endfacet
  facet normal -0.980786 0.195085 0
    outer loop
      vertex 66.37 10.3 8.3
      vertex 66.5222 11.0654 101.3
      vertex 66.5222 11.0654 8.3
    endloop
  endfacet
  facet normal -0.980786 0.195085 0
    outer loop
      vertex 66.5222 11.0654 101.3
      vertex 66.37 10.3 8.3
      vertex 66.37 10.3 101.3
    endloop
  endfacet
  facet normal -0.555573 0.831468 0
    outer loop
      vertex 67.6046 12.1478 8.3
      vertex 66.9558 11.7142 101.3
      vertex 67.6046 12.1478 101.3
    endloop
  endfacet
  facet normal -0.555573 0.831468 0
    outer loop
      vertex 66.9558 11.7142 101.3
      vertex 67.6046 12.1478 8.3
      vertex 66.9558 11.7142 8.3
    endloop
  endfacet
  facet normal -0.195087 -0.980786 0
    outer loop
      vertex 67.6046 8.45224 8.3
      vertex 67.8673 8.4 101.3
      vertex 67.6046 8.45224 101.3
    endloop
  endfacet
  facet normal -0.195087 -0.980786 -0
    outer loop
      vertex 67.8673 8.4 101.3
      vertex 67.6046 8.45224 8.3
      vertex 67.8673 8.4 8.3
    endloop
  endfacet
  facet normal -0.831468 -0.555572 0
    outer loop
      vertex 66.9558 8.88579 8.3
      vertex 66.5222 9.53463 101.3
      vertex 66.5222 9.53463 8.3
    endloop
  endfacet
  facet normal -0.831468 -0.555572 0
    outer loop
      vertex 66.5222 9.53463 101.3
      vertex 66.9558 8.88579 8.3
      vertex 66.9558 8.88579 101.3
    endloop
  endfacet
  facet normal -0.980786 -0.195085 0
    outer loop
      vertex 66.5222 9.53463 8.3
      vertex 66.37 10.3 101.3
      vertex 66.37 10.3 8.3
    endloop
  endfacet
  facet normal -0.980786 -0.195085 0
    outer loop
      vertex 66.37 10.3 101.3
      vertex 66.5222 9.53463 8.3
      vertex 66.5222 9.53463 101.3
    endloop
  endfacet
  facet normal 0.831468 -0.555572 0
    outer loop
      vertex 69.7842 8.88579 101.3
      vertex 70.2178 9.53463 8.3
      vertex 70.2178 9.53463 101.3
    endloop
  endfacet
  facet normal 0.831468 -0.555572 0
    outer loop
      vertex 70.2178 9.53463 8.3
      vertex 69.7842 8.88579 101.3
      vertex 69.7842 8.88579 8.3
    endloop
  endfacet
  facet normal 0.980784 -0.195095 0
    outer loop
      vertex 70.2178 9.53463 101.3
      vertex 70.37 10.3 8.3
      vertex 70.37 10.3 101.3
    endloop
  endfacet
  facet normal 0.980784 -0.195095 0
    outer loop
      vertex 70.37 10.3 8.3
      vertex 70.2178 9.53463 101.3
      vertex 70.2178 9.53463 8.3
    endloop
  endfacet
  facet normal 0.195087 -0.980786 0
    outer loop
      vertex 68.8727 8.4 8.3
      vertex 69.1354 8.45224 101.3
      vertex 68.8727 8.4 101.3
    endloop
  endfacet
  facet normal 0.195087 -0.980786 0
    outer loop
      vertex 69.1354 8.45224 101.3
      vertex 68.8727 8.4 8.3
      vertex 69.1354 8.45224 8.3
    endloop
  endfacet
  facet normal -0.555574 -0.831467 0
    outer loop
      vertex 66.9558 8.88579 8.3
      vertex 67.6046 8.45224 101.3
      vertex 66.9558 8.88579 101.3
    endloop
  endfacet
  facet normal -0.555574 -0.831467 -0
    outer loop
      vertex 67.6046 8.45224 101.3
      vertex 66.9558 8.88579 8.3
      vertex 67.6046 8.45224 8.3
    endloop
  endfacet
  facet normal 0.980784 0.195095 0
    outer loop
      vertex 71.12 7.5 -2.7
      vertex 70.9678 8.26537 -100
      vertex 70.9678 8.26537 -2.7
    endloop
  endfacet
  facet normal 0.980784 0.195095 0
    outer loop
      vertex 70.9678 8.26537 -100
      vertex 71.12 7.5 -2.7
      vertex 71.12 7.5 -100
    endloop
  endfacet
  facet normal -0.19509 0.980785 0
    outer loop
      vertex 69.12 9.5 -100
      vertex 68.3546 9.34776 -2.7
      vertex 69.12 9.5 -2.7
    endloop
  endfacet
  facet normal -0.19509 0.980785 0
    outer loop
      vertex 68.3546 9.34776 -2.7
      vertex 69.12 9.5 -100
      vertex 68.3546 9.34776 -100
    endloop
  endfacet
  facet normal 0.19509 -0.980785 0
    outer loop
      vertex 69.12 5.5 -100
      vertex 69.8854 5.65224 -2.7
      vertex 69.12 5.5 -2.7
    endloop
  endfacet
  facet normal 0.19509 -0.980785 0
    outer loop
      vertex 69.8854 5.65224 -2.7
      vertex 69.12 5.5 -100
      vertex 69.8854 5.65224 -100
    endloop
  endfacet
  facet normal 0.555573 0.831468 -0
    outer loop
      vertex 70.5342 8.91421 -100
      vertex 69.8854 9.34776 -2.7
      vertex 70.5342 8.91421 -2.7
    endloop
  endfacet
  facet normal 0.555573 0.831468 0
    outer loop
      vertex 69.8854 9.34776 -2.7
      vertex 70.5342 8.91421 -100
      vertex 69.8854 9.34776 -100
    endloop
  endfacet
  facet normal 0.831468 0.555572 0
    outer loop
      vertex 70.9678 8.26537 -2.7
      vertex 70.5342 8.91421 -100
      vertex 70.5342 8.91421 -2.7
    endloop
  endfacet
  facet normal 0.831468 0.555572 0
    outer loop
      vertex 70.5342 8.91421 -100
      vertex 70.9678 8.26537 -2.7
      vertex 70.9678 8.26537 -100
    endloop
  endfacet
  facet normal 0.195092 0.980785 -0
    outer loop
      vertex 69.8854 9.34776 -100
      vertex 69.12 9.5 -2.7
      vertex 69.8854 9.34776 -2.7
    endloop
  endfacet
  facet normal 0.195092 0.980785 0
    outer loop
      vertex 69.12 9.5 -2.7
      vertex 69.8854 9.34776 -100
      vertex 69.12 9.5 -100
    endloop
  endfacet
  facet normal -0.831468 0.555572 0
    outer loop
      vertex 67.2722 8.26537 -100
      vertex 67.7058 8.91421 -2.7
      vertex 67.7058 8.91421 -100
    endloop
  endfacet
  facet normal -0.831468 0.555572 0
    outer loop
      vertex 67.7058 8.91421 -2.7
      vertex 67.2722 8.26537 -100
      vertex 67.2722 8.26537 -2.7
    endloop
  endfacet
  facet normal 0 0 -1
    outer loop
      vertex 70.9678 6.73463 -100
      vertex 70.9678 8.26537 -100
      vertex 71.12 7.5 -100
    endloop
  endfacet
  facet normal 0 0 -1
    outer loop
      vertex 70.5342 6.08579 -100
      vertex 70.9678 8.26537 -100
      vertex 70.9678 6.73463 -100
    endloop
  endfacet
  facet normal 0 0 -1
    outer loop
      vertex 70.5342 6.08579 -100
      vertex 70.5342 8.91421 -100
      vertex 70.9678 8.26537 -100
    endloop
  endfacet
  facet normal 0 0 -1
    outer loop
      vertex 69.8854 5.65224 -100
      vertex 70.5342 8.91421 -100
      vertex 70.5342 6.08579 -100
    endloop
  endfacet
  facet normal 0 0 -1
    outer loop
      vertex 69.8854 5.65224 -100
      vertex 69.8854 9.34776 -100
      vertex 70.5342 8.91421 -100
    endloop
  endfacet
  facet normal 0 0 -1
    outer loop
      vertex 69.12 5.5 -100
      vertex 69.8854 9.34776 -100
      vertex 69.8854 5.65224 -100
    endloop
  endfacet
  facet normal 0 0 -1
    outer loop
      vertex 69.12 5.5 -100
      vertex 69.12 9.5 -100
      vertex 69.8854 9.34776 -100
    endloop
  endfacet
  facet normal 0 0 -1
    outer loop
      vertex 68.3546 5.65224 -100
      vertex 69.12 9.5 -100
      vertex 69.12 5.5 -100
    endloop
  endfacet
  facet normal 0 0 -1
    outer loop
      vertex 68.3546 5.65224 -100
      vertex 68.3546 9.34776 -100
      vertex 69.12 9.5 -100
    endloop
  endfacet
  facet normal 0 0 -1
    outer loop
      vertex 67.7058 6.08579 -100
      vertex 68.3546 9.34776 -100
      vertex 68.3546 5.65224 -100
    endloop
  endfacet
  facet normal 0 0 -1
    outer loop
      vertex 67.7058 6.08579 -100
      vertex 67.7058 8.91421 -100
      vertex 68.3546 9.34776 -100
    endloop
  endfacet
  facet normal 0 0 -1
    outer loop
      vertex 67.2722 6.73463 -100
      vertex 67.7058 8.91421 -100
      vertex 67.7058 6.08579 -100
    endloop
  endfacet
  facet normal 0 0 -1
    outer loop
      vertex 67.2722 6.73463 -100
      vertex 67.2722 8.26537 -100
      vertex 67.7058 8.91421 -100
    endloop
  endfacet
  facet normal 0 -0 -1
    outer loop
      vertex 67.2722 8.26537 -100
      vertex 67.2722 6.73463 -100
      vertex 67.12 7.5 -100
    endloop
  endfacet
  facet normal -0.980786 0.195085 0
    outer loop
      vertex 67.12 7.5 -100
      vertex 67.2722 8.26537 -2.7
      vertex 67.2722 8.26537 -100
    endloop
  endfacet
  facet normal -0.980786 0.195085 0
    outer loop
      vertex 67.2722 8.26537 -2.7
      vertex 67.12 7.5 -100
      vertex 67.12 7.5 -2.7
    endloop
  endfacet
  facet normal -0.555573 0.831468 0
    outer loop
      vertex 68.3546 9.34776 -100
      vertex 67.7058 8.91421 -2.7
      vertex 68.3546 9.34776 -2.7
    endloop
  endfacet
  facet normal -0.555573 0.831468 0
    outer loop
      vertex 67.7058 8.91421 -2.7
      vertex 68.3546 9.34776 -100
      vertex 67.7058 8.91421 -100
    endloop
  endfacet
  facet normal 0.980784 -0.195095 0
    outer loop
      vertex 70.9678 6.73463 -2.7
      vertex 71.12 7.5 -100
      vertex 71.12 7.5 -2.7
    endloop
  endfacet
  facet normal 0.980784 -0.195095 0
    outer loop
      vertex 71.12 7.5 -100
      vertex 70.9678 6.73463 -2.7
      vertex 70.9678 6.73463 -100
    endloop
  endfacet
  facet normal -0.195089 -0.980786 0
    outer loop
      vertex 68.3546 5.65224 -100
      vertex 69.12 5.5 -2.7
      vertex 68.3546 5.65224 -2.7
    endloop
  endfacet
  facet normal -0.195089 -0.980786 -0
    outer loop
      vertex 69.12 5.5 -2.7
      vertex 68.3546 5.65224 -100
      vertex 69.12 5.5 -100
    endloop
  endfacet
  facet normal -0.831468 -0.555572 0
    outer loop
      vertex 67.7058 6.08579 -100
      vertex 67.2722 6.73463 -2.7
      vertex 67.2722 6.73463 -100
    endloop
  endfacet
  facet normal -0.831468 -0.555572 0
    outer loop
      vertex 67.2722 6.73463 -2.7
      vertex 67.7058 6.08579 -100
      vertex 67.7058 6.08579 -2.7
    endloop
  endfacet
  facet normal -0.980786 -0.195085 0
    outer loop
      vertex 67.2722 6.73463 -100
      vertex 67.12 7.5 -2.7
      vertex 67.12 7.5 -100
    endloop
  endfacet
  facet normal -0.980786 -0.195085 0
    outer loop
      vertex 67.12 7.5 -2.7
      vertex 67.2722 6.73463 -100
      vertex 67.2722 6.73463 -2.7
    endloop
  endfacet
  facet normal 0.831468 -0.555572 0
    outer loop
      vertex 70.5342 6.08579 -2.7
      vertex 70.9678 6.73463 -100
      vertex 70.9678 6.73463 -2.7
    endloop
  endfacet
  facet normal 0.831468 -0.555572 0
    outer loop
      vertex 70.9678 6.73463 -100
      vertex 70.5342 6.08579 -2.7
      vertex 70.5342 6.08579 -100
    endloop
  endfacet
  facet normal 0.555573 -0.831468 0
    outer loop
      vertex 69.8854 5.65224 -100
      vertex 70.5342 6.08579 -2.7
      vertex 69.8854 5.65224 -2.7
    endloop
  endfacet
  facet normal 0.555573 -0.831468 0
    outer loop
      vertex 70.5342 6.08579 -2.7
      vertex 69.8854 5.65224 -100
      vertex 70.5342 6.08579 -100
    endloop
  endfacet
  facet normal -0.555573 -0.831468 0
    outer loop
      vertex 67.7058 6.08579 -100
      vertex 68.3546 5.65224 -2.7
      vertex 67.7058 6.08579 -2.7
    endloop
  endfacet
  facet normal -0.555573 -0.831468 -0
    outer loop
      vertex 68.3546 5.65224 -2.7
      vertex 67.7058 6.08579 -100
      vertex 68.3546 5.65224 -100
    endloop
  endfacet
  facet normal -0.19509 -0.980785 0
    outer loop
      vertex 9.1581 5.96746 -100
      vertex 10 5.8 -2.7
      vertex 9.1581 5.96746 -2.7
    endloop
  endfacet
  facet normal -0.19509 -0.980785 -0
    outer loop
      vertex 10 5.8 -2.7
      vertex 9.1581 5.96746 -100
      vertex 10 5.8 -100
    endloop
  endfacet
  facet normal -0.980785 -0.19509 0
    outer loop
      vertex 7.96746 7.1581 -100
      vertex 7.8 8 -2.7
      vertex 7.8 8 -100
    endloop
  endfacet
  facet normal -0.980785 -0.19509 0
    outer loop
      vertex 7.8 8 -2.7
      vertex 7.96746 7.1581 -100
      vertex 7.96746 7.1581 -2.7
    endloop
  endfacet
  facet normal 0.195089 0.980785 -0
    outer loop
      vertex 61.8854 16.7078 -100
      vertex 61.12 16.86 -2.7
      vertex 61.8854 16.7078 -2.7
    endloop
  endfacet
  facet normal 0.195089 0.980785 0
    outer loop
      vertex 61.12 16.86 -2.7
      vertex 61.8854 16.7078 -100
      vertex 61.12 16.86 -100
    endloop
  endfacet
  facet normal 0.00391235 -0.999992 0
    outer loop
      vertex 10 5.8 -100
      vertex 61.12 6 -2.7
      vertex 10 5.8 -2.7
    endloop
  endfacet
  facet normal 0.00391235 -0.999992 0
    outer loop
      vertex 61.12 6 -2.7
      vertex 10 5.8 -100
      vertex 61.12 6 -100
    endloop
  endfacet
  facet normal -0.83147 -0.55557 0
    outer loop
      vertex 8.44436 6.44436 -100
      vertex 7.96746 7.1581 -2.7
      vertex 7.96746 7.1581 -100
    endloop
  endfacet
  facet normal -0.83147 -0.55557 0
    outer loop
      vertex 7.96746 7.1581 -2.7
      vertex 8.44436 6.44436 -100
      vertex 8.44436 6.44436 -2.7
    endloop
  endfacet
  facet normal 1 -0 0
    outer loop
      vertex 63.12 8 -2.7
      vertex 63.12 14.86 -100
      vertex 63.12 14.86 -2.7
    endloop
  endfacet
  facet normal 1 0 0
    outer loop
      vertex 63.12 14.86 -100
      vertex 63.12 8 -2.7
      vertex 63.12 8 -100
    endloop
  endfacet
  facet normal 0.980785 -0.19509 0
    outer loop
      vertex 62.9678 7.23463 -2.7
      vertex 63.12 8 -100
      vertex 63.12 8 -2.7
    endloop
  endfacet
  facet normal 0.980785 -0.19509 0
    outer loop
      vertex 63.12 8 -100
      vertex 62.9678 7.23463 -2.7
      vertex 62.9678 7.23463 -100
    endloop
  endfacet
  facet normal 0.195089 -0.980785 0
    outer loop
      vertex 61.12 6 -100
      vertex 61.8854 6.15224 -2.7
      vertex 61.12 6 -2.7
    endloop
  endfacet
  facet normal 0.195089 -0.980785 0
    outer loop
      vertex 61.8854 6.15224 -2.7
      vertex 61.12 6 -100
      vertex 61.8854 6.15224 -100
    endloop
  endfacet
  facet normal 0.00391231 0.999992 -0
    outer loop
      vertex 61.12 16.86 -100
      vertex 10 17.06 -2.7
      vertex 61.12 16.86 -2.7
    endloop
  endfacet
  facet normal 0.00391231 0.999992 0
    outer loop
      vertex 10 17.06 -2.7
      vertex 61.12 16.86 -100
      vertex 10 17.06 -100
    endloop
  endfacet
  facet normal 0.980785 0.19509 0
    outer loop
      vertex 63.12 14.86 -2.7
      vertex 62.9678 15.6254 -100
      vertex 62.9678 15.6254 -2.7
    endloop
  endfacet
  facet normal 0.980785 0.19509 0
    outer loop
      vertex 62.9678 15.6254 -100
      vertex 63.12 14.86 -2.7
      vertex 63.12 14.86 -100
    endloop
  endfacet
  facet normal -0.55557 -0.83147 0
    outer loop
      vertex 8.44436 6.44436 -100
      vertex 9.1581 5.96746 -2.7
      vertex 8.44436 6.44436 -2.7
    endloop
  endfacet
  facet normal -0.55557 -0.83147 -0
    outer loop
      vertex 9.1581 5.96746 -2.7
      vertex 8.44436 6.44436 -100
      vertex 9.1581 5.96746 -100
    endloop
  endfacet
  facet normal 0 0 -1
    outer loop
      vertex 61.12 6 -100
      vertex 63.12 8 -100
      vertex 62.9678 7.23463 -100
    endloop
  endfacet
  facet normal -0 0 -1
    outer loop
      vertex 63.12 8 -100
      vertex 61.12 6 -100
      vertex 63.12 14.86 -100
    endloop
  endfacet
  facet normal 0 0 -1
    outer loop
      vertex 61.12 6 -100
      vertex 62.9678 7.23463 -100
      vertex 62.5342 6.58579 -100
    endloop
  endfacet
  facet normal 0 0 -1
    outer loop
      vertex 61.12 16.86 -100
      vertex 63.12 14.86 -100
      vertex 61.12 6 -100
    endloop
  endfacet
  facet normal 0 0 -1
    outer loop
      vertex 61.12 6 -100
      vertex 62.5342 6.58579 -100
      vertex 61.8854 6.15224 -100
    endloop
  endfacet
  facet normal 0 0 -1
    outer loop
      vertex 63.12 14.86 -100
      vertex 61.12 16.86 -100
      vertex 62.9678 15.6254 -100
    endloop
  endfacet
  facet normal 0 0 -1
    outer loop
      vertex 62.9678 15.6254 -100
      vertex 61.12 16.86 -100
      vertex 62.5342 16.2742 -100
    endloop
  endfacet
  facet normal 0 0 -1
    outer loop
      vertex 62.5342 16.2742 -100
      vertex 61.12 16.86 -100
      vertex 61.8854 16.7078 -100
    endloop
  endfacet
  facet normal 0 0 -1
    outer loop
      vertex 10 5.8 -100
      vertex 61.12 16.86 -100
      vertex 61.12 6 -100
    endloop
  endfacet
  facet normal 0 0 -1
    outer loop
      vertex 10 5.8 -100
      vertex 10 17.06 -100
      vertex 61.12 16.86 -100
    endloop
  endfacet
  facet normal 0 0 -1
    outer loop
      vertex 7.8 8 -100
      vertex 10 5.8 -100
      vertex 9.1581 5.96746 -100
    endloop
  endfacet
  facet normal 0 0 -1
    outer loop
      vertex 10 5.8 -100
      vertex 7.8 8 -100
      vertex 10 17.06 -100
    endloop
  endfacet
  facet normal 0 0 -1
    outer loop
      vertex 7.8 8 -100
      vertex 9.1581 5.96746 -100
      vertex 8.44436 6.44436 -100
    endloop
  endfacet
  facet normal 0 0 -1
    outer loop
      vertex 7.8 14.86 -100
      vertex 10 17.06 -100
      vertex 7.8 8 -100
    endloop
  endfacet
  facet normal 0 0 -1
    outer loop
      vertex 7.8 8 -100
      vertex 8.44436 6.44436 -100
      vertex 7.96746 7.1581 -100
    endloop
  endfacet
  facet normal 0 0 -1
    outer loop
      vertex 10 17.06 -100
      vertex 7.8 14.86 -100
      vertex 9.1581 16.8925 -100
    endloop
  endfacet
  facet normal 0 0 -1
    outer loop
      vertex 9.1581 16.8925 -100
      vertex 7.8 14.86 -100
      vertex 8.44436 16.4156 -100
    endloop
  endfacet
  facet normal 0 0 -1
    outer loop
      vertex 8.44436 16.4156 -100
      vertex 7.8 14.86 -100
      vertex 7.96746 15.7019 -100
    endloop
  endfacet
  facet normal -0.19509 0.980785 0
    outer loop
      vertex 10 17.06 -100
      vertex 9.1581 16.8925 -2.7
      vertex 10 17.06 -2.7
    endloop
  endfacet
  facet normal -0.19509 0.980785 0
    outer loop
      vertex 9.1581 16.8925 -2.7
      vertex 10 17.06 -100
      vertex 9.1581 16.8925 -100
    endloop
  endfacet
  facet normal -0.831469 0.555571 0
    outer loop
      vertex 7.96746 15.7019 -100
      vertex 8.44436 16.4156 -2.7
      vertex 8.44436 16.4156 -100
    endloop
  endfacet
  facet normal -0.831469 0.555571 0
    outer loop
      vertex 8.44436 16.4156 -2.7
      vertex 7.96746 15.7019 -100
      vertex 7.96746 15.7019 -2.7
    endloop
  endfacet
  facet normal 0.83147 -0.555569 0
    outer loop
      vertex 62.5342 6.58579 -2.7
      vertex 62.9678 7.23463 -100
      vertex 62.9678 7.23463 -2.7
    endloop
  endfacet
  facet normal 0.83147 -0.555569 0
    outer loop
      vertex 62.9678 7.23463 -100
      vertex 62.5342 6.58579 -2.7
      vertex 62.5342 6.58579 -100
    endloop
  endfacet
  facet normal -1 0 0
    outer loop
      vertex 7.8 8 -100
      vertex 7.8 14.86 -2.7
      vertex 7.8 14.86 -100
    endloop
  endfacet
  facet normal -1 -0 0
    outer loop
      vertex 7.8 14.86 -2.7
      vertex 7.8 8 -100
      vertex 7.8 8 -2.7
    endloop
  endfacet
  facet normal -0.980785 0.19509 0
    outer loop
      vertex 7.8 14.86 -100
      vertex 7.96746 15.7019 -2.7
      vertex 7.96746 15.7019 -100
    endloop
  endfacet
  facet normal -0.980785 0.19509 0
    outer loop
      vertex 7.96746 15.7019 -2.7
      vertex 7.8 14.86 -100
      vertex 7.8 14.86 -2.7
    endloop
  endfacet
  facet normal -0.55557 0.83147 0
    outer loop
      vertex 9.1581 16.8925 -100
      vertex 8.44436 16.4156 -2.7
      vertex 9.1581 16.8925 -2.7
    endloop
  endfacet
  facet normal -0.55557 0.83147 0
    outer loop
      vertex 8.44436 16.4156 -2.7
      vertex 9.1581 16.8925 -100
      vertex 8.44436 16.4156 -100
    endloop
  endfacet
  facet normal 0.55557 -0.831469 0
    outer loop
      vertex 61.8854 6.15224 -100
      vertex 62.5342 6.58579 -2.7
      vertex 61.8854 6.15224 -2.7
    endloop
  endfacet
  facet normal 0.55557 -0.831469 0
    outer loop
      vertex 62.5342 6.58579 -2.7
      vertex 61.8854 6.15224 -100
      vertex 62.5342 6.58579 -100
    endloop
  endfacet
  facet normal 0.555573 0.831468 -0
    outer loop
      vertex 62.5342 16.2742 -100
      vertex 61.8854 16.7078 -2.7
      vertex 62.5342 16.2742 -2.7
    endloop
  endfacet
  facet normal 0.555573 0.831468 0
    outer loop
      vertex 61.8854 16.7078 -2.7
      vertex 62.5342 16.2742 -100
      vertex 61.8854 16.7078 -100
    endloop
  endfacet
  facet normal 0.83147 0.55557 0
    outer loop
      vertex 62.9678 15.6254 -2.7
      vertex 62.5342 16.2742 -100
      vertex 62.5342 16.2742 -2.7
    endloop
  endfacet
  facet normal 0.83147 0.55557 0
    outer loop
      vertex 62.5342 16.2742 -100
      vertex 62.9678 15.6254 -2.7
      vertex 62.9678 15.6254 -100
    endloop
  endfacet
  facet normal -0 0 1
    outer loop
      vertex 2 2.6 10.5
      vertex 66 0 10.5
      vertex 66 2.6 10.5
    endloop
  endfacet
  facet normal 0 0 1
    outer loop
      vertex 66 0 10.5
      vertex 2 2.6 10.5
      vertex 2 0 10.5
    endloop
  endfacet
  facet normal -1 0 0
    outer loop
      vertex 2 0 1.3
      vertex 2 3.93 8.3
      vertex 2 3.93 1.3
    endloop
  endfacet
  facet normal -1 0 0
    outer loop
      vertex 2 0 10.5
      vertex 2 3.93 8.3
      vertex 2 0 1.3
    endloop
  endfacet
  facet normal -1 0 0
    outer loop
      vertex 2 3.93 8.3
      vertex 2 0 10.5
      vertex 2 2.6 10.5
    endloop
  endfacet
  facet normal -1 0 0
    outer loop
      vertex 2 4.43797 8.3
      vertex 2 3.93 8.3
      vertex 2 2.6 10.5
    endloop
  endfacet
  facet normal 0 0.767424 0.641139
    outer loop
      vertex 66 4.43797 8.3
      vertex 2 2.6 10.5
      vertex 66 2.6 10.5
    endloop
  endfacet
  facet normal 0 0.767424 0.641139
    outer loop
      vertex 2 2.6 10.5
      vertex 66 4.43797 8.3
      vertex 2 4.43797 8.3
    endloop
  endfacet
  facet normal -0 0 1
    outer loop
      vertex 2 22.86 10.5
      vertex 66 20.26 10.5
      vertex 66 22.86 10.5
    endloop
  endfacet
  facet normal 0 0 1
    outer loop
      vertex 66 20.26 10.5
      vertex 2 22.86 10.5
      vertex 2 20.26 10.5
    endloop
  endfacet
  facet normal 1 0 0
    outer loop
      vertex 66 20.26 10.5
      vertex 66 17.698 8.3
      vertex 66 18.93 8.3
    endloop
  endfacet
  facet normal 1 0 0
    outer loop
      vertex 66 18.93 8.3
      vertex 66 22.86 10.5
      vertex 66 20.26 10.5
    endloop
  endfacet
  facet normal 1 0 0
    outer loop
      vertex 66 22.86 10.5
      vertex 66 18.93 8.3
      vertex 66 22.86 1.3
    endloop
  endfacet
  facet normal 1 0 0
    outer loop
      vertex 66 22.86 1.3
      vertex 66 18.93 8.3
      vertex 66 18.93 1.3
    endloop
  endfacet
  facet normal 0 -0.65147 0.758674
    outer loop
      vertex 2 20.26 10.5
      vertex 66 17.698 8.3
      vertex 66 20.26 10.5
    endloop
  endfacet
  facet normal 0 -0.65147 0.758674
    outer loop
      vertex 66 17.698 8.3
      vertex 2 20.26 10.5
      vertex 2 17.698 8.3
    endloop
  endfacet
  facet normal -1 0 0
    outer loop
      vertex 2 20.0004 0
      vertex 2 18.93 0
      vertex 2 20.0004 1.3
    endloop
  endfacet
  facet normal -1 0 0
    outer loop
      vertex 2 18.93 8.3
      vertex 2 22.86 10.5
      vertex 2 22.86 1.3
    endloop
  endfacet
  facet normal -1 0 0
    outer loop
      vertex 2 18.93 8.3
      vertex 2 22.86 1.3
      vertex 2 20.0004 1.3
    endloop
  endfacet
  facet normal -1 0 0
    outer loop
      vertex 2 18.93 8.3
      vertex 2 20.0004 1.3
      vertex 2 18.93 0
    endloop
  endfacet
  facet normal -1 -0 0
    outer loop
      vertex 2 22.86 10.5
      vertex 2 18.93 8.3
      vertex 2 20.26 10.5
    endloop
  endfacet
  facet normal -1 0 0
    outer loop
      vertex 2 20.26 10.5
      vertex 2 18.93 8.3
      vertex 2 17.698 8.3
    endloop
  endfacet
  facet normal -1 0 0
    outer loop
      vertex 2 0 -9.2
      vertex 2 2.6 0
      vertex 2 2.6 -9.2
    endloop
  endfacet
  facet normal -1 -0 0
    outer loop
      vertex 2 2.6 0
      vertex 2 0 -9.2
      vertex 2 0 0
    endloop
  endfacet
  facet normal 1 -0 0
    outer loop
      vertex 66 0 0
      vertex 66 2.6 -9.2
      vertex 66 2.6 0
    endloop
  endfacet
  facet normal 1 0 0
    outer loop
      vertex 66 2.6 -9.2
      vertex 66 0 0
      vertex 66 0 -9.2
    endloop
  endfacet
  facet normal 0 1 -0
    outer loop
      vertex 66 2.6 -9.2
      vertex 2 2.6 0
      vertex 66 2.6 0
    endloop
  endfacet
  facet normal 0 1 0
    outer loop
      vertex 2 2.6 0
      vertex 66 2.6 -9.2
      vertex 2 2.6 -9.2
    endloop
  endfacet
  facet normal 0 0 -1
    outer loop
      vertex 2 0 -9.2
      vertex 66 2.6 -9.2
      vertex 66 0 -9.2
    endloop
  endfacet
  facet normal -0 0 -1
    outer loop
      vertex 66 2.6 -9.2
      vertex 2 0 -9.2
      vertex 2 2.6 -9.2
    endloop
  endfacet
  facet normal -1 0 0
    outer loop
      vertex 2 20.26 -9.2
      vertex 2 22.86 0
      vertex 2 22.86 -9.2
    endloop
  endfacet
  facet normal -1 -0 0
    outer loop
      vertex 2 22.86 0
      vertex 2 20.26 -9.2
      vertex 2 20.26 0
    endloop
  endfacet
  facet normal 1 -0 0
    outer loop
      vertex 66 20.26 0
      vertex 66 22.86 -9.2
      vertex 66 22.86 0
    endloop
  endfacet
  facet normal 1 0 0
    outer loop
      vertex 66 22.86 -9.2
      vertex 66 20.26 0
      vertex 66 20.26 -9.2
    endloop
  endfacet
  facet normal 0 0 -1
    outer loop
      vertex 2 20.26 -9.2
      vertex 66 22.86 -9.2
      vertex 66 20.26 -9.2
    endloop
  endfacet
  facet normal -0 0 -1
    outer loop
      vertex 66 22.86 -9.2
      vertex 2 20.26 -9.2
      vertex 2 22.86 -9.2
    endloop
  endfacet
  facet normal 0 -1 0
    outer loop
      vertex 2 20.26 -9.2
      vertex 66 20.26 0
      vertex 2 20.26 0
    endloop
  endfacet
  facet normal 0 -1 -0
    outer loop
      vertex 66 20.26 0
      vertex 2 20.26 -9.2
      vertex 66 20.26 -9.2
    endloop
  endfacet
endsolid OpenSCAD_Model
