solid OpenSCAD_Model
  facet normal 0 0 1
    outer loop
      vertex 68.8689 14.4 24.75
      vertex 40.9484 0 24.75
      vertex 68.8689 0 24.75
    endloop
  endfacet
  facet normal 0 0 1
    outer loop
      vertex 68.8689 14.4 24.75
      vertex 30.2516 0 24.75
      vertex 40.9484 0 24.75
    endloop
  endfacet
  facet normal -0 0 1
    outer loop
      vertex 2.33115 14.4 24.75
      vertex 30.2516 0 24.75
      vertex 68.8689 14.4 24.75
    endloop
  endfacet
  facet normal 0 0 1
    outer loop
      vertex 30.2516 0 24.75
      vertex 2.33115 14.4 24.75
      vertex 2.33115 0 24.75
    endloop
  endfacet
  facet normal 0 0 -1
    outer loop
      vertex 40.9484 0 0
      vertex 68.8689 14.4 0
      vertex 68.8689 0 0
    endloop
  endfacet
  facet normal 0 0 -1
    outer loop
      vertex 30.2516 0 0
      vertex 68.8689 14.4 0
      vertex 40.9484 0 0
    endloop
  endfacet
  facet normal 0 0 -1
    outer loop
      vertex 2.33115 14.4 0
      vertex 30.2516 0 0
      vertex 2.33115 0 0
    endloop
  endfacet
  facet normal 0 0 -1
    outer loop
      vertex 30.2516 0 0
      vertex 2.33115 14.4 0
      vertex 68.8689 14.4 0
    endloop
  endfacet
  facet normal 0 -1 0
    outer loop
      vertex 43.1002 0 23.5998
      vertex 68.8689 0 24.75
      vertex 40.9484 0 24.75
    endloop
  endfacet
  facet normal 0 -1 0
    outer loop
      vertex 45.1459 0 21.9209
      vertex 68.8689 0 24.75
      vertex 43.1002 0 23.5998
    endloop
  endfacet
  facet normal 0 -1 0
    outer loop
      vertex 46.8248 0 19.8752
      vertex 68.8689 0 24.75
      vertex 45.1459 0 21.9209
    endloop
  endfacet
  facet normal 0 -1 0
    outer loop
      vertex 48.0724 0 17.5412
      vertex 68.8689 0 24.75
      vertex 46.8248 0 19.8752
    endloop
  endfacet
  facet normal 0 -1 0
    outer loop
      vertex 48.8406 0 15.0087
      vertex 68.8689 0 24.75
      vertex 48.0724 0 17.5412
    endloop
  endfacet
  facet normal 0 -1 -0
    outer loop
      vertex 68.8689 0 24.75
      vertex 48.8406 0 15.0087
      vertex 70.516 0 19.3202
    endloop
  endfacet
  facet normal 0 -1 0
    outer loop
      vertex 49.1 0 12.375
      vertex 70.516 0 19.3202
      vertex 48.8406 0 15.0087
    endloop
  endfacet
  facet normal 0 -1 0
    outer loop
      vertex 49.1 0 12.375
      vertex 71.2 0 12.375
      vertex 70.516 0 19.3202
    endloop
  endfacet
  facet normal 0 -1 0
    outer loop
      vertex 48.8406 0 9.74128
      vertex 71.2 0 12.375
      vertex 49.1 0 12.375
    endloop
  endfacet
  facet normal 0 -1 0
    outer loop
      vertex 68.8689 0 0
      vertex 48.8406 0 9.74128
      vertex 48.0724 0 7.20877
    endloop
  endfacet
  facet normal 0 -1 0
    outer loop
      vertex 48.8406 0 9.74128
      vertex 70.516 0 5.42978
      vertex 71.2 0 12.375
    endloop
  endfacet
  facet normal 0 -1 0
    outer loop
      vertex 68.8689 0 0
      vertex 48.0724 0 7.20877
      vertex 46.8248 0 4.8748
    endloop
  endfacet
  facet normal 0 -1 0
    outer loop
      vertex 68.8689 0 0
      vertex 46.8248 0 4.8748
      vertex 45.1459 0 2.82906
    endloop
  endfacet
  facet normal 0 -1 0
    outer loop
      vertex 68.8689 0 0
      vertex 45.1459 0 2.82906
      vertex 43.1002 0 1.15016
    endloop
  endfacet
  facet normal 0 -1 0
    outer loop
      vertex 68.8689 0 0
      vertex 43.1002 0 1.15016
      vertex 40.9484 0 0
    endloop
  endfacet
  facet normal 0 -1 0
    outer loop
      vertex 48.8406 0 9.74128
      vertex 68.8689 0 0
      vertex 70.516 0 5.42978
    endloop
  endfacet
  facet normal 0 -1 0
    outer loop
      vertex 2.33115 0 24.75
      vertex 28.0998 0 23.5998
      vertex 30.2516 0 24.75
    endloop
  endfacet
  facet normal 0 -1 0
    outer loop
      vertex 2.33115 0 24.75
      vertex 26.0541 0 21.9209
      vertex 28.0998 0 23.5998
    endloop
  endfacet
  facet normal 0 -1 0
    outer loop
      vertex 2.33115 0 24.75
      vertex 24.3752 0 19.8752
      vertex 26.0541 0 21.9209
    endloop
  endfacet
  facet normal 0 -1 0
    outer loop
      vertex 22.3594 0 15.0087
      vertex 2.33115 0 24.75
      vertex 0.684044 0 19.3202
    endloop
  endfacet
  facet normal 0 -1 0
    outer loop
      vertex 2.33115 0 24.75
      vertex 23.1276 0 17.5412
      vertex 24.3752 0 19.8752
    endloop
  endfacet
  facet normal 0 -1 0
    outer loop
      vertex 2.33115 0 24.75
      vertex 22.3594 0 15.0087
      vertex 23.1276 0 17.5412
    endloop
  endfacet
  facet normal 0 -1 0
    outer loop
      vertex 0.684044 0 19.3202
      vertex 22.1 0 12.375
      vertex 22.3594 0 15.0087
    endloop
  endfacet
  facet normal 0 -1 0
    outer loop
      vertex 0 0 12.375
      vertex 22.1 0 12.375
      vertex 0.684044 0 19.3202
    endloop
  endfacet
  facet normal 0 -1 0
    outer loop
      vertex 0 0 12.375
      vertex 22.3594 0 9.74128
      vertex 22.1 0 12.375
    endloop
  endfacet
  facet normal 0 -1 0
    outer loop
      vertex 0.684044 0 5.42978
      vertex 22.3594 0 9.74128
      vertex 0 0 12.375
    endloop
  endfacet
  facet normal 0 -1 0
    outer loop
      vertex 2.33115 0 0
      vertex 22.3594 0 9.74128
      vertex 0.684044 0 5.42978
    endloop
  endfacet
  facet normal 0 -1 -0
    outer loop
      vertex 22.3594 0 9.74128
      vertex 2.33115 0 0
      vertex 23.1276 0 7.20877
    endloop
  endfacet
  facet normal 0 -1 -0
    outer loop
      vertex 23.1276 0 7.20877
      vertex 2.33115 0 0
      vertex 24.3752 0 4.8748
    endloop
  endfacet
  facet normal 0 -1 -0
    outer loop
      vertex 24.3752 0 4.8748
      vertex 2.33115 0 0
      vertex 26.0541 0 2.82906
    endloop
  endfacet
  facet normal 0 -1 -0
    outer loop
      vertex 26.0541 0 2.82906
      vertex 2.33115 0 0
      vertex 28.0998 0 1.15016
    endloop
  endfacet
  facet normal 0 -1 -0
    outer loop
      vertex 28.0998 0 1.15016
      vertex 2.33115 0 0
      vertex 30.2516 0 0
    endloop
  endfacet
  facet normal 0 1 0
    outer loop
      vertex 38.2337 0 25.6156
      vertex 32.9663 0 25.6156
      vertex 35.6 0 25.875
    endloop
  endfacet
  facet normal 0 1 0
    outer loop
      vertex 40.9484 0 24.75
      vertex 38.2337 0 25.6156
      vertex 40.7662 0 24.8474
    endloop
  endfacet
  facet normal 0 1 0
    outer loop
      vertex 38.2337 0 25.6156
      vertex 40.9484 0 24.75
      vertex 32.9663 0 25.6156
    endloop
  endfacet
  facet normal 0 1 0
    outer loop
      vertex 30.2516 0 24.75
      vertex 32.9663 0 25.6156
      vertex 40.9484 0 24.75
    endloop
  endfacet
  facet normal 0 1 0
    outer loop
      vertex 32.9663 0 25.6156
      vertex 30.2516 0 24.75
      vertex 30.4338 0 24.8474
    endloop
  endfacet
  facet normal 0 1 0
    outer loop
      vertex 38.2337 0 -0.865601
      vertex 40.9484 0 0
      vertex 40.7662 0 -0.097373
    endloop
  endfacet
  facet normal 0 1 0
    outer loop
      vertex 40.9484 0 0
      vertex 38.2337 0 -0.865601
      vertex 30.2516 0 0
    endloop
  endfacet
  facet normal 0 1 -0
    outer loop
      vertex 32.9663 0 -0.865601
      vertex 30.2516 0 0
      vertex 38.2337 0 -0.865601
    endloop
  endfacet
  facet normal 0 1 0
    outer loop
      vertex 30.2516 0 0
      vertex 32.9663 0 -0.865601
      vertex 30.4338 0 -0.097373
    endloop
  endfacet
  facet normal -0 1 0
    outer loop
      vertex 32.9663 0 -0.865601
      vertex 38.2337 0 -0.865601
      vertex 35.6 0 -1.125
    endloop
  endfacet
  facet normal 0 1 0
    outer loop
      vertex 36.9719 14.4 4.91669
      vertex 68.8689 14.4 24.75
      vertex 70.516 14.4 19.3202
    endloop
  endfacet
  facet normal 0 1 0
    outer loop
      vertex 68.8689 14.4 24.75
      vertex 35.6 14.4 5.65
      vertex 2.33115 14.4 24.75
    endloop
  endfacet
  facet normal 0 1 0
    outer loop
      vertex 36.9719 14.4 4.91669
      vertex 70.516 14.4 19.3202
      vertex 71.2 14.4 12.375
    endloop
  endfacet
  facet normal 0 1 -0
    outer loop
      vertex 35.2781 14.4 5.6183
      vertex 2.33115 14.4 24.75
      vertex 35.6 14.4 5.65
    endloop
  endfacet
  facet normal 0 1 -0
    outer loop
      vertex 34.9686 14.4 5.5244
      vertex 2.33115 14.4 24.75
      vertex 35.2781 14.4 5.6183
    endloop
  endfacet
  facet normal 0 1 0
    outer loop
      vertex 68.8689 14.4 24.75
      vertex 35.9219 14.4 5.6183
      vertex 35.6 14.4 5.65
    endloop
  endfacet
  facet normal 0 1 0
    outer loop
      vertex 68.8689 14.4 24.75
      vertex 36.2314 14.4 5.5244
      vertex 35.9219 14.4 5.6183
    endloop
  endfacet
  facet normal 0 1 0
    outer loop
      vertex 37.1244 14.4 4.63143
      vertex 71.2 14.4 12.375
      vertex 70.516 14.4 5.42978
    endloop
  endfacet
  facet normal 0 1 0
    outer loop
      vertex 68.8689 14.4 24.75
      vertex 36.5167 14.4 5.37192
      vertex 36.2314 14.4 5.5244
    endloop
  endfacet
  facet normal 0 1 0
    outer loop
      vertex 68.8689 14.4 24.75
      vertex 36.7667 14.4 5.16673
      vertex 36.5167 14.4 5.37192
    endloop
  endfacet
  facet normal 0 1 0
    outer loop
      vertex 68.8689 14.4 24.75
      vertex 36.9719 14.4 4.91669
      vertex 36.7667 14.4 5.16673
    endloop
  endfacet
  facet normal 0 1 0
    outer loop
      vertex 71.2 14.4 12.375
      vertex 37.1244 14.4 4.63143
      vertex 36.9719 14.4 4.91669
    endloop
  endfacet
  facet normal 0 1 0
    outer loop
      vertex 70.516 14.4 5.42978
      vertex 37.2183 14.4 4.3219
      vertex 37.1244 14.4 4.63143
    endloop
  endfacet
  facet normal 0 1 -0
    outer loop
      vertex 68.8689 14.4 0
      vertex 37.2183 14.4 4.3219
      vertex 70.516 14.4 5.42978
    endloop
  endfacet
  facet normal 0 1 0
    outer loop
      vertex 37.2183 14.4 4.3219
      vertex 68.8689 14.4 0
      vertex 37.25 14.4 4
    endloop
  endfacet
  facet normal 0 1 0
    outer loop
      vertex 37.25 14.4 4
      vertex 68.8689 14.4 0
      vertex 37.2183 14.4 3.6781
    endloop
  endfacet
  facet normal 0 1 0
    outer loop
      vertex 37.2183 14.4 3.6781
      vertex 68.8689 14.4 0
      vertex 37.1244 14.4 3.36857
    endloop
  endfacet
  facet normal 0 1 0
    outer loop
      vertex 37.1244 14.4 3.36857
      vertex 68.8689 14.4 0
      vertex 36.9719 14.4 3.08331
    endloop
  endfacet
  facet normal 0 1 0
    outer loop
      vertex 36.9719 14.4 3.08331
      vertex 68.8689 14.4 0
      vertex 36.7667 14.4 2.83327
    endloop
  endfacet
  facet normal 0 1 0
    outer loop
      vertex 36.7667 14.4 2.83327
      vertex 68.8689 14.4 0
      vertex 36.5167 14.4 2.62807
    endloop
  endfacet
  facet normal 0 1 0
    outer loop
      vertex 36.5167 14.4 2.62807
      vertex 68.8689 14.4 0
      vertex 36.2314 14.4 2.4756
    endloop
  endfacet
  facet normal 0 1 0
    outer loop
      vertex 36.2314 14.4 2.4756
      vertex 68.8689 14.4 0
      vertex 35.9219 14.4 2.3817
    endloop
  endfacet
  facet normal 0 1 0
    outer loop
      vertex 35.9219 14.4 2.3817
      vertex 68.8689 14.4 0
      vertex 35.6 14.4 2.35
    endloop
  endfacet
  facet normal 0 1 -0
    outer loop
      vertex 34.6833 14.4 5.37192
      vertex 2.33115 14.4 24.75
      vertex 34.9686 14.4 5.5244
    endloop
  endfacet
  facet normal 0 1 -0
    outer loop
      vertex 34.4333 14.4 5.16673
      vertex 2.33115 14.4 24.75
      vertex 34.6833 14.4 5.37192
    endloop
  endfacet
  facet normal 0 1 -0
    outer loop
      vertex 34.2281 14.4 4.91669
      vertex 2.33115 14.4 24.75
      vertex 34.4333 14.4 5.16673
    endloop
  endfacet
  facet normal 0 1 0
    outer loop
      vertex 2.33115 14.4 24.75
      vertex 34.2281 14.4 4.91669
      vertex 0.684044 14.4 19.3202
    endloop
  endfacet
  facet normal 0 1 0
    outer loop
      vertex 0.684044 14.4 19.3202
      vertex 34.2281 14.4 4.91669
      vertex 0 14.4 12.375
    endloop
  endfacet
  facet normal 0 1 -0
    outer loop
      vertex 34.0756 14.4 4.63143
      vertex 0 14.4 12.375
      vertex 34.2281 14.4 4.91669
    endloop
  endfacet
  facet normal 0 1 0
    outer loop
      vertex 0 14.4 12.375
      vertex 34.0756 14.4 4.63143
      vertex 0.684044 14.4 5.42978
    endloop
  endfacet
  facet normal 0 1 -0
    outer loop
      vertex 33.9817 14.4 4.3219
      vertex 0.684044 14.4 5.42978
      vertex 34.0756 14.4 4.63143
    endloop
  endfacet
  facet normal 0 1 0
    outer loop
      vertex 2.33115 14.4 0
      vertex 33.9817 14.4 4.3219
      vertex 33.95 14.4 4
    endloop
  endfacet
  facet normal 0 1 0
    outer loop
      vertex 2.33115 14.4 0
      vertex 33.95 14.4 4
      vertex 33.9817 14.4 3.6781
    endloop
  endfacet
  facet normal 0 1 0
    outer loop
      vertex 2.33115 14.4 0
      vertex 33.9817 14.4 3.6781
      vertex 34.0756 14.4 3.36857
    endloop
  endfacet
  facet normal 0 1 0
    outer loop
      vertex 2.33115 14.4 0
      vertex 34.0756 14.4 3.36857
      vertex 34.2281 14.4 3.08331
    endloop
  endfacet
  facet normal 0 1 0
    outer loop
      vertex 2.33115 14.4 0
      vertex 34.2281 14.4 3.08331
      vertex 34.4333 14.4 2.83327
    endloop
  endfacet
  facet normal 0 1 0
    outer loop
      vertex 2.33115 14.4 0
      vertex 34.4333 14.4 2.83327
      vertex 34.6833 14.4 2.62807
    endloop
  endfacet
  facet normal 0 1 0
    outer loop
      vertex 2.33115 14.4 0
      vertex 34.6833 14.4 2.62807
      vertex 34.9686 14.4 2.4756
    endloop
  endfacet
  facet normal 0 1 0
    outer loop
      vertex 2.33115 14.4 0
      vertex 34.9686 14.4 2.4756
      vertex 35.2781 14.4 2.3817
    endloop
  endfacet
  facet normal 0 1 0
    outer loop
      vertex 2.33115 14.4 0
      vertex 35.2781 14.4 2.3817
      vertex 35.6 14.4 2.35
    endloop
  endfacet
  facet normal 0 1 0
    outer loop
      vertex 33.9817 14.4 4.3219
      vertex 2.33115 14.4 0
      vertex 0.684044 14.4 5.42978
    endloop
  endfacet
  facet normal 0 1 0
    outer loop
      vertex 2.33115 14.4 0
      vertex 35.6 14.4 2.35
      vertex 68.8689 14.4 0
    endloop
  endfacet
  facet normal 0.995185 -0 0.0980171
    outer loop
      vertex 70.516 0 19.3202
      vertex 71.2 14.4 12.375
      vertex 70.516 14.4 19.3202
    endloop
  endfacet
  facet normal 0.995185 0 0.0980171
    outer loop
      vertex 71.2 14.4 12.375
      vertex 70.516 0 19.3202
      vertex 71.2 0 12.375
    endloop
  endfacet
  facet normal -0.95694 0 0.290285
    outer loop
      vertex 0.684044 0 19.3202
      vertex 2.33115 14.4 24.75
      vertex 0.684044 14.4 19.3202
    endloop
  endfacet
  facet normal -0.95694 0 0.290285
    outer loop
      vertex 2.33115 14.4 24.75
      vertex 0.684044 0 19.3202
      vertex 2.33115 0 24.75
    endloop
  endfacet
  facet normal 0.995185 0 -0.0980171
    outer loop
      vertex 71.2 0 12.375
      vertex 70.516 14.4 5.42978
      vertex 71.2 14.4 12.375
    endloop
  endfacet
  facet normal 0.995185 0 -0.0980171
    outer loop
      vertex 70.516 14.4 5.42978
      vertex 71.2 0 12.375
      vertex 70.516 0 5.42978
    endloop
  endfacet
  facet normal 0.956941 -0 0.290284
    outer loop
      vertex 68.8689 0 24.75
      vertex 70.516 14.4 19.3202
      vertex 68.8689 14.4 24.75
    endloop
  endfacet
  facet normal 0.956941 0 0.290284
    outer loop
      vertex 70.516 14.4 19.3202
      vertex 68.8689 0 24.75
      vertex 70.516 0 19.3202
    endloop
  endfacet
  facet normal 0.956941 0 -0.290284
    outer loop
      vertex 70.516 0 5.42978
      vertex 68.8689 14.4 0
      vertex 70.516 14.4 5.42978
    endloop
  endfacet
  facet normal 0.956941 0 -0.290284
    outer loop
      vertex 68.8689 14.4 0
      vertex 70.516 0 5.42978
      vertex 68.8689 0 0
    endloop
  endfacet
  facet normal -0.995185 0 0.0980171
    outer loop
      vertex 0 0 12.375
      vertex 0.684044 14.4 19.3202
      vertex 0 14.4 12.375
    endloop
  endfacet
  facet normal -0.995185 0 0.0980171
    outer loop
      vertex 0.684044 14.4 19.3202
      vertex 0 0 12.375
      vertex 0.684044 0 19.3202
    endloop
  endfacet
  facet normal -0.95694 0 -0.290285
    outer loop
      vertex 2.33115 0 0
      vertex 0.684044 14.4 5.42978
      vertex 2.33115 14.4 0
    endloop
  endfacet
  facet normal -0.95694 -0 -0.290285
    outer loop
      vertex 0.684044 14.4 5.42978
      vertex 2.33115 0 0
      vertex 0.684044 0 5.42978
    endloop
  endfacet
  facet normal -0.995185 0 -0.0980171
    outer loop
      vertex 0.684044 0 5.42978
      vertex 0 14.4 12.375
      vertex 0.684044 14.4 5.42978
    endloop
  endfacet
  facet normal -0.995185 -0 -0.0980171
    outer loop
      vertex 0 14.4 12.375
      vertex 0.684044 0 5.42978
      vertex 0 0 12.375
    endloop
  endfacet
  facet normal 0.995185 -0 0.0980174
    outer loop
      vertex 48.8406 -10 15.0087
      vertex 49.1 0 12.375
      vertex 48.8406 0 15.0087
    endloop
  endfacet
  facet normal 0.995185 0 0.0980174
    outer loop
      vertex 49.1 0 12.375
      vertex 48.8406 -10 15.0087
      vertex 49.1 -10 12.375
    endloop
  endfacet
  facet normal 0.95694 -0 0.290284
    outer loop
      vertex 48.0724 -10 17.5412
      vertex 48.8406 0 15.0087
      vertex 48.0724 0 17.5412
    endloop
  endfacet
  facet normal 0.95694 0 0.290284
    outer loop
      vertex 48.8406 0 15.0087
      vertex 48.0724 -10 17.5412
      vertex 48.8406 -10 15.0087
    endloop
  endfacet
  facet normal -0.0980174 0 0.995185
    outer loop
      vertex 32.9663 0 25.6156
      vertex 35.6 -10 25.875
      vertex 35.6 0 25.875
    endloop
  endfacet
  facet normal -0.0980174 0 0.995185
    outer loop
      vertex 35.6 -10 25.875
      vertex 32.9663 0 25.6156
      vertex 32.9663 -10 25.6156
    endloop
  endfacet
  facet normal -0.95694 0 0.290284
    outer loop
      vertex 22.3594 0 15.0087
      vertex 23.1276 -10 17.5412
      vertex 23.1276 0 17.5412
    endloop
  endfacet
  facet normal -0.95694 0 0.290284
    outer loop
      vertex 23.1276 -10 17.5412
      vertex 22.3594 0 15.0087
      vertex 22.3594 -10 15.0087
    endloop
  endfacet
  facet normal 0.0980174 0 -0.995185
    outer loop
      vertex 38.2337 -10 -0.865601
      vertex 35.6 0 -1.125
      vertex 38.2337 0 -0.865601
    endloop
  endfacet
  facet normal 0.634393 0 0.773011
    outer loop
      vertex 43.1002 0 23.5998
      vertex 45.1459 -10 21.9209
      vertex 45.1459 0 21.9209
    endloop
  endfacet
  facet normal 0.634393 0 0.773011
    outer loop
      vertex 45.1459 -10 21.9209
      vertex 43.1002 0 23.5998
      vertex 43.1002 -10 23.5998
    endloop
  endfacet
  facet normal 9.22993e-008 -1 1.72679e-007
    outer loop
      vertex 43.1002 -10 23.5998
      vertex 40.7662 -10 24.8474
      vertex 48.8406 -10 15.0087
    endloop
  endfacet
  facet normal -0.290285 0 0.95694
    outer loop
      vertex 30.4338 0 24.8474
      vertex 32.9663 -10 25.6156
      vertex 32.9663 0 25.6156
    endloop
  endfacet
  facet normal -0.290285 0 0.95694
    outer loop
      vertex 32.9663 -10 25.6156
      vertex 30.4338 0 24.8474
      vertex 30.4338 -10 24.8474
    endloop
  endfacet
  facet normal -0.471399 0 0.88192
    outer loop
      vertex 30.2516 0 24.75
      vertex 30.4338 -10 24.8474
      vertex 30.4338 0 24.8474
    endloop
  endfacet
  facet normal -0.471397 0 0.881921
    outer loop
      vertex 28.0998 -10 23.5998
      vertex 30.2516 0 24.75
      vertex 28.0998 0 23.5998
    endloop
  endfacet
  facet normal -0.471397 4.34804e-008 0.881921
    outer loop
      vertex 30.2516 0 24.75
      vertex 28.0998 -10 23.5998
      vertex 30.4338 -10 24.8474
    endloop
  endfacet
  facet normal 0.290284 0 -0.95694
    outer loop
      vertex 38.2337 -10 -0.865601
      vertex 40.7662 0 -0.097373
      vertex 40.7662 -10 -0.097373
    endloop
  endfacet
  facet normal 0.290284 0 -0.95694
    outer loop
      vertex 40.7662 0 -0.097373
      vertex 38.2337 -10 -0.865601
      vertex 38.2337 0 -0.865601
    endloop
  endfacet
  facet normal 0.881922 -0 0.471396
    outer loop
      vertex 46.8248 -10 19.8752
      vertex 48.0724 0 17.5412
      vertex 46.8248 0 19.8752
    endloop
  endfacet
  facet normal 0.881922 0 0.471396
    outer loop
      vertex 48.0724 0 17.5412
      vertex 46.8248 -10 19.8752
      vertex 48.0724 -10 17.5412
    endloop
  endfacet
  facet normal 4.82126e-007 -1 3.95671e-007
    outer loop
      vertex 46.8248 -10 19.8752
      vertex 45.1459 -10 21.9209
      vertex 48.8406 -10 15.0087
    endloop
  endfacet
  facet normal 0.77301 -0 0.634393
    outer loop
      vertex 45.1459 -10 21.9209
      vertex 46.8248 0 19.8752
      vertex 45.1459 0 21.9209
    endloop
  endfacet
  facet normal 0.77301 0 0.634393
    outer loop
      vertex 46.8248 0 19.8752
      vertex 45.1459 -10 21.9209
      vertex 46.8248 -10 19.8752
    endloop
  endfacet
  facet normal 0.290284 0 0.95694
    outer loop
      vertex 38.2337 0 25.6156
      vertex 40.7662 -10 24.8474
      vertex 40.7662 0 24.8474
    endloop
  endfacet
  facet normal 0.290284 0 0.95694
    outer loop
      vertex 40.7662 -10 24.8474
      vertex 38.2337 0 25.6156
      vertex 38.2337 -10 25.6156
    endloop
  endfacet
  facet normal 9.82295e-009 -1 9.97338e-008
    outer loop
      vertex 38.2337 -10 25.6156
      vertex 35.6 -10 25.875
      vertex 48.8406 -10 15.0087
    endloop
  endfacet
  facet normal 0.0980174 0 0.995185
    outer loop
      vertex 35.6 0 25.875
      vertex 38.2337 -10 25.6156
      vertex 38.2337 0 25.6156
    endloop
  endfacet
  facet normal 0.0980174 0 0.995185
    outer loop
      vertex 38.2337 -10 25.6156
      vertex 35.6 0 25.875
      vertex 35.6 -10 25.875
    endloop
  endfacet
  facet normal 0.471397 0 0.881921
    outer loop
      vertex 40.9484 0 24.75
      vertex 43.1002 -10 23.5998
      vertex 43.1002 0 23.5998
    endloop
  endfacet
  facet normal 0.471403 -0 0.881918
    outer loop
      vertex 40.7662 -10 24.8474
      vertex 40.9484 0 24.75
      vertex 40.7662 0 24.8474
    endloop
  endfacet
  facet normal 0.471398 1.19357e-007 0.881921
    outer loop
      vertex 40.9484 0 24.75
      vertex 40.7662 -10 24.8474
      vertex 43.1002 -10 23.5998
    endloop
  endfacet
  facet normal 0 -1 0
    outer loop
      vertex 22.1 -10 12.375
      vertex 48.8406 -10 15.0087
      vertex 22.3594 -10 15.0087
    endloop
  endfacet
  facet normal 0 -1 0
    outer loop
      vertex 22.1 -10 12.375
      vertex 49.1 -10 12.375
      vertex 48.8406 -10 15.0087
    endloop
  endfacet
  facet normal 0 -1 0
    outer loop
      vertex 22.3594 -10 9.74128
      vertex 49.1 -10 12.375
      vertex 22.1 -10 12.375
    endloop
  endfacet
  facet normal 0 -1 0
    outer loop
      vertex 22.3594 -10 9.74128
      vertex 48.8406 -10 9.74128
      vertex 49.1 -10 12.375
    endloop
  endfacet
  facet normal 0 -1 0
    outer loop
      vertex 23.1276 -10 7.20877
      vertex 48.8406 -10 9.74128
      vertex 22.3594 -10 9.74128
    endloop
  endfacet
  facet normal 0 -1 0
    outer loop
      vertex 23.1276 -10 7.20877
      vertex 48.0724 -10 7.20877
      vertex 48.8406 -10 9.74128
    endloop
  endfacet
  facet normal 0 -1 0
    outer loop
      vertex 24.3752 -10 4.8748
      vertex 48.0724 -10 7.20877
      vertex 23.1276 -10 7.20877
    endloop
  endfacet
  facet normal 0 -1 0
    outer loop
      vertex 24.3752 -10 4.8748
      vertex 46.8248 -10 4.8748
      vertex 48.0724 -10 7.20877
    endloop
  endfacet
  facet normal 0 -1 0
    outer loop
      vertex 26.0541 -10 2.82906
      vertex 46.8248 -10 4.8748
      vertex 24.3752 -10 4.8748
    endloop
  endfacet
  facet normal 0 -1 0
    outer loop
      vertex 26.0541 -10 2.82906
      vertex 45.1459 -10 2.82906
      vertex 46.8248 -10 4.8748
    endloop
  endfacet
  facet normal 0 -1 0
    outer loop
      vertex 28.0998 -10 1.15016
      vertex 45.1459 -10 2.82906
      vertex 26.0541 -10 2.82906
    endloop
  endfacet
  facet normal 0 -1 0
    outer loop
      vertex 28.0998 -10 1.15016
      vertex 43.1002 -10 1.15016
      vertex 45.1459 -10 2.82906
    endloop
  endfacet
  facet normal 0 -1 0
    outer loop
      vertex 30.4338 -10 -0.097373
      vertex 43.1002 -10 1.15016
      vertex 28.0998 -10 1.15016
    endloop
  endfacet
  facet normal 0 -1 0
    outer loop
      vertex 30.4338 -10 -0.097373
      vertex 40.7662 -10 -0.097373
      vertex 43.1002 -10 1.15016
    endloop
  endfacet
  facet normal 0 -1 0
    outer loop
      vertex 32.9663 -10 -0.865601
      vertex 40.7662 -10 -0.097373
      vertex 30.4338 -10 -0.097373
    endloop
  endfacet
  facet normal 0 -1 0
    outer loop
      vertex 32.9663 -10 -0.865601
      vertex 38.2337 -10 -0.865601
      vertex 40.7662 -10 -0.097373
    endloop
  endfacet
  facet normal -0 -1 0
    outer loop
      vertex 38.2337 -10 -0.865601
      vertex 32.9663 -10 -0.865601
      vertex 35.6 -10 -1.125
    endloop
  endfacet
  facet normal -0.881921 0 0.471397
    outer loop
      vertex 23.1276 -10 17.5412
      vertex 24.3752 0 19.8752
      vertex 23.1276 0 17.5412
    endloop
  endfacet
  facet normal -0.881921 0 0.471397
    outer loop
      vertex 24.3752 0 19.8752
      vertex 23.1276 -10 17.5412
      vertex 24.3752 -10 19.8752
    endloop
  endfacet
  facet normal -4.82127e-007 -1 3.95672e-007
    outer loop
      vertex 24.3752 -10 19.8752
      vertex 22.3594 -10 15.0087
      vertex 26.0541 -10 21.9209
    endloop
  endfacet
  facet normal 0.881922 0 -0.471396
    outer loop
      vertex 48.0724 -10 7.20877
      vertex 46.8248 0 4.8748
      vertex 48.0724 0 7.20877
    endloop
  endfacet
  facet normal 0.881922 0 -0.471396
    outer loop
      vertex 46.8248 0 4.8748
      vertex 48.0724 -10 7.20877
      vertex 46.8248 -10 4.8748
    endloop
  endfacet
  facet normal 0.995185 0 -0.0980174
    outer loop
      vertex 49.1 -10 12.375
      vertex 48.8406 0 9.74128
      vertex 49.1 0 12.375
    endloop
  endfacet
  facet normal 0.995185 0 -0.0980174
    outer loop
      vertex 48.8406 0 9.74128
      vertex 49.1 -10 12.375
      vertex 48.8406 -10 9.74128
    endloop
  endfacet
  facet normal -0.471395 0 -0.881922
    outer loop
      vertex 30.4338 -10 -0.097373
      vertex 30.2516 0 0
      vertex 30.4338 0 -0.097373
    endloop
  endfacet
  facet normal -0.471396 -2.0932e-008 -0.881922
    outer loop
      vertex 28.0998 -10 1.15016
      vertex 30.2516 0 0
      vertex 30.4338 -10 -0.097373
    endloop
  endfacet
  facet normal -0.471396 0 -0.881921
    outer loop
      vertex 30.2516 0 0
      vertex 28.0998 -10 1.15016
      vertex 28.0998 0 1.15016
    endloop
  endfacet
  facet normal -0.0980174 0 -0.995185
    outer loop
      vertex 35.6 0 -1.125
      vertex 32.9663 -10 -0.865601
      vertex 32.9663 0 -0.865601
    endloop
  endfacet
  facet normal -0.95694 0 -0.290284
    outer loop
      vertex 23.1276 -10 7.20877
      vertex 22.3594 0 9.74128
      vertex 23.1276 0 7.20877
    endloop
  endfacet
  facet normal -0.95694 -0 -0.290284
    outer loop
      vertex 22.3594 0 9.74128
      vertex 23.1276 -10 7.20877
      vertex 22.3594 -10 9.74128
    endloop
  endfacet
  facet normal 1.62903e-006 -1 8.70734e-007
    outer loop
      vertex 48.0724 -10 17.5412
      vertex 46.8248 -10 19.8752
      vertex 48.8406 -10 15.0087
    endloop
  endfacet
  facet normal 2.01711e-007 -1 2.45786e-007
    outer loop
      vertex 45.1459 -10 21.9209
      vertex 43.1002 -10 23.5998
      vertex 48.8406 -10 15.0087
    endloop
  endfacet
  facet normal 3.91502e-008 -1 1.29061e-007
    outer loop
      vertex 40.7662 -10 24.8474
      vertex 38.2337 -10 25.6156
      vertex 48.8406 -10 15.0087
    endloop
  endfacet
  facet normal -9.82295e-009 -1 9.97338e-008
    outer loop
      vertex 32.9663 -10 25.6156
      vertex 22.3594 -10 15.0087
      vertex 35.6 -10 25.875
    endloop
  endfacet
  facet normal 0 -1 8.77646e-008
    outer loop
      vertex 35.6 -10 25.875
      vertex 22.3594 -10 15.0087
      vertex 48.8406 -10 15.0087
    endloop
  endfacet
  facet normal -2.01712e-007 -1 2.45787e-007
    outer loop
      vertex 26.0541 -10 21.9209
      vertex 22.3594 -10 15.0087
      vertex 28.0998 -10 23.5998
    endloop
  endfacet
  facet normal -0.995185 0 0.0980174
    outer loop
      vertex 22.1 -10 12.375
      vertex 22.3594 0 15.0087
      vertex 22.1 0 12.375
    endloop
  endfacet
  facet normal -0.995185 0 0.0980174
    outer loop
      vertex 22.3594 0 15.0087
      vertex 22.1 -10 12.375
      vertex 22.3594 -10 15.0087
    endloop
  endfacet
  facet normal -0.995185 0 -0.0980174
    outer loop
      vertex 22.3594 -10 9.74128
      vertex 22.1 0 12.375
      vertex 22.3594 0 9.74128
    endloop
  endfacet
  facet normal -0.995185 -0 -0.0980174
    outer loop
      vertex 22.1 0 12.375
      vertex 22.3594 -10 9.74128
      vertex 22.1 -10 12.375
    endloop
  endfacet
  facet normal -1.62902e-006 -1 8.70731e-007
    outer loop
      vertex 23.1276 -10 17.5412
      vertex 22.3594 -10 15.0087
      vertex 24.3752 -10 19.8752
    endloop
  endfacet
  facet normal 0.471397 0 -0.881921
    outer loop
      vertex 43.1002 -10 1.15016
      vertex 40.9484 0 0
      vertex 43.1002 0 1.15016
    endloop
  endfacet
  facet normal 0.471397 5.49441e-008 -0.881921
    outer loop
      vertex 40.7662 -10 -0.097373
      vertex 40.9484 0 0
      vertex 43.1002 -10 1.15016
    endloop
  endfacet
  facet normal 0.471399 0 -0.88192
    outer loop
      vertex 40.9484 0 0
      vertex 40.7662 -10 -0.097373
      vertex 40.7662 0 -0.097373
    endloop
  endfacet
  facet normal 0.634393 0 -0.773011
    outer loop
      vertex 43.1002 -10 1.15016
      vertex 45.1459 0 2.82906
      vertex 45.1459 -10 2.82906
    endloop
  endfacet
  facet normal 0.634393 0 -0.773011
    outer loop
      vertex 45.1459 0 2.82906
      vertex 43.1002 -10 1.15016
      vertex 43.1002 0 1.15016
    endloop
  endfacet
  facet normal 0.773011 0 -0.634393
    outer loop
      vertex 46.8248 -10 4.8748
      vertex 45.1459 0 2.82906
      vertex 46.8248 0 4.8748
    endloop
  endfacet
  facet normal 0.773011 0 -0.634393
    outer loop
      vertex 45.1459 0 2.82906
      vertex 46.8248 -10 4.8748
      vertex 45.1459 -10 2.82906
    endloop
  endfacet
  facet normal 0.95694 0 -0.290284
    outer loop
      vertex 48.8406 -10 9.74128
      vertex 48.0724 0 7.20877
      vertex 48.8406 0 9.74128
    endloop
  endfacet
  facet normal 0.95694 0 -0.290284
    outer loop
      vertex 48.0724 0 7.20877
      vertex 48.8406 -10 9.74128
      vertex 48.0724 -10 7.20877
    endloop
  endfacet
  facet normal -0.290285 0 -0.95694
    outer loop
      vertex 30.4338 -10 -0.097373
      vertex 32.9663 0 -0.865601
      vertex 32.9663 -10 -0.865601
    endloop
  endfacet
  facet normal -0.290285 0 -0.95694
    outer loop
      vertex 32.9663 0 -0.865601
      vertex 30.4338 -10 -0.097373
      vertex 30.4338 0 -0.097373
    endloop
  endfacet
  facet normal -0.098017 -9.49082e-008 -0.995185
    outer loop
      vertex 35.6 -10 -1.125
      vertex 32.9663 -10 -0.865601
      vertex 35.6 0 -1.125
    endloop
  endfacet
  facet normal 0.098017 -9.49082e-008 -0.995185
    outer loop
      vertex 38.2337 -10 -0.865601
      vertex 35.6 -10 -1.125
      vertex 35.6 0 -1.125
    endloop
  endfacet
  facet normal -0.773011 0 -0.634393
    outer loop
      vertex 26.0541 -10 2.82906
      vertex 24.3752 0 4.8748
      vertex 26.0541 0 2.82906
    endloop
  endfacet
  facet normal -0.773011 -0 -0.634393
    outer loop
      vertex 24.3752 0 4.8748
      vertex 26.0541 -10 2.82906
      vertex 24.3752 -10 4.8748
    endloop
  endfacet
  facet normal -0.634393 0 -0.77301
    outer loop
      vertex 26.0541 -10 2.82906
      vertex 28.0998 0 1.15016
      vertex 28.0998 -10 1.15016
    endloop
  endfacet
  facet normal -0.634393 0 -0.77301
    outer loop
      vertex 28.0998 0 1.15016
      vertex 26.0541 -10 2.82906
      vertex 26.0541 0 2.82906
    endloop
  endfacet
  facet normal -0.881921 0 -0.471397
    outer loop
      vertex 24.3752 -10 4.8748
      vertex 23.1276 0 7.20877
      vertex 24.3752 0 4.8748
    endloop
  endfacet
  facet normal -0.881921 -0 -0.471397
    outer loop
      vertex 23.1276 0 7.20877
      vertex 24.3752 -10 4.8748
      vertex 23.1276 -10 7.20877
    endloop
  endfacet
  facet normal -9.22991e-008 -1 1.72679e-007
    outer loop
      vertex 28.0998 -10 23.5998
      vertex 22.3594 -10 15.0087
      vertex 30.4338 -10 24.8474
    endloop
  endfacet
  facet normal -3.91503e-008 -1 1.29061e-007
    outer loop
      vertex 30.4338 -10 24.8474
      vertex 22.3594 -10 15.0087
      vertex 32.9663 -10 25.6156
    endloop
  endfacet
  facet normal -0.634393 0 0.77301
    outer loop
      vertex 26.0541 0 21.9209
      vertex 28.0998 -10 23.5998
      vertex 28.0998 0 23.5998
    endloop
  endfacet
  facet normal -0.634393 0 0.77301
    outer loop
      vertex 28.0998 -10 23.5998
      vertex 26.0541 0 21.9209
      vertex 26.0541 -10 21.9209
    endloop
  endfacet
  facet normal -0.77301 0 0.634393
    outer loop
      vertex 24.3752 -10 19.8752
      vertex 26.0541 0 21.9209
      vertex 24.3752 0 19.8752
    endloop
  endfacet
  facet normal -0.77301 0 0.634393
    outer loop
      vertex 26.0541 0 21.9209
      vertex 24.3752 -10 19.8752
      vertex 26.0541 -10 21.9209
    endloop
  endfacet
  facet normal 0.995185 0 -0.098016
    outer loop
      vertex 37.25 14.4 4
      vertex 37.2183 24.4 3.6781
      vertex 37.25 24.4 4
    endloop
  endfacet
  facet normal 0.995185 0 -0.098016
    outer loop
      vertex 37.2183 24.4 3.6781
      vertex 37.25 14.4 4
      vertex 37.2183 14.4 3.6781
    endloop
  endfacet
  facet normal -0.098016 0 -0.995185
    outer loop
      vertex 35.2781 14.4 2.3817
      vertex 35.6 24.4 2.35
      vertex 35.6 14.4 2.35
    endloop
  endfacet
  facet normal -0.098016 0 -0.995185
    outer loop
      vertex 35.6 24.4 2.35
      vertex 35.2781 14.4 2.3817
      vertex 35.2781 24.4 2.3817
    endloop
  endfacet
  facet normal 0.634394 0 -0.77301
    outer loop
      vertex 36.5167 14.4 2.62807
      vertex 36.7667 24.4 2.83327
      vertex 36.7667 14.4 2.83327
    endloop
  endfacet
  facet normal 0.634394 0 -0.77301
    outer loop
      vertex 36.7667 24.4 2.83327
      vertex 36.5167 14.4 2.62807
      vertex 36.5167 24.4 2.62807
    endloop
  endfacet
  facet normal -0.773008 0 -0.634396
    outer loop
      vertex 34.4333 14.4 2.83327
      vertex 34.2281 24.4 3.08331
      vertex 34.4333 24.4 2.83327
    endloop
  endfacet
  facet normal -0.773008 -0 -0.634396
    outer loop
      vertex 34.2281 24.4 3.08331
      vertex 34.4333 14.4 2.83327
      vertex 34.2281 14.4 3.08331
    endloop
  endfacet
  facet normal -0.471397 0 -0.881921
    outer loop
      vertex 34.6833 14.4 2.62807
      vertex 34.9686 24.4 2.4756
      vertex 34.9686 14.4 2.4756
    endloop
  endfacet
  facet normal -0.471397 0 -0.881921
    outer loop
      vertex 34.9686 24.4 2.4756
      vertex 34.6833 14.4 2.62807
      vertex 34.6833 24.4 2.62807
    endloop
  endfacet
  facet normal 0.773008 -0 0.634396
    outer loop
      vertex 36.7667 14.4 5.16673
      vertex 36.9719 24.4 4.91669
      vertex 36.7667 24.4 5.16673
    endloop
  endfacet
  facet normal 0.773008 0 0.634396
    outer loop
      vertex 36.9719 24.4 4.91669
      vertex 36.7667 14.4 5.16673
      vertex 36.9719 14.4 4.91669
    endloop
  endfacet
  facet normal -0.634394 0 0.77301
    outer loop
      vertex 34.4333 24.4 5.16673
      vertex 34.6833 14.4 5.37192
      vertex 34.6833 24.4 5.37192
    endloop
  endfacet
  facet normal -0.634394 0 0.77301
    outer loop
      vertex 34.6833 14.4 5.37192
      vertex 34.4333 24.4 5.16673
      vertex 34.4333 14.4 5.16673
    endloop
  endfacet
  facet normal 0.881921 0 -0.471398
    outer loop
      vertex 37.1244 14.4 3.36857
      vertex 36.9719 24.4 3.08331
      vertex 37.1244 24.4 3.36857
    endloop
  endfacet
  facet normal 0.881921 0 -0.471398
    outer loop
      vertex 36.9719 24.4 3.08331
      vertex 37.1244 14.4 3.36857
      vertex 36.9719 14.4 3.08331
    endloop
  endfacet
  facet normal 0.95694 0 -0.290286
    outer loop
      vertex 37.2183 14.4 3.6781
      vertex 37.1244 24.4 3.36857
      vertex 37.2183 24.4 3.6781
    endloop
  endfacet
  facet normal 0.95694 0 -0.290286
    outer loop
      vertex 37.1244 24.4 3.36857
      vertex 37.2183 14.4 3.6781
      vertex 37.1244 14.4 3.36857
    endloop
  endfacet
  facet normal 0.773008 0 -0.634396
    outer loop
      vertex 36.9719 14.4 3.08331
      vertex 36.7667 24.4 2.83327
      vertex 36.9719 24.4 3.08331
    endloop
  endfacet
  facet normal 0.773008 0 -0.634396
    outer loop
      vertex 36.7667 24.4 2.83327
      vertex 36.9719 14.4 3.08331
      vertex 36.7667 14.4 2.83327
    endloop
  endfacet
  facet normal 0.290286 0 -0.95694
    outer loop
      vertex 35.9219 14.4 2.3817
      vertex 36.2314 24.4 2.4756
      vertex 36.2314 14.4 2.4756
    endloop
  endfacet
  facet normal 0.290286 0 -0.95694
    outer loop
      vertex 36.2314 24.4 2.4756
      vertex 35.9219 14.4 2.3817
      vertex 35.9219 24.4 2.3817
    endloop
  endfacet
  facet normal 0.098016 0 -0.995185
    outer loop
      vertex 35.6 14.4 2.35
      vertex 35.9219 24.4 2.3817
      vertex 35.9219 14.4 2.3817
    endloop
  endfacet
  facet normal 0.098016 0 -0.995185
    outer loop
      vertex 35.9219 24.4 2.3817
      vertex 35.6 14.4 2.35
      vertex 35.6 24.4 2.35
    endloop
  endfacet
  facet normal 0.471397 0 -0.881921
    outer loop
      vertex 36.2314 14.4 2.4756
      vertex 36.5167 24.4 2.62807
      vertex 36.5167 14.4 2.62807
    endloop
  endfacet
  facet normal 0.471397 0 -0.881921
    outer loop
      vertex 36.5167 24.4 2.62807
      vertex 36.2314 14.4 2.4756
      vertex 36.2314 24.4 2.4756
    endloop
  endfacet
  facet normal -0.95694 0 -0.290286
    outer loop
      vertex 34.0756 14.4 3.36857
      vertex 33.9817 24.4 3.6781
      vertex 34.0756 24.4 3.36857
    endloop
  endfacet
  facet normal -0.95694 -0 -0.290286
    outer loop
      vertex 33.9817 24.4 3.6781
      vertex 34.0756 14.4 3.36857
      vertex 33.9817 14.4 3.6781
    endloop
  endfacet
  facet normal -0.881926 0 -0.471389
    outer loop
      vertex 34.2281 14.4 3.08331
      vertex 34.0756 24.4 3.36857
      vertex 34.2281 24.4 3.08331
    endloop
  endfacet
  facet normal -0.881926 -0 -0.471389
    outer loop
      vertex 34.0756 24.4 3.36857
      vertex 34.2281 14.4 3.08331
      vertex 34.0756 14.4 3.36857
    endloop
  endfacet
  facet normal -0.995185 0 -0.098016
    outer loop
      vertex 33.9817 14.4 3.6781
      vertex 33.95 24.4 4
      vertex 33.9817 24.4 3.6781
    endloop
  endfacet
  facet normal -0.995185 -0 -0.098016
    outer loop
      vertex 33.95 24.4 4
      vertex 33.9817 14.4 3.6781
      vertex 33.95 14.4 4
    endloop
  endfacet
  facet normal 0 1 0
    outer loop
      vertex 35.9219 24.4 5.6183
      vertex 35.2781 24.4 5.6183
      vertex 35.6 24.4 5.65
    endloop
  endfacet
  facet normal 0 1 0
    outer loop
      vertex 36.2314 24.4 5.5244
      vertex 35.2781 24.4 5.6183
      vertex 35.9219 24.4 5.6183
    endloop
  endfacet
  facet normal 0 1 0
    outer loop
      vertex 36.2314 24.4 5.5244
      vertex 34.9686 24.4 5.5244
      vertex 35.2781 24.4 5.6183
    endloop
  endfacet
  facet normal 0 1 0
    outer loop
      vertex 36.5167 24.4 5.37192
      vertex 34.9686 24.4 5.5244
      vertex 36.2314 24.4 5.5244
    endloop
  endfacet
  facet normal 0 1 0
    outer loop
      vertex 36.5167 24.4 5.37192
      vertex 34.6833 24.4 5.37192
      vertex 34.9686 24.4 5.5244
    endloop
  endfacet
  facet normal 0 1 0
    outer loop
      vertex 36.7667 24.4 5.16673
      vertex 34.6833 24.4 5.37192
      vertex 36.5167 24.4 5.37192
    endloop
  endfacet
  facet normal 0 1 0
    outer loop
      vertex 36.7667 24.4 5.16673
      vertex 34.4333 24.4 5.16673
      vertex 34.6833 24.4 5.37192
    endloop
  endfacet
  facet normal 0 1 0
    outer loop
      vertex 36.9719 24.4 4.91669
      vertex 34.4333 24.4 5.16673
      vertex 36.7667 24.4 5.16673
    endloop
  endfacet
  facet normal 0 1 0
    outer loop
      vertex 36.9719 24.4 4.91669
      vertex 34.2281 24.4 4.91669
      vertex 34.4333 24.4 5.16673
    endloop
  endfacet
  facet normal 0 1 0
    outer loop
      vertex 37.1244 24.4 4.63143
      vertex 34.2281 24.4 4.91669
      vertex 36.9719 24.4 4.91669
    endloop
  endfacet
  facet normal 0 1 0
    outer loop
      vertex 37.1244 24.4 4.63143
      vertex 34.0756 24.4 4.63143
      vertex 34.2281 24.4 4.91669
    endloop
  endfacet
  facet normal 0 1 0
    outer loop
      vertex 37.2183 24.4 4.3219
      vertex 34.0756 24.4 4.63143
      vertex 37.1244 24.4 4.63143
    endloop
  endfacet
  facet normal 0 1 0
    outer loop
      vertex 37.2183 24.4 4.3219
      vertex 33.9817 24.4 4.3219
      vertex 34.0756 24.4 4.63143
    endloop
  endfacet
  facet normal 0 1 0
    outer loop
      vertex 37.25 24.4 4
      vertex 33.9817 24.4 4.3219
      vertex 37.2183 24.4 4.3219
    endloop
  endfacet
  facet normal 0 1 0
    outer loop
      vertex 37.25 24.4 4
      vertex 33.95 24.4 4
      vertex 33.9817 24.4 4.3219
    endloop
  endfacet
  facet normal 0 1 -0
    outer loop
      vertex 37.2183 24.4 3.6781
      vertex 33.95 24.4 4
      vertex 37.25 24.4 4
    endloop
  endfacet
  facet normal 0 1 0
    outer loop
      vertex 37.2183 24.4 3.6781
      vertex 33.9817 24.4 3.6781
      vertex 33.95 24.4 4
    endloop
  endfacet
  facet normal 0 1 -0
    outer loop
      vertex 37.1244 24.4 3.36857
      vertex 33.9817 24.4 3.6781
      vertex 37.2183 24.4 3.6781
    endloop
  endfacet
  facet normal 0 1 0
    outer loop
      vertex 37.1244 24.4 3.36857
      vertex 34.0756 24.4 3.36857
      vertex 33.9817 24.4 3.6781
    endloop
  endfacet
  facet normal 0 1 -0
    outer loop
      vertex 36.9719 24.4 3.08331
      vertex 34.0756 24.4 3.36857
      vertex 37.1244 24.4 3.36857
    endloop
  endfacet
  facet normal 0 1 0
    outer loop
      vertex 36.9719 24.4 3.08331
      vertex 34.2281 24.4 3.08331
      vertex 34.0756 24.4 3.36857
    endloop
  endfacet
  facet normal 0 1 -0
    outer loop
      vertex 36.7667 24.4 2.83327
      vertex 34.2281 24.4 3.08331
      vertex 36.9719 24.4 3.08331
    endloop
  endfacet
  facet normal 0 1 0
    outer loop
      vertex 36.7667 24.4 2.83327
      vertex 34.4333 24.4 2.83327
      vertex 34.2281 24.4 3.08331
    endloop
  endfacet
  facet normal 0 1 -0
    outer loop
      vertex 36.5167 24.4 2.62807
      vertex 34.4333 24.4 2.83327
      vertex 36.7667 24.4 2.83327
    endloop
  endfacet
  facet normal 0 1 0
    outer loop
      vertex 36.5167 24.4 2.62807
      vertex 34.6833 24.4 2.62807
      vertex 34.4333 24.4 2.83327
    endloop
  endfacet
  facet normal 0 1 -0
    outer loop
      vertex 36.2314 24.4 2.4756
      vertex 34.6833 24.4 2.62807
      vertex 36.5167 24.4 2.62807
    endloop
  endfacet
  facet normal 0 1 0
    outer loop
      vertex 36.2314 24.4 2.4756
      vertex 34.9686 24.4 2.4756
      vertex 34.6833 24.4 2.62807
    endloop
  endfacet
  facet normal 0 1 -0
    outer loop
      vertex 35.9219 24.4 2.3817
      vertex 34.9686 24.4 2.4756
      vertex 36.2314 24.4 2.4756
    endloop
  endfacet
  facet normal 0 1 0
    outer loop
      vertex 35.9219 24.4 2.3817
      vertex 35.2781 24.4 2.3817
      vertex 34.9686 24.4 2.4756
    endloop
  endfacet
  facet normal -0 1 0
    outer loop
      vertex 35.2781 24.4 2.3817
      vertex 35.9219 24.4 2.3817
      vertex 35.6 24.4 2.35
    endloop
  endfacet
  facet normal -0.634394 0 -0.77301
    outer loop
      vertex 34.4333 14.4 2.83327
      vertex 34.6833 24.4 2.62807
      vertex 34.6833 14.4 2.62807
    endloop
  endfacet
  facet normal -0.634394 0 -0.77301
    outer loop
      vertex 34.6833 24.4 2.62807
      vertex 34.4333 14.4 2.83327
      vertex 34.4333 24.4 2.83327
    endloop
  endfacet
  facet normal -0.290286 0 -0.95694
    outer loop
      vertex 34.9686 14.4 2.4756
      vertex 35.2781 24.4 2.3817
      vertex 35.2781 14.4 2.3817
    endloop
  endfacet
  facet normal -0.290286 0 -0.95694
    outer loop
      vertex 35.2781 24.4 2.3817
      vertex 34.9686 14.4 2.4756
      vertex 34.9686 24.4 2.4756
    endloop
  endfacet
  facet normal 0.995185 -0 0.0980163
    outer loop
      vertex 37.2183 14.4 4.3219
      vertex 37.25 24.4 4
      vertex 37.2183 24.4 4.3219
    endloop
  endfacet
  facet normal 0.995185 0 0.0980163
    outer loop
      vertex 37.25 24.4 4
      vertex 37.2183 14.4 4.3219
      vertex 37.25 14.4 4
    endloop
  endfacet
  facet normal 0.290286 0 0.95694
    outer loop
      vertex 35.9219 24.4 5.6183
      vertex 36.2314 14.4 5.5244
      vertex 36.2314 24.4 5.5244
    endloop
  endfacet
  facet normal 0.290286 0 0.95694
    outer loop
      vertex 36.2314 14.4 5.5244
      vertex 35.9219 24.4 5.6183
      vertex 35.9219 14.4 5.6183
    endloop
  endfacet
  facet normal 0.634394 0 0.77301
    outer loop
      vertex 36.5167 24.4 5.37192
      vertex 36.7667 14.4 5.16673
      vertex 36.7667 24.4 5.16673
    endloop
  endfacet
  facet normal 0.634394 0 0.77301
    outer loop
      vertex 36.7667 14.4 5.16673
      vertex 36.5167 24.4 5.37192
      vertex 36.5167 14.4 5.37192
    endloop
  endfacet
  facet normal -0.471397 0 0.881921
    outer loop
      vertex 34.6833 24.4 5.37192
      vertex 34.9686 14.4 5.5244
      vertex 34.9686 24.4 5.5244
    endloop
  endfacet
  facet normal -0.471397 0 0.881921
    outer loop
      vertex 34.9686 14.4 5.5244
      vertex 34.6833 24.4 5.37192
      vertex 34.6833 14.4 5.37192
    endloop
  endfacet
  facet normal -0.098016 0 0.995185
    outer loop
      vertex 35.2781 24.4 5.6183
      vertex 35.6 14.4 5.65
      vertex 35.6 24.4 5.65
    endloop
  endfacet
  facet normal -0.098016 0 0.995185
    outer loop
      vertex 35.6 14.4 5.65
      vertex 35.2781 24.4 5.6183
      vertex 35.2781 14.4 5.6183
    endloop
  endfacet
  facet normal -0.95694 0 0.290286
    outer loop
      vertex 33.9817 14.4 4.3219
      vertex 34.0756 24.4 4.63143
      vertex 33.9817 24.4 4.3219
    endloop
  endfacet
  facet normal -0.95694 0 0.290286
    outer loop
      vertex 34.0756 24.4 4.63143
      vertex 33.9817 14.4 4.3219
      vertex 34.0756 14.4 4.63143
    endloop
  endfacet
  facet normal -0.773008 0 0.634396
    outer loop
      vertex 34.2281 14.4 4.91669
      vertex 34.4333 24.4 5.16673
      vertex 34.2281 24.4 4.91669
    endloop
  endfacet
  facet normal -0.773008 0 0.634396
    outer loop
      vertex 34.4333 24.4 5.16673
      vertex 34.2281 14.4 4.91669
      vertex 34.4333 14.4 5.16673
    endloop
  endfacet
  facet normal -0.995185 0 0.0980163
    outer loop
      vertex 33.95 14.4 4
      vertex 33.9817 24.4 4.3219
      vertex 33.95 24.4 4
    endloop
  endfacet
  facet normal -0.995185 0 0.0980163
    outer loop
      vertex 33.9817 24.4 4.3219
      vertex 33.95 14.4 4
      vertex 33.9817 14.4 4.3219
    endloop
  endfacet
  facet normal 0.471397 0 0.881921
    outer loop
      vertex 36.2314 24.4 5.5244
      vertex 36.5167 14.4 5.37192
      vertex 36.5167 24.4 5.37192
    endloop
  endfacet
  facet normal 0.471397 0 0.881921
    outer loop
      vertex 36.5167 14.4 5.37192
      vertex 36.2314 24.4 5.5244
      vertex 36.2314 14.4 5.5244
    endloop
  endfacet
  facet normal 0.95694 -0 0.290286
    outer loop
      vertex 37.1244 14.4 4.63143
      vertex 37.2183 24.4 4.3219
      vertex 37.1244 24.4 4.63143
    endloop
  endfacet
  facet normal 0.95694 0 0.290286
    outer loop
      vertex 37.2183 24.4 4.3219
      vertex 37.1244 14.4 4.63143
      vertex 37.2183 14.4 4.3219
    endloop
  endfacet
  facet normal 0.881921 -0 0.471398
    outer loop
      vertex 36.9719 14.4 4.91669
      vertex 37.1244 24.4 4.63143
      vertex 36.9719 24.4 4.91669
    endloop
  endfacet
  facet normal 0.881921 0 0.471398
    outer loop
      vertex 37.1244 24.4 4.63143
      vertex 36.9719 14.4 4.91669
      vertex 37.1244 14.4 4.63143
    endloop
  endfacet
  facet normal -0.290286 0 0.95694
    outer loop
      vertex 34.9686 24.4 5.5244
      vertex 35.2781 14.4 5.6183
      vertex 35.2781 24.4 5.6183
    endloop
  endfacet
  facet normal -0.290286 0 0.95694
    outer loop
      vertex 35.2781 14.4 5.6183
      vertex 34.9686 24.4 5.5244
      vertex 34.9686 14.4 5.5244
    endloop
  endfacet
  facet normal 0.098016 0 0.995185
    outer loop
      vertex 35.6 24.4 5.65
      vertex 35.9219 14.4 5.6183
      vertex 35.9219 24.4 5.6183
    endloop
  endfacet
  facet normal 0.098016 0 0.995185
    outer loop
      vertex 35.9219 14.4 5.6183
      vertex 35.6 24.4 5.65
      vertex 35.6 14.4 5.65
    endloop
  endfacet
  facet normal -0.881926 0 0.471389
    outer loop
      vertex 34.0756 14.4 4.63143
      vertex 34.2281 24.4 4.91669
      vertex 34.0756 24.4 4.63143
    endloop
  endfacet
  facet normal -0.881926 0 0.471389
    outer loop
      vertex 34.2281 24.4 4.91669
      vertex 34.0756 14.4 4.63143
      vertex 34.2281 14.4 4.91669
    endloop
  endfacet
endsolid OpenSCAD_Model
