solid OpenSCAD_Model
  facet normal 0.980785 0.195091 0
    outer loop
      vertex 4.95 0 40
      vertex 4.5732 1.89428 0
      vertex 4.5732 1.89428 40
    endloop
  endfacet
  facet normal 0.980785 0.195091 0
    outer loop
      vertex 4.5732 1.89428 0
      vertex 4.95 0 40
      vertex 4.95 0 0
    endloop
  endfacet
  facet normal -0.980785 0.195091 0
    outer loop
      vertex -4.95 0 0
      vertex -4.5732 1.89428 40
      vertex -4.5732 1.89428 0
    endloop
  endfacet
  facet normal -0.980785 0.195091 0
    outer loop
      vertex -4.5732 1.89428 40
      vertex -4.95 0 0
      vertex -4.95 0 40
    endloop
  endfacet
  facet normal 0.195091 0.980785 -0
    outer loop
      vertex 1.89428 4.5732 0
      vertex 0 4.95 40
      vertex 1.89428 4.5732 40
    endloop
  endfacet
  facet normal 0.195091 0.980785 0
    outer loop
      vertex 0 4.95 40
      vertex 1.89428 4.5732 0
      vertex 0 4.95 0
    endloop
  endfacet
  facet normal 0.83147 0.55557 0
    outer loop
      vertex 4.5732 1.89428 40
      vertex 3.50018 3.50018 0
      vertex 3.50018 3.50018 40
    endloop
  endfacet
  facet normal 0.83147 0.55557 0
    outer loop
      vertex 3.50018 3.50018 0
      vertex 4.5732 1.89428 40
      vertex 4.5732 1.89428 0
    endloop
  endfacet
  facet normal 0.195091 -0.980785 0
    outer loop
      vertex 0 -4.95 0
      vertex 1.89428 -4.5732 40
      vertex 0 -4.95 40
    endloop
  endfacet
  facet normal 0.195091 -0.980785 0
    outer loop
      vertex 1.89428 -4.5732 40
      vertex 0 -4.95 0
      vertex 1.89428 -4.5732 0
    endloop
  endfacet
  facet normal -0.195091 -0.980785 0
    outer loop
      vertex -1.89428 -4.5732 0
      vertex 0 -4.95 40
      vertex -1.89428 -4.5732 40
    endloop
  endfacet
  facet normal -0.195091 -0.980785 -0
    outer loop
      vertex 0 -4.95 40
      vertex -1.89428 -4.5732 0
      vertex 0 -4.95 0
    endloop
  endfacet
  facet normal -0.195091 0.980785 0
    outer loop
      vertex 0 4.95 0
      vertex -1.89428 4.5732 40
      vertex 0 4.95 40
    endloop
  endfacet
  facet normal -0.195091 0.980785 0
    outer loop
      vertex -1.89428 4.5732 40
      vertex 0 4.95 0
      vertex -1.89428 4.5732 0
    endloop
  endfacet
  facet normal -0.83147 0.55557 0
    outer loop
      vertex -4.5732 1.89428 0
      vertex -3.50018 3.50018 40
      vertex -3.50018 3.50018 0
    endloop
  endfacet
  facet normal -0.83147 0.55557 0
    outer loop
      vertex -3.50018 3.50018 40
      vertex -4.5732 1.89428 0
      vertex -4.5732 1.89428 40
    endloop
  endfacet
  facet normal -0.55557 0.83147 0
    outer loop
      vertex -1.89428 4.5732 0
      vertex -3.50018 3.50018 40
      vertex -1.89428 4.5732 40
    endloop
  endfacet
  facet normal -0.55557 0.83147 0
    outer loop
      vertex -3.50018 3.50018 40
      vertex -1.89428 4.5732 0
      vertex -3.50018 3.50018 0
    endloop
  endfacet
  facet normal -0.980785 -0.195091 0
    outer loop
      vertex -4.5732 -1.89428 0
      vertex -4.95 0 40
      vertex -4.95 0 0
    endloop
  endfacet
  facet normal -0.980785 -0.195091 0
    outer loop
      vertex -4.95 0 40
      vertex -4.5732 -1.89428 0
      vertex -4.5732 -1.89428 40
    endloop
  endfacet
  facet normal -0.55557 -0.83147 0
    outer loop
      vertex -3.50018 -3.50018 0
      vertex -1.89428 -4.5732 40
      vertex -3.50018 -3.50018 40
    endloop
  endfacet
  facet normal -0.55557 -0.83147 -0
    outer loop
      vertex -1.89428 -4.5732 40
      vertex -3.50018 -3.50018 0
      vertex -1.89428 -4.5732 0
    endloop
  endfacet
  facet normal 0 0 -1
    outer loop
      vertex 1.6 0 0
      vertex 4.95 0 0
      vertex 4.5732 -1.89428 0
    endloop
  endfacet
  facet normal 0 0 -1
    outer loop
      vertex 1.47821 -0.612293 0
      vertex 4.5732 -1.89428 0
      vertex 3.50018 -3.50018 0
    endloop
  endfacet
  facet normal 0 0 -1
    outer loop
      vertex 4.95 0 0
      vertex 1.6 0 0
      vertex 4.5732 1.89428 0
    endloop
  endfacet
  facet normal 0 0 -1
    outer loop
      vertex 1.13137 -1.13137 0
      vertex 3.50018 -3.50018 0
      vertex 1.89428 -4.5732 0
    endloop
  endfacet
  facet normal 0 0 -1
    outer loop
      vertex 1.47821 0.612293 0
      vertex 4.5732 1.89428 0
      vertex 1.6 0 0
    endloop
  endfacet
  facet normal -0 0 -1
    outer loop
      vertex 4.5732 1.89428 0
      vertex 1.47821 0.612293 0
      vertex 3.50018 3.50018 0
    endloop
  endfacet
  facet normal 0 0 -1
    outer loop
      vertex 4.5732 -1.89428 0
      vertex 1.47821 -0.612293 0
      vertex 1.6 0 0
    endloop
  endfacet
  facet normal 0 0 -1
    outer loop
      vertex 3.50018 -3.50018 0
      vertex 1.13137 -1.13137 0
      vertex 1.47821 -0.612293 0
    endloop
  endfacet
  facet normal 0 0 -1
    outer loop
      vertex 1.89428 -4.5732 0
      vertex 0.612293 -1.47821 0
      vertex 1.13137 -1.13137 0
    endloop
  endfacet
  facet normal 0 0 -1
    outer loop
      vertex 0 -4.95 0
      vertex 0.612293 -1.47821 0
      vertex 1.89428 -4.5732 0
    endloop
  endfacet
  facet normal 0 0 -1
    outer loop
      vertex 0 -4.95 0
      vertex 0 -1.6 0
      vertex 0.612293 -1.47821 0
    endloop
  endfacet
  facet normal 0 0 -1
    outer loop
      vertex 0 -4.95 0
      vertex -0.612293 -1.47821 0
      vertex 0 -1.6 0
    endloop
  endfacet
  facet normal 0 0 -1
    outer loop
      vertex -1.89428 -4.5732 0
      vertex -0.612293 -1.47821 0
      vertex 0 -4.95 0
    endloop
  endfacet
  facet normal -0 0 -1
    outer loop
      vertex -0.612293 -1.47821 0
      vertex -1.89428 -4.5732 0
      vertex -1.13137 -1.13137 0
    endloop
  endfacet
  facet normal -0 0 -1
    outer loop
      vertex -1.13137 -1.13137 0
      vertex -3.50018 -3.50018 0
      vertex -1.47821 -0.612293 0
    endloop
  endfacet
  facet normal 0 0 -1
    outer loop
      vertex -3.50018 -3.50018 0
      vertex -1.13137 -1.13137 0
      vertex -1.89428 -4.5732 0
    endloop
  endfacet
  facet normal 0 0 -1
    outer loop
      vertex 1.13137 1.13137 0
      vertex 3.50018 3.50018 0
      vertex 1.47821 0.612293 0
    endloop
  endfacet
  facet normal -0 0 -1
    outer loop
      vertex 3.50018 3.50018 0
      vertex 1.13137 1.13137 0
      vertex 1.89428 4.5732 0
    endloop
  endfacet
  facet normal 0 0 -1
    outer loop
      vertex 0.612293 1.47821 0
      vertex 1.89428 4.5732 0
      vertex 1.13137 1.13137 0
    endloop
  endfacet
  facet normal 0 0 -1
    outer loop
      vertex 0 1.6 0
      vertex 1.89428 4.5732 0
      vertex 0.612293 1.47821 0
    endloop
  endfacet
  facet normal 0 0 -1
    outer loop
      vertex 0 1.6 0
      vertex 0 4.95 0
      vertex 1.89428 4.5732 0
    endloop
  endfacet
  facet normal 0 0 -1
    outer loop
      vertex -0.612293 1.47821 0
      vertex 0 4.95 0
      vertex 0 1.6 0
    endloop
  endfacet
  facet normal 0 0 -1
    outer loop
      vertex -1.89428 4.5732 0
      vertex -0.612293 1.47821 0
      vertex -1.13137 1.13137 0
    endloop
  endfacet
  facet normal 0 0 -1
    outer loop
      vertex -3.50018 3.50018 0
      vertex -1.13137 1.13137 0
      vertex -1.47821 0.612293 0
    endloop
  endfacet
  facet normal 0 0 -1
    outer loop
      vertex -0.612293 1.47821 0
      vertex -1.89428 4.5732 0
      vertex 0 4.95 0
    endloop
  endfacet
  facet normal 0 0 -1
    outer loop
      vertex -4.5732 1.89428 0
      vertex -1.47821 0.612293 0
      vertex -1.6 0 0
    endloop
  endfacet
  facet normal 0 0 -1
    outer loop
      vertex -4.5732 -1.89428 0
      vertex -1.47821 -0.612293 0
      vertex -3.50018 -3.50018 0
    endloop
  endfacet
  facet normal -0 0 -1
    outer loop
      vertex -1.47821 -0.612293 0
      vertex -4.5732 -1.89428 0
      vertex -1.6 0 0
    endloop
  endfacet
  facet normal 0 0 -1
    outer loop
      vertex -1.13137 1.13137 0
      vertex -3.50018 3.50018 0
      vertex -1.89428 4.5732 0
    endloop
  endfacet
  facet normal 0 0 -1
    outer loop
      vertex -4.95 0 0
      vertex -1.6 0 0
      vertex -4.5732 -1.89428 0
    endloop
  endfacet
  facet normal 0 0 -1
    outer loop
      vertex -1.47821 0.612293 0
      vertex -4.5732 1.89428 0
      vertex -3.50018 3.50018 0
    endloop
  endfacet
  facet normal 0 0 -1
    outer loop
      vertex -1.6 0 0
      vertex -4.95 0 0
      vertex -4.5732 1.89428 0
    endloop
  endfacet
  facet normal -0.83147 -0.55557 0
    outer loop
      vertex -3.50018 -3.50018 0
      vertex -4.5732 -1.89428 40
      vertex -4.5732 -1.89428 0
    endloop
  endfacet
  facet normal -0.83147 -0.55557 0
    outer loop
      vertex -4.5732 -1.89428 40
      vertex -3.50018 -3.50018 0
      vertex -3.50018 -3.50018 40
    endloop
  endfacet
  facet normal 0.55557 0.83147 -0
    outer loop
      vertex 3.50018 3.50018 0
      vertex 1.89428 4.5732 40
      vertex 3.50018 3.50018 40
    endloop
  endfacet
  facet normal 0.55557 0.83147 0
    outer loop
      vertex 1.89428 4.5732 40
      vertex 3.50018 3.50018 0
      vertex 1.89428 4.5732 0
    endloop
  endfacet
  facet normal 0 0 1
    outer loop
      vertex 4.5732 1.89428 40
      vertex 4.5732 -1.89428 40
      vertex 4.95 0 40
    endloop
  endfacet
  facet normal 0 0 1
    outer loop
      vertex 3.50018 3.50018 40
      vertex 4.5732 -1.89428 40
      vertex 4.5732 1.89428 40
    endloop
  endfacet
  facet normal 0 0 1
    outer loop
      vertex 3.50018 3.50018 40
      vertex 3.50018 -3.50018 40
      vertex 4.5732 -1.89428 40
    endloop
  endfacet
  facet normal 0 0 1
    outer loop
      vertex 1.89428 4.5732 40
      vertex 3.50018 -3.50018 40
      vertex 3.50018 3.50018 40
    endloop
  endfacet
  facet normal 0 0 1
    outer loop
      vertex 1.89428 4.5732 40
      vertex 1.89428 -4.5732 40
      vertex 3.50018 -3.50018 40
    endloop
  endfacet
  facet normal 0 0 1
    outer loop
      vertex 0 4.95 40
      vertex 1.89428 -4.5732 40
      vertex 1.89428 4.5732 40
    endloop
  endfacet
  facet normal 0 0 1
    outer loop
      vertex 0 4.95 40
      vertex 0 -4.95 40
      vertex 1.89428 -4.5732 40
    endloop
  endfacet
  facet normal -0 0 1
    outer loop
      vertex -1.89428 4.5732 40
      vertex 0 -4.95 40
      vertex 0 4.95 40
    endloop
  endfacet
  facet normal 0 0 1
    outer loop
      vertex -1.89428 4.5732 40
      vertex -1.89428 -4.5732 40
      vertex 0 -4.95 40
    endloop
  endfacet
  facet normal -0 0 1
    outer loop
      vertex -3.50018 3.50018 40
      vertex -1.89428 -4.5732 40
      vertex -1.89428 4.5732 40
    endloop
  endfacet
  facet normal 0 0 1
    outer loop
      vertex -3.50018 3.50018 40
      vertex -3.50018 -3.50018 40
      vertex -1.89428 -4.5732 40
    endloop
  endfacet
  facet normal -0 0 1
    outer loop
      vertex -4.5732 1.89428 40
      vertex -3.50018 -3.50018 40
      vertex -3.50018 3.50018 40
    endloop
  endfacet
  facet normal 0 0 1
    outer loop
      vertex -4.5732 1.89428 40
      vertex -4.5732 -1.89428 40
      vertex -3.50018 -3.50018 40
    endloop
  endfacet
  facet normal 0 -0 1
    outer loop
      vertex -4.5732 -1.89428 40
      vertex -4.5732 1.89428 40
      vertex -4.95 0 40
    endloop
  endfacet
  facet normal 0.83147 -0.55557 0
    outer loop
      vertex 3.50018 -3.50018 40
      vertex 4.5732 -1.89428 0
      vertex 4.5732 -1.89428 40
    endloop
  endfacet
  facet normal 0.83147 -0.55557 0
    outer loop
      vertex 4.5732 -1.89428 0
      vertex 3.50018 -3.50018 40
      vertex 3.50018 -3.50018 0
    endloop
  endfacet
  facet normal 0.55557 -0.83147 0
    outer loop
      vertex 1.89428 -4.5732 0
      vertex 3.50018 -3.50018 40
      vertex 1.89428 -4.5732 40
    endloop
  endfacet
  facet normal 0.55557 -0.83147 0
    outer loop
      vertex 3.50018 -3.50018 40
      vertex 1.89428 -4.5732 0
      vertex 3.50018 -3.50018 0
    endloop
  endfacet
  facet normal 0.980785 -0.195091 0
    outer loop
      vertex 4.5732 -1.89428 40
      vertex 4.95 0 0
      vertex 4.95 0 40
    endloop
  endfacet
  facet normal 0.980785 -0.195091 0
    outer loop
      vertex 4.95 0 0
      vertex 4.5732 -1.89428 40
      vertex 4.5732 -1.89428 0
    endloop
  endfacet
  facet normal 0.980785 0.19509 0
    outer loop
      vertex 1.6 0 0
      vertex 1.47821 0.612293 -40
      vertex 1.47821 0.612293 0
    endloop
  endfacet
  facet normal 0.980785 0.19509 0
    outer loop
      vertex 1.47821 0.612293 -40
      vertex 1.6 0 0
      vertex 1.6 0 -40
    endloop
  endfacet
  facet normal -0.980785 0.19509 0
    outer loop
      vertex -1.6 0 -40
      vertex -1.47821 0.612293 0
      vertex -1.47821 0.612293 -40
    endloop
  endfacet
  facet normal -0.980785 0.19509 0
    outer loop
      vertex -1.47821 0.612293 0
      vertex -1.6 0 -40
      vertex -1.6 0 0
    endloop
  endfacet
  facet normal 0.19509 0.980785 -0
    outer loop
      vertex 0.612293 1.47821 -40
      vertex 0 1.6 0
      vertex 0.612293 1.47821 0
    endloop
  endfacet
  facet normal 0.19509 0.980785 0
    outer loop
      vertex 0 1.6 0
      vertex 0.612293 1.47821 -40
      vertex 0 1.6 -40
    endloop
  endfacet
  facet normal 0.83147 0.55557 0
    outer loop
      vertex 1.47821 0.612293 0
      vertex 1.13137 1.13137 -40
      vertex 1.13137 1.13137 0
    endloop
  endfacet
  facet normal 0.83147 0.55557 0
    outer loop
      vertex 1.13137 1.13137 -40
      vertex 1.47821 0.612293 0
      vertex 1.47821 0.612293 -40
    endloop
  endfacet
  facet normal -0.19509 -0.980785 0
    outer loop
      vertex -0.612293 -1.47821 -40
      vertex 0 -1.6 0
      vertex -0.612293 -1.47821 0
    endloop
  endfacet
  facet normal -0.19509 -0.980785 -0
    outer loop
      vertex 0 -1.6 0
      vertex -0.612293 -1.47821 -40
      vertex 0 -1.6 -40
    endloop
  endfacet
  facet normal 0 0 -1
    outer loop
      vertex 1.47821 -0.612293 -40
      vertex 1.47821 0.612293 -40
      vertex 1.6 0 -40
    endloop
  endfacet
  facet normal 0 0 -1
    outer loop
      vertex 1.13137 -1.13137 -40
      vertex 1.47821 0.612293 -40
      vertex 1.47821 -0.612293 -40
    endloop
  endfacet
  facet normal 0 0 -1
    outer loop
      vertex 1.13137 -1.13137 -40
      vertex 1.13137 1.13137 -40
      vertex 1.47821 0.612293 -40
    endloop
  endfacet
  facet normal 0 0 -1
    outer loop
      vertex 0.612293 -1.47821 -40
      vertex 1.13137 1.13137 -40
      vertex 1.13137 -1.13137 -40
    endloop
  endfacet
  facet normal 0 0 -1
    outer loop
      vertex 0.612293 -1.47821 -40
      vertex 0.612293 1.47821 -40
      vertex 1.13137 1.13137 -40
    endloop
  endfacet
  facet normal 0 0 -1
    outer loop
      vertex 0 -1.6 -40
      vertex 0.612293 1.47821 -40
      vertex 0.612293 -1.47821 -40
    endloop
  endfacet
  facet normal 0 0 -1
    outer loop
      vertex 0 -1.6 -40
      vertex 0 1.6 -40
      vertex 0.612293 1.47821 -40
    endloop
  endfacet
  facet normal 0 0 -1
    outer loop
      vertex -0.612293 -1.47821 -40
      vertex 0 1.6 -40
      vertex 0 -1.6 -40
    endloop
  endfacet
  facet normal 0 0 -1
    outer loop
      vertex -0.612293 -1.47821 -40
      vertex -0.612293 1.47821 -40
      vertex 0 1.6 -40
    endloop
  endfacet
  facet normal 0 0 -1
    outer loop
      vertex -1.13137 -1.13137 -40
      vertex -0.612293 1.47821 -40
      vertex -0.612293 -1.47821 -40
    endloop
  endfacet
  facet normal 0 0 -1
    outer loop
      vertex -1.13137 -1.13137 -40
      vertex -1.13137 1.13137 -40
      vertex -0.612293 1.47821 -40
    endloop
  endfacet
  facet normal 0 0 -1
    outer loop
      vertex -1.47821 -0.612293 -40
      vertex -1.13137 1.13137 -40
      vertex -1.13137 -1.13137 -40
    endloop
  endfacet
  facet normal 0 0 -1
    outer loop
      vertex -1.47821 -0.612293 -40
      vertex -1.47821 0.612293 -40
      vertex -1.13137 1.13137 -40
    endloop
  endfacet
  facet normal 0 -0 -1
    outer loop
      vertex -1.47821 0.612293 -40
      vertex -1.47821 -0.612293 -40
      vertex -1.6 0 -40
    endloop
  endfacet
  facet normal 0.55557 0.83147 -0
    outer loop
      vertex 1.13137 1.13137 -40
      vertex 0.612293 1.47821 0
      vertex 1.13137 1.13137 0
    endloop
  endfacet
  facet normal 0.55557 0.83147 0
    outer loop
      vertex 0.612293 1.47821 0
      vertex 1.13137 1.13137 -40
      vertex 0.612293 1.47821 -40
    endloop
  endfacet
  facet normal -0.55557 0.83147 0
    outer loop
      vertex -0.612293 1.47821 -40
      vertex -1.13137 1.13137 0
      vertex -0.612293 1.47821 0
    endloop
  endfacet
  facet normal -0.55557 0.83147 0
    outer loop
      vertex -1.13137 1.13137 0
      vertex -0.612293 1.47821 -40
      vertex -1.13137 1.13137 -40
    endloop
  endfacet
  facet normal -0.83147 0.55557 0
    outer loop
      vertex -1.47821 0.612293 -40
      vertex -1.13137 1.13137 0
      vertex -1.13137 1.13137 -40
    endloop
  endfacet
  facet normal -0.83147 0.55557 0
    outer loop
      vertex -1.13137 1.13137 0
      vertex -1.47821 0.612293 -40
      vertex -1.47821 0.612293 0
    endloop
  endfacet
  facet normal -0.19509 0.980785 0
    outer loop
      vertex 0 1.6 -40
      vertex -0.612293 1.47821 0
      vertex 0 1.6 0
    endloop
  endfacet
  facet normal -0.19509 0.980785 0
    outer loop
      vertex -0.612293 1.47821 0
      vertex 0 1.6 -40
      vertex -0.612293 1.47821 -40
    endloop
  endfacet
  facet normal -0.55557 -0.83147 0
    outer loop
      vertex -1.13137 -1.13137 -40
      vertex -0.612293 -1.47821 0
      vertex -1.13137 -1.13137 0
    endloop
  endfacet
  facet normal -0.55557 -0.83147 -0
    outer loop
      vertex -0.612293 -1.47821 0
      vertex -1.13137 -1.13137 -40
      vertex -0.612293 -1.47821 -40
    endloop
  endfacet
  facet normal -0.980785 -0.19509 0
    outer loop
      vertex -1.47821 -0.612293 -40
      vertex -1.6 0 0
      vertex -1.6 0 -40
    endloop
  endfacet
  facet normal -0.980785 -0.19509 0
    outer loop
      vertex -1.6 0 0
      vertex -1.47821 -0.612293 -40
      vertex -1.47821 -0.612293 0
    endloop
  endfacet
  facet normal 0.55557 -0.83147 0
    outer loop
      vertex 0.612293 -1.47821 -40
      vertex 1.13137 -1.13137 0
      vertex 0.612293 -1.47821 0
    endloop
  endfacet
  facet normal 0.55557 -0.83147 0
    outer loop
      vertex 1.13137 -1.13137 0
      vertex 0.612293 -1.47821 -40
      vertex 1.13137 -1.13137 -40
    endloop
  endfacet
  facet normal 0.19509 -0.980785 0
    outer loop
      vertex 0 -1.6 -40
      vertex 0.612293 -1.47821 0
      vertex 0 -1.6 0
    endloop
  endfacet
  facet normal 0.19509 -0.980785 0
    outer loop
      vertex 0.612293 -1.47821 0
      vertex 0 -1.6 -40
      vertex 0.612293 -1.47821 -40
    endloop
  endfacet
  facet normal 0.83147 -0.55557 0
    outer loop
      vertex 1.13137 -1.13137 0
      vertex 1.47821 -0.612293 -40
      vertex 1.47821 -0.612293 0
    endloop
  endfacet
  facet normal 0.83147 -0.55557 0
    outer loop
      vertex 1.47821 -0.612293 -40
      vertex 1.13137 -1.13137 0
      vertex 1.13137 -1.13137 -40
    endloop
  endfacet
  facet normal -0.83147 -0.55557 0
    outer loop
      vertex -1.13137 -1.13137 -40
      vertex -1.47821 -0.612293 0
      vertex -1.47821 -0.612293 -40
    endloop
  endfacet
  facet normal -0.83147 -0.55557 0
    outer loop
      vertex -1.47821 -0.612293 0
      vertex -1.13137 -1.13137 -40
      vertex -1.13137 -1.13137 0
    endloop
  endfacet
  facet normal 0.980785 -0.19509 0
    outer loop
      vertex 1.47821 -0.612293 0
      vertex 1.6 0 -40
      vertex 1.6 0 0
    endloop
  endfacet
  facet normal 0.980785 -0.19509 0
    outer loop
      vertex 1.6 0 -40
      vertex 1.47821 -0.612293 0
      vertex 1.47821 -0.612293 -40
    endloop
  endfacet
endsolid OpenSCAD_Model
