solid OpenSCAD_Model
  facet normal 0.980785 0.195091 0
    outer loop
      vertex 4.95 0 40
      vertex 4.5732 1.89428 0
      vertex 4.5732 1.89428 40
    endloop
  endfacet
  facet normal 0.980785 0.195091 0
    outer loop
      vertex 4.5732 1.89428 0
      vertex 4.95 0 40
      vertex 4.95 0 0
    endloop
  endfacet
  facet normal -0.980785 0.195091 0
    outer loop
      vertex -4.95 0 0
      vertex -4.5732 1.89428 40
      vertex -4.5732 1.89428 0
    endloop
  endfacet
  facet normal -0.980785 0.195091 0
    outer loop
      vertex -4.5732 1.89428 40
      vertex -4.95 0 0
      vertex -4.95 0 40
    endloop
  endfacet
  facet normal 0.195091 0.980785 -0
    outer loop
      vertex 1.89428 4.5732 0
      vertex 0 4.95 40
      vertex 1.89428 4.5732 40
    endloop
  endfacet
  facet normal 0.195091 0.980785 0
    outer loop
      vertex 0 4.95 40
      vertex 1.89428 4.5732 0
      vertex 0 4.95 0
    endloop
  endfacet
  facet normal 0.83147 0.55557 0
    outer loop
      vertex 4.5732 1.89428 40
      vertex 3.50018 3.50018 0
      vertex 3.50018 3.50018 40
    endloop
  endfacet
  facet normal 0.83147 0.55557 0
    outer loop
      vertex 3.50018 3.50018 0
      vertex 4.5732 1.89428 40
      vertex 4.5732 1.89428 0
    endloop
  endfacet
  facet normal 0.195091 -0.980785 0
    outer loop
      vertex 0 -4.95 0
      vertex 1.89428 -4.5732 40
      vertex 0 -4.95 40
    endloop
  endfacet
  facet normal 0.195091 -0.980785 0
    outer loop
      vertex 1.89428 -4.5732 40
      vertex 0 -4.95 0
      vertex 1.89428 -4.5732 0
    endloop
  endfacet
  facet normal 0 0 -1
    outer loop
      vertex 1.7 0 0
      vertex 4.95 0 0
      vertex 4.5732 -1.89428 0
    endloop
  endfacet
  facet normal 0 0 -1
    outer loop
      vertex 1.57059 -0.650561 0
      vertex 4.5732 -1.89428 0
      vertex 3.50018 -3.50018 0
    endloop
  endfacet
  facet normal 0 0 -1
    outer loop
      vertex 4.95 0 0
      vertex 1.7 0 0
      vertex 4.5732 1.89428 0
    endloop
  endfacet
  facet normal 0 0 -1
    outer loop
      vertex 1.20208 -1.20208 0
      vertex 3.50018 -3.50018 0
      vertex 1.89428 -4.5732 0
    endloop
  endfacet
  facet normal 0 0 -1
    outer loop
      vertex 1.57059 0.650561 0
      vertex 4.5732 1.89428 0
      vertex 1.7 0 0
    endloop
  endfacet
  facet normal -0 0 -1
    outer loop
      vertex 4.5732 1.89428 0
      vertex 1.57059 0.650561 0
      vertex 3.50018 3.50018 0
    endloop
  endfacet
  facet normal 0 0 -1
    outer loop
      vertex 4.5732 -1.89428 0
      vertex 1.57059 -0.650561 0
      vertex 1.7 0 0
    endloop
  endfacet
  facet normal 0 0 -1
    outer loop
      vertex 3.50018 -3.50018 0
      vertex 1.20208 -1.20208 0
      vertex 1.57059 -0.650561 0
    endloop
  endfacet
  facet normal 0 0 -1
    outer loop
      vertex 1.89428 -4.5732 0
      vertex 0.650561 -1.57059 0
      vertex 1.20208 -1.20208 0
    endloop
  endfacet
  facet normal 0 0 -1
    outer loop
      vertex 0 -4.95 0
      vertex 0.650561 -1.57059 0
      vertex 1.89428 -4.5732 0
    endloop
  endfacet
  facet normal 0 0 -1
    outer loop
      vertex 0 -4.95 0
      vertex 0 -1.7 0
      vertex 0.650561 -1.57059 0
    endloop
  endfacet
  facet normal 0 0 -1
    outer loop
      vertex 0 -4.95 0
      vertex -0.650561 -1.57059 0
      vertex 0 -1.7 0
    endloop
  endfacet
  facet normal 0 0 -1
    outer loop
      vertex -1.89428 -4.5732 0
      vertex -0.650561 -1.57059 0
      vertex 0 -4.95 0
    endloop
  endfacet
  facet normal -0 0 -1
    outer loop
      vertex -0.650561 -1.57059 0
      vertex -1.89428 -4.5732 0
      vertex -1.20208 -1.20208 0
    endloop
  endfacet
  facet normal -0 0 -1
    outer loop
      vertex -1.20208 -1.20208 0
      vertex -3.50018 -3.50018 0
      vertex -1.57059 -0.650561 0
    endloop
  endfacet
  facet normal 0 0 -1
    outer loop
      vertex -3.50018 -3.50018 0
      vertex -1.20208 -1.20208 0
      vertex -1.89428 -4.5732 0
    endloop
  endfacet
  facet normal 0 0 -1
    outer loop
      vertex 1.20208 1.20208 0
      vertex 3.50018 3.50018 0
      vertex 1.57059 0.650561 0
    endloop
  endfacet
  facet normal -0 0 -1
    outer loop
      vertex 3.50018 3.50018 0
      vertex 1.20208 1.20208 0
      vertex 1.89428 4.5732 0
    endloop
  endfacet
  facet normal 0 0 -1
    outer loop
      vertex 0.650561 1.57059 0
      vertex 1.89428 4.5732 0
      vertex 1.20208 1.20208 0
    endloop
  endfacet
  facet normal 0 0 -1
    outer loop
      vertex 0 1.7 0
      vertex 1.89428 4.5732 0
      vertex 0.650561 1.57059 0
    endloop
  endfacet
  facet normal 0 0 -1
    outer loop
      vertex 0 1.7 0
      vertex 0 4.95 0
      vertex 1.89428 4.5732 0
    endloop
  endfacet
  facet normal 0 0 -1
    outer loop
      vertex -0.650561 1.57059 0
      vertex 0 4.95 0
      vertex 0 1.7 0
    endloop
  endfacet
  facet normal 0 0 -1
    outer loop
      vertex -1.89428 4.5732 0
      vertex -0.650561 1.57059 0
      vertex -1.20208 1.20208 0
    endloop
  endfacet
  facet normal 0 0 -1
    outer loop
      vertex -3.50018 3.50018 0
      vertex -1.20208 1.20208 0
      vertex -1.57059 0.650561 0
    endloop
  endfacet
  facet normal 0 0 -1
    outer loop
      vertex -0.650561 1.57059 0
      vertex -1.89428 4.5732 0
      vertex 0 4.95 0
    endloop
  endfacet
  facet normal 0 0 -1
    outer loop
      vertex -4.5732 1.89428 0
      vertex -1.57059 0.650561 0
      vertex -1.7 0 0
    endloop
  endfacet
  facet normal 0 0 -1
    outer loop
      vertex -4.5732 -1.89428 0
      vertex -1.57059 -0.650561 0
      vertex -3.50018 -3.50018 0
    endloop
  endfacet
  facet normal -0 0 -1
    outer loop
      vertex -1.57059 -0.650561 0
      vertex -4.5732 -1.89428 0
      vertex -1.7 0 0
    endloop
  endfacet
  facet normal 0 0 -1
    outer loop
      vertex -1.20208 1.20208 0
      vertex -3.50018 3.50018 0
      vertex -1.89428 4.5732 0
    endloop
  endfacet
  facet normal 0 0 -1
    outer loop
      vertex -4.95 0 0
      vertex -1.7 0 0
      vertex -4.5732 -1.89428 0
    endloop
  endfacet
  facet normal 0 0 -1
    outer loop
      vertex -1.57059 0.650561 0
      vertex -4.5732 1.89428 0
      vertex -3.50018 3.50018 0
    endloop
  endfacet
  facet normal 0 0 -1
    outer loop
      vertex -1.7 0 0
      vertex -4.95 0 0
      vertex -4.5732 1.89428 0
    endloop
  endfacet
  facet normal 0.55557 0.83147 -0
    outer loop
      vertex 3.50018 3.50018 0
      vertex 1.89428 4.5732 40
      vertex 3.50018 3.50018 40
    endloop
  endfacet
  facet normal 0.55557 0.83147 0
    outer loop
      vertex 1.89428 4.5732 40
      vertex 3.50018 3.50018 0
      vertex 1.89428 4.5732 0
    endloop
  endfacet
  facet normal -0.55557 0.83147 0
    outer loop
      vertex -1.89428 4.5732 0
      vertex -3.50018 3.50018 40
      vertex -1.89428 4.5732 40
    endloop
  endfacet
  facet normal -0.55557 0.83147 0
    outer loop
      vertex -3.50018 3.50018 40
      vertex -1.89428 4.5732 0
      vertex -3.50018 3.50018 0
    endloop
  endfacet
  facet normal -0.83147 0.55557 0
    outer loop
      vertex -4.5732 1.89428 0
      vertex -3.50018 3.50018 40
      vertex -3.50018 3.50018 0
    endloop
  endfacet
  facet normal -0.83147 0.55557 0
    outer loop
      vertex -3.50018 3.50018 40
      vertex -4.5732 1.89428 0
      vertex -4.5732 1.89428 40
    endloop
  endfacet
  facet normal 0 0 1
    outer loop
      vertex 4.5732 1.89428 40
      vertex 4.5732 -1.89428 40
      vertex 4.95 0 40
    endloop
  endfacet
  facet normal 0 0 1
    outer loop
      vertex 3.50018 3.50018 40
      vertex 4.5732 -1.89428 40
      vertex 4.5732 1.89428 40
    endloop
  endfacet
  facet normal 0 0 1
    outer loop
      vertex 3.50018 3.50018 40
      vertex 3.50018 -3.50018 40
      vertex 4.5732 -1.89428 40
    endloop
  endfacet
  facet normal 0 0 1
    outer loop
      vertex 1.89428 4.5732 40
      vertex 3.50018 -3.50018 40
      vertex 3.50018 3.50018 40
    endloop
  endfacet
  facet normal 0 0 1
    outer loop
      vertex 1.89428 4.5732 40
      vertex 1.89428 -4.5732 40
      vertex 3.50018 -3.50018 40
    endloop
  endfacet
  facet normal 0 0 1
    outer loop
      vertex 0 4.95 40
      vertex 1.89428 -4.5732 40
      vertex 1.89428 4.5732 40
    endloop
  endfacet
  facet normal 0 0 1
    outer loop
      vertex 0 4.95 40
      vertex 0 -4.95 40
      vertex 1.89428 -4.5732 40
    endloop
  endfacet
  facet normal -0 0 1
    outer loop
      vertex -1.89428 4.5732 40
      vertex 0 -4.95 40
      vertex 0 4.95 40
    endloop
  endfacet
  facet normal 0 0 1
    outer loop
      vertex -1.89428 4.5732 40
      vertex -1.89428 -4.5732 40
      vertex 0 -4.95 40
    endloop
  endfacet
  facet normal -0 0 1
    outer loop
      vertex -3.50018 3.50018 40
      vertex -1.89428 -4.5732 40
      vertex -1.89428 4.5732 40
    endloop
  endfacet
  facet normal 0 0 1
    outer loop
      vertex -3.50018 3.50018 40
      vertex -3.50018 -3.50018 40
      vertex -1.89428 -4.5732 40
    endloop
  endfacet
  facet normal -0 0 1
    outer loop
      vertex -4.5732 1.89428 40
      vertex -3.50018 -3.50018 40
      vertex -3.50018 3.50018 40
    endloop
  endfacet
  facet normal 0 0 1
    outer loop
      vertex -4.5732 1.89428 40
      vertex -4.5732 -1.89428 40
      vertex -3.50018 -3.50018 40
    endloop
  endfacet
  facet normal 0 -0 1
    outer loop
      vertex -4.5732 -1.89428 40
      vertex -4.5732 1.89428 40
      vertex -4.95 0 40
    endloop
  endfacet
  facet normal -0.195091 0.980785 0
    outer loop
      vertex 0 4.95 0
      vertex -1.89428 4.5732 40
      vertex 0 4.95 40
    endloop
  endfacet
  facet normal -0.195091 0.980785 0
    outer loop
      vertex -1.89428 4.5732 40
      vertex 0 4.95 0
      vertex -1.89428 4.5732 0
    endloop
  endfacet
  facet normal -0.55557 -0.83147 0
    outer loop
      vertex -3.50018 -3.50018 0
      vertex -1.89428 -4.5732 40
      vertex -3.50018 -3.50018 40
    endloop
  endfacet
  facet normal -0.55557 -0.83147 -0
    outer loop
      vertex -1.89428 -4.5732 40
      vertex -3.50018 -3.50018 0
      vertex -1.89428 -4.5732 0
    endloop
  endfacet
  facet normal -0.980785 -0.195091 0
    outer loop
      vertex -4.5732 -1.89428 0
      vertex -4.95 0 40
      vertex -4.95 0 0
    endloop
  endfacet
  facet normal -0.980785 -0.195091 0
    outer loop
      vertex -4.95 0 40
      vertex -4.5732 -1.89428 0
      vertex -4.5732 -1.89428 40
    endloop
  endfacet
  facet normal 0.980785 -0.195091 0
    outer loop
      vertex 4.5732 -1.89428 40
      vertex 4.95 0 0
      vertex 4.95 0 40
    endloop
  endfacet
  facet normal 0.980785 -0.195091 0
    outer loop
      vertex 4.95 0 0
      vertex 4.5732 -1.89428 40
      vertex 4.5732 -1.89428 0
    endloop
  endfacet
  facet normal 0.55557 -0.83147 0
    outer loop
      vertex 1.89428 -4.5732 0
      vertex 3.50018 -3.50018 40
      vertex 1.89428 -4.5732 40
    endloop
  endfacet
  facet normal 0.55557 -0.83147 0
    outer loop
      vertex 3.50018 -3.50018 40
      vertex 1.89428 -4.5732 0
      vertex 3.50018 -3.50018 0
    endloop
  endfacet
  facet normal 0.83147 -0.55557 0
    outer loop
      vertex 3.50018 -3.50018 40
      vertex 4.5732 -1.89428 0
      vertex 4.5732 -1.89428 40
    endloop
  endfacet
  facet normal 0.83147 -0.55557 0
    outer loop
      vertex 4.5732 -1.89428 0
      vertex 3.50018 -3.50018 40
      vertex 3.50018 -3.50018 0
    endloop
  endfacet
  facet normal -0.195091 -0.980785 0
    outer loop
      vertex -1.89428 -4.5732 0
      vertex 0 -4.95 40
      vertex -1.89428 -4.5732 40
    endloop
  endfacet
  facet normal -0.195091 -0.980785 -0
    outer loop
      vertex 0 -4.95 40
      vertex -1.89428 -4.5732 0
      vertex 0 -4.95 0
    endloop
  endfacet
  facet normal -0.83147 -0.55557 0
    outer loop
      vertex -3.50018 -3.50018 0
      vertex -4.5732 -1.89428 40
      vertex -4.5732 -1.89428 0
    endloop
  endfacet
  facet normal -0.83147 -0.55557 0
    outer loop
      vertex -4.5732 -1.89428 40
      vertex -3.50018 -3.50018 0
      vertex -3.50018 -3.50018 40
    endloop
  endfacet
  facet normal 0.980785 0.195091 0
    outer loop
      vertex 1.7 0 0
      vertex 1.57059 0.650561 -40
      vertex 1.57059 0.650561 0
    endloop
  endfacet
  facet normal 0.980785 0.195091 0
    outer loop
      vertex 1.57059 0.650561 -40
      vertex 1.7 0 0
      vertex 1.7 0 -40
    endloop
  endfacet
  facet normal -0.980785 0.195091 0
    outer loop
      vertex -1.7 0 -40
      vertex -1.57059 0.650561 0
      vertex -1.57059 0.650561 -40
    endloop
  endfacet
  facet normal -0.980785 0.195091 0
    outer loop
      vertex -1.57059 0.650561 0
      vertex -1.7 0 -40
      vertex -1.7 0 0
    endloop
  endfacet
  facet normal 0.195091 0.980785 -0
    outer loop
      vertex 0.650561 1.57059 -40
      vertex 0 1.7 0
      vertex 0.650561 1.57059 0
    endloop
  endfacet
  facet normal 0.195091 0.980785 0
    outer loop
      vertex 0 1.7 0
      vertex 0.650561 1.57059 -40
      vertex 0 1.7 -40
    endloop
  endfacet
  facet normal -0.195091 -0.980785 0
    outer loop
      vertex -0.650561 -1.57059 -40
      vertex 0 -1.7 0
      vertex -0.650561 -1.57059 0
    endloop
  endfacet
  facet normal -0.195091 -0.980785 -0
    outer loop
      vertex 0 -1.7 0
      vertex -0.650561 -1.57059 -40
      vertex 0 -1.7 -40
    endloop
  endfacet
  facet normal 0 0 -1
    outer loop
      vertex 1.57059 -0.650561 -40
      vertex 1.57059 0.650561 -40
      vertex 1.7 0 -40
    endloop
  endfacet
  facet normal 0 0 -1
    outer loop
      vertex 1.20208 -1.20208 -40
      vertex 1.57059 0.650561 -40
      vertex 1.57059 -0.650561 -40
    endloop
  endfacet
  facet normal 0 0 -1
    outer loop
      vertex 1.20208 -1.20208 -40
      vertex 1.20208 1.20208 -40
      vertex 1.57059 0.650561 -40
    endloop
  endfacet
  facet normal 0 0 -1
    outer loop
      vertex 0.650561 -1.57059 -40
      vertex 1.20208 1.20208 -40
      vertex 1.20208 -1.20208 -40
    endloop
  endfacet
  facet normal 0 0 -1
    outer loop
      vertex 0.650561 -1.57059 -40
      vertex 0.650561 1.57059 -40
      vertex 1.20208 1.20208 -40
    endloop
  endfacet
  facet normal 0 0 -1
    outer loop
      vertex 0 -1.7 -40
      vertex 0.650561 1.57059 -40
      vertex 0.650561 -1.57059 -40
    endloop
  endfacet
  facet normal 0 0 -1
    outer loop
      vertex 0 -1.7 -40
      vertex 0 1.7 -40
      vertex 0.650561 1.57059 -40
    endloop
  endfacet
  facet normal 0 0 -1
    outer loop
      vertex -0.650561 -1.57059 -40
      vertex 0 1.7 -40
      vertex 0 -1.7 -40
    endloop
  endfacet
  facet normal 0 0 -1
    outer loop
      vertex -0.650561 -1.57059 -40
      vertex -0.650561 1.57059 -40
      vertex 0 1.7 -40
    endloop
  endfacet
  facet normal 0 0 -1
    outer loop
      vertex -1.20208 -1.20208 -40
      vertex -0.650561 1.57059 -40
      vertex -0.650561 -1.57059 -40
    endloop
  endfacet
  facet normal 0 0 -1
    outer loop
      vertex -1.20208 -1.20208 -40
      vertex -1.20208 1.20208 -40
      vertex -0.650561 1.57059 -40
    endloop
  endfacet
  facet normal 0 0 -1
    outer loop
      vertex -1.57059 -0.650561 -40
      vertex -1.20208 1.20208 -40
      vertex -1.20208 -1.20208 -40
    endloop
  endfacet
  facet normal 0 0 -1
    outer loop
      vertex -1.57059 -0.650561 -40
      vertex -1.57059 0.650561 -40
      vertex -1.20208 1.20208 -40
    endloop
  endfacet
  facet normal 0 -0 -1
    outer loop
      vertex -1.57059 0.650561 -40
      vertex -1.57059 -0.650561 -40
      vertex -1.7 0 -40
    endloop
  endfacet
  facet normal 0.555571 0.831469 -0
    outer loop
      vertex 1.20208 1.20208 -40
      vertex 0.650561 1.57059 0
      vertex 1.20208 1.20208 0
    endloop
  endfacet
  facet normal 0.555571 0.831469 0
    outer loop
      vertex 0.650561 1.57059 0
      vertex 1.20208 1.20208 -40
      vertex 0.650561 1.57059 -40
    endloop
  endfacet
  facet normal 0.831469 0.555571 0
    outer loop
      vertex 1.57059 0.650561 0
      vertex 1.20208 1.20208 -40
      vertex 1.20208 1.20208 0
    endloop
  endfacet
  facet normal 0.831469 0.555571 0
    outer loop
      vertex 1.20208 1.20208 -40
      vertex 1.57059 0.650561 0
      vertex 1.57059 0.650561 -40
    endloop
  endfacet
  facet normal -0.555571 0.831469 0
    outer loop
      vertex -0.650561 1.57059 -40
      vertex -1.20208 1.20208 0
      vertex -0.650561 1.57059 0
    endloop
  endfacet
  facet normal -0.555571 0.831469 0
    outer loop
      vertex -1.20208 1.20208 0
      vertex -0.650561 1.57059 -40
      vertex -1.20208 1.20208 -40
    endloop
  endfacet
  facet normal -0.831469 0.555571 0
    outer loop
      vertex -1.57059 0.650561 -40
      vertex -1.20208 1.20208 0
      vertex -1.20208 1.20208 -40
    endloop
  endfacet
  facet normal -0.831469 0.555571 0
    outer loop
      vertex -1.20208 1.20208 0
      vertex -1.57059 0.650561 -40
      vertex -1.57059 0.650561 0
    endloop
  endfacet
  facet normal -0.195091 0.980785 0
    outer loop
      vertex 0 1.7 -40
      vertex -0.650561 1.57059 0
      vertex 0 1.7 0
    endloop
  endfacet
  facet normal -0.195091 0.980785 0
    outer loop
      vertex -0.650561 1.57059 0
      vertex 0 1.7 -40
      vertex -0.650561 1.57059 -40
    endloop
  endfacet
  facet normal 0.980785 -0.195091 0
    outer loop
      vertex 1.57059 -0.650561 0
      vertex 1.7 0 -40
      vertex 1.7 0 0
    endloop
  endfacet
  facet normal 0.980785 -0.195091 0
    outer loop
      vertex 1.7 0 -40
      vertex 1.57059 -0.650561 0
      vertex 1.57059 -0.650561 -40
    endloop
  endfacet
  facet normal -0.555571 -0.831469 0
    outer loop
      vertex -1.20208 -1.20208 -40
      vertex -0.650561 -1.57059 0
      vertex -1.20208 -1.20208 0
    endloop
  endfacet
  facet normal -0.555571 -0.831469 -0
    outer loop
      vertex -0.650561 -1.57059 0
      vertex -1.20208 -1.20208 -40
      vertex -0.650561 -1.57059 -40
    endloop
  endfacet
  facet normal -0.980785 -0.195091 0
    outer loop
      vertex -1.57059 -0.650561 -40
      vertex -1.7 0 0
      vertex -1.7 0 -40
    endloop
  endfacet
  facet normal -0.980785 -0.195091 0
    outer loop
      vertex -1.7 0 0
      vertex -1.57059 -0.650561 -40
      vertex -1.57059 -0.650561 0
    endloop
  endfacet
  facet normal 0.195091 -0.980785 0
    outer loop
      vertex 0 -1.7 -40
      vertex 0.650561 -1.57059 0
      vertex 0 -1.7 0
    endloop
  endfacet
  facet normal 0.195091 -0.980785 0
    outer loop
      vertex 0.650561 -1.57059 0
      vertex 0 -1.7 -40
      vertex 0.650561 -1.57059 -40
    endloop
  endfacet
  facet normal -0.831469 -0.555571 0
    outer loop
      vertex -1.20208 -1.20208 -40
      vertex -1.57059 -0.650561 0
      vertex -1.57059 -0.650561 -40
    endloop
  endfacet
  facet normal -0.831469 -0.555571 0
    outer loop
      vertex -1.57059 -0.650561 0
      vertex -1.20208 -1.20208 -40
      vertex -1.20208 -1.20208 0
    endloop
  endfacet
  facet normal 0.555571 -0.831469 0
    outer loop
      vertex 0.650561 -1.57059 -40
      vertex 1.20208 -1.20208 0
      vertex 0.650561 -1.57059 0
    endloop
  endfacet
  facet normal 0.555571 -0.831469 0
    outer loop
      vertex 1.20208 -1.20208 0
      vertex 0.650561 -1.57059 -40
      vertex 1.20208 -1.20208 -40
    endloop
  endfacet
  facet normal 0.831469 -0.555571 0
    outer loop
      vertex 1.20208 -1.20208 0
      vertex 1.57059 -0.650561 -40
      vertex 1.57059 -0.650561 0
    endloop
  endfacet
  facet normal 0.831469 -0.555571 0
    outer loop
      vertex 1.57059 -0.650561 -40
      vertex 1.20208 -1.20208 0
      vertex 1.20208 -1.20208 -40
    endloop
  endfacet
endsolid OpenSCAD_Model
