solid OpenSCAD_Model
  facet normal -1 0 0
    outer loop
      vertex 1.5 13.24 -36.54
      vertex 1.5 8.275 -36.44
      vertex 1.5 13.24 -25.94
    endloop
  endfacet
  facet normal -1 0 0
    outer loop
      vertex 1.5 3.31 -36.54
      vertex 1.5 8.275 -36.44
      vertex 1.5 13.24 -36.54
    endloop
  endfacet
  facet normal -1 -0 0
    outer loop
      vertex 1.5 8.275 -36.44
      vertex 1.5 3.31 -36.54
      vertex 1.5 3.31 -36.44
    endloop
  endfacet
  facet normal -1 -0 0
    outer loop
      vertex 1.5 13.24 -25.94
      vertex 1.5 8.275 -36.44
      vertex 1.5 8.275 -25.94
    endloop
  endfacet
  facet normal 0 0 -1
    outer loop
      vertex 1.5 8.275 -25.94
      vertex 0 8.275 -25.94
      vertex 1.5 13.24 -25.94
    endloop
  endfacet
  facet normal 0 0 -1
    outer loop
      vertex 28 0 -25.94
      vertex 26.5 3.31 -25.94
      vertex 28 16.55 -25.94
    endloop
  endfacet
  facet normal 0 0 -1
    outer loop
      vertex 28 0 -25.94
      vertex 22.5 3.31 -25.94
      vertex 26.5 3.31 -25.94
    endloop
  endfacet
  facet normal 0 0 -1
    outer loop
      vertex 22.5 3.31 -25.94
      vertex 5.5 3.31 -25.94
      vertex 22.5 13.24 -25.94
    endloop
  endfacet
  facet normal 0 0 -1
    outer loop
      vertex 3 1.5 -25.94
      vertex 22.5 3.31 -25.94
      vertex 28 0 -25.94
    endloop
  endfacet
  facet normal -0 0 -1
    outer loop
      vertex 22.5 3.31 -25.94
      vertex 3 1.5 -25.94
      vertex 5.5 3.31 -25.94
    endloop
  endfacet
  facet normal 0 0 -1
    outer loop
      vertex 0 0 -25.94
      vertex 3 1.5 -25.94
      vertex 28 0 -25.94
    endloop
  endfacet
  facet normal -0 0 -1
    outer loop
      vertex 3 1.5 -25.94
      vertex 0 0 -25.94
      vertex 0 1.5 -25.94
    endloop
  endfacet
  facet normal 0 0 -1
    outer loop
      vertex 26.5 13.24 -25.94
      vertex 28 16.55 -25.94
      vertex 26.5 3.31 -25.94
    endloop
  endfacet
  facet normal 0 0 -1
    outer loop
      vertex 22.5 13.24 -25.94
      vertex 28 16.55 -25.94
      vertex 26.5 13.24 -25.94
    endloop
  endfacet
  facet normal 0 0 -1
    outer loop
      vertex 5.5 13.24 -25.94
      vertex 22.5 13.24 -25.94
      vertex 5.5 3.31 -25.94
    endloop
  endfacet
  facet normal 0 0 -1
    outer loop
      vertex 22.5 13.24 -25.94
      vertex 5.5 13.24 -25.94
      vertex 28 16.55 -25.94
    endloop
  endfacet
  facet normal 0 0 -1
    outer loop
      vertex 0 16.55 -25.94
      vertex 5.5 13.24 -25.94
      vertex 1.5 13.24 -25.94
    endloop
  endfacet
  facet normal 0 0 -1
    outer loop
      vertex 5.5 13.24 -25.94
      vertex 0 16.55 -25.94
      vertex 28 16.55 -25.94
    endloop
  endfacet
  facet normal 0 0 -1
    outer loop
      vertex 0 16.55 -25.94
      vertex 1.5 13.24 -25.94
      vertex 0 8.275 -25.94
    endloop
  endfacet
  facet normal -0 0 -1
    outer loop
      vertex 5.5 3.31 -25.94
      vertex 3 1.5 -25.94
      vertex 3 3.31 -25.94
    endloop
  endfacet
  facet normal 1 -0 0
    outer loop
      vertex 5.5 3.31 -25.94
      vertex 5.5 13.24 -36.54
      vertex 5.5 13.24 -25.94
    endloop
  endfacet
  facet normal 1 0 0
    outer loop
      vertex 5.5 13.24 -36.54
      vertex 5.5 3.31 -25.94
      vertex 5.5 3.31 -36.54
    endloop
  endfacet
  facet normal 0 0 -1
    outer loop
      vertex 1.5 3.31 -36.54
      vertex 5.5 13.24 -36.54
      vertex 5.5 3.31 -36.54
    endloop
  endfacet
  facet normal -0 0 -1
    outer loop
      vertex 5.5 13.24 -36.54
      vertex 1.5 3.31 -36.54
      vertex 1.5 13.24 -36.54
    endloop
  endfacet
  facet normal 0 -1 0
    outer loop
      vertex 1.5 3.31 -36.44
      vertex 1.5 3.31 -36.54
      vertex 3 3.31 -36.44
    endloop
  endfacet
  facet normal 0 -1 0
    outer loop
      vertex 3 3.31 -36.44
      vertex 5.5 3.31 -25.94
      vertex 3 3.31 -25.94
    endloop
  endfacet
  facet normal 0 -1 0
    outer loop
      vertex 3 3.31 -36.44
      vertex 5.5 3.31 -36.54
      vertex 5.5 3.31 -25.94
    endloop
  endfacet
  facet normal 0 -1 0
    outer loop
      vertex 5.5 3.31 -36.54
      vertex 3 3.31 -36.44
      vertex 1.5 3.31 -36.54
    endloop
  endfacet
  facet normal 0 1 -0
    outer loop
      vertex 5.5 13.24 -36.54
      vertex 1.5 13.24 -25.94
      vertex 5.5 13.24 -25.94
    endloop
  endfacet
  facet normal 0 1 0
    outer loop
      vertex 1.5 13.24 -25.94
      vertex 5.5 13.24 -36.54
      vertex 1.5 13.24 -36.54
    endloop
  endfacet
  facet normal -1 0 0
    outer loop
      vertex 22.5 3.31 -36.54
      vertex 22.5 13.24 -25.94
      vertex 22.5 13.24 -36.54
    endloop
  endfacet
  facet normal -1 -0 0
    outer loop
      vertex 22.5 13.24 -25.94
      vertex 22.5 3.31 -36.54
      vertex 22.5 3.31 -25.94
    endloop
  endfacet
  facet normal 1 -0 0
    outer loop
      vertex 26.5 3.31 -25.94
      vertex 26.5 13.24 -36.54
      vertex 26.5 13.24 -25.94
    endloop
  endfacet
  facet normal 1 0 0
    outer loop
      vertex 26.5 13.24 -36.54
      vertex 26.5 3.31 -25.94
      vertex 26.5 3.31 -36.54
    endloop
  endfacet
  facet normal 0 0 -1
    outer loop
      vertex 22.5 3.31 -36.54
      vertex 26.5 13.24 -36.54
      vertex 26.5 3.31 -36.54
    endloop
  endfacet
  facet normal -0 0 -1
    outer loop
      vertex 26.5 13.24 -36.54
      vertex 22.5 3.31 -36.54
      vertex 22.5 13.24 -36.54
    endloop
  endfacet
  facet normal 0 -1 0
    outer loop
      vertex 22.5 3.31 -36.54
      vertex 26.5 3.31 -25.94
      vertex 22.5 3.31 -25.94
    endloop
  endfacet
  facet normal 0 -1 -0
    outer loop
      vertex 26.5 3.31 -25.94
      vertex 22.5 3.31 -36.54
      vertex 26.5 3.31 -36.54
    endloop
  endfacet
  facet normal 0 1 -0
    outer loop
      vertex 26.5 13.24 -36.54
      vertex 22.5 13.24 -25.94
      vertex 26.5 13.24 -25.94
    endloop
  endfacet
  facet normal 0 1 0
    outer loop
      vertex 22.5 13.24 -25.94
      vertex 26.5 13.24 -36.54
      vertex 22.5 13.24 -36.54
    endloop
  endfacet
  facet normal -1 0 0
    outer loop
      vertex -9 1.5 -36.44
      vertex -9 8.275 -9.94
      vertex -9 8.275 -36.44
    endloop
  endfacet
  facet normal -1 -0 0
    outer loop
      vertex -9 8.275 -9.94
      vertex -9 1.5 -36.44
      vertex -9 1.5 -9.94
    endloop
  endfacet
  facet normal -0 0 1
    outer loop
      vertex -9 8.275 -9.94
      vertex 0 1.5 -9.94
      vertex 0 8.275 -9.94
    endloop
  endfacet
  facet normal 0 0 1
    outer loop
      vertex 0 1.5 -9.94
      vertex -9 8.275 -9.94
      vertex -9 1.5 -9.94
    endloop
  endfacet
  facet normal 1 -0 0
    outer loop
      vertex 3 1.5 -25.94
      vertex 3 3.31 -36.44
      vertex 3 3.31 -25.94
    endloop
  endfacet
  facet normal 1 0 0
    outer loop
      vertex 3 3.31 -36.44
      vertex 3 1.5 -25.94
      vertex 3 1.5 -36.44
    endloop
  endfacet
  facet normal 0 0 -1
    outer loop
      vertex 3 1.5 -36.44
      vertex 1.5 3.31 -36.44
      vertex 3 3.31 -36.44
    endloop
  endfacet
  facet normal 0 0 -1
    outer loop
      vertex -9 1.5 -36.44
      vertex 1.5 3.31 -36.44
      vertex 3 1.5 -36.44
    endloop
  endfacet
  facet normal 0 0 -1
    outer loop
      vertex -9 8.275 -36.44
      vertex 1.5 3.31 -36.44
      vertex -9 1.5 -36.44
    endloop
  endfacet
  facet normal 0 0 -1
    outer loop
      vertex 1.5 3.31 -36.44
      vertex -9 8.275 -36.44
      vertex 1.5 8.275 -36.44
    endloop
  endfacet
  facet normal 0 -1 0
    outer loop
      vertex -9 1.5 -9.94
      vertex 0 1.5 -25.94
      vertex 0 1.5 -9.94
    endloop
  endfacet
  facet normal 0 -1 0
    outer loop
      vertex -9 1.5 -36.44
      vertex 0 1.5 -25.94
      vertex -9 1.5 -9.94
    endloop
  endfacet
  facet normal 0 -1 0
    outer loop
      vertex 3 1.5 -36.44
      vertex 0 1.5 -25.94
      vertex -9 1.5 -36.44
    endloop
  endfacet
  facet normal 0 -1 0
    outer loop
      vertex 0 1.5 -25.94
      vertex 3 1.5 -36.44
      vertex 3 1.5 -25.94
    endloop
  endfacet
  facet normal 0 1 0
    outer loop
      vertex 1.5 8.275 -25.94
      vertex 1.5 8.275 -36.44
      vertex 0 8.275 -25.94
    endloop
  endfacet
  facet normal 0 1 -0
    outer loop
      vertex 0 8.275 -25.94
      vertex -9 8.275 -9.94
      vertex 0 8.275 -9.94
    endloop
  endfacet
  facet normal 0 1 0
    outer loop
      vertex -9 8.275 -36.44
      vertex 0 8.275 -25.94
      vertex 1.5 8.275 -36.44
    endloop
  endfacet
  facet normal 0 1 0
    outer loop
      vertex 0 8.275 -25.94
      vertex -9 8.275 -36.44
      vertex -9 8.275 -9.94
    endloop
  endfacet
  facet normal 0.980785 0.19509 0
    outer loop
      vertex 19.87 8.275 -3.82
      vertex 19.4232 10.5214 -6.82
      vertex 19.4232 10.5214 -3.82
    endloop
  endfacet
  facet normal 0.980785 0.19509 0
    outer loop
      vertex 19.4232 10.5214 -6.82
      vertex 19.87 8.275 -3.82
      vertex 19.87 8.275 -6.82
    endloop
  endfacet
  facet normal -0.19509 0.980785 0
    outer loop
      vertex 14 14.145 -6.82
      vertex 11.7536 13.6982 -3.82
      vertex 14 14.145 -3.82
    endloop
  endfacet
  facet normal -0.19509 0.980785 0
    outer loop
      vertex 11.7536 13.6982 -3.82
      vertex 14 14.145 -6.82
      vertex 11.7536 13.6982 -6.82
    endloop
  endfacet
  facet normal 0.55557 -0.83147 0
    outer loop
      vertex 16.2464 2.85183 -6.82
      vertex 18.1507 4.12428 -3.82
      vertex 16.2464 2.85183 -3.82
    endloop
  endfacet
  facet normal 0.55557 -0.83147 0
    outer loop
      vertex 18.1507 4.12428 -3.82
      vertex 16.2464 2.85183 -6.82
      vertex 18.1507 4.12428 -6.82
    endloop
  endfacet
  facet normal 0.55557 0.83147 -0
    outer loop
      vertex 18.1507 12.4257 -6.82
      vertex 16.2464 13.6982 -3.82
      vertex 18.1507 12.4257 -3.82
    endloop
  endfacet
  facet normal 0.55557 0.83147 0
    outer loop
      vertex 16.2464 13.6982 -3.82
      vertex 18.1507 12.4257 -6.82
      vertex 16.2464 13.6982 -6.82
    endloop
  endfacet
  facet normal 0.83147 0.55557 0
    outer loop
      vertex 19.4232 10.5214 -3.82
      vertex 18.1507 12.4257 -6.82
      vertex 18.1507 12.4257 -3.82
    endloop
  endfacet
  facet normal 0.83147 0.55557 0
    outer loop
      vertex 18.1507 12.4257 -6.82
      vertex 19.4232 10.5214 -3.82
      vertex 19.4232 10.5214 -6.82
    endloop
  endfacet
  facet normal 0.19509 0.980785 -0
    outer loop
      vertex 16.2464 13.6982 -6.82
      vertex 14 14.145 -3.82
      vertex 16.2464 13.6982 -3.82
    endloop
  endfacet
  facet normal 0.19509 0.980785 0
    outer loop
      vertex 14 14.145 -3.82
      vertex 16.2464 13.6982 -6.82
      vertex 14 14.145 -6.82
    endloop
  endfacet
  facet normal -0.83147 0.55557 0
    outer loop
      vertex 8.57683 10.5214 -6.82
      vertex 9.84928 12.4257 -3.82
      vertex 9.84928 12.4257 -6.82
    endloop
  endfacet
  facet normal -0.83147 0.55557 0
    outer loop
      vertex 9.84928 12.4257 -3.82
      vertex 8.57683 10.5214 -6.82
      vertex 8.57683 10.5214 -3.82
    endloop
  endfacet
  facet normal 0 0 1
    outer loop
      vertex 28 16.55 -6.82
      vertex 19.87 8.275 -6.82
      vertex 28 0 -6.82
    endloop
  endfacet
  facet normal 0 0 1
    outer loop
      vertex 28 16.55 -6.82
      vertex 19.4232 10.5214 -6.82
      vertex 19.87 8.275 -6.82
    endloop
  endfacet
  facet normal 0 0 1
    outer loop
      vertex 28 16.55 -6.82
      vertex 18.1507 12.4257 -6.82
      vertex 19.4232 10.5214 -6.82
    endloop
  endfacet
  facet normal 0 0 1
    outer loop
      vertex 28 16.55 -6.82
      vertex 16.2464 13.6982 -6.82
      vertex 18.1507 12.4257 -6.82
    endloop
  endfacet
  facet normal 0 0 1
    outer loop
      vertex 28 16.55 -6.82
      vertex 14 14.145 -6.82
      vertex 16.2464 13.6982 -6.82
    endloop
  endfacet
  facet normal 0 0 1
    outer loop
      vertex 8.57683 10.5214 -6.82
      vertex 0 16.55 -6.82
      vertex 8.13 8.275 -6.82
    endloop
  endfacet
  facet normal 0 0 1
    outer loop
      vertex 9.84928 12.4257 -6.82
      vertex 0 16.55 -6.82
      vertex 8.57683 10.5214 -6.82
    endloop
  endfacet
  facet normal 0 0 1
    outer loop
      vertex 11.7536 13.6982 -6.82
      vertex 0 16.55 -6.82
      vertex 9.84928 12.4257 -6.82
    endloop
  endfacet
  facet normal 0 0 1
    outer loop
      vertex 14 14.145 -6.82
      vertex 0 16.55 -6.82
      vertex 11.7536 13.6982 -6.82
    endloop
  endfacet
  facet normal -0 0 1
    outer loop
      vertex 0 16.55 -6.82
      vertex 14 14.145 -6.82
      vertex 28 16.55 -6.82
    endloop
  endfacet
  facet normal -0 0 1
    outer loop
      vertex 19.4232 6.02865 -6.82
      vertex 28 0 -6.82
      vertex 19.87 8.275 -6.82
    endloop
  endfacet
  facet normal -0 0 1
    outer loop
      vertex 18.1507 4.12428 -6.82
      vertex 28 0 -6.82
      vertex 19.4232 6.02865 -6.82
    endloop
  endfacet
  facet normal -0 0 1
    outer loop
      vertex 16.2464 2.85183 -6.82
      vertex 28 0 -6.82
      vertex 18.1507 4.12428 -6.82
    endloop
  endfacet
  facet normal -0 0 1
    outer loop
      vertex 14 2.405 -6.82
      vertex 28 0 -6.82
      vertex 16.2464 2.85183 -6.82
    endloop
  endfacet
  facet normal 0 0 1
    outer loop
      vertex 0 0 -6.82
      vertex 8.13 8.275 -6.82
      vertex 0 16.55 -6.82
    endloop
  endfacet
  facet normal 0 0 1
    outer loop
      vertex 8.13 8.275 -6.82
      vertex 0 0 -6.82
      vertex 8.57683 6.02865 -6.82
    endloop
  endfacet
  facet normal 0 0 1
    outer loop
      vertex 14 2.405 -6.82
      vertex 0 0 -6.82
      vertex 28 0 -6.82
    endloop
  endfacet
  facet normal 0 0 1
    outer loop
      vertex 11.7536 2.85183 -6.82
      vertex 0 0 -6.82
      vertex 14 2.405 -6.82
    endloop
  endfacet
  facet normal 0 0 1
    outer loop
      vertex 9.84928 4.12428 -6.82
      vertex 0 0 -6.82
      vertex 11.7536 2.85183 -6.82
    endloop
  endfacet
  facet normal 0 0 1
    outer loop
      vertex 8.57683 6.02865 -6.82
      vertex 0 0 -6.82
      vertex 9.84928 4.12428 -6.82
    endloop
  endfacet
  facet normal -0.980785 0.195091 0
    outer loop
      vertex 8.13 8.275 -6.82
      vertex 8.57683 10.5214 -3.82
      vertex 8.57683 10.5214 -6.82
    endloop
  endfacet
  facet normal -0.980785 0.195091 0
    outer loop
      vertex 8.57683 10.5214 -3.82
      vertex 8.13 8.275 -6.82
      vertex 8.13 8.275 -3.82
    endloop
  endfacet
  facet normal -0.55557 0.83147 0
    outer loop
      vertex 11.7536 13.6982 -6.82
      vertex 9.84928 12.4257 -3.82
      vertex 11.7536 13.6982 -3.82
    endloop
  endfacet
  facet normal -0.55557 0.83147 0
    outer loop
      vertex 9.84928 12.4257 -3.82
      vertex 11.7536 13.6982 -6.82
      vertex 9.84928 12.4257 -6.82
    endloop
  endfacet
  facet normal -0.19509 -0.980785 0
    outer loop
      vertex 11.7536 2.85183 -6.82
      vertex 14 2.405 -3.82
      vertex 11.7536 2.85183 -3.82
    endloop
  endfacet
  facet normal -0.19509 -0.980785 -0
    outer loop
      vertex 14 2.405 -3.82
      vertex 11.7536 2.85183 -6.82
      vertex 14 2.405 -6.82
    endloop
  endfacet
  facet normal -0.83147 -0.55557 0
    outer loop
      vertex 9.84928 4.12428 -6.82
      vertex 8.57683 6.02865 -3.82
      vertex 8.57683 6.02865 -6.82
    endloop
  endfacet
  facet normal -0.83147 -0.55557 0
    outer loop
      vertex 8.57683 6.02865 -3.82
      vertex 9.84928 4.12428 -6.82
      vertex 9.84928 4.12428 -3.82
    endloop
  endfacet
  facet normal -0.980785 -0.195091 0
    outer loop
      vertex 8.57683 6.02865 -6.82
      vertex 8.13 8.275 -3.82
      vertex 8.13 8.275 -6.82
    endloop
  endfacet
  facet normal -0.980785 -0.195091 0
    outer loop
      vertex 8.13 8.275 -3.82
      vertex 8.57683 6.02865 -6.82
      vertex 8.57683 6.02865 -3.82
    endloop
  endfacet
  facet normal 0.83147 -0.55557 0
    outer loop
      vertex 18.1507 4.12428 -3.82
      vertex 19.4232 6.02865 -6.82
      vertex 19.4232 6.02865 -3.82
    endloop
  endfacet
  facet normal 0.83147 -0.55557 0
    outer loop
      vertex 19.4232 6.02865 -6.82
      vertex 18.1507 4.12428 -3.82
      vertex 18.1507 4.12428 -6.82
    endloop
  endfacet
  facet normal 0.980785 -0.19509 0
    outer loop
      vertex 19.4232 6.02865 -3.82
      vertex 19.87 8.275 -6.82
      vertex 19.87 8.275 -3.82
    endloop
  endfacet
  facet normal 0.980785 -0.19509 0
    outer loop
      vertex 19.87 8.275 -6.82
      vertex 19.4232 6.02865 -3.82
      vertex 19.4232 6.02865 -6.82
    endloop
  endfacet
  facet normal 0.19509 -0.980785 0
    outer loop
      vertex 14 2.405 -6.82
      vertex 16.2464 2.85183 -3.82
      vertex 14 2.405 -3.82
    endloop
  endfacet
  facet normal 0.19509 -0.980785 0
    outer loop
      vertex 16.2464 2.85183 -3.82
      vertex 14 2.405 -6.82
      vertex 16.2464 2.85183 -6.82
    endloop
  endfacet
  facet normal -0.55557 -0.83147 0
    outer loop
      vertex 9.84928 4.12428 -6.82
      vertex 11.7536 2.85183 -3.82
      vertex 9.84928 4.12428 -3.82
    endloop
  endfacet
  facet normal -0.55557 -0.83147 -0
    outer loop
      vertex 11.7536 2.85183 -3.82
      vertex 9.84928 4.12428 -6.82
      vertex 11.7536 2.85183 -6.82
    endloop
  endfacet
  facet normal 0.980785 0.19509 0
    outer loop
      vertex 22.275 8.275 -0.82
      vertex 21.6451 11.4417 -3.82
      vertex 21.6451 11.4417 -0.82
    endloop
  endfacet
  facet normal 0.980785 0.19509 0
    outer loop
      vertex 21.6451 11.4417 -3.82
      vertex 22.275 8.275 -0.82
      vertex 22.275 8.275 -3.82
    endloop
  endfacet
  facet normal -0.980785 0.19509 0
    outer loop
      vertex 5.725 8.275 -3.82
      vertex 6.3549 11.4417 -0.82
      vertex 6.3549 11.4417 -3.82
    endloop
  endfacet
  facet normal -0.980785 0.19509 0
    outer loop
      vertex 6.3549 11.4417 -0.82
      vertex 5.725 8.275 -3.82
      vertex 5.725 8.275 -0.82
    endloop
  endfacet
  facet normal -0.19509 0.980785 0
    outer loop
      vertex 14 16.55 -3.82
      vertex 10.8333 15.9201 -0.82
      vertex 14 16.55 -0.82
    endloop
  endfacet
  facet normal -0.19509 0.980785 0
    outer loop
      vertex 10.8333 15.9201 -0.82
      vertex 14 16.55 -3.82
      vertex 10.8333 15.9201 -3.82
    endloop
  endfacet
  facet normal -0.55557 0.83147 0
    outer loop
      vertex 10.8333 15.9201 -3.82
      vertex 8.14869 14.1263 -0.82
      vertex 10.8333 15.9201 -0.82
    endloop
  endfacet
  facet normal -0.55557 0.83147 0
    outer loop
      vertex 8.14869 14.1263 -0.82
      vertex 10.8333 15.9201 -3.82
      vertex 8.14869 14.1263 -3.82
    endloop
  endfacet
  facet normal 0.19509 -0.980785 0
    outer loop
      vertex 14 0 -3.82
      vertex 17.1667 0.629896 -0.82
      vertex 14 0 -0.82
    endloop
  endfacet
  facet normal 0.19509 -0.980785 0
    outer loop
      vertex 17.1667 0.629896 -0.82
      vertex 14 0 -3.82
      vertex 17.1667 0.629896 -3.82
    endloop
  endfacet
  facet normal 0.555571 0.831469 -0
    outer loop
      vertex 19.8513 14.1263 -3.82
      vertex 17.1667 15.9201 -0.82
      vertex 19.8513 14.1263 -0.82
    endloop
  endfacet
  facet normal 0.555571 0.831469 0
    outer loop
      vertex 17.1667 15.9201 -0.82
      vertex 19.8513 14.1263 -3.82
      vertex 17.1667 15.9201 -3.82
    endloop
  endfacet
  facet normal 0.831469 0.555571 0
    outer loop
      vertex 21.6451 11.4417 -0.82
      vertex 19.8513 14.1263 -3.82
      vertex 19.8513 14.1263 -0.82
    endloop
  endfacet
  facet normal 0.831469 0.555571 0
    outer loop
      vertex 19.8513 14.1263 -3.82
      vertex 21.6451 11.4417 -0.82
      vertex 21.6451 11.4417 -3.82
    endloop
  endfacet
  facet normal 0.19509 0.980785 -0
    outer loop
      vertex 17.1667 15.9201 -3.82
      vertex 14 16.55 -0.82
      vertex 17.1667 15.9201 -0.82
    endloop
  endfacet
  facet normal 0.19509 0.980785 0
    outer loop
      vertex 14 16.55 -0.82
      vertex 17.1667 15.9201 -3.82
      vertex 14 16.55 -3.82
    endloop
  endfacet
  facet normal -0.83147 0.55557 0
    outer loop
      vertex 6.3549 11.4417 -3.82
      vertex 8.14869 14.1263 -0.82
      vertex 8.14869 14.1263 -3.82
    endloop
  endfacet
  facet normal -0.83147 0.55557 0
    outer loop
      vertex 8.14869 14.1263 -0.82
      vertex 6.3549 11.4417 -3.82
      vertex 6.3549 11.4417 -0.82
    endloop
  endfacet
  facet normal 0.980785 -0.19509 0
    outer loop
      vertex 21.6451 5.10829 -0.82
      vertex 22.275 8.275 -3.82
      vertex 22.275 8.275 -0.82
    endloop
  endfacet
  facet normal 0.980785 -0.19509 0
    outer loop
      vertex 22.275 8.275 -3.82
      vertex 21.6451 5.10829 -0.82
      vertex 21.6451 5.10829 -3.82
    endloop
  endfacet
  facet normal -0.55557 -0.83147 0
    outer loop
      vertex 8.14869 2.42369 -3.82
      vertex 10.8333 0.629896 -0.82
      vertex 8.14869 2.42369 -0.82
    endloop
  endfacet
  facet normal -0.55557 -0.83147 -0
    outer loop
      vertex 10.8333 0.629896 -0.82
      vertex 8.14869 2.42369 -3.82
      vertex 10.8333 0.629896 -3.82
    endloop
  endfacet
  facet normal 0.555571 -0.831469 0
    outer loop
      vertex 17.1667 0.629896 -3.82
      vertex 19.8513 2.42369 -0.82
      vertex 17.1667 0.629896 -0.82
    endloop
  endfacet
  facet normal 0.555571 -0.831469 0
    outer loop
      vertex 19.8513 2.42369 -0.82
      vertex 17.1667 0.629896 -3.82
      vertex 19.8513 2.42369 -3.82
    endloop
  endfacet
  facet normal 0.831469 -0.555571 0
    outer loop
      vertex 19.8513 2.42369 -0.82
      vertex 21.6451 5.10829 -3.82
      vertex 21.6451 5.10829 -0.82
    endloop
  endfacet
  facet normal 0.831469 -0.555571 0
    outer loop
      vertex 21.6451 5.10829 -3.82
      vertex 19.8513 2.42369 -0.82
      vertex 19.8513 2.42369 -3.82
    endloop
  endfacet
  facet normal -0.19509 -0.980785 0
    outer loop
      vertex 10.8333 0.629896 -3.82
      vertex 14 0 -0.82
      vertex 10.8333 0.629896 -0.82
    endloop
  endfacet
  facet normal -0.19509 -0.980785 -0
    outer loop
      vertex 14 0 -0.82
      vertex 10.8333 0.629896 -3.82
      vertex 14 0 -3.82
    endloop
  endfacet
  facet normal 0 0 -1
    outer loop
      vertex 19.87 8.275 -3.82
      vertex 22.275 8.275 -3.82
      vertex 21.6451 5.10829 -3.82
    endloop
  endfacet
  facet normal 0 0 -1
    outer loop
      vertex 22.275 8.275 -3.82
      vertex 19.87 8.275 -3.82
      vertex 21.6451 11.4417 -3.82
    endloop
  endfacet
  facet normal 0 0 -1
    outer loop
      vertex 19.4232 6.02865 -3.82
      vertex 21.6451 5.10829 -3.82
      vertex 19.8513 2.42369 -3.82
    endloop
  endfacet
  facet normal 0 0 -1
    outer loop
      vertex 21.6451 5.10829 -3.82
      vertex 19.4232 6.02865 -3.82
      vertex 19.87 8.275 -3.82
    endloop
  endfacet
  facet normal 0 0 -1
    outer loop
      vertex 19.8513 2.42369 -3.82
      vertex 18.1507 4.12428 -3.82
      vertex 19.4232 6.02865 -3.82
    endloop
  endfacet
  facet normal 0 0 -1
    outer loop
      vertex 17.1667 0.629896 -3.82
      vertex 18.1507 4.12428 -3.82
      vertex 19.8513 2.42369 -3.82
    endloop
  endfacet
  facet normal 0 0 -1
    outer loop
      vertex 17.1667 0.629896 -3.82
      vertex 16.2464 2.85183 -3.82
      vertex 18.1507 4.12428 -3.82
    endloop
  endfacet
  facet normal 0 0 -1
    outer loop
      vertex 14 0 -3.82
      vertex 16.2464 2.85183 -3.82
      vertex 17.1667 0.629896 -3.82
    endloop
  endfacet
  facet normal 0 0 -1
    outer loop
      vertex 14 0 -3.82
      vertex 14 2.405 -3.82
      vertex 16.2464 2.85183 -3.82
    endloop
  endfacet
  facet normal 0 0 -1
    outer loop
      vertex 14 0 -3.82
      vertex 11.7536 2.85183 -3.82
      vertex 14 2.405 -3.82
    endloop
  endfacet
  facet normal 0 0 -1
    outer loop
      vertex 10.8333 0.629896 -3.82
      vertex 11.7536 2.85183 -3.82
      vertex 14 0 -3.82
    endloop
  endfacet
  facet normal 0 0 -1
    outer loop
      vertex 10.8333 0.629896 -3.82
      vertex 9.84928 4.12428 -3.82
      vertex 11.7536 2.85183 -3.82
    endloop
  endfacet
  facet normal 0 0 -1
    outer loop
      vertex 8.14869 2.42369 -3.82
      vertex 9.84928 4.12428 -3.82
      vertex 10.8333 0.629896 -3.82
    endloop
  endfacet
  facet normal -0 0 -1
    outer loop
      vertex 9.84928 4.12428 -3.82
      vertex 8.14869 2.42369 -3.82
      vertex 8.57683 6.02865 -3.82
    endloop
  endfacet
  facet normal 0 0 -1
    outer loop
      vertex 6.3549 5.10829 -3.82
      vertex 8.57683 6.02865 -3.82
      vertex 8.14869 2.42369 -3.82
    endloop
  endfacet
  facet normal -0 0 -1
    outer loop
      vertex 8.57683 6.02865 -3.82
      vertex 6.3549 5.10829 -3.82
      vertex 8.13 8.275 -3.82
    endloop
  endfacet
  facet normal 0 0 -1
    outer loop
      vertex 19.4232 10.5214 -3.82
      vertex 21.6451 11.4417 -3.82
      vertex 19.87 8.275 -3.82
    endloop
  endfacet
  facet normal -0 0 -1
    outer loop
      vertex 21.6451 11.4417 -3.82
      vertex 19.4232 10.5214 -3.82
      vertex 19.8513 14.1263 -3.82
    endloop
  endfacet
  facet normal 0 0 -1
    outer loop
      vertex 18.1507 12.4257 -3.82
      vertex 19.8513 14.1263 -3.82
      vertex 19.4232 10.5214 -3.82
    endloop
  endfacet
  facet normal 0 0 -1
    outer loop
      vertex 18.1507 12.4257 -3.82
      vertex 17.1667 15.9201 -3.82
      vertex 19.8513 14.1263 -3.82
    endloop
  endfacet
  facet normal 0 0 -1
    outer loop
      vertex 16.2464 13.6982 -3.82
      vertex 17.1667 15.9201 -3.82
      vertex 18.1507 12.4257 -3.82
    endloop
  endfacet
  facet normal 0 0 -1
    outer loop
      vertex 14 14.145 -3.82
      vertex 17.1667 15.9201 -3.82
      vertex 16.2464 13.6982 -3.82
    endloop
  endfacet
  facet normal 0 0 -1
    outer loop
      vertex 14 14.145 -3.82
      vertex 14 16.55 -3.82
      vertex 17.1667 15.9201 -3.82
    endloop
  endfacet
  facet normal 0 0 -1
    outer loop
      vertex 11.7536 13.6982 -3.82
      vertex 14 16.55 -3.82
      vertex 14 14.145 -3.82
    endloop
  endfacet
  facet normal 0 0 -1
    outer loop
      vertex 11.7536 13.6982 -3.82
      vertex 10.8333 15.9201 -3.82
      vertex 14 16.55 -3.82
    endloop
  endfacet
  facet normal 0 0 -1
    outer loop
      vertex 9.84928 12.4257 -3.82
      vertex 10.8333 15.9201 -3.82
      vertex 11.7536 13.6982 -3.82
    endloop
  endfacet
  facet normal 0 0 -1
    outer loop
      vertex 8.14869 14.1263 -3.82
      vertex 9.84928 12.4257 -3.82
      vertex 8.57683 10.5214 -3.82
    endloop
  endfacet
  facet normal 0 0 -1
    outer loop
      vertex 9.84928 12.4257 -3.82
      vertex 8.14869 14.1263 -3.82
      vertex 10.8333 15.9201 -3.82
    endloop
  endfacet
  facet normal 0 0 -1
    outer loop
      vertex 6.3549 11.4417 -3.82
      vertex 8.57683 10.5214 -3.82
      vertex 8.13 8.275 -3.82
    endloop
  endfacet
  facet normal 0 0 -1
    outer loop
      vertex 5.725 8.275 -3.82
      vertex 8.13 8.275 -3.82
      vertex 6.3549 5.10829 -3.82
    endloop
  endfacet
  facet normal 0 0 -1
    outer loop
      vertex 8.57683 10.5214 -3.82
      vertex 6.3549 11.4417 -3.82
      vertex 8.14869 14.1263 -3.82
    endloop
  endfacet
  facet normal 0 0 -1
    outer loop
      vertex 8.13 8.275 -3.82
      vertex 5.725 8.275 -3.82
      vertex 6.3549 11.4417 -3.82
    endloop
  endfacet
  facet normal -0.83147 -0.55557 0
    outer loop
      vertex 8.14869 2.42369 -3.82
      vertex 6.3549 5.10829 -0.82
      vertex 6.3549 5.10829 -3.82
    endloop
  endfacet
  facet normal -0.83147 -0.55557 0
    outer loop
      vertex 6.3549 5.10829 -0.82
      vertex 8.14869 2.42369 -3.82
      vertex 8.14869 2.42369 -0.82
    endloop
  endfacet
  facet normal -0.980785 -0.19509 0
    outer loop
      vertex 6.3549 5.10829 -3.82
      vertex 5.725 8.275 -0.82
      vertex 5.725 8.275 -3.82
    endloop
  endfacet
  facet normal -0.980785 -0.19509 0
    outer loop
      vertex 5.725 8.275 -0.82
      vertex 6.3549 5.10829 -3.82
      vertex 6.3549 5.10829 -0.82
    endloop
  endfacet
  facet normal -1 0 0
    outer loop
      vertex 0 1.5 -25.94
      vertex 0 0 -25.94
      vertex 0 1.5 -9.94
    endloop
  endfacet
  facet normal -1 0 0
    outer loop
      vertex 0 8.275 -9.94
      vertex 0 16.55 -25.94
      vertex 0 8.275 -25.94
    endloop
  endfacet
  facet normal -1 0 0
    outer loop
      vertex 0 16.55 -25.94
      vertex 0 8.275 -9.94
      vertex 0 16.55 -6.82
    endloop
  endfacet
  facet normal -1 0 0
    outer loop
      vertex 0 0 -6.82
      vertex 0 8.275 -9.94
      vertex 0 1.5 -9.94
    endloop
  endfacet
  facet normal -1 0 0
    outer loop
      vertex 0 8.275 -9.94
      vertex 0 0 -6.82
      vertex 0 16.55 -6.82
    endloop
  endfacet
  facet normal -1 0 0
    outer loop
      vertex 0 0 -6.82
      vertex 0 1.5 -9.94
      vertex 0 0 -25.94
    endloop
  endfacet
  facet normal 1 -0 0
    outer loop
      vertex 28 0 -6.82
      vertex 28 16.55 -25.94
      vertex 28 16.55 -6.82
    endloop
  endfacet
  facet normal 1 0 0
    outer loop
      vertex 28 16.55 -25.94
      vertex 28 0 -6.82
      vertex 28 0 -25.94
    endloop
  endfacet
  facet normal 0 1 -0
    outer loop
      vertex 28 16.55 -25.94
      vertex 0 16.55 -6.82
      vertex 28 16.55 -6.82
    endloop
  endfacet
  facet normal 0 1 0
    outer loop
      vertex 0 16.55 -6.82
      vertex 28 16.55 -25.94
      vertex 0 16.55 -25.94
    endloop
  endfacet
  facet normal 0 -1 0
    outer loop
      vertex 0 0 -25.94
      vertex 28 0 -6.82
      vertex 0 0 -6.82
    endloop
  endfacet
  facet normal 0 -1 -0
    outer loop
      vertex 28 0 -6.82
      vertex 0 0 -25.94
      vertex 28 0 -25.94
    endloop
  endfacet
  facet normal -1 0 0
    outer loop
      vertex 0 17 -0.82
      vertex 0 16.55 0.0799995
      vertex 0 17 0.0799995
    endloop
  endfacet
  facet normal -1 0 0
    outer loop
      vertex 0 0 -0.82
      vertex 0 16.55 0.0799995
      vertex 0 17 -0.82
    endloop
  endfacet
  facet normal -1 0 0
    outer loop
      vertex 0 0 26.34
      vertex 0 16.55 0.0799995
      vertex 0 0 -0.82
    endloop
  endfacet
  facet normal -1 0 0
    outer loop
      vertex 0 16.55 0.0799995
      vertex 0 0 26.34
      vertex 0 16.55 26.34
    endloop
  endfacet
  facet normal -0 0 1
    outer loop
      vertex 0 17 0.0799995
      vertex 40.6 16.55 0.0799995
      vertex 40.6 17 0.0799995
    endloop
  endfacet
  facet normal 0 0 1
    outer loop
      vertex 40.6 16.55 0.0799995
      vertex 0 17 0.0799995
      vertex 0 16.55 0.0799995
    endloop
  endfacet
  facet normal 1 0 0
    outer loop
      vertex 40.6 16.55 26.34
      vertex 40.6 0 26.34
      vertex 40.6 16.55 0.0799995
    endloop
  endfacet
  facet normal 1 -0 0
    outer loop
      vertex 40.6 16.55 0.0799995
      vertex 40.6 17 -0.82
      vertex 40.6 17 0.0799995
    endloop
  endfacet
  facet normal 1 0 0
    outer loop
      vertex 40.6 0 -0.82
      vertex 40.6 16.55 0.0799995
      vertex 40.6 0 26.34
    endloop
  endfacet
  facet normal 1 0 0
    outer loop
      vertex 40.6 16.55 0.0799995
      vertex 40.6 0 -0.82
      vertex 40.6 17 -0.82
    endloop
  endfacet
  facet normal 0 1 -0
    outer loop
      vertex 40.6 17 -0.82
      vertex 0 17 0.0799995
      vertex 40.6 17 0.0799995
    endloop
  endfacet
  facet normal 0 1 0
    outer loop
      vertex 0 17 0.0799995
      vertex 40.6 17 -0.82
      vertex 0 17 -0.82
    endloop
  endfacet
  facet normal -0 0 -1
    outer loop
      vertex 6.3549 5.10829 -0.82
      vertex 0 0 -0.82
      vertex 5.725 8.275 -0.82
    endloop
  endfacet
  facet normal -0 0 -1
    outer loop
      vertex 8.14869 2.42369 -0.82
      vertex 0 0 -0.82
      vertex 6.3549 5.10829 -0.82
    endloop
  endfacet
  facet normal -0 0 -1
    outer loop
      vertex 10.8333 0.629896 -0.82
      vertex 0 0 -0.82
      vertex 8.14869 2.42369 -0.82
    endloop
  endfacet
  facet normal 0 0 -1
    outer loop
      vertex 0 0 -0.82
      vertex 10.8333 0.629896 -0.82
      vertex 14 0 -0.82
    endloop
  endfacet
  facet normal 0 0 -1
    outer loop
      vertex 40.6 0 -0.82
      vertex 22.275 8.275 -0.82
      vertex 40.6 17 -0.82
    endloop
  endfacet
  facet normal 0 0 -1
    outer loop
      vertex 40.6 0 -0.82
      vertex 21.6451 5.10829 -0.82
      vertex 22.275 8.275 -0.82
    endloop
  endfacet
  facet normal 0 0 -1
    outer loop
      vertex 40.6 0 -0.82
      vertex 19.8513 2.42369 -0.82
      vertex 21.6451 5.10829 -0.82
    endloop
  endfacet
  facet normal 0 0 -1
    outer loop
      vertex 40.6 0 -0.82
      vertex 17.1667 0.629896 -0.82
      vertex 19.8513 2.42369 -0.82
    endloop
  endfacet
  facet normal 0 -0 -1
    outer loop
      vertex 17.1667 0.629896 -0.82
      vertex 40.6 0 -0.82
      vertex 14 0 -0.82
    endloop
  endfacet
  facet normal 0 0 -1
    outer loop
      vertex 21.6451 11.4417 -0.82
      vertex 40.6 17 -0.82
      vertex 22.275 8.275 -0.82
    endloop
  endfacet
  facet normal 0 0 -1
    outer loop
      vertex 19.8513 14.1263 -0.82
      vertex 40.6 17 -0.82
      vertex 21.6451 11.4417 -0.82
    endloop
  endfacet
  facet normal 0 0 -1
    outer loop
      vertex 17.1667 15.9201 -0.82
      vertex 40.6 17 -0.82
      vertex 19.8513 14.1263 -0.82
    endloop
  endfacet
  facet normal 0 0 -1
    outer loop
      vertex 14 16.55 -0.82
      vertex 40.6 17 -0.82
      vertex 17.1667 15.9201 -0.82
    endloop
  endfacet
  facet normal 0 0 -1
    outer loop
      vertex 0 17 -0.82
      vertex 5.725 8.275 -0.82
      vertex 0 0 -0.82
    endloop
  endfacet
  facet normal 0 0 -1
    outer loop
      vertex 14 16.55 -0.82
      vertex 0 17 -0.82
      vertex 40.6 17 -0.82
    endloop
  endfacet
  facet normal 0 0 -1
    outer loop
      vertex 10.8333 15.9201 -0.82
      vertex 0 17 -0.82
      vertex 14 16.55 -0.82
    endloop
  endfacet
  facet normal 0 0 -1
    outer loop
      vertex 8.14869 14.1263 -0.82
      vertex 0 17 -0.82
      vertex 10.8333 15.9201 -0.82
    endloop
  endfacet
  facet normal 0 0 -1
    outer loop
      vertex 6.3549 11.4417 -0.82
      vertex 0 17 -0.82
      vertex 8.14869 14.1263 -0.82
    endloop
  endfacet
  facet normal 0 0 -1
    outer loop
      vertex 5.725 8.275 -0.82
      vertex 0 17 -0.82
      vertex 6.3549 11.4417 -0.82
    endloop
  endfacet
  facet normal 0 -1 0
    outer loop
      vertex 14 0 -0.82
      vertex 0 0 26.34
      vertex 0 0 -0.82
    endloop
  endfacet
  facet normal 0 -1 0
    outer loop
      vertex 0 0 26.34
      vertex 14 0 -0.82
      vertex 40.6 0 26.34
    endloop
  endfacet
  facet normal 0 -1 -0
    outer loop
      vertex 40.6 0 26.34
      vertex 14 0 -0.82
      vertex 40.6 0 -0.82
    endloop
  endfacet
  facet normal -0 0 1
    outer loop
      vertex 0 16.55 26.34
      vertex 40.6 0 26.34
      vertex 40.6 16.55 26.34
    endloop
  endfacet
  facet normal 0 0 1
    outer loop
      vertex 40.6 0 26.34
      vertex 0 16.55 26.34
      vertex 0 0 26.34
    endloop
  endfacet
  facet normal 0 1 -0
    outer loop
      vertex 40.6 16.55 0.0799995
      vertex 0 16.55 26.34
      vertex 40.6 16.55 26.34
    endloop
  endfacet
  facet normal 0 1 0
    outer loop
      vertex 0 16.55 26.34
      vertex 40.6 16.55 0.0799995
      vertex 0 16.55 0.0799995
    endloop
  endfacet
endsolid OpenSCAD_Model
