999
Inkscape export via OpenSCAD DXF Export
  0
SECTION
  2
HEADER
  9
$ACADVER
  1
AC1014
  9
$HANDSEED
  5
FFFF
  9
$MEASUREMENT
 70
     1
  0
ENDSEC
  0
SECTION
  2
TABLES
  0
TABLE
  2
VPORT
  5
8
330
0
100
AcDbSymbolTable
 70
     4
  0
VPORT
  5
2E
330
8
100
AcDbSymbolTableRecord
100
AcDbViewportTableRecord
  2
*ACTIVE
 70
     0
 10
0.0
 20
0.0
 11
1.0
 21
1.0
 12
210.0
 22
148.5
 13
0.0
 23
0.0
 14
10.0
 24
10.0
 15
10.0
 25
10.0
 16
0.0
 26
0.0
 36
1.0
 17
0.0
 27
0.0
 37
0.0
 40
341.0
 41
1.24
 42
50.0
 43
0.0
 44
0.0
 50
0.0
 51
0.0
 71
     0
 72
   100
 73
     1
 74
     3
 75
     0
 76
     0
 77
     0
 78
     0
  0
ENDTAB
  0
TABLE
  2
LTYPE
  5
5
330
0
100
AcDbSymbolTable
 70
     1
  0
LTYPE
  5
14
330
5
100
AcDbSymbolTableRecord
100
AcDbLinetypeTableRecord
  2
BYBLOCK
 70
     0
  3

 72
    65
 73
     0
 40
0.0
  0
LTYPE
  5
15
330
5
100
AcDbSymbolTableRecord
100
AcDbLinetypeTableRecord
  2
BYLAYER
 70
     0
  3

 72
    65
 73
     0
 40
0.0
  0
LTYPE
  5
16
330
5
100
AcDbSymbolTableRecord
100
AcDbLinetypeTableRecord
  2
CONTINUOUS
 70
     0
  3
Solid line
 72
    65
 73
     0
 40
0.0
  0
ENDTAB
  0
TABLE
0
TABLE
2
LAYER
5
2
330
0
100
AcDbSymbolTable
70
1
0
LAYER
5
10
330
2
100
AcDbSymbolTableRecord
100
AcDbLayerTableRecord
2
Layer_1
70
0
62
7
6
CONTINUOUS
0
ENDTAB
0
ENDSEC
  0
ENDTAB
  0
TABLE
  2
STYLE
  5
3
330
0
100
AcDbSymbolTable
 70
     1
  0
STYLE
  5
11
330
3
100
AcDbSymbolTableRecord
100
AcDbTextStyleTableRecord
  2
STANDARD
 70
     0
 40
0.0
 41
1.0
 50
0.0
 71
     0
 42
2.5
  3
txt
  4

  0
ENDTAB
  0
TABLE
  2
VIEW
  5
6
330
0
100
AcDbSymbolTable
 70
     0
  0
ENDTAB
  0
TABLE
  2
UCS
  5
7
330
0
100
AcDbSymbolTable
 70
     0
  0
ENDTAB
  0
TABLE
  2
APPID
  5
9
330
0
100
AcDbSymbolTable
 70
     2
  0
APPID
  5
12
330
9
100
AcDbSymbolTableRecord
100
AcDbRegAppTableRecord
  2
ACAD
 70
     0
  0
ENDTAB
  0
TABLE
  2
DIMSTYLE
  5
A
330
0
100
AcDbSymbolTable
 70
     1
  0
DIMSTYLE
105
27
330
A
100
AcDbSymbolTableRecord
100
AcDbDimStyleTableRecord
  2
ISO-25
 70
     0
  3

  4

  5

  6

  7

 40
1.0
 41
2.5
 42
0.625
 43
3.75
 44
1.25
 45
0.0
 46
0.0
 47
0.0
 48
0.0
140
2.5
141
2.5
142
0.0
143
0.03937007874016
144
1.0
145
0.0
146
1.0
147
0.625
 71
     0
 72
     0
 73
     0
 74
     0
 75
     0
 76
     0
 77
     1
 78
     8
170
     0
171
     3
172
     1
173
     0
174
     0
175
     0
176
     0
177
     0
178
     0
270
     2
271
     2
272
     2
273
     2
274
     3
340
11
275
     0
280
     0
281
     0
282
     0
283
     0
284
     8
285
     0
286
     0
287
     3
288
     0
  0
ENDTAB
  0
TABLE
  2
BLOCK_RECORD
  5
1
330
0
100
AcDbSymbolTable
 70
     1
  0
BLOCK_RECORD
  5
1F
330
1
100
AcDbSymbolTableRecord
100
AcDbBlockTableRecord
  2
*MODEL_SPACE
  0
BLOCK_RECORD
  5
1B
330
1
100
AcDbSymbolTableRecord
100
AcDbBlockTableRecord
  2
*PAPER_SPACE
  0
ENDTAB
  0
ENDSEC
  0
SECTION
  2
BLOCKS
  0
BLOCK
  5
20
330
1F
100
AcDbEntity
  8
0
100
AcDbBlockBegin
  2
*MODEL_SPACE
 70
     0
 10
0.0
 20
0.0
 30
0.0
  3
*MODEL_SPACE
  1

  0
ENDBLK
  5
21
330
1F
100
AcDbEntity
  8
0
100
AcDbBlockEnd
  0
BLOCK
  5
1C
330
1B
100
AcDbEntity
 67
     1
  8
0
100
AcDbBlockBegin
  2
*PAPER_SPACE
  1

  0
ENDBLK
  5
1D
330
1B
100
AcDbEntity
 67
     1
  8
0
100
AcDbBlockEnd
  0
ENDSEC
  0
SECTION
  2
ENTITIES
0
DIMENSION
5
83
100
AcDbEntity
62
256
370
-1
6
ByLayer
1
total_width
3
Standard
70
0
71
5
72
1
41
1.0
100
AcDbAlignedDimension
13
0.000000
23
0.000000
33
0.0
14
152.682222
24
0.000000
34
0.0
50
0.000000
100
AcDbRotatedDimension
0
DIMENSION
5
83
100
AcDbEntity
62
256
370
-1
6
ByLayer
1
total_minx
3
Standard
70
0
71
5
72
1
41
1.0
100
AcDbAlignedDimension
13
0.000000
23
0.000000
33
0.0
14
0.000000
24
0.000000
34
0.0
50
0.000000
100
AcDbRotatedDimension
0
DIMENSION
5
83
100
AcDbEntity
62
256
370
-1
6
ByLayer
1
total_maxx
3
Standard
70
0
71
5
72
1
41
1.0
100
AcDbAlignedDimension
13
0.000000
23
0.000000
33
0.0
14
152.682222
24
0.000000
34
0.0
50
0.000000
100
AcDbRotatedDimension
0
DIMENSION
5
83
100
AcDbEntity
62
256
370
-1
6
ByLayer
1
total_height
3
Standard
70
0
71
5
72
1
41
1.0
100
AcDbAlignedDimension
13
0.000000
23
0.015415
33
0.0
14
0.000000
24
77.590003
34
0.0
50
90.000000
100
AcDbRotatedDimension
0
DIMENSION
5
83
100
AcDbEntity
62
256
370
-1
6
ByLayer
1
total_miny
3
Standard
70
0
71
5
72
1
41
1.0
100
AcDbAlignedDimension
13
0.015415
23
0.000000
33
0.0
14
0.000000
24
0.000000
34
0.0
50
0.000000
100
AcDbRotatedDimension
0
DIMENSION
5
83
100
AcDbEntity
62
256
370
-1
6
ByLayer
1
total_maxy
3
Standard
70
0
71
5
72
1
41
1.0
100
AcDbAlignedDimension
13
0.000000
23
0.000000
33
0.0
14
77.590003
24
0.000000
34
0.0
50
0.000000
100
AcDbRotatedDimension
0
DIMENSION
8
Layer_1
5
83
100
AcDbEntity
62
256
370
-1
6
ByLayer
1
Layer_1_width
3
Standard
70
0
71
5
72
1
41
1.0
100
AcDbAlignedDimension
13
0.000000
23
0.000000
33
0.0
14
152.682222
24
0.000000
34
0.0
50
0.000000
100
AcDbRotatedDimension
0
DIMENSION
8
Layer_1
5
83
100
AcDbEntity
62
256
370
-1
6
ByLayer
1
Layer_1_minx
3
Standard
70
0
71
5
72
1
41
1.0
100
AcDbAlignedDimension
13
0.000000
23
0.000000
33
0.0
14
0.000000
24
0.000000
34
0.0
50
0.000000
100
AcDbRotatedDimension
0
DIMENSION
8
Layer_1
5
83
100
AcDbEntity
62
256
370
-1
6
ByLayer
1
Layer_1_maxx
3
Standard
70
0
71
5
72
1
41
1.0
100
AcDbAlignedDimension
13
0.000000
23
0.000000
33
0.0
14
152.682222
24
0.000000
34
0.0
50
0.000000
100
AcDbRotatedDimension
0
DIMENSION
8
Layer_1
5
83
100
AcDbEntity
62
256
370
-1
6
ByLayer
1
Layer_1_height
3
Standard
70
0
71
5
72
1
41
1.0
100
AcDbAlignedDimension
13
0.000000
23
0.015415
33
0.0
14
0.000000
24
77.590003
34
0.0
50
90.000000
100
AcDbRotatedDimension
0
DIMENSION
8
Layer_1
5
83
100
AcDbEntity
62
256
370
-1
6
ByLayer
1
Layer_1_miny
3
Standard
70
0
71
5
72
1
41
1.0
100
AcDbAlignedDimension
13
0.015415
23
0.000000
33
0.0
14
0.000000
24
0.000000
34
0.0
50
0.000000
100
AcDbRotatedDimension
0
DIMENSION
8
Layer_1
5
83
100
AcDbEntity
62
256
370
-1
6
ByLayer
1
Layer_1_maxy
3
Standard
70
0
71
5
72
1
41
1.0
100
AcDbAlignedDimension
13
0.000000
23
0.000000
33
0.0
14
77.590003
24
0.000000
34
0.0
50
0.000000
100
AcDbRotatedDimension
62
0
0
LWPOLYLINE
100
AcDbPolyline
8
Layer_1
90
126
70
0
10
36.265556
20
0.217077
30
0.0
10
34.474124
20
0.550128
30
0.0
10
32.674978
20
1.049315
30
0.0
10
29.144759
20
2.500225
30
0.0
10
25.857332
20
4.478055
30
0.0
10
24.361677
20
5.635894
30
0.0
10
22.995132
20
6.891057
30
0.0
10
21.044302
20
9.044064
30
0.0
10
19.173121
20
11.520349
30
0.0
10
17.356839
20
14.368526
30
0.0
10
15.570709
20
17.637210
30
0.0
10
13.789982
20
21.375016
30
0.0
10
11.989909
20
25.630558
30
0.0
10
8.232732
20
35.889305
30
0.0
10
5.908627
20
42.229318
30
0.0
10
5.013667
20
44.145045
30
0.0
10
4.160052
20
45.548844
30
0.0
10
3.397476
20
46.396761
30
0.0
10
2.419654
20
47.185230
30
0.0
10
1.437820
20
47.766593
30
0.0
10
0.663212
20
47.993193
30
0.0
10
0.000000
20
47.993193
30
0.0
10
0.000000
20
53.535722
30
0.0
10
0.000000
20
59.078251
30
0.0
10
1.673165
20
58.926534
30
0.0
10
2.852889
20
58.726038
30
0.0
10
4.023962
20
58.341447
30
0.0
10
5.181335
20
57.776472
30
0.0
10
6.319965
20
57.034820
30
0.0
10
8.520808
20
55.036322
30
0.0
10
10.586122
20
52.375622
30
0.0
10
12.614395
20
48.908552
30
0.0
10
14.694653
20
44.485878
30
0.0
10
16.899634
20
38.938359
30
0.0
10
19.302081
20
32.096755
30
0.0
10
21.377243
20
26.481015
30
0.0
10
23.520178
20
21.911548
30
0.0
10
25.837962
20
18.189324
30
0.0
10
27.095881
20
16.583732
30
0.0
10
28.437665
20
15.115314
30
0.0
10
31.095086
20
12.814114
30
0.0
10
32.447015
20
11.942410
30
0.0
10
33.824554
20
11.252269
30
0.0
10
35.235302
20
10.740416
30
0.0
10
36.686857
20
10.403576
30
0.0
10
38.186818
20
10.238473
30
0.0
10
39.742782
20
10.241830
30
0.0
10
42.151654
20
10.513954
30
0.0
10
44.095117
20
11.105226
30
0.0
10
45.818790
20
12.123446
30
0.0
10
47.568290
20
13.676416
30
0.0
10
48.868507
20
15.122990
30
0.0
10
50.019296
20
16.723030
30
0.0
10
51.047879
20
18.546013
30
0.0
10
51.981475
20
20.661414
30
0.0
10
52.847307
20
23.138708
30
0.0
10
53.672594
20
26.047372
30
0.0
10
55.310419
20
33.436712
30
0.0
10
56.578246
20
38.595052
30
0.0
10
57.351449
20
40.806658
30
0.0
10
58.247165
20
42.833151
30
0.0
10
59.287637
20
44.719478
30
0.0
10
60.495106
20
46.510586
30
0.0
10
61.891813
20
48.251423
30
0.0
10
63.500000
20
49.986936
30
0.0
10
66.622130
20
52.819244
30
0.0
10
69.863227
20
55.056055
30
0.0
10
73.365412
20
56.780863
30
0.0
10
77.270805
20
58.077163
30
0.0
10
80.311160
20
58.683863
30
0.0
10
84.525556
20
58.802867
30
0.0
10
88.728366
20
58.672883
30
0.0
10
91.755773
20
58.077289
30
0.0
10
94.361197
20
57.260508
30
0.0
10
96.844350
20
56.230557
30
0.0
10
99.196313
20
55.000194
30
0.0
10
101.408170
20
53.582177
30
0.0
10
103.471004
20
51.989265
30
0.0
10
105.375896
20
50.234215
30
0.0
10
107.113929
20
48.329785
30
0.0
10
108.676186
20
46.288735
30
0.0
10
110.053749
20
44.123821
30
0.0
10
111.237701
20
41.847802
30
0.0
10
112.219125
20
39.473435
30
0.0
10
112.989102
20
37.013480
30
0.0
10
113.538716
20
34.480694
30
0.0
10
113.859049
20
31.887836
30
0.0
10
113.941183
20
29.247662
30
0.0
10
113.776201
20
26.572932
30
0.0
10
113.394054
20
23.951486
30
0.0
10
112.828097
20
21.462082
30
0.0
10
112.073513
20
19.094577
30
0.0
10
111.125487
20
16.838829
30
0.0
10
109.979201
20
14.684696
30
0.0
10
108.629839
20
12.622038
30
0.0
10
107.072584
20
10.640710
30
0.0
10
105.302620
20
8.730573
30
0.0
10
102.302610
20
6.081997
30
0.0
10
99.069833
20
3.914155
30
0.0
10
95.566738
20
2.205435
30
0.0
10
91.755773
20
0.934223
30
0.0
10
88.725695
20
0.334183
30
0.0
10
84.525556
20
0.191155
30
0.0
10
80.913417
20
0.295283
30
0.0
10
77.930624
20
0.709435
30
0.0
10
75.113716
20
1.532473
30
0.0
10
71.999229
20
2.863263
30
0.0
10
69.011907
20
4.440699
30
0.0
10
66.411319
20
6.178020
30
0.0
10
64.113098
20
8.138918
30
0.0
10
62.032876
20
10.387082
30
0.0
10
60.412912
20
12.140667
30
0.0
10
59.417980
20
10.811978
30
0.0
10
58.222825
20
9.212664
30
0.0
10
56.605597
20
7.421237
30
0.0
10
54.830298
20
5.710251
30
0.0
10
53.160930
20
4.352259
30
0.0
10
51.326484
20
3.183490
30
0.0
10
49.352440
20
2.186206
30
0.0
10
47.268958
20
1.367790
30
0.0
10
45.106198
20
0.735622
30
0.0
10
42.894318
20
0.297086
30
0.0
10
40.663478
20
0.059562
30
0.0
10
38.443837
20
0.030431
30
0.0
10
36.265556
20
0.217077
30
0.0
10
36.265556
20
0.217077
30
0.0
62
0
0
LWPOLYLINE
100
AcDbPolyline
8
Layer_1
90
56
70
0
10
88.900000
20
10.614626
30
0.0
10
90.900250
20
11.257391
30
0.0
10
93.133333
20
12.197715
30
0.0
10
95.597652
20
13.714797
30
0.0
10
98.011460
20
15.789537
30
0.0
10
100.122472
20
18.173348
30
0.0
10
101.678404
20
20.617637
30
0.0
10
102.478216
20
22.425159
30
0.0
10
103.094475
20
24.269933
30
0.0
10
103.526185
20
26.139698
30
0.0
10
103.772351
20
28.022195
30
0.0
10
103.831977
20
29.905165
30
0.0
10
103.704068
20
31.776346
30
0.0
10
103.387627
20
33.623479
30
0.0
10
102.881659
20
35.434304
30
0.0
10
102.016230
20
37.683486
30
0.0
10
101.006567
20
39.569832
30
0.0
10
99.702762
20
41.329606
30
0.0
10
97.954905
20
43.199073
30
0.0
10
96.389234
20
44.619880
30
0.0
10
94.769184
20
45.828281
30
0.0
10
93.088241
20
46.826790
30
0.0
10
91.339891
20
47.617917
30
0.0
10
89.517619
20
48.204177
30
0.0
10
87.614911
20
48.588083
30
0.0
10
85.625252
20
48.772147
30
0.0
10
83.542130
20
48.758881
30
0.0
10
81.603816
20
48.566966
30
0.0
10
79.735744
20
48.201938
30
0.0
10
77.945477
20
47.671782
30
0.0
10
76.240576
20
46.984483
30
0.0
10
74.628606
20
46.148026
30
0.0
10
73.117128
20
45.170396
30
0.0
10
71.713707
20
44.059578
30
0.0
10
70.425905
20
42.823556
30
0.0
10
69.261286
20
41.470316
30
0.0
10
68.227411
20
40.007843
30
0.0
10
67.331844
20
38.444122
30
0.0
10
66.582148
20
36.787138
30
0.0
10
65.985886
20
35.044874
30
0.0
10
65.550621
20
33.225318
30
0.0
10
65.283916
20
31.336453
30
0.0
10
65.193333
20
29.386265
30
0.0
10
65.464597
20
26.154807
30
0.0
10
66.252852
20
23.081897
30
0.0
10
67.519792
20
20.216808
30
0.0
10
69.227111
20
17.608816
30
0.0
10
71.336505
20
15.307195
30
0.0
10
73.809666
20
13.361218
30
0.0
10
76.608291
20
11.820160
30
0.0
10
79.694072
20
10.733295
30
0.0
10
81.833418
20
10.355163
30
0.0
10
84.291253
20
10.206629
30
0.0
10
86.751980
20
10.291761
30
0.0
10
88.900000
20
10.614626
30
0.0
10
88.900000
20
10.614626
30
0.0
62
0
0
LWPOLYLINE
100
AcDbPolyline
8
Layer_1
90
40
70
0
10
116.920298
20
20.829304
30
0.0
10
117.128673
20
39.022620
30
0.0
10
117.321704
20
42.211608
30
0.0
10
117.653328
20
43.967281
30
0.0
10
118.339306
20
46.124822
30
0.0
10
119.291497
20
48.330697
30
0.0
10
120.423528
20
50.407430
30
0.0
10
121.649024
20
52.177539
30
0.0
10
123.013554
20
53.601451
30
0.0
10
124.769394
20
55.002695
30
0.0
10
126.755620
20
56.266657
30
0.0
10
128.811311
20
57.278723
30
0.0
10
131.353058
20
58.155562
30
0.0
10
134.280037
20
58.679656
30
0.0
10
138.332956
20
58.933567
30
0.0
10
144.252524
20
58.999857
30
0.0
10
152.682222
20
58.999857
30
0.0
10
152.682222
20
54.060969
30
0.0
10
152.682222
20
49.122079
30
0.0
10
145.838333
20
49.116406
30
0.0
10
140.507420
20
49.039142
30
0.0
10
137.301111
20
48.861359
30
0.0
10
134.514355
20
48.175966
30
0.0
10
133.278914
20
47.651582
30
0.0
10
132.151034
20
47.007560
30
0.0
10
131.132413
20
46.245013
30
0.0
10
130.224755
20
45.365056
30
0.0
10
129.429759
20
44.368804
30
0.0
10
128.749126
20
43.257371
30
0.0
10
128.176973
20
42.138938
30
0.0
10
127.746304
20
41.034323
30
0.0
10
127.436953
20
39.663134
30
0.0
10
127.228755
20
37.744980
30
0.0
10
127.035152
20
31.146205
30
0.0
10
127.004171
20
18.994862
30
0.0
10
126.999994
20
0.015415
30
0.0
10
121.887234
20
0.015415
30
0.0
10
116.774474
20
0.015415
30
0.0
10
116.920292
20
20.829304
30
0.0
10
116.920298
20
20.829304
30
0.0
62
0
0
LWPOLYLINE
100
AcDbPolyline
8
Layer_1
90
28
70
0
10
72.107778
20
67.582355
30
0.0
10
70.909670
20
68.361881
30
0.0
10
70.034930
20
69.318853
30
0.0
10
69.470468
20
70.472470
30
0.0
10
69.203192
20
71.841928
30
0.0
10
69.313821
20
73.525453
30
0.0
10
69.882104
20
74.978389
30
0.0
10
70.818898
20
76.155111
30
0.0
10
72.035065
20
77.009995
30
0.0
10
73.441463
20
77.497416
30
0.0
10
74.948952
20
77.571750
30
0.0
10
76.468391
20
77.187370
30
0.0
10
77.910639
20
76.298653
30
0.0
10
78.714485
20
75.473487
30
0.0
10
79.263430
20
74.544802
30
0.0
10
79.578141
20
73.464528
30
0.0
10
79.679284
20
72.184594
30
0.0
10
79.523509
20
70.639030
30
0.0
10
78.853685
20
69.375909
30
0.0
10
78.190728
20
68.573033
30
0.0
10
77.448927
20
67.928227
30
0.0
10
76.641948
20
67.445125
30
0.0
10
75.783460
20
67.127360
30
0.0
10
74.887131
20
66.978566
30
0.0
10
73.966629
20
67.002379
30
0.0
10
73.035622
20
67.202430
30
0.0
10
72.107778
20
67.582355
30
0.0
10
72.107778
20
67.582355
30
0.0
62
0
0
LWPOLYLINE
100
AcDbPolyline
8
Layer_1
90
30
70
0
10
92.826719
20
67.156076
30
0.0
10
91.429267
20
67.853536
30
0.0
10
90.354791
20
68.875466
30
0.0
10
89.616683
20
70.129929
30
0.0
10
89.228336
20
71.524991
30
0.0
10
89.203143
20
72.968716
30
0.0
10
89.554495
20
74.369168
30
0.0
10
90.295786
20
75.634414
30
0.0
10
91.440409
20
76.672516
30
0.0
10
92.479014
20
77.214815
30
0.0
10
93.562548
20
77.517794
30
0.0
10
94.656379
20
77.590003
30
0.0
10
95.725876
20
77.439997
30
0.0
10
96.736405
20
77.076328
30
0.0
10
97.653336
20
76.507548
30
0.0
10
98.442036
20
75.742210
30
0.0
10
99.067874
20
74.788867
30
0.0
10
99.427358
20
73.873463
30
0.0
10
99.610211
20
72.912449
30
0.0
10
99.623709
20
71.936068
30
0.0
10
99.475133
20
70.974562
30
0.0
10
99.171760
20
70.058175
30
0.0
10
98.720868
20
69.217149
30
0.0
10
98.129737
20
68.481727
30
0.0
10
97.405644
20
67.882151
30
0.0
10
96.367533
20
67.385947
30
0.0
10
95.134395
20
67.079879
30
0.0
10
93.892150
20
66.993428
30
0.0
10
92.826719
20
67.156076
30
0.0
10
92.826719
20
67.156076
30
0.0
  0
ENDSEC
  0
SECTION
  2
OBJECTS
  0
DICTIONARY
  5
C
330
0
100
AcDbDictionary
  3
ACAD_GROUP
350
D
  3
ACAD_MLINESTYLE
350
17
  0
DICTIONARY
  5
D
330
C
100
AcDbDictionary
  0
DICTIONARY
  5
1A
330
C
100
AcDbDictionary
  0
DICTIONARY
  5
17
330
C
100
AcDbDictionary
  3
STANDARD
350
18
  0
DICTIONARY
  5
19
330
C
100
AcDbDictionary
  0
ENDSEC
  0
EOF
