<?xml version="1.0" encoding="utf-8"?>
<!-- Generator: Adobe Illustrator 19.1.0, SVG Export Plug-In . SVG Version: 6.00 Build 0)  -->
<svg version="1.1" id="Layer_1" xmlns="http://www.w3.org/2000/svg" xmlns:xlink="http://www.w3.org/1999/xlink" x="0px" y="0px"
	 viewBox="0 0 135.4 68.8" style="enable-background:new 0 0 135.4 68.8;" xml:space="preserve">
<style type="text/css">
	.st0{fill:#FFFFFF;}
</style>
<g>
	<circle class="st0" cx="66" cy="4.7" r="4.7"/>
	<circle class="st0" cx="83.7" cy="4.7" r="4.7"/>
	<g>
		<path class="st0" d="M135.4,25.3l-11.9,0c-11,0-10.9,10.5-10.9,10.5l-0.1,32.9l-8.9,0l0.1-32.9c0,0-1.5-19.5,19.8-19.4l2,0v0h9.9
			V25.3z"/>
	</g>
	<path class="st0" d="M74.9,16.5c-13.2,0-24.1,9.9-25.8,22.6l-0.4,2C46.1,54.8,41.7,59.6,35,59.8c-12.6,0.3-17.7-19-17.7-19
		C10.8,20.9,7.1,19.1,4.2,17.3c-1.1-0.6-2.4-0.8-3.2-0.9l-0.9,0v9.7c0.2,0,0.5,0,0.9,0.1c0.1,0,0.2,0.1,0.3,0.1c0,0,0,0,0.1,0
		c0.1,0,0.2,0.1,0.3,0.1c0.1,0,0.1,0.1,0.2,0.1C2,26.7,2.4,26.9,3,27.5c0,0,0,0,0,0c0,0,0,0,0,0C3.9,28.4,5,30,6.1,33
		c0,0,5.8,19,10.8,25.1l1.6,2.2l0,0l0,0c4,5.2,10,8.4,16.7,8.4c7.8,0,14.6-4.4,18.4-11c4.7,6.6,12.5,11,21.2,11
		C89.3,68.7,101,57,101,42.6C101,28.2,89.3,16.5,74.9,16.5z M74.9,59.8c-9.5,0-17.2-7.7-17.2-17.2c0-9.5,7.7-17.2,17.2-17.2
		c9.5,0,17.2,7.7,17.2,17.2C92.1,52.1,84.4,59.8,74.9,59.8z"/>
</g>
</svg>
