<?xml version="1.0" encoding="utf-8"?>
<!-- Generator: Adobe Illustrator 19.1.0, SVG Export Plug-In . SVG Version: 6.00 Build 0)  -->
<svg version="1.1" id="Layer_1" xmlns="http://www.w3.org/2000/svg" xmlns:xlink="http://www.w3.org/1999/xlink" x="0px" y="0px"
	 viewBox="0 0 192 192" style="enable-background:new 0 0 192 192;" xml:space="preserve">
<style type="text/css">
	.st0{fill:#13252D;}
	.st1{fill:url(#SVGID_1_);}
	.st2{fill:#0C1112;}
	.st3{fill:#2D5361;}
	.st4{fill:#FFFFFF;}
	.st5{fill:#C9C9C9;}
</style>
<g>
	<circle class="st0" cx="95.4" cy="96.2" r="88"/>
	
		<linearGradient id="SVGID_1_" gradientUnits="userSpaceOnUse" x1="186.0246" y1="324.8104" x2="310.4754" y2="200.3596" gradientTransform="matrix(4.489700e-11 1 -1 4.489700e-11 358 -152)">
		<stop  offset="0" style="stop-color:#FFFFFF;stop-opacity:0.1"/>
		<stop  offset="1" style="stop-color:#FFFFFF;stop-opacity:0"/>
	</linearGradient>
	<circle class="st1" cx="95.4" cy="96.2" r="88"/>
	<path class="st2" d="M95.4,183.1c-48.4,0-87.7-39.1-88-87.4c0,0.2,0,0.4,0,0.6c0,48.6,39.4,88,88,88s88-39.4,88-88
		c0-0.2,0-0.4,0-0.6C183.1,144,143.8,183.1,95.4,183.1z"/>
	<path class="st3" d="M95.4,9.4c48.4,0,87.7,39.1,88,87.4c0-0.2,0-0.4,0-0.6c0-48.6-39.4-88-88-88s-88,39.4-88,88c0,0.2,0,0.4,0,0.6
		C7.7,48.5,47,9.4,95.4,9.4z"/>
	<g>
		<circle class="st4" cx="90.5" cy="70" r="4.1"/>
		<circle class="st4" cx="105.9" cy="70" r="4.1"/>
		<g>
			<path class="st4" d="M150.5,87.8l-10.3,0c-9.5,0-9.4,9.1-9.4,9.1l-0.1,28.5l-7.7,0l0.1-28.5c0,0-1.3-16.8,17.1-16.7l1.7,0v0h8.5
				V87.8z"/>
		</g>
		<path class="st4" d="M98.2,80.2c-11.4,0-20.8,8.5-22.3,19.5l-0.4,1.7c-2.1,11.8-6,15.9-11.7,16.1c-10.9,0.3-15.2-16.4-15.2-16.4
			C42.8,84,39.7,82.5,37.1,80.9c-1-0.5-2.1-0.7-2.8-0.7l-0.8,0v8.3c0.2,0,0.5,0,0.8,0.1c0.1,0,0.2,0.1,0.3,0.1c0,0,0,0,0.1,0
			c0.1,0,0.2,0.1,0.3,0.1c0.1,0,0.1,0.1,0.2,0.1c0.1,0.1,0.5,0.2,1,0.7c0,0,0,0,0,0c0,0,0,0,0,0c0.7,0.7,1.7,2.1,2.6,4.7
			c0,0,5,16.4,9.3,21.7l1.4,1.9l0,0l0,0c3.4,4.5,8.6,7.3,14.4,7.3c6.7,0,12.6-3.8,15.9-9.5c4.1,5.7,10.8,9.5,18.3,9.5
			c12.4,0,22.5-10.1,22.5-22.5C120.7,90.3,110.6,80.2,98.2,80.2z M98.2,117.6c-8.2,0-14.9-6.7-14.9-14.9c0-8.2,6.7-14.9,14.9-14.9
			c8.2,0,14.9,6.7,14.9,14.9C113.1,111,106.4,117.6,98.2,117.6z"/>
	</g>
	<g>
		<path class="st5" d="M98.2,124.2c-7.6,0-14.3-3.7-18.3-9.5c-3.3,5.7-9.2,9.5-15.9,9.5c-5.8,0-11-2.8-14.4-7.3l0,0l0,0l-1.4-1.9
			c-4.3-5.3-9.3-21.7-9.3-21.7c-1-2.6-1.9-4-2.6-4.7c0,0,0,0,0,0c0,0,0,0,0,0c-0.5-0.5-0.8-0.7-1-0.7c-0.1,0-0.1-0.1-0.2-0.1
			c-0.1,0-0.2-0.1-0.3-0.1c0,0,0,0-0.1,0c-0.1,0-0.2-0.1-0.3-0.1c-0.3-0.1-0.6-0.1-0.8-0.1v1.1c0.2,0,0.5,0,0.8,0.1
			c0.1,0,0.2,0.1,0.3,0.1c0,0,0,0,0.1,0c0.1,0,0.2,0.1,0.3,0.1c0.1,0,0.1,0.1,0.2,0.1c0.1,0.1,0.5,0.2,1,0.7c0,0,0,0,0,0
			c0,0,0,0,0,0c0.7,0.7,1.7,2.1,2.6,4.7c0,0,5,16.4,9.3,21.7l1.4,1.9l0,0l0,0c3.4,4.5,8.6,7.3,14.4,7.3c6.7,0,12.6-3.8,15.9-9.5
			c4.1,5.7,10.8,9.5,18.3,9.5c12.4,0,22.5-10.1,22.5-22.5c0-0.2,0-0.4,0-0.5C120.4,114.4,110.5,124.2,98.2,124.2z"/>
	</g>
	<g>
		<polygon class="st5" points="130.7,124 130.7,124.2 123,124.2 123,125.3 130.7,125.3 130.7,124 		"/>
		<path class="st5" d="M140.2,86.7c-9.5,0-9.4,9.1-9.4,9.1l0,1.2h0l0-0.1c0,0-0.1-9.1,9.4-9.1l10.3,0v-1.1L140.2,86.7z"/>
	</g>
</g>
</svg>
