solid OpenSCAD_Model
  facet normal -1 0 0
    outer loop
      vertex 0 56 0
      vertex 0 52.5 1.3
      vertex 0 56 1.3
    endloop
  endfacet
  facet normal -1 0 0
    outer loop
      vertex 0 56 0
      vertex 0 38.3 1.3
      vertex 0 52.5 1.3
    endloop
  endfacet
  facet normal -1 0 0
    outer loop
      vertex 0 56 0
      vertex 0 32.9 1.3
      vertex 0 38.3 1.3
    endloop
  endfacet
  facet normal -1 0 0
    outer loop
      vertex 0 0 0
      vertex 0 32.9 1.3
      vertex 0 56 0
    endloop
  endfacet
  facet normal -1 -0 0
    outer loop
      vertex 0 32.9 1.3
      vertex 0 0 0
      vertex 0 19.6 1.3
    endloop
  endfacet
  facet normal -1 -0 0
    outer loop
      vertex 0 19.6 1.3
      vertex 0 0 0
      vertex 0 15.65 1.3
    endloop
  endfacet
  facet normal -1 -0 0
    outer loop
      vertex 0 15.65 1.3
      vertex 0 0 0
      vertex 0 2.35 1.3
    endloop
  endfacet
  facet normal -1 -0 0
    outer loop
      vertex 0 2.35 1.3
      vertex 0 0 0
      vertex 0 0 1.3
    endloop
  endfacet
  facet normal 0 0 -1
    outer loop
      vertex 70 56 1.3
      vertex 77.5 58 1.3
      vertex 77.5 56 1.3
    endloop
  endfacet
  facet normal -0 0 -1
    outer loop
      vertex 77.5 58 1.3
      vertex 70 56 1.3
      vertex 70 58 1.3
    endloop
  endfacet
  facet normal 0 0 1
    outer loop
      vertex 45 56 1.3
      vertex 33.5 56 1.3
      vertex 45 46 1.3
    endloop
  endfacet
  facet normal 0 0 1
    outer loop
      vertex 70 56 1.3
      vertex 60 56 1.3
      vertex 70 52.2 1.3
    endloop
  endfacet
  facet normal 0 0 1
    outer loop
      vertex 85 56 1.3
      vertex 77.75 6.2 1.3
      vertex 85 0 1.3
    endloop
  endfacet
  facet normal 0 0 1
    outer loop
      vertex 77.5 52.2 1.3
      vertex 85 56 1.3
      vertex 77.5 56 1.3
    endloop
  endfacet
  facet normal 0 0 1
    outer loop
      vertex 85 56 1.3
      vertex 77.5 52.2 1.3
      vertex 77.75 6.2 1.3
    endloop
  endfacet
  facet normal 0 0 1
    outer loop
      vertex 60 46 1.3
      vertex 77.5 52.2 1.3
      vertex 70 52.2 1.3
    endloop
  endfacet
  facet normal 0 0 1
    outer loop
      vertex 60 46 1.3
      vertex 70 52.2 1.3
      vertex 60 56 1.3
    endloop
  endfacet
  facet normal 0 0 1
    outer loop
      vertex 77.5 52.2 1.3
      vertex 60 46 1.3
      vertex 77.75 6.2 1.3
    endloop
  endfacet
  facet normal -0 0 1
    outer loop
      vertex 45 46 1.3
      vertex 77.75 6.2 1.3
      vertex 60 46 1.3
    endloop
  endfacet
  facet normal 0 0 1
    outer loop
      vertex 33.5 43 1.3
      vertex 45 46 1.3
      vertex 33.5 56 1.3
    endloop
  endfacet
  facet normal 0 0 1
    outer loop
      vertex 27.3 6.2 1.3
      vertex 45 46 1.3
      vertex 33.5 43 1.3
    endloop
  endfacet
  facet normal 0 0 1
    outer loop
      vertex 19.2 38.3 1.3
      vertex 33.5 43 1.3
      vertex 27.5 43 1.3
    endloop
  endfacet
  facet normal 0 0 1
    outer loop
      vertex 45 46 1.3
      vertex 27.3 6.2 1.3
      vertex 77.75 6.2 1.3
    endloop
  endfacet
  facet normal -0 0 1
    outer loop
      vertex 77.75 1.2 1.3
      vertex 85 0 1.3
      vertex 77.75 6.2 1.3
    endloop
  endfacet
  facet normal -0 0 1
    outer loop
      vertex 27.3 1.2 1.3
      vertex 85 0 1.3
      vertex 77.75 1.2 1.3
    endloop
  endfacet
  facet normal 0 0 1
    outer loop
      vertex 33.5 43 1.3
      vertex 15 19.6 1.3
      vertex 27.3 6.2 1.3
    endloop
  endfacet
  facet normal 0 0 1
    outer loop
      vertex 15 19.6 1.3
      vertex 19.2 38.3 1.3
      vertex 15 32.9 1.3
    endloop
  endfacet
  facet normal -0 0 1
    outer loop
      vertex 15 15.65 1.3
      vertex 27.3 6.2 1.3
      vertex 15 19.6 1.3
    endloop
  endfacet
  facet normal 0 0 1
    outer loop
      vertex 15 2.35 1.3
      vertex 27.3 6.2 1.3
      vertex 15 15.65 1.3
    endloop
  endfacet
  facet normal 0 0 1
    outer loop
      vertex 27.3 6.2 1.3
      vertex 15 2.35 1.3
      vertex 27.3 1.2 1.3
    endloop
  endfacet
  facet normal 0 0 1
    outer loop
      vertex 0 0 1.3
      vertex 15 2.35 1.3
      vertex 0 2.35 1.3
    endloop
  endfacet
  facet normal 0 0 1
    outer loop
      vertex 27.3 1.2 1.3
      vertex 0 0 1.3
      vertex 85 0 1.3
    endloop
  endfacet
  facet normal 0 0 1
    outer loop
      vertex 15 2.35 1.3
      vertex 0 0 1.3
      vertex 27.3 1.2 1.3
    endloop
  endfacet
  facet normal -0 0 1
    outer loop
      vertex 0 19.6 1.3
      vertex 15 15.65 1.3
      vertex 15 19.6 1.3
    endloop
  endfacet
  facet normal 0 0 1
    outer loop
      vertex 15 15.65 1.3
      vertex 0 19.6 1.3
      vertex 0 15.65 1.3
    endloop
  endfacet
  facet normal -0 0 1
    outer loop
      vertex 0 38.3 1.3
      vertex 15 32.9 1.3
      vertex 19.2 38.3 1.3
    endloop
  endfacet
  facet normal 0 0 1
    outer loop
      vertex 15 32.9 1.3
      vertex 0 38.3 1.3
      vertex 0 32.9 1.3
    endloop
  endfacet
  facet normal -0 0 1
    outer loop
      vertex 19.2 52.5 1.3
      vertex 27.5 43 1.3
      vertex 27.5 56 1.3
    endloop
  endfacet
  facet normal 0 0 1
    outer loop
      vertex 33.5 43 1.3
      vertex 19.2 38.3 1.3
      vertex 15 19.6 1.3
    endloop
  endfacet
  facet normal 0 0 1
    outer loop
      vertex 19.2 38.3 1.3
      vertex 27.5 43 1.3
      vertex 19.2 52.5 1.3
    endloop
  endfacet
  facet normal -0 0 1
    outer loop
      vertex 0 56 1.3
      vertex 19.2 52.5 1.3
      vertex 27.5 56 1.3
    endloop
  endfacet
  facet normal 0 0 1
    outer loop
      vertex 19.2 52.5 1.3
      vertex 0 56 1.3
      vertex 0 52.5 1.3
    endloop
  endfacet
  facet normal 0 0 -1
    outer loop
      vertex 27.5 56 1.3
      vertex 33.5 58 1.3
      vertex 33.5 56 1.3
    endloop
  endfacet
  facet normal -0 0 -1
    outer loop
      vertex 33.5 58 1.3
      vertex 27.5 56 1.3
      vertex 27.5 58 1.3
    endloop
  endfacet
  facet normal 0 0 -1
    outer loop
      vertex 45 56 1.3
      vertex 60 58 1.3
      vertex 60 56 1.3
    endloop
  endfacet
  facet normal -0 0 -1
    outer loop
      vertex 60 58 1.3
      vertex 45 56 1.3
      vertex 45 58 1.3
    endloop
  endfacet
  facet normal 0 0 -1
    outer loop
      vertex -2 19.6 1.3
      vertex 0 32.9 1.3
      vertex 0 19.6 1.3
    endloop
  endfacet
  facet normal -0 0 -1
    outer loop
      vertex 0 32.9 1.3
      vertex -2 19.6 1.3
      vertex -2 32.9 1.3
    endloop
  endfacet
  facet normal 0 0 -1
    outer loop
      vertex -2 2.35 1.3
      vertex 0 15.65 1.3
      vertex 0 2.35 1.3
    endloop
  endfacet
  facet normal -0 0 -1
    outer loop
      vertex 0 15.65 1.3
      vertex -2 2.35 1.3
      vertex -2 15.65 1.3
    endloop
  endfacet
  facet normal 0 0 -1
    outer loop
      vertex -2 38.3 1.3
      vertex 0 52.5 1.3
      vertex 0 38.3 1.3
    endloop
  endfacet
  facet normal -0 0 -1
    outer loop
      vertex 0 52.5 1.3
      vertex -2 38.3 1.3
      vertex -2 52.5 1.3
    endloop
  endfacet
  facet normal 1 0 0
    outer loop
      vertex 85 56 1.3
      vertex 85 33.6 0
      vertex 85 56 0
    endloop
  endfacet
  facet normal 1 0 0
    outer loop
      vertex 85 56 1.3
      vertex 85 21 0
      vertex 85 33.6 0
    endloop
  endfacet
  facet normal 1 -0 0
    outer loop
      vertex 85 0 1.3
      vertex 85 21 0
      vertex 85 56 1.3
    endloop
  endfacet
  facet normal 1 0 0
    outer loop
      vertex 85 21 0
      vertex 85 0 1.3
      vertex 85 0 0
    endloop
  endfacet
  facet normal 0 1 -0
    outer loop
      vertex 85 56 0
      vertex 77.5 56 1.3
      vertex 85 56 1.3
    endloop
  endfacet
  facet normal 0 1 0
    outer loop
      vertex 77.5 56 1.3
      vertex 85 56 0
      vertex 70 56 1.3
    endloop
  endfacet
  facet normal 0 1 0
    outer loop
      vertex 70 56 1.3
      vertex 85 56 0
      vertex 60 56 1.3
    endloop
  endfacet
  facet normal 0 1 0
    outer loop
      vertex 60 56 1.3
      vertex 85 56 0
      vertex 45 56 1.3
    endloop
  endfacet
  facet normal 0 1 0
    outer loop
      vertex 45 56 1.3
      vertex 85 56 0
      vertex 33.5 56 1.3
    endloop
  endfacet
  facet normal 0 1 0
    outer loop
      vertex 0 56 0
      vertex 33.5 56 1.3
      vertex 85 56 0
    endloop
  endfacet
  facet normal 0 1 0
    outer loop
      vertex 33.5 56 1.3
      vertex 0 56 0
      vertex 27.5 56 1.3
    endloop
  endfacet
  facet normal 0 1 0
    outer loop
      vertex 27.5 56 1.3
      vertex 0 56 0
      vertex 0 56 1.3
    endloop
  endfacet
  facet normal 0 0 -1
    outer loop
      vertex 85 0 0
      vertex 79.5 21 0
      vertex 85 21 0
    endloop
  endfacet
  facet normal -0 0 -1
    outer loop
      vertex 79.5 21 0
      vertex 0 0 0
      vertex 79.5 33.6 0
    endloop
  endfacet
  facet normal 0 0 -1
    outer loop
      vertex 0 0 0
      vertex 79.5 21 0
      vertex 85 0 0
    endloop
  endfacet
  facet normal 0 0 -1
    outer loop
      vertex 79.5 33.6 0
      vertex 85 56 0
      vertex 85 33.6 0
    endloop
  endfacet
  facet normal 0 0 -1
    outer loop
      vertex 0 56 0
      vertex 79.5 33.6 0
      vertex 0 0 0
    endloop
  endfacet
  facet normal 0 0 -1
    outer loop
      vertex 79.5 33.6 0
      vertex 0 56 0
      vertex 85 56 0
    endloop
  endfacet
  facet normal -0 0 1
    outer loop
      vertex 85 33.6 0
      vertex 87 21 0
      vertex 87 33.6 0
    endloop
  endfacet
  facet normal 0 0 1
    outer loop
      vertex 87 21 0
      vertex 85 33.6 0
      vertex 85 21 0
    endloop
  endfacet
  facet normal 0 -1 0
    outer loop
      vertex 0 0 0
      vertex 85 0 1.3
      vertex 0 0 1.3
    endloop
  endfacet
  facet normal 0 -1 -0
    outer loop
      vertex 85 0 1.3
      vertex 0 0 0
      vertex 85 0 0
    endloop
  endfacet
  facet normal -1 0 0
    outer loop
      vertex -2 38.3 1.3
      vertex -2 52.5 17
      vertex -2 52.5 1.3
    endloop
  endfacet
  facet normal -1 -0 0
    outer loop
      vertex -2 52.5 17
      vertex -2 38.3 1.3
      vertex -2 38.3 17
    endloop
  endfacet
  facet normal -0 0 1
    outer loop
      vertex -2 52.5 17
      vertex 19.2 38.3 17
      vertex 19.2 52.5 17
    endloop
  endfacet
  facet normal 0 0 1
    outer loop
      vertex 19.2 38.3 17
      vertex -2 52.5 17
      vertex -2 38.3 17
    endloop
  endfacet
  facet normal 1 -0 0
    outer loop
      vertex 19.2 38.3 17
      vertex 19.2 52.5 1.3
      vertex 19.2 52.5 17
    endloop
  endfacet
  facet normal 1 0 0
    outer loop
      vertex 19.2 52.5 1.3
      vertex 19.2 38.3 17
      vertex 19.2 38.3 1.3
    endloop
  endfacet
  facet normal 0 1 0
    outer loop
      vertex 0 52.5 1.3
      vertex 19.2 52.5 17
      vertex 19.2 52.5 1.3
    endloop
  endfacet
  facet normal 0 1 0
    outer loop
      vertex 19.2 52.5 17
      vertex 0 52.5 1.3
      vertex -2 52.5 17
    endloop
  endfacet
  facet normal 0 1 0
    outer loop
      vertex -2 52.5 17
      vertex 0 52.5 1.3
      vertex -2 52.5 1.3
    endloop
  endfacet
  facet normal 0 -1 0
    outer loop
      vertex 0 38.3 1.3
      vertex -2 38.3 17
      vertex -2 38.3 1.3
    endloop
  endfacet
  facet normal 0 -1 0
    outer loop
      vertex -2 38.3 17
      vertex 0 38.3 1.3
      vertex 19.2 38.3 17
    endloop
  endfacet
  facet normal 0 -1 -0
    outer loop
      vertex 19.2 38.3 17
      vertex 0 38.3 1.3
      vertex 19.2 38.3 1.3
    endloop
  endfacet
  facet normal -1 0 0
    outer loop
      vertex -2 2.35 1.3
      vertex -2 15.65 17
      vertex -2 15.65 1.3
    endloop
  endfacet
  facet normal -1 -0 0
    outer loop
      vertex -2 15.65 17
      vertex -2 2.35 1.3
      vertex -2 2.35 17
    endloop
  endfacet
  facet normal -0 0 1
    outer loop
      vertex -2 15.65 17
      vertex 15 2.35 17
      vertex 15 15.65 17
    endloop
  endfacet
  facet normal 0 0 1
    outer loop
      vertex 15 2.35 17
      vertex -2 15.65 17
      vertex -2 2.35 17
    endloop
  endfacet
  facet normal 1 -0 0
    outer loop
      vertex 15 2.35 17
      vertex 15 15.65 1.3
      vertex 15 15.65 17
    endloop
  endfacet
  facet normal 1 0 0
    outer loop
      vertex 15 15.65 1.3
      vertex 15 2.35 17
      vertex 15 2.35 1.3
    endloop
  endfacet
  facet normal 0 1 0
    outer loop
      vertex 0 15.65 1.3
      vertex 15 15.65 17
      vertex 15 15.65 1.3
    endloop
  endfacet
  facet normal 0 1 0
    outer loop
      vertex 15 15.65 17
      vertex 0 15.65 1.3
      vertex -2 15.65 17
    endloop
  endfacet
  facet normal 0 1 0
    outer loop
      vertex -2 15.65 17
      vertex 0 15.65 1.3
      vertex -2 15.65 1.3
    endloop
  endfacet
  facet normal 0 -1 0
    outer loop
      vertex 0 2.35 1.3
      vertex -2 2.35 17
      vertex -2 2.35 1.3
    endloop
  endfacet
  facet normal 0 -1 0
    outer loop
      vertex -2 2.35 17
      vertex 0 2.35 1.3
      vertex 15 2.35 17
    endloop
  endfacet
  facet normal 0 -1 -0
    outer loop
      vertex 15 2.35 17
      vertex 0 2.35 1.3
      vertex 15 2.35 1.3
    endloop
  endfacet
  facet normal -1 0 0
    outer loop
      vertex -2 19.6 1.3
      vertex -2 32.9 17
      vertex -2 32.9 1.3
    endloop
  endfacet
  facet normal -1 -0 0
    outer loop
      vertex -2 32.9 17
      vertex -2 19.6 1.3
      vertex -2 19.6 17
    endloop
  endfacet
  facet normal -0 0 1
    outer loop
      vertex -2 32.9 17
      vertex 15 19.6 17
      vertex 15 32.9 17
    endloop
  endfacet
  facet normal 0 0 1
    outer loop
      vertex 15 19.6 17
      vertex -2 32.9 17
      vertex -2 19.6 17
    endloop
  endfacet
  facet normal 1 -0 0
    outer loop
      vertex 15 19.6 17
      vertex 15 32.9 1.3
      vertex 15 32.9 17
    endloop
  endfacet
  facet normal 1 0 0
    outer loop
      vertex 15 32.9 1.3
      vertex 15 19.6 17
      vertex 15 19.6 1.3
    endloop
  endfacet
  facet normal 0 -1 0
    outer loop
      vertex 0 19.6 1.3
      vertex -2 19.6 17
      vertex -2 19.6 1.3
    endloop
  endfacet
  facet normal 0 -1 0
    outer loop
      vertex -2 19.6 17
      vertex 0 19.6 1.3
      vertex 15 19.6 17
    endloop
  endfacet
  facet normal 0 -1 -0
    outer loop
      vertex 15 19.6 17
      vertex 0 19.6 1.3
      vertex 15 19.6 1.3
    endloop
  endfacet
  facet normal 0 1 0
    outer loop
      vertex 0 32.9 1.3
      vertex 15 32.9 17
      vertex 15 32.9 1.3
    endloop
  endfacet
  facet normal 0 1 0
    outer loop
      vertex 15 32.9 17
      vertex 0 32.9 1.3
      vertex -2 32.9 17
    endloop
  endfacet
  facet normal 0 1 0
    outer loop
      vertex -2 32.9 17
      vertex 0 32.9 1.3
      vertex -2 32.9 1.3
    endloop
  endfacet
  facet normal -1 0 0
    outer loop
      vertex 45 56 1.3
      vertex 45 58 7.9
      vertex 45 58 1.3
    endloop
  endfacet
  facet normal -1 0 0
    outer loop
      vertex 45 46 7.9
      vertex 45 56 1.3
      vertex 45 46 1.3
    endloop
  endfacet
  facet normal -1 0 0
    outer loop
      vertex 45 56 1.3
      vertex 45 46 7.9
      vertex 45 58 7.9
    endloop
  endfacet
  facet normal -0 0 1
    outer loop
      vertex 45 58 7.9
      vertex 60 46 7.9
      vertex 60 58 7.9
    endloop
  endfacet
  facet normal 0 0 1
    outer loop
      vertex 60 46 7.9
      vertex 45 58 7.9
      vertex 45 46 7.9
    endloop
  endfacet
  facet normal 1 0 0
    outer loop
      vertex 60 58 7.9
      vertex 60 56 1.3
      vertex 60 58 1.3
    endloop
  endfacet
  facet normal 1 -0 0
    outer loop
      vertex 60 46 7.9
      vertex 60 56 1.3
      vertex 60 58 7.9
    endloop
  endfacet
  facet normal 1 0 0
    outer loop
      vertex 60 56 1.3
      vertex 60 46 7.9
      vertex 60 46 1.3
    endloop
  endfacet
  facet normal 0 1 -0
    outer loop
      vertex 60 58 1.3
      vertex 45 58 7.9
      vertex 60 58 7.9
    endloop
  endfacet
  facet normal 0 1 0
    outer loop
      vertex 45 58 7.9
      vertex 60 58 1.3
      vertex 45 58 1.3
    endloop
  endfacet
  facet normal 0 -1 0
    outer loop
      vertex 45 46 1.3
      vertex 60 46 7.9
      vertex 45 46 7.9
    endloop
  endfacet
  facet normal 0 -1 -0
    outer loop
      vertex 60 46 7.9
      vertex 45 46 1.3
      vertex 60 46 1.3
    endloop
  endfacet
  facet normal -1 0 0
    outer loop
      vertex 27.5 56 1.3
      vertex 27.5 58 7.3
      vertex 27.5 58 1.3
    endloop
  endfacet
  facet normal -1 0 0
    outer loop
      vertex 27.5 43 7.3
      vertex 27.5 56 1.3
      vertex 27.5 43 1.3
    endloop
  endfacet
  facet normal -1 0 0
    outer loop
      vertex 27.5 56 1.3
      vertex 27.5 43 7.3
      vertex 27.5 58 7.3
    endloop
  endfacet
  facet normal -0 0 1
    outer loop
      vertex 27.5 58 7.3
      vertex 33.5 43 7.3
      vertex 33.5 58 7.3
    endloop
  endfacet
  facet normal 0 0 1
    outer loop
      vertex 33.5 43 7.3
      vertex 27.5 58 7.3
      vertex 27.5 43 7.3
    endloop
  endfacet
  facet normal 1 0 0
    outer loop
      vertex 33.5 58 7.3
      vertex 33.5 56 1.3
      vertex 33.5 58 1.3
    endloop
  endfacet
  facet normal 1 -0 0
    outer loop
      vertex 33.5 43 7.3
      vertex 33.5 56 1.3
      vertex 33.5 58 7.3
    endloop
  endfacet
  facet normal 1 0 0
    outer loop
      vertex 33.5 56 1.3
      vertex 33.5 43 7.3
      vertex 33.5 43 1.3
    endloop
  endfacet
  facet normal 0 1 -0
    outer loop
      vertex 33.5 58 1.3
      vertex 27.5 58 7.3
      vertex 33.5 58 7.3
    endloop
  endfacet
  facet normal 0 1 0
    outer loop
      vertex 27.5 58 7.3
      vertex 33.5 58 1.3
      vertex 27.5 58 1.3
    endloop
  endfacet
  facet normal 0 -1 0
    outer loop
      vertex 27.5 43 1.3
      vertex 33.5 43 7.3
      vertex 27.5 43 7.3
    endloop
  endfacet
  facet normal 0 -1 -0
    outer loop
      vertex 33.5 43 7.3
      vertex 27.5 43 1.3
      vertex 33.5 43 1.3
    endloop
  endfacet
  facet normal -1 0 0
    outer loop
      vertex 70 56 1.3
      vertex 70 58 4.3
      vertex 70 58 1.3
    endloop
  endfacet
  facet normal -1 0 0
    outer loop
      vertex 70 52.2 4.3
      vertex 70 56 1.3
      vertex 70 52.2 1.3
    endloop
  endfacet
  facet normal -1 0 0
    outer loop
      vertex 70 56 1.3
      vertex 70 52.2 4.3
      vertex 70 58 4.3
    endloop
  endfacet
  facet normal -0 0 1
    outer loop
      vertex 70 58 4.3
      vertex 77.5 52.2 4.3
      vertex 77.5 58 4.3
    endloop
  endfacet
  facet normal 0 0 1
    outer loop
      vertex 77.5 52.2 4.3
      vertex 70 58 4.3
      vertex 70 52.2 4.3
    endloop
  endfacet
  facet normal 1 0 0
    outer loop
      vertex 77.5 58 4.3
      vertex 77.5 56 1.3
      vertex 77.5 58 1.3
    endloop
  endfacet
  facet normal 1 -0 0
    outer loop
      vertex 77.5 52.2 4.3
      vertex 77.5 56 1.3
      vertex 77.5 58 4.3
    endloop
  endfacet
  facet normal 1 0 0
    outer loop
      vertex 77.5 56 1.3
      vertex 77.5 52.2 4.3
      vertex 77.5 52.2 1.3
    endloop
  endfacet
  facet normal 0 1 -0
    outer loop
      vertex 77.5 58 1.3
      vertex 70 58 4.3
      vertex 77.5 58 4.3
    endloop
  endfacet
  facet normal 0 1 0
    outer loop
      vertex 70 58 4.3
      vertex 77.5 58 1.3
      vertex 70 58 1.3
    endloop
  endfacet
  facet normal 0 -1 0
    outer loop
      vertex 70 52.2 1.3
      vertex 77.5 52.2 4.3
      vertex 70 52.2 4.3
    endloop
  endfacet
  facet normal 0 -1 -0
    outer loop
      vertex 77.5 52.2 4.3
      vertex 70 52.2 1.3
      vertex 77.5 52.2 1.3
    endloop
  endfacet
  facet normal -1 0 0
    outer loop
      vertex 79.5 21 -1.3
      vertex 79.5 33.6 0
      vertex 79.5 33.6 -1.3
    endloop
  endfacet
  facet normal -1 -0 0
    outer loop
      vertex 79.5 33.6 0
      vertex 79.5 21 -1.3
      vertex 79.5 21 0
    endloop
  endfacet
  facet normal 1 -0 0
    outer loop
      vertex 87 21 0
      vertex 87 33.6 -1.3
      vertex 87 33.6 0
    endloop
  endfacet
  facet normal 1 0 0
    outer loop
      vertex 87 33.6 -1.3
      vertex 87 21 0
      vertex 87 21 -1.3
    endloop
  endfacet
  facet normal 0 1 -0
    outer loop
      vertex 87 33.6 -1.3
      vertex 85 33.6 0
      vertex 87 33.6 0
    endloop
  endfacet
  facet normal 0 1 0
    outer loop
      vertex 79.5 33.6 -1.3
      vertex 85 33.6 0
      vertex 87 33.6 -1.3
    endloop
  endfacet
  facet normal 0 1 0
    outer loop
      vertex 85 33.6 0
      vertex 79.5 33.6 -1.3
      vertex 79.5 33.6 0
    endloop
  endfacet
  facet normal 0 0 -1
    outer loop
      vertex 79.5 21 -1.3
      vertex 87 33.6 -1.3
      vertex 87 21 -1.3
    endloop
  endfacet
  facet normal -0 0 -1
    outer loop
      vertex 87 33.6 -1.3
      vertex 79.5 21 -1.3
      vertex 79.5 33.6 -1.3
    endloop
  endfacet
  facet normal 0 -1 0
    outer loop
      vertex 79.5 21 -1.3
      vertex 85 21 0
      vertex 79.5 21 0
    endloop
  endfacet
  facet normal 0 -1 0
    outer loop
      vertex 87 21 -1.3
      vertex 85 21 0
      vertex 79.5 21 -1.3
    endloop
  endfacet
  facet normal 0 -1 0
    outer loop
      vertex 85 21 0
      vertex 87 21 -1.3
      vertex 87 21 0
    endloop
  endfacet
  facet normal -1 0 0
    outer loop
      vertex 27.3 1.2 1.3
      vertex 27.3 6.2 10.5
      vertex 27.3 6.2 1.3
    endloop
  endfacet
  facet normal -1 -0 0
    outer loop
      vertex 27.3 6.2 10.5
      vertex 27.3 1.2 1.3
      vertex 27.3 1.2 10.5
    endloop
  endfacet
  facet normal -0 0 1
    outer loop
      vertex 27.3 6.2 10.5
      vertex 77.75 1.2 10.5
      vertex 77.75 6.2 10.5
    endloop
  endfacet
  facet normal 0 0 1
    outer loop
      vertex 77.75 1.2 10.5
      vertex 27.3 6.2 10.5
      vertex 27.3 1.2 10.5
    endloop
  endfacet
  facet normal 1 -0 0
    outer loop
      vertex 77.75 1.2 10.5
      vertex 77.75 6.2 1.3
      vertex 77.75 6.2 10.5
    endloop
  endfacet
  facet normal 1 0 0
    outer loop
      vertex 77.75 6.2 1.3
      vertex 77.75 1.2 10.5
      vertex 77.75 1.2 1.3
    endloop
  endfacet
  facet normal 0 1 -0
    outer loop
      vertex 77.75 6.2 1.3
      vertex 27.3 6.2 10.5
      vertex 77.75 6.2 10.5
    endloop
  endfacet
  facet normal 0 1 0
    outer loop
      vertex 27.3 6.2 10.5
      vertex 77.75 6.2 1.3
      vertex 27.3 6.2 1.3
    endloop
  endfacet
  facet normal 0 -1 0
    outer loop
      vertex 27.3 1.2 1.3
      vertex 77.75 1.2 10.5
      vertex 27.3 1.2 10.5
    endloop
  endfacet
  facet normal 0 -1 -0
    outer loop
      vertex 77.75 1.2 10.5
      vertex 27.3 1.2 1.3
      vertex 77.75 1.2 1.3
    endloop
  endfacet
endsolid OpenSCAD_Model
