solid OpenSCAD_Model
  facet normal -1 0 0
    outer loop
      vertex 0 6.3 0.759999
      vertex 0 16.55 0
      vertex 0 6.3 0
    endloop
  endfacet
  facet normal -1 0 0
    outer loop
      vertex 0 16.55 0
      vertex 0 6.3 0.759999
      vertex 0 16.55 19.12
    endloop
  endfacet
  facet normal -1 0 0
    outer loop
      vertex 0 0 19.12
      vertex 0 6.3 0.759999
      vertex 0 0 0.759999
    endloop
  endfacet
  facet normal -1 0 0
    outer loop
      vertex 0 6.3 0.759999
      vertex 0 0 19.12
      vertex 0 16.55 19.12
    endloop
  endfacet
  facet normal 0 0 1
    outer loop
      vertex 28 16.55 19.12
      vertex 19.87 8.275 19.12
      vertex 28 0 19.12
    endloop
  endfacet
  facet normal 0 0 1
    outer loop
      vertex 28 16.55 19.12
      vertex 19.4232 10.5214 19.12
      vertex 19.87 8.275 19.12
    endloop
  endfacet
  facet normal 0 0 1
    outer loop
      vertex 28 16.55 19.12
      vertex 18.1507 12.4257 19.12
      vertex 19.4232 10.5214 19.12
    endloop
  endfacet
  facet normal 0 0 1
    outer loop
      vertex 28 16.55 19.12
      vertex 16.2464 13.6982 19.12
      vertex 18.1507 12.4257 19.12
    endloop
  endfacet
  facet normal 0 0 1
    outer loop
      vertex 28 16.55 19.12
      vertex 14 14.145 19.12
      vertex 16.2464 13.6982 19.12
    endloop
  endfacet
  facet normal 0 0 1
    outer loop
      vertex 8.57683 10.5214 19.12
      vertex 0 16.55 19.12
      vertex 8.13 8.275 19.12
    endloop
  endfacet
  facet normal 0 0 1
    outer loop
      vertex 9.84928 12.4257 19.12
      vertex 0 16.55 19.12
      vertex 8.57683 10.5214 19.12
    endloop
  endfacet
  facet normal 0 0 1
    outer loop
      vertex 11.7536 13.6982 19.12
      vertex 0 16.55 19.12
      vertex 9.84928 12.4257 19.12
    endloop
  endfacet
  facet normal 0 0 1
    outer loop
      vertex 14 14.145 19.12
      vertex 0 16.55 19.12
      vertex 11.7536 13.6982 19.12
    endloop
  endfacet
  facet normal -0 0 1
    outer loop
      vertex 0 16.55 19.12
      vertex 14 14.145 19.12
      vertex 28 16.55 19.12
    endloop
  endfacet
  facet normal -0 0 1
    outer loop
      vertex 19.4232 6.02865 19.12
      vertex 28 0 19.12
      vertex 19.87 8.275 19.12
    endloop
  endfacet
  facet normal -0 0 1
    outer loop
      vertex 18.1507 4.12428 19.12
      vertex 28 0 19.12
      vertex 19.4232 6.02865 19.12
    endloop
  endfacet
  facet normal -0 0 1
    outer loop
      vertex 16.2464 2.85183 19.12
      vertex 28 0 19.12
      vertex 18.1507 4.12428 19.12
    endloop
  endfacet
  facet normal -0 0 1
    outer loop
      vertex 14 2.405 19.12
      vertex 28 0 19.12
      vertex 16.2464 2.85183 19.12
    endloop
  endfacet
  facet normal 0 0 1
    outer loop
      vertex 0 0 19.12
      vertex 8.13 8.275 19.12
      vertex 0 16.55 19.12
    endloop
  endfacet
  facet normal 0 0 1
    outer loop
      vertex 8.13 8.275 19.12
      vertex 0 0 19.12
      vertex 8.57683 6.02865 19.12
    endloop
  endfacet
  facet normal 0 0 1
    outer loop
      vertex 14 2.405 19.12
      vertex 0 0 19.12
      vertex 28 0 19.12
    endloop
  endfacet
  facet normal 0 0 1
    outer loop
      vertex 11.7536 2.85183 19.12
      vertex 0 0 19.12
      vertex 14 2.405 19.12
    endloop
  endfacet
  facet normal 0 0 1
    outer loop
      vertex 9.84928 4.12428 19.12
      vertex 0 0 19.12
      vertex 11.7536 2.85183 19.12
    endloop
  endfacet
  facet normal 0 0 1
    outer loop
      vertex 8.57683 6.02865 19.12
      vertex 0 0 19.12
      vertex 9.84928 4.12428 19.12
    endloop
  endfacet
  facet normal 1 -0 0
    outer loop
      vertex 28 0 19.12
      vertex 28 16.55 0
      vertex 28 16.55 19.12
    endloop
  endfacet
  facet normal 1 0 0
    outer loop
      vertex 28 16.55 0
      vertex 28 0 19.12
      vertex 28 0 0
    endloop
  endfacet
  facet normal 0 1 -0
    outer loop
      vertex 28 16.55 0
      vertex 0 16.55 19.12
      vertex 28 16.55 19.12
    endloop
  endfacet
  facet normal 0 1 0
    outer loop
      vertex 0 16.55 19.12
      vertex 28 16.55 0
      vertex 0 16.55 0
    endloop
  endfacet
  facet normal 0 0 -1
    outer loop
      vertex 28 0 0
      vertex 26.3 5.5 0
      vertex 28 16.55 0
    endloop
  endfacet
  facet normal 0 0 -1
    outer loop
      vertex 28 0 0
      vertex 25.5 5.5 0
      vertex 26.3 5.5 0
    endloop
  endfacet
  facet normal 0 0 -1
    outer loop
      vertex 25.5 5.5 0
      vertex 2.3 5.5 0
      vertex 25.5 12 0
    endloop
  endfacet
  facet normal 0 0 -1
    outer loop
      vertex 28 0 0
      vertex 2.3 5.5 0
      vertex 25.5 5.5 0
    endloop
  endfacet
  facet normal 0 0 -1
    outer loop
      vertex -8.5 0 0
      vertex 2.3 5.5 0
      vertex 28 0 0
    endloop
  endfacet
  facet normal 0 0 -1
    outer loop
      vertex 1.5 5.5 0
      vertex 0 6.3 0
      vertex 1.5 12 0
    endloop
  endfacet
  facet normal -0 0 -1
    outer loop
      vertex 2.3 5.5 0
      vertex -8.5 0 0
      vertex 1.5 5.5 0
    endloop
  endfacet
  facet normal 0 0 -1
    outer loop
      vertex -8.5 0 0
      vertex 0 6.3 0
      vertex 1.5 5.5 0
    endloop
  endfacet
  facet normal -0 0 -1
    outer loop
      vertex 0 6.3 0
      vertex -8.5 0 0
      vertex -8.5 6.3 0
    endloop
  endfacet
  facet normal 0 0 -1
    outer loop
      vertex 26.3 12 0
      vertex 28 16.55 0
      vertex 26.3 5.5 0
    endloop
  endfacet
  facet normal 0 0 -1
    outer loop
      vertex 25.5 12 0
      vertex 28 16.55 0
      vertex 26.3 12 0
    endloop
  endfacet
  facet normal 0 0 -1
    outer loop
      vertex 2.3 12 0
      vertex 25.5 12 0
      vertex 2.3 5.5 0
    endloop
  endfacet
  facet normal 0 0 -1
    outer loop
      vertex 0 16.55 0
      vertex 25.5 12 0
      vertex 2.3 12 0
    endloop
  endfacet
  facet normal 0 0 -1
    outer loop
      vertex 0 16.55 0
      vertex 2.3 12 0
      vertex 1.5 12 0
    endloop
  endfacet
  facet normal 0 0 -1
    outer loop
      vertex 25.5 12 0
      vertex 0 16.55 0
      vertex 28 16.55 0
    endloop
  endfacet
  facet normal 0 0 -1
    outer loop
      vertex 0 16.55 0
      vertex 1.5 12 0
      vertex 0 6.3 0
    endloop
  endfacet
  facet normal 0 -1 0
    outer loop
      vertex -8.5 0 0.759999
      vertex -8.5 0 0
      vertex 0 0 0.759999
    endloop
  endfacet
  facet normal 0 -1 0
    outer loop
      vertex 0 0 0.759999
      vertex 28 0 19.12
      vertex 0 0 19.12
    endloop
  endfacet
  facet normal 0 -1 0
    outer loop
      vertex 0 0 0.759999
      vertex 28 0 0
      vertex 28 0 19.12
    endloop
  endfacet
  facet normal 0 -1 0
    outer loop
      vertex 28 0 0
      vertex 0 0 0.759999
      vertex -8.5 0 0
    endloop
  endfacet
  facet normal -1 0 0
    outer loop
      vertex 1.5 5.5 -10.6
      vertex 1.5 12 0
      vertex 1.5 12 -10.6
    endloop
  endfacet
  facet normal -1 -0 0
    outer loop
      vertex 1.5 12 0
      vertex 1.5 5.5 -10.6
      vertex 1.5 5.5 0
    endloop
  endfacet
  facet normal 1 -0 0
    outer loop
      vertex 2.3 5.5 0
      vertex 2.3 12 -10.6
      vertex 2.3 12 0
    endloop
  endfacet
  facet normal 1 0 0
    outer loop
      vertex 2.3 12 -10.6
      vertex 2.3 5.5 0
      vertex 2.3 5.5 -10.6
    endloop
  endfacet
  facet normal 0 1 -0
    outer loop
      vertex 2.3 12 -10.6
      vertex 1.5 12 0
      vertex 2.3 12 0
    endloop
  endfacet
  facet normal 0 1 0
    outer loop
      vertex 1.5 12 0
      vertex 2.3 12 -10.6
      vertex 1.5 12 -10.6
    endloop
  endfacet
  facet normal 0 0 -1
    outer loop
      vertex 1.5 5.5 -10.6
      vertex 2.3 12 -10.6
      vertex 2.3 5.5 -10.6
    endloop
  endfacet
  facet normal -0 0 -1
    outer loop
      vertex 2.3 12 -10.6
      vertex 1.5 5.5 -10.6
      vertex 1.5 12 -10.6
    endloop
  endfacet
  facet normal 0 -1 0
    outer loop
      vertex 1.5 5.5 -10.6
      vertex 2.3 5.5 0
      vertex 1.5 5.5 0
    endloop
  endfacet
  facet normal 0 -1 -0
    outer loop
      vertex 2.3 5.5 0
      vertex 1.5 5.5 -10.6
      vertex 2.3 5.5 -10.6
    endloop
  endfacet
  facet normal -1 0 0
    outer loop
      vertex 25.5 5.5 -10.6
      vertex 25.5 12 0
      vertex 25.5 12 -10.6
    endloop
  endfacet
  facet normal -1 -0 0
    outer loop
      vertex 25.5 12 0
      vertex 25.5 5.5 -10.6
      vertex 25.5 5.5 0
    endloop
  endfacet
  facet normal 1 -0 0
    outer loop
      vertex 26.3 5.5 0
      vertex 26.3 12 -10.6
      vertex 26.3 12 0
    endloop
  endfacet
  facet normal 1 0 0
    outer loop
      vertex 26.3 12 -10.6
      vertex 26.3 5.5 0
      vertex 26.3 5.5 -10.6
    endloop
  endfacet
  facet normal 0 0 -1
    outer loop
      vertex 25.5 5.5 -10.6
      vertex 26.3 12 -10.6
      vertex 26.3 5.5 -10.6
    endloop
  endfacet
  facet normal -0 0 -1
    outer loop
      vertex 26.3 12 -10.6
      vertex 25.5 5.5 -10.6
      vertex 25.5 12 -10.6
    endloop
  endfacet
  facet normal 0 -1 0
    outer loop
      vertex 25.5 5.5 -10.6
      vertex 26.3 5.5 0
      vertex 25.5 5.5 0
    endloop
  endfacet
  facet normal 0 -1 -0
    outer loop
      vertex 26.3 5.5 0
      vertex 25.5 5.5 -10.6
      vertex 26.3 5.5 -10.6
    endloop
  endfacet
  facet normal 0 1 -0
    outer loop
      vertex 26.3 12 -10.6
      vertex 25.5 12 0
      vertex 26.3 12 0
    endloop
  endfacet
  facet normal 0 1 0
    outer loop
      vertex 25.5 12 0
      vertex 26.3 12 -10.6
      vertex 25.5 12 -10.6
    endloop
  endfacet
  facet normal -1 0 0
    outer loop
      vertex -8.5 0 0
      vertex -8.5 6.3 0.759999
      vertex -8.5 6.3 0
    endloop
  endfacet
  facet normal -1 -0 0
    outer loop
      vertex -8.5 6.3 0.759999
      vertex -8.5 0 0
      vertex -8.5 0 0.759999
    endloop
  endfacet
  facet normal -0 0 1
    outer loop
      vertex -8.5 6.3 0.759999
      vertex 0 0 0.759999
      vertex 0 6.3 0.759999
    endloop
  endfacet
  facet normal 0 0 1
    outer loop
      vertex 0 0 0.759999
      vertex -8.5 6.3 0.759999
      vertex -8.5 0 0.759999
    endloop
  endfacet
  facet normal 0 1 -0
    outer loop
      vertex 0 6.3 0
      vertex -8.5 6.3 0.759999
      vertex 0 6.3 0.759999
    endloop
  endfacet
  facet normal 0 1 0
    outer loop
      vertex -8.5 6.3 0.759999
      vertex 0 6.3 0
      vertex -8.5 6.3 0
    endloop
  endfacet
  facet normal 0.980785 0.19509 0
    outer loop
      vertex 19.87 8.275 22.12
      vertex 19.4232 10.5214 19.12
      vertex 19.4232 10.5214 22.12
    endloop
  endfacet
  facet normal 0.980785 0.19509 0
    outer loop
      vertex 19.4232 10.5214 19.12
      vertex 19.87 8.275 22.12
      vertex 19.87 8.275 19.12
    endloop
  endfacet
  facet normal 0.980785 0.19509 0
    outer loop
      vertex 19.87 8.275 32.12
      vertex 19.4232 10.5214 28.12
      vertex 19.4232 10.5214 32.12
    endloop
  endfacet
  facet normal 0.980785 0.19509 0
    outer loop
      vertex 19.4232 10.5214 28.12
      vertex 19.87 8.275 32.12
      vertex 19.87 8.275 28.12
    endloop
  endfacet
  facet normal 0.19509 0.980785 -0
    outer loop
      vertex 16.2464 13.6982 28.12
      vertex 14 14.145 32.12
      vertex 16.2464 13.6982 32.12
    endloop
  endfacet
  facet normal 0.19509 0.980785 0
    outer loop
      vertex 14 14.145 32.12
      vertex 16.2464 13.6982 28.12
      vertex 14 14.145 28.12
    endloop
  endfacet
  facet normal 0.19509 0.980785 -0
    outer loop
      vertex 16.2464 13.6982 19.12
      vertex 14 14.145 22.12
      vertex 16.2464 13.6982 22.12
    endloop
  endfacet
  facet normal 0.19509 0.980785 0
    outer loop
      vertex 14 14.145 22.12
      vertex 16.2464 13.6982 19.12
      vertex 14 14.145 19.12
    endloop
  endfacet
  facet normal -0.980785 -0.195091 0
    outer loop
      vertex 8.57683 6.02865 19.12
      vertex 8.13 8.275 22.12
      vertex 8.13 8.275 19.12
    endloop
  endfacet
  facet normal -0.980785 -0.195091 0
    outer loop
      vertex 8.13 8.275 22.12
      vertex 8.57683 6.02865 19.12
      vertex 8.57683 6.02865 22.12
    endloop
  endfacet
  facet normal -0.980785 -0.195091 0
    outer loop
      vertex 8.57683 6.02865 28.12
      vertex 8.13 8.275 32.12
      vertex 8.13 8.275 28.12
    endloop
  endfacet
  facet normal -0.980785 -0.195091 0
    outer loop
      vertex 8.13 8.275 32.12
      vertex 8.57683 6.02865 28.12
      vertex 8.57683 6.02865 32.12
    endloop
  endfacet
  facet normal 0.55557 -0.83147 0
    outer loop
      vertex 16.2464 2.85183 28.12
      vertex 18.1507 4.12428 32.12
      vertex 16.2464 2.85183 32.12
    endloop
  endfacet
  facet normal 0.55557 -0.83147 0
    outer loop
      vertex 18.1507 4.12428 32.12
      vertex 16.2464 2.85183 28.12
      vertex 18.1507 4.12428 28.12
    endloop
  endfacet
  facet normal 0.55557 -0.83147 0
    outer loop
      vertex 16.2464 2.85183 19.12
      vertex 18.1507 4.12428 22.12
      vertex 16.2464 2.85183 22.12
    endloop
  endfacet
  facet normal 0.55557 -0.83147 0
    outer loop
      vertex 18.1507 4.12428 22.12
      vertex 16.2464 2.85183 19.12
      vertex 18.1507 4.12428 19.12
    endloop
  endfacet
  facet normal 0.19509 -0.980785 0
    outer loop
      vertex 14 2.405 28.12
      vertex 16.2464 2.85183 32.12
      vertex 14 2.405 32.12
    endloop
  endfacet
  facet normal 0.19509 -0.980785 0
    outer loop
      vertex 16.2464 2.85183 32.12
      vertex 14 2.405 28.12
      vertex 16.2464 2.85183 28.12
    endloop
  endfacet
  facet normal 0.19509 -0.980785 0
    outer loop
      vertex 14 2.405 19.12
      vertex 16.2464 2.85183 22.12
      vertex 14 2.405 22.12
    endloop
  endfacet
  facet normal 0.19509 -0.980785 0
    outer loop
      vertex 16.2464 2.85183 22.12
      vertex 14 2.405 19.12
      vertex 16.2464 2.85183 19.12
    endloop
  endfacet
  facet normal 0.55557 0.83147 -0
    outer loop
      vertex 18.1507 12.4257 28.12
      vertex 16.2464 13.6982 32.12
      vertex 18.1507 12.4257 32.12
    endloop
  endfacet
  facet normal 0.55557 0.83147 0
    outer loop
      vertex 16.2464 13.6982 32.12
      vertex 18.1507 12.4257 28.12
      vertex 16.2464 13.6982 28.12
    endloop
  endfacet
  facet normal 0.55557 0.83147 -0
    outer loop
      vertex 18.1507 12.4257 19.12
      vertex 16.2464 13.6982 22.12
      vertex 18.1507 12.4257 22.12
    endloop
  endfacet
  facet normal 0.55557 0.83147 0
    outer loop
      vertex 16.2464 13.6982 22.12
      vertex 18.1507 12.4257 19.12
      vertex 16.2464 13.6982 19.12
    endloop
  endfacet
  facet normal 0.83147 0.55557 0
    outer loop
      vertex 19.4232 10.5214 22.12
      vertex 18.1507 12.4257 19.12
      vertex 18.1507 12.4257 22.12
    endloop
  endfacet
  facet normal 0.83147 0.55557 0
    outer loop
      vertex 18.1507 12.4257 19.12
      vertex 19.4232 10.5214 22.12
      vertex 19.4232 10.5214 19.12
    endloop
  endfacet
  facet normal 0.83147 0.55557 0
    outer loop
      vertex 19.4232 10.5214 32.12
      vertex 18.1507 12.4257 28.12
      vertex 18.1507 12.4257 32.12
    endloop
  endfacet
  facet normal 0.83147 0.55557 0
    outer loop
      vertex 18.1507 12.4257 28.12
      vertex 19.4232 10.5214 32.12
      vertex 19.4232 10.5214 28.12
    endloop
  endfacet
  facet normal -0.19509 0.980785 0
    outer loop
      vertex 14 14.145 19.12
      vertex 11.7536 13.6982 22.12
      vertex 14 14.145 22.12
    endloop
  endfacet
  facet normal -0.19509 0.980785 0
    outer loop
      vertex 11.7536 13.6982 22.12
      vertex 14 14.145 19.12
      vertex 11.7536 13.6982 19.12
    endloop
  endfacet
  facet normal -0.19509 0.980785 0
    outer loop
      vertex 14 14.145 28.12
      vertex 11.7536 13.6982 32.12
      vertex 14 14.145 32.12
    endloop
  endfacet
  facet normal -0.19509 0.980785 0
    outer loop
      vertex 11.7536 13.6982 32.12
      vertex 14 14.145 28.12
      vertex 11.7536 13.6982 28.12
    endloop
  endfacet
  facet normal -0.55557 0.83147 0
    outer loop
      vertex 11.7536 13.6982 19.12
      vertex 9.84928 12.4257 22.12
      vertex 11.7536 13.6982 22.12
    endloop
  endfacet
  facet normal -0.55557 0.83147 0
    outer loop
      vertex 9.84928 12.4257 22.12
      vertex 11.7536 13.6982 19.12
      vertex 9.84928 12.4257 19.12
    endloop
  endfacet
  facet normal -0.55557 0.83147 0
    outer loop
      vertex 11.7536 13.6982 28.12
      vertex 9.84928 12.4257 32.12
      vertex 11.7536 13.6982 32.12
    endloop
  endfacet
  facet normal -0.55557 0.83147 0
    outer loop
      vertex 9.84928 12.4257 32.12
      vertex 11.7536 13.6982 28.12
      vertex 9.84928 12.4257 28.12
    endloop
  endfacet
  facet normal -0.83147 0.55557 0
    outer loop
      vertex 8.57683 10.5214 28.12
      vertex 9.84928 12.4257 32.12
      vertex 9.84928 12.4257 28.12
    endloop
  endfacet
  facet normal -0.83147 0.55557 0
    outer loop
      vertex 9.84928 12.4257 32.12
      vertex 8.57683 10.5214 28.12
      vertex 8.57683 10.5214 32.12
    endloop
  endfacet
  facet normal -0.83147 0.55557 0
    outer loop
      vertex 8.57683 10.5214 19.12
      vertex 9.84928 12.4257 22.12
      vertex 9.84928 12.4257 19.12
    endloop
  endfacet
  facet normal -0.83147 0.55557 0
    outer loop
      vertex 9.84928 12.4257 22.12
      vertex 8.57683 10.5214 19.12
      vertex 8.57683 10.5214 22.12
    endloop
  endfacet
  facet normal -0.83147 -0.55557 0
    outer loop
      vertex 9.84928 4.12428 19.12
      vertex 8.57683 6.02865 22.12
      vertex 8.57683 6.02865 19.12
    endloop
  endfacet
  facet normal -0.83147 -0.55557 0
    outer loop
      vertex 8.57683 6.02865 22.12
      vertex 9.84928 4.12428 19.12
      vertex 9.84928 4.12428 22.12
    endloop
  endfacet
  facet normal -0.83147 -0.55557 0
    outer loop
      vertex 9.84928 4.12428 28.12
      vertex 8.57683 6.02865 32.12
      vertex 8.57683 6.02865 28.12
    endloop
  endfacet
  facet normal -0.83147 -0.55557 0
    outer loop
      vertex 8.57683 6.02865 32.12
      vertex 9.84928 4.12428 28.12
      vertex 9.84928 4.12428 32.12
    endloop
  endfacet
  facet normal -0.19509 -0.980785 0
    outer loop
      vertex 11.7536 2.85183 19.12
      vertex 14 2.405 22.12
      vertex 11.7536 2.85183 22.12
    endloop
  endfacet
  facet normal -0.19509 -0.980785 -0
    outer loop
      vertex 14 2.405 22.12
      vertex 11.7536 2.85183 19.12
      vertex 14 2.405 19.12
    endloop
  endfacet
  facet normal -0.19509 -0.980785 0
    outer loop
      vertex 11.7536 2.85183 28.12
      vertex 14 2.405 32.12
      vertex 11.7536 2.85183 32.12
    endloop
  endfacet
  facet normal -0.19509 -0.980785 -0
    outer loop
      vertex 14 2.405 32.12
      vertex 11.7536 2.85183 28.12
      vertex 14 2.405 28.12
    endloop
  endfacet
  facet normal -0.55557 -0.83147 0
    outer loop
      vertex 9.84928 4.12428 19.12
      vertex 11.7536 2.85183 22.12
      vertex 9.84928 4.12428 22.12
    endloop
  endfacet
  facet normal -0.55557 -0.83147 -0
    outer loop
      vertex 11.7536 2.85183 22.12
      vertex 9.84928 4.12428 19.12
      vertex 11.7536 2.85183 19.12
    endloop
  endfacet
  facet normal -0.55557 -0.83147 0
    outer loop
      vertex 9.84928 4.12428 28.12
      vertex 11.7536 2.85183 32.12
      vertex 9.84928 4.12428 32.12
    endloop
  endfacet
  facet normal -0.55557 -0.83147 -0
    outer loop
      vertex 11.7536 2.85183 32.12
      vertex 9.84928 4.12428 28.12
      vertex 11.7536 2.85183 28.12
    endloop
  endfacet
  facet normal 0 0 1
    outer loop
      vertex 16.6656 8.275 32.12
      vertex 19.87 8.275 32.12
      vertex 19.4232 10.5214 32.12
    endloop
  endfacet
  facet normal 0 0 1
    outer loop
      vertex 16.241 9.85889 32.12
      vertex 19.4232 10.5214 32.12
      vertex 18.1507 12.4257 32.12
    endloop
  endfacet
  facet normal 0 0 1
    outer loop
      vertex 19.87 8.275 32.12
      vertex 16.6656 8.275 32.12
      vertex 19.4232 6.02865 32.12
    endloop
  endfacet
  facet normal -0 0 1
    outer loop
      vertex 16.4295 7.12872 32.12
      vertex 19.4232 6.02865 32.12
      vertex 16.6656 8.275 32.12
    endloop
  endfacet
  facet normal 0 0 1
    outer loop
      vertex 19.4232 10.5214 32.12
      vertex 16.4295 9.42128 32.12
      vertex 16.6656 8.275 32.12
    endloop
  endfacet
  facet normal 0 0 1
    outer loop
      vertex 19.4232 10.5214 32.12
      vertex 16.3811 9.65649 32.12
      vertex 16.4295 9.42128 32.12
    endloop
  endfacet
  facet normal 0 0 1
    outer loop
      vertex 15.5709 10.8277 32.12
      vertex 18.1507 12.4257 32.12
      vertex 16.2464 13.6982 32.12
    endloop
  endfacet
  facet normal 0 0 1
    outer loop
      vertex 19.4232 10.5214 32.12
      vertex 16.241 9.85889 32.12
      vertex 16.3811 9.65649 32.12
    endloop
  endfacet
  facet normal 0 0 1
    outer loop
      vertex 18.1507 12.4257 32.12
      vertex 15.5709 10.8277 32.12
      vertex 16.241 9.85889 32.12
    endloop
  endfacet
  facet normal 0 0 1
    outer loop
      vertex 16.2464 13.6982 32.12
      vertex 14.3584 11.6102 32.12
      vertex 15.5709 10.8277 32.12
    endloop
  endfacet
  facet normal 0 0 1
    outer loop
      vertex 14 14.145 32.12
      vertex 14.3584 11.6102 32.12
      vertex 16.2464 13.6982 32.12
    endloop
  endfacet
  facet normal 0 0 1
    outer loop
      vertex 14 14.145 32.12
      vertex 13.234 11.8263 32.12
      vertex 14.3584 11.6102 32.12
    endloop
  endfacet
  facet normal 0 0 1
    outer loop
      vertex 14 14.145 32.12
      vertex 12.9282 11.885 32.12
      vertex 13.234 11.8263 32.12
    endloop
  endfacet
  facet normal -0 0 1
    outer loop
      vertex 11.7536 13.6982 32.12
      vertex 12.9282 11.885 32.12
      vertex 14 14.145 32.12
    endloop
  endfacet
  facet normal 0 0 1
    outer loop
      vertex 11.7536 13.6982 32.12
      vertex 11.498 11.6102 32.12
      vertex 12.9282 11.885 32.12
    endloop
  endfacet
  facet normal -0 0 1
    outer loop
      vertex 9.84928 12.4257 32.12
      vertex 11.498 11.6102 32.12
      vertex 11.7536 13.6982 32.12
    endloop
  endfacet
  facet normal 0 0 1
    outer loop
      vertex 11.498 11.6102 32.12
      vertex 9.84928 12.4257 32.12
      vertex 10.5884 11.0232 32.12
    endloop
  endfacet
  facet normal 0 0 1
    outer loop
      vertex 10.5884 11.0232 32.12
      vertex 9.84928 12.4257 32.12
      vertex 10.2855 10.8277 32.12
    endloop
  endfacet
  facet normal 0 0 1
    outer loop
      vertex 8.57683 10.5214 32.12
      vertex 10.2855 10.8277 32.12
      vertex 9.84928 12.4257 32.12
    endloop
  endfacet
  facet normal 0 0 1
    outer loop
      vertex 10.2855 10.8277 32.12
      vertex 8.57683 10.5214 32.12
      vertex 9.47534 9.65649 32.12
    endloop
  endfacet
  facet normal 0 0 1
    outer loop
      vertex 8.13 8.275 32.12
      vertex 9.47534 9.65649 32.12
      vertex 8.57683 10.5214 32.12
    endloop
  endfacet
  facet normal -0 0 1
    outer loop
      vertex 16.3811 6.89351 32.12
      vertex 19.4232 6.02865 32.12
      vertex 16.4295 7.12872 32.12
    endloop
  endfacet
  facet normal -0 0 1
    outer loop
      vertex 16.241 6.69111 32.12
      vertex 19.4232 6.02865 32.12
      vertex 16.3811 6.89351 32.12
    endloop
  endfacet
  facet normal 0 0 1
    outer loop
      vertex 19.4232 6.02865 32.12
      vertex 16.241 6.69111 32.12
      vertex 18.1507 4.12428 32.12
    endloop
  endfacet
  facet normal -0 0 1
    outer loop
      vertex 15.5709 5.72234 32.12
      vertex 18.1507 4.12428 32.12
      vertex 16.241 6.69111 32.12
    endloop
  endfacet
  facet normal 0 0 1
    outer loop
      vertex 18.1507 4.12428 32.12
      vertex 15.5709 5.72234 32.12
      vertex 16.2464 2.85183 32.12
    endloop
  endfacet
  facet normal -0 0 1
    outer loop
      vertex 14.3584 4.93979 32.12
      vertex 16.2464 2.85183 32.12
      vertex 15.5709 5.72234 32.12
    endloop
  endfacet
  facet normal 0 0 1
    outer loop
      vertex 14.3584 4.93979 32.12
      vertex 14 2.405 32.12
      vertex 16.2464 2.85183 32.12
    endloop
  endfacet
  facet normal -0 0 1
    outer loop
      vertex 13.234 4.72375 32.12
      vertex 14 2.405 32.12
      vertex 14.3584 4.93979 32.12
    endloop
  endfacet
  facet normal -0 0 1
    outer loop
      vertex 12.9282 4.665 32.12
      vertex 14 2.405 32.12
      vertex 13.234 4.72375 32.12
    endloop
  endfacet
  facet normal 0 0 1
    outer loop
      vertex 12.9282 4.665 32.12
      vertex 11.7536 2.85183 32.12
      vertex 14 2.405 32.12
    endloop
  endfacet
  facet normal 0 0 1
    outer loop
      vertex 11.498 4.93979 32.12
      vertex 11.7536 2.85183 32.12
      vertex 12.9282 4.665 32.12
    endloop
  endfacet
  facet normal 0 0 1
    outer loop
      vertex 9.84928 4.12428 32.12
      vertex 11.498 4.93979 32.12
      vertex 10.5884 5.52684 32.12
    endloop
  endfacet
  facet normal 0 0 1
    outer loop
      vertex 9.84928 4.12428 32.12
      vertex 10.5884 5.52684 32.12
      vertex 10.2855 5.72234 32.12
    endloop
  endfacet
  facet normal 0 0 1
    outer loop
      vertex 11.498 4.93979 32.12
      vertex 9.84928 4.12428 32.12
      vertex 11.7536 2.85183 32.12
    endloop
  endfacet
  facet normal -0 0 1
    outer loop
      vertex 8.57683 6.02865 32.12
      vertex 10.2855 5.72234 32.12
      vertex 9.47534 6.89351 32.12
    endloop
  endfacet
  facet normal -0 0 1
    outer loop
      vertex 8.13 8.275 32.12
      vertex 9.47534 6.89351 32.12
      vertex 9.19086 8.275 32.12
    endloop
  endfacet
  facet normal 0 0 1
    outer loop
      vertex 9.47534 9.65649 32.12
      vertex 8.13 8.275 32.12
      vertex 9.19086 8.275 32.12
    endloop
  endfacet
  facet normal 0 0 1
    outer loop
      vertex 10.2855 5.72234 32.12
      vertex 8.57683 6.02865 32.12
      vertex 9.84928 4.12428 32.12
    endloop
  endfacet
  facet normal 0 0 1
    outer loop
      vertex 9.47534 6.89351 32.12
      vertex 8.13 8.275 32.12
      vertex 8.57683 6.02865 32.12
    endloop
  endfacet
  facet normal -0.980785 0.195091 0
    outer loop
      vertex 8.13 8.275 19.12
      vertex 8.57683 10.5214 22.12
      vertex 8.57683 10.5214 19.12
    endloop
  endfacet
  facet normal -0.980785 0.195091 0
    outer loop
      vertex 8.57683 10.5214 22.12
      vertex 8.13 8.275 19.12
      vertex 8.13 8.275 22.12
    endloop
  endfacet
  facet normal -0.980785 0.195091 0
    outer loop
      vertex 8.13 8.275 28.12
      vertex 8.57683 10.5214 32.12
      vertex 8.57683 10.5214 28.12
    endloop
  endfacet
  facet normal -0.980785 0.195091 0
    outer loop
      vertex 8.57683 10.5214 32.12
      vertex 8.13 8.275 28.12
      vertex 8.13 8.275 32.12
    endloop
  endfacet
  facet normal 0.83147 -0.55557 0
    outer loop
      vertex 18.1507 4.12428 22.12
      vertex 19.4232 6.02865 19.12
      vertex 19.4232 6.02865 22.12
    endloop
  endfacet
  facet normal 0.83147 -0.55557 0
    outer loop
      vertex 19.4232 6.02865 19.12
      vertex 18.1507 4.12428 22.12
      vertex 18.1507 4.12428 19.12
    endloop
  endfacet
  facet normal 0.83147 -0.55557 0
    outer loop
      vertex 18.1507 4.12428 32.12
      vertex 19.4232 6.02865 28.12
      vertex 19.4232 6.02865 32.12
    endloop
  endfacet
  facet normal 0.83147 -0.55557 0
    outer loop
      vertex 19.4232 6.02865 28.12
      vertex 18.1507 4.12428 32.12
      vertex 18.1507 4.12428 28.12
    endloop
  endfacet
  facet normal 0.980785 -0.19509 0
    outer loop
      vertex 19.4232 6.02865 32.12
      vertex 19.87 8.275 28.12
      vertex 19.87 8.275 32.12
    endloop
  endfacet
  facet normal 0.980785 -0.19509 0
    outer loop
      vertex 19.87 8.275 28.12
      vertex 19.4232 6.02865 32.12
      vertex 19.4232 6.02865 28.12
    endloop
  endfacet
  facet normal 0.980785 -0.19509 0
    outer loop
      vertex 19.4232 6.02865 22.12
      vertex 19.87 8.275 19.12
      vertex 19.87 8.275 22.12
    endloop
  endfacet
  facet normal 0.980785 -0.19509 0
    outer loop
      vertex 19.87 8.275 19.12
      vertex 19.4232 6.02865 22.12
      vertex 19.4232 6.02865 19.12
    endloop
  endfacet
  facet normal 0.980785 0.19509 0
    outer loop
      vertex 22.275 8.275 25.12
      vertex 21.6451 11.4417 22.12
      vertex 21.6451 11.4417 25.12
    endloop
  endfacet
  facet normal 0.980785 0.19509 0
    outer loop
      vertex 21.6451 11.4417 22.12
      vertex 22.275 8.275 25.12
      vertex 22.275 8.275 22.12
    endloop
  endfacet
  facet normal 0.980785 0.19509 0
    outer loop
      vertex 22.275 8.275 28.12
      vertex 21.6451 11.4417 25.94
      vertex 21.6451 11.4417 28.12
    endloop
  endfacet
  facet normal 0.980785 0.19509 0
    outer loop
      vertex 21.6451 11.4417 25.94
      vertex 22.275 8.275 28.12
      vertex 22.275 8.275 25.94
    endloop
  endfacet
  facet normal -0.980785 0.19509 0
    outer loop
      vertex 5.725 8.275 22.12
      vertex 6.3549 11.4417 25.12
      vertex 6.3549 11.4417 22.12
    endloop
  endfacet
  facet normal -0.980785 0.19509 0
    outer loop
      vertex 6.3549 11.4417 25.12
      vertex 5.725 8.275 22.12
      vertex 5.725 8.275 25.12
    endloop
  endfacet
  facet normal -0.980785 0.19509 0
    outer loop
      vertex 5.725 8.275 25.94
      vertex 6.3549 11.4417 28.12
      vertex 6.3549 11.4417 25.94
    endloop
  endfacet
  facet normal -0.980785 0.19509 0
    outer loop
      vertex 6.3549 11.4417 28.12
      vertex 5.725 8.275 25.94
      vertex 5.725 8.275 28.12
    endloop
  endfacet
  facet normal -0.19509 0.980785 0
    outer loop
      vertex 14 16.55 22.12
      vertex 10.8333 15.9201 25.12
      vertex 14 16.55 25.12
    endloop
  endfacet
  facet normal -0.19509 0.980785 0
    outer loop
      vertex 10.8333 15.9201 25.12
      vertex 14 16.55 22.12
      vertex 10.8333 15.9201 22.12
    endloop
  endfacet
  facet normal -0.19509 0.980785 0
    outer loop
      vertex 14 16.55 25.94
      vertex 10.8333 15.9201 28.12
      vertex 14 16.55 28.12
    endloop
  endfacet
  facet normal -0.19509 0.980785 0
    outer loop
      vertex 10.8333 15.9201 28.12
      vertex 14 16.55 25.94
      vertex 10.8333 15.9201 25.94
    endloop
  endfacet
  facet normal -0.55557 0.83147 0
    outer loop
      vertex 10.8333 15.9201 22.12
      vertex 8.14869 14.1263 25.12
      vertex 10.8333 15.9201 25.12
    endloop
  endfacet
  facet normal -0.55557 0.83147 0
    outer loop
      vertex 8.14869 14.1263 25.12
      vertex 10.8333 15.9201 22.12
      vertex 8.14869 14.1263 22.12
    endloop
  endfacet
  facet normal -0.55557 0.83147 0
    outer loop
      vertex 10.8333 15.9201 25.94
      vertex 8.14869 14.1263 28.12
      vertex 10.8333 15.9201 28.12
    endloop
  endfacet
  facet normal -0.55557 0.83147 0
    outer loop
      vertex 8.14869 14.1263 28.12
      vertex 10.8333 15.9201 25.94
      vertex 8.14869 14.1263 25.94
    endloop
  endfacet
  facet normal 0.19509 -0.980785 0
    outer loop
      vertex 14 0 25.94
      vertex 17.1667 0.629896 28.12
      vertex 14 0 28.12
    endloop
  endfacet
  facet normal 0.19509 -0.980785 0
    outer loop
      vertex 17.1667 0.629896 28.12
      vertex 14 0 25.94
      vertex 17.1667 0.629896 25.94
    endloop
  endfacet
  facet normal 0.19509 -0.980785 0
    outer loop
      vertex 14 0 22.12
      vertex 17.1667 0.629896 25.12
      vertex 14 0 25.12
    endloop
  endfacet
  facet normal 0.19509 -0.980785 0
    outer loop
      vertex 17.1667 0.629896 25.12
      vertex 14 0 22.12
      vertex 17.1667 0.629896 22.12
    endloop
  endfacet
  facet normal 0.831469 -0.555571 0
    outer loop
      vertex 19.8513 2.42369 28.12
      vertex 21.6451 5.10829 25.94
      vertex 21.6451 5.10829 28.12
    endloop
  endfacet
  facet normal 0.831469 -0.555571 0
    outer loop
      vertex 21.6451 5.10829 25.94
      vertex 19.8513 2.42369 28.12
      vertex 19.8513 2.42369 25.94
    endloop
  endfacet
  facet normal 0.831469 -0.555571 0
    outer loop
      vertex 19.8513 2.42369 25.12
      vertex 21.6451 5.10829 22.12
      vertex 21.6451 5.10829 25.12
    endloop
  endfacet
  facet normal 0.831469 -0.555571 0
    outer loop
      vertex 21.6451 5.10829 22.12
      vertex 19.8513 2.42369 25.12
      vertex 19.8513 2.42369 22.12
    endloop
  endfacet
  facet normal 0.555571 0.831469 -0
    outer loop
      vertex 19.8513 14.1263 22.12
      vertex 17.1667 15.9201 25.12
      vertex 19.8513 14.1263 25.12
    endloop
  endfacet
  facet normal 0.555571 0.831469 0
    outer loop
      vertex 17.1667 15.9201 25.12
      vertex 19.8513 14.1263 22.12
      vertex 17.1667 15.9201 22.12
    endloop
  endfacet
  facet normal 0.555571 0.831469 -0
    outer loop
      vertex 19.8513 14.1263 25.94
      vertex 17.1667 15.9201 28.12
      vertex 19.8513 14.1263 28.12
    endloop
  endfacet
  facet normal 0.555571 0.831469 0
    outer loop
      vertex 17.1667 15.9201 28.12
      vertex 19.8513 14.1263 25.94
      vertex 17.1667 15.9201 25.94
    endloop
  endfacet
  facet normal 0.831469 0.555571 0
    outer loop
      vertex 21.6451 11.4417 25.12
      vertex 19.8513 14.1263 22.12
      vertex 19.8513 14.1263 25.12
    endloop
  endfacet
  facet normal 0.831469 0.555571 0
    outer loop
      vertex 19.8513 14.1263 22.12
      vertex 21.6451 11.4417 25.12
      vertex 21.6451 11.4417 22.12
    endloop
  endfacet
  facet normal 0.831469 0.555571 0
    outer loop
      vertex 21.6451 11.4417 28.12
      vertex 19.8513 14.1263 25.94
      vertex 19.8513 14.1263 28.12
    endloop
  endfacet
  facet normal 0.831469 0.555571 0
    outer loop
      vertex 19.8513 14.1263 25.94
      vertex 21.6451 11.4417 28.12
      vertex 21.6451 11.4417 25.94
    endloop
  endfacet
  facet normal 0.19509 0.980785 -0
    outer loop
      vertex 17.1667 15.9201 22.12
      vertex 14 16.55 25.12
      vertex 17.1667 15.9201 25.12
    endloop
  endfacet
  facet normal 0.19509 0.980785 0
    outer loop
      vertex 14 16.55 25.12
      vertex 17.1667 15.9201 22.12
      vertex 14 16.55 22.12
    endloop
  endfacet
  facet normal 0.19509 0.980785 -0
    outer loop
      vertex 17.1667 15.9201 25.94
      vertex 14 16.55 28.12
      vertex 17.1667 15.9201 28.12
    endloop
  endfacet
  facet normal 0.19509 0.980785 0
    outer loop
      vertex 14 16.55 28.12
      vertex 17.1667 15.9201 25.94
      vertex 14 16.55 25.94
    endloop
  endfacet
  facet normal -0.83147 0.55557 0
    outer loop
      vertex 6.3549 11.4417 22.12
      vertex 8.14869 14.1263 25.12
      vertex 8.14869 14.1263 22.12
    endloop
  endfacet
  facet normal -0.83147 0.55557 0
    outer loop
      vertex 8.14869 14.1263 25.12
      vertex 6.3549 11.4417 22.12
      vertex 6.3549 11.4417 25.12
    endloop
  endfacet
  facet normal -0.83147 0.55557 0
    outer loop
      vertex 6.3549 11.4417 25.94
      vertex 8.14869 14.1263 28.12
      vertex 8.14869 14.1263 25.94
    endloop
  endfacet
  facet normal -0.83147 0.55557 0
    outer loop
      vertex 8.14869 14.1263 28.12
      vertex 6.3549 11.4417 25.94
      vertex 6.3549 11.4417 28.12
    endloop
  endfacet
  facet normal 0 0 1
    outer loop
      vertex 19.87 8.275 28.12
      vertex 22.275 8.275 28.12
      vertex 21.6451 11.4417 28.12
    endloop
  endfacet
  facet normal 0 0 1
    outer loop
      vertex 22.275 8.275 28.12
      vertex 19.87 8.275 28.12
      vertex 21.6451 5.10829 28.12
    endloop
  endfacet
  facet normal 0 0 1
    outer loop
      vertex 19.4232 10.5214 28.12
      vertex 21.6451 11.4417 28.12
      vertex 19.8513 14.1263 28.12
    endloop
  endfacet
  facet normal 0 0 1
    outer loop
      vertex 21.6451 11.4417 28.12
      vertex 19.4232 10.5214 28.12
      vertex 19.87 8.275 28.12
    endloop
  endfacet
  facet normal 0 0 1
    outer loop
      vertex 19.8513 14.1263 28.12
      vertex 18.1507 12.4257 28.12
      vertex 19.4232 10.5214 28.12
    endloop
  endfacet
  facet normal 0 0 1
    outer loop
      vertex 17.1667 15.9201 28.12
      vertex 18.1507 12.4257 28.12
      vertex 19.8513 14.1263 28.12
    endloop
  endfacet
  facet normal 0 0 1
    outer loop
      vertex 17.1667 15.9201 28.12
      vertex 16.2464 13.6982 28.12
      vertex 18.1507 12.4257 28.12
    endloop
  endfacet
  facet normal 0 0 1
    outer loop
      vertex 14 16.55 28.12
      vertex 16.2464 13.6982 28.12
      vertex 17.1667 15.9201 28.12
    endloop
  endfacet
  facet normal 0 0 1
    outer loop
      vertex 14 16.55 28.12
      vertex 14 14.145 28.12
      vertex 16.2464 13.6982 28.12
    endloop
  endfacet
  facet normal 0 0 1
    outer loop
      vertex 14 16.55 28.12
      vertex 11.7536 13.6982 28.12
      vertex 14 14.145 28.12
    endloop
  endfacet
  facet normal -0 0 1
    outer loop
      vertex 10.8333 15.9201 28.12
      vertex 11.7536 13.6982 28.12
      vertex 14 16.55 28.12
    endloop
  endfacet
  facet normal 0 0 1
    outer loop
      vertex 10.8333 15.9201 28.12
      vertex 9.84928 12.4257 28.12
      vertex 11.7536 13.6982 28.12
    endloop
  endfacet
  facet normal -0 0 1
    outer loop
      vertex 8.14869 14.1263 28.12
      vertex 9.84928 12.4257 28.12
      vertex 10.8333 15.9201 28.12
    endloop
  endfacet
  facet normal 0 0 1
    outer loop
      vertex 9.84928 12.4257 28.12
      vertex 8.14869 14.1263 28.12
      vertex 8.57683 10.5214 28.12
    endloop
  endfacet
  facet normal -0 0 1
    outer loop
      vertex 6.3549 11.4417 28.12
      vertex 8.57683 10.5214 28.12
      vertex 8.14869 14.1263 28.12
    endloop
  endfacet
  facet normal 0 0 1
    outer loop
      vertex 8.57683 10.5214 28.12
      vertex 6.3549 11.4417 28.12
      vertex 8.13 8.275 28.12
    endloop
  endfacet
  facet normal -0 0 1
    outer loop
      vertex 19.4232 6.02865 28.12
      vertex 21.6451 5.10829 28.12
      vertex 19.87 8.275 28.12
    endloop
  endfacet
  facet normal 0 0 1
    outer loop
      vertex 21.6451 5.10829 28.12
      vertex 19.4232 6.02865 28.12
      vertex 19.8513 2.42369 28.12
    endloop
  endfacet
  facet normal -0 0 1
    outer loop
      vertex 18.1507 4.12428 28.12
      vertex 19.8513 2.42369 28.12
      vertex 19.4232 6.02865 28.12
    endloop
  endfacet
  facet normal 0 0 1
    outer loop
      vertex 18.1507 4.12428 28.12
      vertex 17.1667 0.629896 28.12
      vertex 19.8513 2.42369 28.12
    endloop
  endfacet
  facet normal -0 0 1
    outer loop
      vertex 16.2464 2.85183 28.12
      vertex 17.1667 0.629896 28.12
      vertex 18.1507 4.12428 28.12
    endloop
  endfacet
  facet normal -0 0 1
    outer loop
      vertex 14 2.405 28.12
      vertex 17.1667 0.629896 28.12
      vertex 16.2464 2.85183 28.12
    endloop
  endfacet
  facet normal 0 0 1
    outer loop
      vertex 14 2.405 28.12
      vertex 14 0 28.12
      vertex 17.1667 0.629896 28.12
    endloop
  endfacet
  facet normal 0 0 1
    outer loop
      vertex 11.7536 2.85183 28.12
      vertex 14 0 28.12
      vertex 14 2.405 28.12
    endloop
  endfacet
  facet normal 0 0 1
    outer loop
      vertex 11.7536 2.85183 28.12
      vertex 10.8333 0.629896 28.12
      vertex 14 0 28.12
    endloop
  endfacet
  facet normal 0 0 1
    outer loop
      vertex 9.84928 4.12428 28.12
      vertex 10.8333 0.629896 28.12
      vertex 11.7536 2.85183 28.12
    endloop
  endfacet
  facet normal 0 0 1
    outer loop
      vertex 8.14869 2.42369 28.12
      vertex 9.84928 4.12428 28.12
      vertex 8.57683 6.02865 28.12
    endloop
  endfacet
  facet normal 0 0 1
    outer loop
      vertex 9.84928 4.12428 28.12
      vertex 8.14869 2.42369 28.12
      vertex 10.8333 0.629896 28.12
    endloop
  endfacet
  facet normal 0 0 1
    outer loop
      vertex 6.3549 5.10829 28.12
      vertex 8.57683 6.02865 28.12
      vertex 8.13 8.275 28.12
    endloop
  endfacet
  facet normal 0 0 1
    outer loop
      vertex 5.725 8.275 28.12
      vertex 8.13 8.275 28.12
      vertex 6.3549 11.4417 28.12
    endloop
  endfacet
  facet normal 0 0 1
    outer loop
      vertex 8.57683 6.02865 28.12
      vertex 6.3549 5.10829 28.12
      vertex 8.14869 2.42369 28.12
    endloop
  endfacet
  facet normal 0 0 1
    outer loop
      vertex 8.13 8.275 28.12
      vertex 5.725 8.275 28.12
      vertex 6.3549 5.10829 28.12
    endloop
  endfacet
  facet normal 0.980785 -0.19509 0
    outer loop
      vertex 21.6451 5.10829 28.12
      vertex 22.275 8.275 25.94
      vertex 22.275 8.275 28.12
    endloop
  endfacet
  facet normal 0.980785 -0.19509 0
    outer loop
      vertex 22.275 8.275 25.94
      vertex 21.6451 5.10829 28.12
      vertex 21.6451 5.10829 25.94
    endloop
  endfacet
  facet normal 0.980785 -0.19509 0
    outer loop
      vertex 21.6451 5.10829 25.12
      vertex 22.275 8.275 22.12
      vertex 22.275 8.275 25.12
    endloop
  endfacet
  facet normal 0.980785 -0.19509 0
    outer loop
      vertex 22.275 8.275 22.12
      vertex 21.6451 5.10829 25.12
      vertex 21.6451 5.10829 22.12
    endloop
  endfacet
  facet normal -0.55557 -0.83147 0
    outer loop
      vertex 8.14869 2.42369 22.12
      vertex 10.8333 0.629896 25.12
      vertex 8.14869 2.42369 25.12
    endloop
  endfacet
  facet normal -0.55557 -0.83147 -0
    outer loop
      vertex 10.8333 0.629896 25.12
      vertex 8.14869 2.42369 22.12
      vertex 10.8333 0.629896 22.12
    endloop
  endfacet
  facet normal -0.55557 -0.83147 0
    outer loop
      vertex 8.14869 2.42369 25.94
      vertex 10.8333 0.629896 28.12
      vertex 8.14869 2.42369 28.12
    endloop
  endfacet
  facet normal -0.55557 -0.83147 -0
    outer loop
      vertex 10.8333 0.629896 28.12
      vertex 8.14869 2.42369 25.94
      vertex 10.8333 0.629896 25.94
    endloop
  endfacet
  facet normal 0.555571 -0.831469 0
    outer loop
      vertex 17.1667 0.629896 22.12
      vertex 19.8513 2.42369 25.12
      vertex 17.1667 0.629896 25.12
    endloop
  endfacet
  facet normal 0.555571 -0.831469 0
    outer loop
      vertex 19.8513 2.42369 25.12
      vertex 17.1667 0.629896 22.12
      vertex 19.8513 2.42369 22.12
    endloop
  endfacet
  facet normal 0.555571 -0.831469 0
    outer loop
      vertex 17.1667 0.629896 25.94
      vertex 19.8513 2.42369 28.12
      vertex 17.1667 0.629896 28.12
    endloop
  endfacet
  facet normal 0.555571 -0.831469 0
    outer loop
      vertex 19.8513 2.42369 28.12
      vertex 17.1667 0.629896 25.94
      vertex 19.8513 2.42369 25.94
    endloop
  endfacet
  facet normal -0.980785 -0.19509 0
    outer loop
      vertex 6.3549 5.10829 22.12
      vertex 5.725 8.275 25.12
      vertex 5.725 8.275 22.12
    endloop
  endfacet
  facet normal -0.980785 -0.19509 0
    outer loop
      vertex 5.725 8.275 25.12
      vertex 6.3549 5.10829 22.12
      vertex 6.3549 5.10829 25.12
    endloop
  endfacet
  facet normal -0.980785 -0.19509 0
    outer loop
      vertex 6.3549 5.10829 25.94
      vertex 5.725 8.275 28.12
      vertex 5.725 8.275 25.94
    endloop
  endfacet
  facet normal -0.980785 -0.19509 0
    outer loop
      vertex 5.725 8.275 28.12
      vertex 6.3549 5.10829 25.94
      vertex 6.3549 5.10829 28.12
    endloop
  endfacet
  facet normal -0.19509 -0.980785 0
    outer loop
      vertex 10.8333 0.629896 25.94
      vertex 14 0 28.12
      vertex 10.8333 0.629896 28.12
    endloop
  endfacet
  facet normal -0.19509 -0.980785 -0
    outer loop
      vertex 14 0 28.12
      vertex 10.8333 0.629896 25.94
      vertex 14 0 25.94
    endloop
  endfacet
  facet normal -0.19509 -0.980785 0
    outer loop
      vertex 10.8333 0.629896 22.12
      vertex 14 0 25.12
      vertex 10.8333 0.629896 25.12
    endloop
  endfacet
  facet normal -0.19509 -0.980785 -0
    outer loop
      vertex 14 0 25.12
      vertex 10.8333 0.629896 22.12
      vertex 14 0 22.12
    endloop
  endfacet
  facet normal 0 0 -1
    outer loop
      vertex 19.87 8.275 22.12
      vertex 22.275 8.275 22.12
      vertex 21.6451 5.10829 22.12
    endloop
  endfacet
  facet normal 0 0 -1
    outer loop
      vertex 22.275 8.275 22.12
      vertex 19.87 8.275 22.12
      vertex 21.6451 11.4417 22.12
    endloop
  endfacet
  facet normal 0 0 -1
    outer loop
      vertex 19.4232 6.02865 22.12
      vertex 21.6451 5.10829 22.12
      vertex 19.8513 2.42369 22.12
    endloop
  endfacet
  facet normal 0 0 -1
    outer loop
      vertex 21.6451 5.10829 22.12
      vertex 19.4232 6.02865 22.12
      vertex 19.87 8.275 22.12
    endloop
  endfacet
  facet normal 0 0 -1
    outer loop
      vertex 19.8513 2.42369 22.12
      vertex 18.1507 4.12428 22.12
      vertex 19.4232 6.02865 22.12
    endloop
  endfacet
  facet normal 0 0 -1
    outer loop
      vertex 17.1667 0.629896 22.12
      vertex 18.1507 4.12428 22.12
      vertex 19.8513 2.42369 22.12
    endloop
  endfacet
  facet normal 0 0 -1
    outer loop
      vertex 17.1667 0.629896 22.12
      vertex 16.2464 2.85183 22.12
      vertex 18.1507 4.12428 22.12
    endloop
  endfacet
  facet normal 0 0 -1
    outer loop
      vertex 14 0 22.12
      vertex 16.2464 2.85183 22.12
      vertex 17.1667 0.629896 22.12
    endloop
  endfacet
  facet normal 0 0 -1
    outer loop
      vertex 14 0 22.12
      vertex 14 2.405 22.12
      vertex 16.2464 2.85183 22.12
    endloop
  endfacet
  facet normal 0 0 -1
    outer loop
      vertex 14 0 22.12
      vertex 11.7536 2.85183 22.12
      vertex 14 2.405 22.12
    endloop
  endfacet
  facet normal 0 0 -1
    outer loop
      vertex 10.8333 0.629896 22.12
      vertex 11.7536 2.85183 22.12
      vertex 14 0 22.12
    endloop
  endfacet
  facet normal 0 0 -1
    outer loop
      vertex 10.8333 0.629896 22.12
      vertex 9.84928 4.12428 22.12
      vertex 11.7536 2.85183 22.12
    endloop
  endfacet
  facet normal 0 0 -1
    outer loop
      vertex 8.14869 2.42369 22.12
      vertex 9.84928 4.12428 22.12
      vertex 10.8333 0.629896 22.12
    endloop
  endfacet
  facet normal -0 0 -1
    outer loop
      vertex 9.84928 4.12428 22.12
      vertex 8.14869 2.42369 22.12
      vertex 8.57683 6.02865 22.12
    endloop
  endfacet
  facet normal 0 0 -1
    outer loop
      vertex 6.3549 5.10829 22.12
      vertex 8.57683 6.02865 22.12
      vertex 8.14869 2.42369 22.12
    endloop
  endfacet
  facet normal -0 0 -1
    outer loop
      vertex 8.57683 6.02865 22.12
      vertex 6.3549 5.10829 22.12
      vertex 8.13 8.275 22.12
    endloop
  endfacet
  facet normal 0 0 -1
    outer loop
      vertex 19.4232 10.5214 22.12
      vertex 21.6451 11.4417 22.12
      vertex 19.87 8.275 22.12
    endloop
  endfacet
  facet normal -0 0 -1
    outer loop
      vertex 21.6451 11.4417 22.12
      vertex 19.4232 10.5214 22.12
      vertex 19.8513 14.1263 22.12
    endloop
  endfacet
  facet normal 0 0 -1
    outer loop
      vertex 18.1507 12.4257 22.12
      vertex 19.8513 14.1263 22.12
      vertex 19.4232 10.5214 22.12
    endloop
  endfacet
  facet normal 0 0 -1
    outer loop
      vertex 18.1507 12.4257 22.12
      vertex 17.1667 15.9201 22.12
      vertex 19.8513 14.1263 22.12
    endloop
  endfacet
  facet normal 0 0 -1
    outer loop
      vertex 16.2464 13.6982 22.12
      vertex 17.1667 15.9201 22.12
      vertex 18.1507 12.4257 22.12
    endloop
  endfacet
  facet normal 0 0 -1
    outer loop
      vertex 14 14.145 22.12
      vertex 17.1667 15.9201 22.12
      vertex 16.2464 13.6982 22.12
    endloop
  endfacet
  facet normal 0 0 -1
    outer loop
      vertex 14 14.145 22.12
      vertex 14 16.55 22.12
      vertex 17.1667 15.9201 22.12
    endloop
  endfacet
  facet normal 0 0 -1
    outer loop
      vertex 11.7536 13.6982 22.12
      vertex 14 16.55 22.12
      vertex 14 14.145 22.12
    endloop
  endfacet
  facet normal 0 0 -1
    outer loop
      vertex 11.7536 13.6982 22.12
      vertex 10.8333 15.9201 22.12
      vertex 14 16.55 22.12
    endloop
  endfacet
  facet normal 0 0 -1
    outer loop
      vertex 9.84928 12.4257 22.12
      vertex 10.8333 15.9201 22.12
      vertex 11.7536 13.6982 22.12
    endloop
  endfacet
  facet normal 0 0 -1
    outer loop
      vertex 8.14869 14.1263 22.12
      vertex 9.84928 12.4257 22.12
      vertex 8.57683 10.5214 22.12
    endloop
  endfacet
  facet normal 0 0 -1
    outer loop
      vertex 9.84928 12.4257 22.12
      vertex 8.14869 14.1263 22.12
      vertex 10.8333 15.9201 22.12
    endloop
  endfacet
  facet normal 0 0 -1
    outer loop
      vertex 6.3549 11.4417 22.12
      vertex 8.57683 10.5214 22.12
      vertex 8.13 8.275 22.12
    endloop
  endfacet
  facet normal 0 0 -1
    outer loop
      vertex 5.725 8.275 22.12
      vertex 8.13 8.275 22.12
      vertex 6.3549 5.10829 22.12
    endloop
  endfacet
  facet normal 0 0 -1
    outer loop
      vertex 8.57683 10.5214 22.12
      vertex 6.3549 11.4417 22.12
      vertex 8.14869 14.1263 22.12
    endloop
  endfacet
  facet normal 0 0 -1
    outer loop
      vertex 8.13 8.275 22.12
      vertex 5.725 8.275 22.12
      vertex 6.3549 11.4417 22.12
    endloop
  endfacet
  facet normal -0.83147 -0.55557 0
    outer loop
      vertex 8.14869 2.42369 25.94
      vertex 6.3549 5.10829 28.12
      vertex 6.3549 5.10829 25.94
    endloop
  endfacet
  facet normal -0.83147 -0.55557 0
    outer loop
      vertex 6.3549 5.10829 28.12
      vertex 8.14869 2.42369 25.94
      vertex 8.14869 2.42369 28.12
    endloop
  endfacet
  facet normal -0.83147 -0.55557 0
    outer loop
      vertex 8.14869 2.42369 22.12
      vertex 6.3549 5.10829 25.12
      vertex 6.3549 5.10829 22.12
    endloop
  endfacet
  facet normal -0.83147 -0.55557 0
    outer loop
      vertex 6.3549 5.10829 25.12
      vertex 8.14869 2.42369 22.12
      vertex 8.14869 2.42369 25.12
    endloop
  endfacet
  facet normal -1 0 0
    outer loop
      vertex 0 0 25.12
      vertex 0 17 25.94
      vertex 0 17 25.12
    endloop
  endfacet
  facet normal -1 -0 0
    outer loop
      vertex 0 17 25.94
      vertex 0 0 25.12
      vertex 0 0 25.94
    endloop
  endfacet
  facet normal 0 0 1
    outer loop
      vertex 40.6 17 25.94
      vertex 23.04 16.55 25.94
      vertex 40.6 16.55 25.94
    endloop
  endfacet
  facet normal 0 0 1
    outer loop
      vertex 23.04 16.55 25.94
      vertex 22.275 8.275 25.94
      vertex 23.04 0 25.94
    endloop
  endfacet
  facet normal 0 0 1
    outer loop
      vertex 23.04 16.55 25.94
      vertex 21.6451 11.4417 25.94
      vertex 22.275 8.275 25.94
    endloop
  endfacet
  facet normal 0 0 1
    outer loop
      vertex 23.04 16.55 25.94
      vertex 19.8513 14.1263 25.94
      vertex 21.6451 11.4417 25.94
    endloop
  endfacet
  facet normal 0 0 1
    outer loop
      vertex 23.04 16.55 25.94
      vertex 17.1667 15.9201 25.94
      vertex 19.8513 14.1263 25.94
    endloop
  endfacet
  facet normal 0 0 1
    outer loop
      vertex 23.04 16.55 25.94
      vertex 14 16.55 25.94
      vertex 17.1667 15.9201 25.94
    endloop
  endfacet
  facet normal 0 0 1
    outer loop
      vertex 40.6 17 25.94
      vertex 14 16.55 25.94
      vertex 23.04 16.55 25.94
    endloop
  endfacet
  facet normal 0 0 1
    outer loop
      vertex 6.3549 11.4417 25.94
      vertex 0 17 25.94
      vertex 5.725 8.275 25.94
    endloop
  endfacet
  facet normal 0 0 1
    outer loop
      vertex 8.14869 14.1263 25.94
      vertex 0 17 25.94
      vertex 6.3549 11.4417 25.94
    endloop
  endfacet
  facet normal 0 0 1
    outer loop
      vertex 10.8333 15.9201 25.94
      vertex 0 17 25.94
      vertex 8.14869 14.1263 25.94
    endloop
  endfacet
  facet normal 0 0 1
    outer loop
      vertex 14 16.55 25.94
      vertex 0 17 25.94
      vertex 10.8333 15.9201 25.94
    endloop
  endfacet
  facet normal -0 0 1
    outer loop
      vertex 0 17 25.94
      vertex 14 16.55 25.94
      vertex 40.6 17 25.94
    endloop
  endfacet
  facet normal -0 0 1
    outer loop
      vertex 21.6451 5.10829 25.94
      vertex 23.04 0 25.94
      vertex 22.275 8.275 25.94
    endloop
  endfacet
  facet normal -0 0 1
    outer loop
      vertex 19.8513 2.42369 25.94
      vertex 23.04 0 25.94
      vertex 21.6451 5.10829 25.94
    endloop
  endfacet
  facet normal -0 0 1
    outer loop
      vertex 17.1667 0.629896 25.94
      vertex 23.04 0 25.94
      vertex 19.8513 2.42369 25.94
    endloop
  endfacet
  facet normal 0 0 1
    outer loop
      vertex 23.04 0 25.94
      vertex 17.1667 0.629896 25.94
      vertex 14 0 25.94
    endloop
  endfacet
  facet normal 0 0 1
    outer loop
      vertex 0 0 25.94
      vertex 5.725 8.275 25.94
      vertex 0 17 25.94
    endloop
  endfacet
  facet normal 0 0 1
    outer loop
      vertex 10.8333 0.629896 25.94
      vertex 0 0 25.94
      vertex 14 0 25.94
    endloop
  endfacet
  facet normal 0 0 1
    outer loop
      vertex 8.14869 2.42369 25.94
      vertex 0 0 25.94
      vertex 10.8333 0.629896 25.94
    endloop
  endfacet
  facet normal 0 0 1
    outer loop
      vertex 6.3549 5.10829 25.94
      vertex 0 0 25.94
      vertex 8.14869 2.42369 25.94
    endloop
  endfacet
  facet normal 0 0 1
    outer loop
      vertex 5.725 8.275 25.94
      vertex 0 0 25.94
      vertex 6.3549 5.10829 25.94
    endloop
  endfacet
  facet normal 1 0 0
    outer loop
      vertex 40.6 16.55 69.84
      vertex 40.6 0 69.84
      vertex 40.6 16.55 25.94
    endloop
  endfacet
  facet normal 1 -0 0
    outer loop
      vertex 40.6 16.55 25.94
      vertex 40.6 17 25.12
      vertex 40.6 17 25.94
    endloop
  endfacet
  facet normal 1 0 0
    outer loop
      vertex 40.6 16.55 25.94
      vertex 40.6 0 25.12
      vertex 40.6 17 25.12
    endloop
  endfacet
  facet normal 1 0 0
    outer loop
      vertex 40.6 0 25.12
      vertex 40.6 16.55 25.94
      vertex 40.6 0 69.84
    endloop
  endfacet
  facet normal 0 1 -0
    outer loop
      vertex 40.6 17 25.12
      vertex 0 17 25.94
      vertex 40.6 17 25.94
    endloop
  endfacet
  facet normal 0 1 0
    outer loop
      vertex 0 17 25.94
      vertex 40.6 17 25.12
      vertex 0 17 25.12
    endloop
  endfacet
  facet normal -0 0 -1
    outer loop
      vertex 6.3549 5.10829 25.12
      vertex 0 0 25.12
      vertex 5.725 8.275 25.12
    endloop
  endfacet
  facet normal -0 0 -1
    outer loop
      vertex 8.14869 2.42369 25.12
      vertex 0 0 25.12
      vertex 6.3549 5.10829 25.12
    endloop
  endfacet
  facet normal -0 0 -1
    outer loop
      vertex 10.8333 0.629896 25.12
      vertex 0 0 25.12
      vertex 8.14869 2.42369 25.12
    endloop
  endfacet
  facet normal 0 0 -1
    outer loop
      vertex 0 0 25.12
      vertex 10.8333 0.629896 25.12
      vertex 14 0 25.12
    endloop
  endfacet
  facet normal 0 0 -1
    outer loop
      vertex 40.6 0 25.12
      vertex 22.275 8.275 25.12
      vertex 40.6 17 25.12
    endloop
  endfacet
  facet normal 0 0 -1
    outer loop
      vertex 40.6 0 25.12
      vertex 21.6451 5.10829 25.12
      vertex 22.275 8.275 25.12
    endloop
  endfacet
  facet normal 0 0 -1
    outer loop
      vertex 40.6 0 25.12
      vertex 19.8513 2.42369 25.12
      vertex 21.6451 5.10829 25.12
    endloop
  endfacet
  facet normal 0 0 -1
    outer loop
      vertex 40.6 0 25.12
      vertex 17.1667 0.629896 25.12
      vertex 19.8513 2.42369 25.12
    endloop
  endfacet
  facet normal 0 -0 -1
    outer loop
      vertex 17.1667 0.629896 25.12
      vertex 40.6 0 25.12
      vertex 14 0 25.12
    endloop
  endfacet
  facet normal 0 0 -1
    outer loop
      vertex 21.6451 11.4417 25.12
      vertex 40.6 17 25.12
      vertex 22.275 8.275 25.12
    endloop
  endfacet
  facet normal 0 0 -1
    outer loop
      vertex 19.8513 14.1263 25.12
      vertex 40.6 17 25.12
      vertex 21.6451 11.4417 25.12
    endloop
  endfacet
  facet normal 0 0 -1
    outer loop
      vertex 17.1667 15.9201 25.12
      vertex 40.6 17 25.12
      vertex 19.8513 14.1263 25.12
    endloop
  endfacet
  facet normal 0 0 -1
    outer loop
      vertex 14 16.55 25.12
      vertex 40.6 17 25.12
      vertex 17.1667 15.9201 25.12
    endloop
  endfacet
  facet normal 0 0 -1
    outer loop
      vertex 0 17 25.12
      vertex 5.725 8.275 25.12
      vertex 0 0 25.12
    endloop
  endfacet
  facet normal 0 0 -1
    outer loop
      vertex 14 16.55 25.12
      vertex 0 17 25.12
      vertex 40.6 17 25.12
    endloop
  endfacet
  facet normal 0 0 -1
    outer loop
      vertex 10.8333 15.9201 25.12
      vertex 0 17 25.12
      vertex 14 16.55 25.12
    endloop
  endfacet
  facet normal 0 0 -1
    outer loop
      vertex 8.14869 14.1263 25.12
      vertex 0 17 25.12
      vertex 10.8333 15.9201 25.12
    endloop
  endfacet
  facet normal 0 0 -1
    outer loop
      vertex 6.3549 11.4417 25.12
      vertex 0 17 25.12
      vertex 8.14869 14.1263 25.12
    endloop
  endfacet
  facet normal 0 0 -1
    outer loop
      vertex 5.725 8.275 25.12
      vertex 0 17 25.12
      vertex 6.3549 11.4417 25.12
    endloop
  endfacet
  facet normal 0 -1 0
    outer loop
      vertex 14 0 25.12
      vertex 14 0 25.94
      vertex 0 0 25.94
    endloop
  endfacet
  facet normal 0 -1 0
    outer loop
      vertex 14 0 25.12
      vertex 0 0 25.94
      vertex 0 0 25.12
    endloop
  endfacet
  facet normal 0 -1 0
    outer loop
      vertex 23.04 0 25.94
      vertex 40.6 0 69.84
      vertex 23.04 0 69.84
    endloop
  endfacet
  facet normal 0 -1 0
    outer loop
      vertex 14 0 25.94
      vertex 14 0 25.12
      vertex 23.04 0 25.94
    endloop
  endfacet
  facet normal 0 -1 0
    outer loop
      vertex 23.04 0 25.94
      vertex 40.6 0 25.12
      vertex 40.6 0 69.84
    endloop
  endfacet
  facet normal 0 -1 0
    outer loop
      vertex 40.6 0 25.12
      vertex 23.04 0 25.94
      vertex 14 0 25.12
    endloop
  endfacet
  facet normal 0.947365 0.195093 0.253846
    outer loop
      vertex 12.304 9.65649 47.3358
      vertex 16.4295 9.42128 32.12
      vertex 16.3811 9.65649 32.12
    endloop
  endfacet
  facet normal 0.947366 0.195091 0.253846
    outer loop
      vertex 16.4295 9.42128 32.12
      vertex 12.304 9.65649 47.3358
      vertex 12.5694 8.275 47.4069
    endloop
  endfacet
  facet normal -0.947366 0.19509 -0.253846
    outer loop
      vertex 5.59545 8.275 45.5383
      vertex 9.47534 9.65649 32.12
      vertex 9.19086 8.275 32.12
    endloop
  endfacet
  facet normal -0.947366 0.19509 -0.253846
    outer loop
      vertex 9.47534 9.65649 32.12
      vertex 5.59545 8.275 45.5383
      vertex 5.86088 9.65649 45.6094
    endloop
  endfacet
  facet normal 0.803138 0.555571 0.2152
    outer loop
      vertex 15.5709 10.8277 32.12
      vertex 11.5481 10.8277 47.1333
      vertex 16.241 9.85889 32.12
    endloop
  endfacet
  facet normal 0.947366 0.19509 0.253846
    outer loop
      vertex 16.4295 9.42128 32.12
      vertex 12.5694 8.275 47.4069
      vertex 16.6656 8.275 32.12
    endloop
  endfacet
  facet normal -0.188443 0.980785 -0.050493
    outer loop
      vertex 11.498 11.6102 32.12
      vertex 9.08244 11.885 46.4726
      vertex 12.9282 11.885 32.12
    endloop
  endfacet
  facet normal -0.188443 0.980785 -0.050493
    outer loop
      vertex 9.08244 11.885 46.4726
      vertex 11.498 11.6102 32.12
      vertex 7.74802 11.6102 46.115
    endloop
  endfacet
  facet normal 0.188441 0.980786 0.0504928
    outer loop
      vertex 12.9282 11.885 32.12
      vertex 10.4169 11.6102 46.8301
      vertex 13.234 11.8263 32.12
    endloop
  endfacet
  facet normal 0.188443 0.980785 0.050493
    outer loop
      vertex 10.4169 11.6102 46.8301
      vertex 12.9282 11.885 32.12
      vertex 9.08244 11.885 46.4726
    endloop
  endfacet
  facet normal 0.947366 -0.19509 0.253846
    outer loop
      vertex 16.6656 8.275 32.12
      vertex 12.5694 8.275 47.4069
      vertex 16.4295 7.12872 32.12
    endloop
  endfacet
  facet normal -0.947366 -0.19509 -0.253846
    outer loop
      vertex 9.47534 6.89351 32.12
      vertex 5.59545 8.275 45.5383
      vertex 9.19086 8.275 32.12
    endloop
  endfacet
  facet normal -0.947366 -0.19509 -0.253846
    outer loop
      vertex 5.59545 8.275 45.5383
      vertex 9.47534 6.89351 32.12
      vertex 5.86088 6.89351 45.6094
    endloop
  endfacet
  facet normal 0.188443 0.980785 0.0504931
    outer loop
      vertex 13.234 11.8263 32.12
      vertex 10.4169 11.6102 46.8301
      vertex 14.3584 11.6102 32.12
    endloop
  endfacet
  facet normal -0.258819 0 0.965926
    outer loop
      vertex 5.86088 9.65649 45.6094
      vertex 10.4169 4.93979 46.8301
      vertex 10.4169 11.6102 46.8301
    endloop
  endfacet
  facet normal -0.258819 0 0.965926
    outer loop
      vertex 10.4169 4.93979 46.8301
      vertex 5.86088 9.65649 45.6094
      vertex 5.86088 6.89351 45.6094
    endloop
  endfacet
  facet normal 0.188443 -0.980785 0.050493
    outer loop
      vertex 14.3584 4.93979 32.12
      vertex 10.4169 4.93979 46.8301
      vertex 13.234 4.72375 32.12
    endloop
  endfacet
  facet normal 0.803138 -0.55557 0.2152
    outer loop
      vertex 11.5481 5.72234 47.1333
      vertex 16.3811 6.89351 32.12
      vertex 12.304 6.89351 47.3358
    endloop
  endfacet
  facet normal 0.803139 -0.555569 0.215201
    outer loop
      vertex 16.3811 6.89351 32.12
      vertex 11.5481 5.72234 47.1333
      vertex 16.241 6.69111 32.12
    endloop
  endfacet
  facet normal -0.258818 0 0.965926
    outer loop
      vertex 11.5481 10.8277 47.1333
      vertex 12.304 6.89351 47.3358
      vertex 12.304 9.65649 47.3358
    endloop
  endfacet
  facet normal -0.258818 0 0.965926
    outer loop
      vertex 12.304 6.89351 47.3358
      vertex 11.5481 10.8277 47.1333
      vertex 11.5481 5.72234 47.1333
    endloop
  endfacet
  facet normal -0.803138 -0.55557 -0.2152
    outer loop
      vertex 10.2855 5.72234 32.12
      vertex 5.86088 6.89351 45.6094
      vertex 9.47534 6.89351 32.12
    endloop
  endfacet
  facet normal -0.803138 -0.55557 -0.2152
    outer loop
      vertex 5.86088 6.89351 45.6094
      vertex 10.2855 5.72234 32.12
      vertex 6.61676 5.72234 45.8119
    endloop
  endfacet
  facet normal 0.53664 0.83147 0.143792
    outer loop
      vertex 14.3584 11.6102 32.12
      vertex 11.5481 10.8277 47.1333
      vertex 15.5709 10.8277 32.12
    endloop
  endfacet
  facet normal 0.53664 0.83147 0.143792
    outer loop
      vertex 11.5481 10.8277 47.1333
      vertex 14.3584 11.6102 32.12
      vertex 10.4169 11.6102 46.8301
    endloop
  endfacet
  facet normal -0.258819 -9.96353e-007 0.965926
    outer loop
      vertex 7.74802 11.6102 46.115
      vertex 5.86088 9.65649 45.6094
      vertex 9.08244 11.885 46.4726
    endloop
  endfacet
  facet normal -0.258818 0 0.965926
    outer loop
      vertex 10.4169 11.6102 46.8301
      vertex 11.5481 5.72234 47.1333
      vertex 11.5481 10.8277 47.1333
    endloop
  endfacet
  facet normal -0.258818 0 0.965926
    outer loop
      vertex 11.5481 5.72234 47.1333
      vertex 10.4169 11.6102 46.8301
      vertex 10.4169 4.93979 46.8301
    endloop
  endfacet
  facet normal 0.947366 -0.195091 0.253846
    outer loop
      vertex 12.304 6.89351 47.3358
      vertex 16.4295 7.12872 32.12
      vertex 12.5694 8.275 47.4069
    endloop
  endfacet
  facet normal 0.947365 -0.195093 0.253846
    outer loop
      vertex 16.4295 7.12872 32.12
      vertex 12.304 6.89351 47.3358
      vertex 16.3811 6.89351 32.12
    endloop
  endfacet
  facet normal -0.258828 0 0.965923
    outer loop
      vertex 12.304 9.65649 47.3358
      vertex 12.304 6.89351 47.3358
      vertex 12.5694 8.275 47.4069
    endloop
  endfacet
  facet normal -0.53664 -0.83147 -0.143792
    outer loop
      vertex 11.498 4.93979 32.12
      vertex 7.74802 4.93979 46.115
      vertex 10.5884 5.52684 32.12
    endloop
  endfacet
  facet normal -0.258819 9.96353e-007 0.965926
    outer loop
      vertex 9.08244 4.665 46.4726
      vertex 5.86088 6.89351 45.6094
      vertex 7.74802 4.93979 46.115
    endloop
  endfacet
  facet normal -0.188443 -0.980785 -0.050493
    outer loop
      vertex 11.498 4.93979 32.12
      vertex 9.08244 4.665 46.4726
      vertex 7.74802 4.93979 46.115
    endloop
  endfacet
  facet normal -0.188443 -0.980785 -0.050493
    outer loop
      vertex 9.08244 4.665 46.4726
      vertex 11.498 4.93979 32.12
      vertex 12.9282 4.665 32.12
    endloop
  endfacet
  facet normal 0.803138 0.55557 0.2152
    outer loop
      vertex 16.3811 9.65649 32.12
      vertex 11.5481 10.8277 47.1333
      vertex 12.304 9.65649 47.3358
    endloop
  endfacet
  facet normal 0.803138 0.55557 0.2152
    outer loop
      vertex 11.5481 10.8277 47.1333
      vertex 16.3811 9.65649 32.12
      vertex 16.241 9.85889 32.12
    endloop
  endfacet
  facet normal -0.258819 -5.39223e-007 0.965926
    outer loop
      vertex 9.08244 11.885 46.4726
      vertex 5.86088 9.65649 45.6094
      vertex 10.4169 11.6102 46.8301
    endloop
  endfacet
  facet normal -0.536641 0.831469 -0.143792
    outer loop
      vertex 10.2855 10.8277 32.12
      vertex 7.74802 11.6102 46.115
      vertex 10.5884 11.0232 32.12
    endloop
  endfacet
  facet normal -0.53664 0.83147 -0.143792
    outer loop
      vertex 7.74802 11.6102 46.115
      vertex 10.2855 10.8277 32.12
      vertex 6.61676 10.8277 45.8119
    endloop
  endfacet
  facet normal -0.803138 0.55557 -0.2152
    outer loop
      vertex 5.86088 9.65649 45.6094
      vertex 10.2855 10.8277 32.12
      vertex 9.47534 9.65649 32.12
    endloop
  endfacet
  facet normal -0.803138 0.55557 -0.2152
    outer loop
      vertex 10.2855 10.8277 32.12
      vertex 5.86088 9.65649 45.6094
      vertex 6.61676 10.8277 45.8119
    endloop
  endfacet
  facet normal -0.536639 0.83147 -0.143792
    outer loop
      vertex 10.5884 11.0232 32.12
      vertex 7.74802 11.6102 46.115
      vertex 11.498 11.6102 32.12
    endloop
  endfacet
  facet normal -0.53664 -0.83147 -0.143792
    outer loop
      vertex 10.2855 5.72234 32.12
      vertex 7.74802 4.93979 46.115
      vertex 6.61676 5.72234 45.8119
    endloop
  endfacet
  facet normal -0.53664 -0.831469 -0.143792
    outer loop
      vertex 7.74802 4.93979 46.115
      vertex 10.2855 5.72234 32.12
      vertex 10.5884 5.52684 32.12
    endloop
  endfacet
  facet normal -0.258825 -4.91882e-006 0.965924
    outer loop
      vertex 7.74802 4.93979 46.115
      vertex 5.86088 6.89351 45.6094
      vertex 6.61676 5.72234 45.8119
    endloop
  endfacet
  facet normal 0.188443 -0.980785 0.050493
    outer loop
      vertex 12.9282 4.665 32.12
      vertex 10.4169 4.93979 46.8301
      vertex 9.08244 4.665 46.4726
    endloop
  endfacet
  facet normal 0.188442 -0.980785 0.050493
    outer loop
      vertex 10.4169 4.93979 46.8301
      vertex 12.9282 4.665 32.12
      vertex 13.234 4.72375 32.12
    endloop
  endfacet
  facet normal -0.258819 5.39223e-007 0.965926
    outer loop
      vertex 10.4169 4.93979 46.8301
      vertex 5.86088 6.89351 45.6094
      vertex 9.08244 4.665 46.4726
    endloop
  endfacet
  facet normal 0.53664 -0.83147 0.143792
    outer loop
      vertex 14.3584 4.93979 32.12
      vertex 11.5481 5.72234 47.1333
      vertex 10.4169 4.93979 46.8301
    endloop
  endfacet
  facet normal 0.53664 -0.83147 0.143792
    outer loop
      vertex 11.5481 5.72234 47.1333
      vertex 14.3584 4.93979 32.12
      vertex 15.5709 5.72234 32.12
    endloop
  endfacet
  facet normal 0.803137 -0.555571 0.2152
    outer loop
      vertex 16.241 6.69111 32.12
      vertex 11.5481 5.72234 47.1333
      vertex 15.5709 5.72234 32.12
    endloop
  endfacet
  facet normal -0.258816 0 0.965927
    outer loop
      vertex 5.86088 9.65649 45.6094
      vertex 5.59545 8.275 45.5383
      vertex 5.86088 6.89351 45.6094
    endloop
  endfacet
  facet normal -0.258825 4.91882e-006 0.965924
    outer loop
      vertex 6.61676 10.8277 45.8119
      vertex 5.86088 9.65649 45.6094
      vertex 7.74802 11.6102 46.115
    endloop
  endfacet
  facet normal -1 0 0
    outer loop
      vertex 23.04 0 25.94
      vertex 23.04 16.55 69.84
      vertex 23.04 16.55 25.94
    endloop
  endfacet
  facet normal -1 -0 0
    outer loop
      vertex 23.04 16.55 69.84
      vertex 23.04 0 25.94
      vertex 23.04 0 69.84
    endloop
  endfacet
  facet normal -0 0 1
    outer loop
      vertex 23.04 16.55 69.84
      vertex 40.6 0 69.84
      vertex 40.6 16.55 69.84
    endloop
  endfacet
  facet normal 0 0 1
    outer loop
      vertex 40.6 0 69.84
      vertex 23.04 16.55 69.84
      vertex 23.04 0 69.84
    endloop
  endfacet
  facet normal 0 1 -0
    outer loop
      vertex 40.6 16.55 25.94
      vertex 23.04 16.55 69.84
      vertex 40.6 16.55 69.84
    endloop
  endfacet
  facet normal 0 1 0
    outer loop
      vertex 23.04 16.55 69.84
      vertex 40.6 16.55 25.94
      vertex 23.04 16.55 25.94
    endloop
  endfacet
endsolid OpenSCAD_Model
