solid OpenSCAD_Model
  facet normal -0.980785 -0.195091 0
    outer loop
      vertex 3.75 18.86 0
      vertex 3.65485 19.3384 1.3
      vertex 3.65485 19.3384 0
    endloop
  endfacet
  facet normal -0.980785 -0.195091 0
    outer loop
      vertex 3.65485 19.3384 1.3
      vertex 3.75 18.86 0
      vertex 3.75 18.86 1.3
    endloop
  endfacet
  facet normal 0.195093 -0.980785 0
    outer loop
      vertex 2.02165 20.0148 0
      vertex 2.5 20.11 1.3
      vertex 2.02165 20.0148 1.3
    endloop
  endfacet
  facet normal 0.195093 -0.980785 0
    outer loop
      vertex 2.5 20.11 1.3
      vertex 2.02165 20.0148 0
      vertex 2.5 20.11 0
    endloop
  endfacet
  facet normal -0.195089 0.980786 0
    outer loop
      vertex 2.97835 17.7052 0
      vertex 2.5 17.61 1.3
      vertex 2.97835 17.7052 1.3
    endloop
  endfacet
  facet normal -0.195089 0.980786 0
    outer loop
      vertex 2.5 17.61 1.3
      vertex 2.97835 17.7052 0
      vertex 2.5 17.61 0
    endloop
  endfacet
  facet normal -0.555569 0.83147 0
    outer loop
      vertex 3.38388 17.9761 0
      vertex 2.97835 17.7052 1.3
      vertex 3.38388 17.9761 1.3
    endloop
  endfacet
  facet normal -0.555569 0.83147 0
    outer loop
      vertex 2.97835 17.7052 1.3
      vertex 3.38388 17.9761 0
      vertex 2.97835 17.7052 0
    endloop
  endfacet
  facet normal -0.555569 -0.83147 0
    outer loop
      vertex 2.97835 20.0148 0
      vertex 3.38388 19.7439 1.3
      vertex 2.97835 20.0148 1.3
    endloop
  endfacet
  facet normal -0.555569 -0.83147 -0
    outer loop
      vertex 3.38388 19.7439 1.3
      vertex 2.97835 20.0148 0
      vertex 3.38388 19.7439 0
    endloop
  endfacet
  facet normal -0.83147 -0.55557 0
    outer loop
      vertex 3.65485 19.3384 0
      vertex 3.38388 19.7439 1.3
      vertex 3.38388 19.7439 0
    endloop
  endfacet
  facet normal -0.83147 -0.55557 0
    outer loop
      vertex 3.38388 19.7439 1.3
      vertex 3.65485 19.3384 0
      vertex 3.65485 19.3384 1.3
    endloop
  endfacet
  facet normal -0.195093 -0.980785 0
    outer loop
      vertex 2.5 20.11 0
      vertex 2.97835 20.0148 1.3
      vertex 2.5 20.11 1.3
    endloop
  endfacet
  facet normal -0.195093 -0.980785 -0
    outer loop
      vertex 2.97835 20.0148 1.3
      vertex 2.5 20.11 0
      vertex 2.97835 20.0148 0
    endloop
  endfacet
  facet normal 0.83147 -0.55557 0
    outer loop
      vertex 1.34515 19.3384 1.3
      vertex 1.61612 19.7439 0
      vertex 1.61612 19.7439 1.3
    endloop
  endfacet
  facet normal 0.83147 -0.55557 0
    outer loop
      vertex 1.61612 19.7439 0
      vertex 1.34515 19.3384 1.3
      vertex 1.34515 19.3384 0
    endloop
  endfacet
  facet normal 0.980785 -0.195089 0
    outer loop
      vertex 1.25 18.86 1.3
      vertex 1.34515 19.3384 0
      vertex 1.34515 19.3384 1.3
    endloop
  endfacet
  facet normal 0.980785 -0.195089 0
    outer loop
      vertex 1.34515 19.3384 0
      vertex 1.25 18.86 1.3
      vertex 1.25 18.86 0
    endloop
  endfacet
  facet normal 0.555569 -0.83147 0
    outer loop
      vertex 1.61612 19.7439 0
      vertex 2.02165 20.0148 1.3
      vertex 1.61612 19.7439 1.3
    endloop
  endfacet
  facet normal 0.555569 -0.83147 0
    outer loop
      vertex 2.02165 20.0148 1.3
      vertex 1.61612 19.7439 0
      vertex 2.02165 20.0148 0
    endloop
  endfacet
  facet normal -0.980785 0.195091 0
    outer loop
      vertex 3.65485 18.3816 0
      vertex 3.75 18.86 1.3
      vertex 3.75 18.86 0
    endloop
  endfacet
  facet normal -0.980785 0.195091 0
    outer loop
      vertex 3.75 18.86 1.3
      vertex 3.65485 18.3816 0
      vertex 3.65485 18.3816 1.3
    endloop
  endfacet
  facet normal 0.195089 0.980785 -0
    outer loop
      vertex 2.5 17.61 0
      vertex 2.02165 17.7052 1.3
      vertex 2.5 17.61 1.3
    endloop
  endfacet
  facet normal 0.195089 0.980785 0
    outer loop
      vertex 2.02165 17.7052 1.3
      vertex 2.5 17.61 0
      vertex 2.02165 17.7052 0
    endloop
  endfacet
  facet normal 0.83147 0.55557 0
    outer loop
      vertex 1.61612 17.9761 1.3
      vertex 1.34515 18.3816 0
      vertex 1.34515 18.3816 1.3
    endloop
  endfacet
  facet normal 0.83147 0.55557 0
    outer loop
      vertex 1.34515 18.3816 0
      vertex 1.61612 17.9761 1.3
      vertex 1.61612 17.9761 0
    endloop
  endfacet
  facet normal 0.980786 0.195089 0
    outer loop
      vertex 1.34515 18.3816 1.3
      vertex 1.25 18.86 0
      vertex 1.25 18.86 1.3
    endloop
  endfacet
  facet normal 0.980786 0.195089 0
    outer loop
      vertex 1.25 18.86 0
      vertex 1.34515 18.3816 1.3
      vertex 1.34515 18.3816 0
    endloop
  endfacet
  facet normal -0.83147 0.55557 0
    outer loop
      vertex 3.38388 17.9761 0
      vertex 3.65485 18.3816 1.3
      vertex 3.65485 18.3816 0
    endloop
  endfacet
  facet normal -0.83147 0.55557 0
    outer loop
      vertex 3.65485 18.3816 1.3
      vertex 3.38388 17.9761 0
      vertex 3.38388 17.9761 1.3
    endloop
  endfacet
  facet normal 0.555569 0.83147 -0
    outer loop
      vertex 2.02165 17.7052 0
      vertex 1.61612 17.9761 1.3
      vertex 2.02165 17.7052 1.3
    endloop
  endfacet
  facet normal 0.555569 0.83147 0
    outer loop
      vertex 1.61612 17.9761 1.3
      vertex 2.02165 17.7052 0
      vertex 1.61612 17.9761 0
    endloop
  endfacet
  facet normal -0.980784 -0.195097 0
    outer loop
      vertex 70.37 2 0
      vertex 70.2748 2.47835 1.3
      vertex 70.2748 2.47835 0
    endloop
  endfacet
  facet normal -0.980784 -0.195097 0
    outer loop
      vertex 70.2748 2.47835 1.3
      vertex 70.37 2 0
      vertex 70.37 2 1.3
    endloop
  endfacet
  facet normal 0.195091 -0.980785 0
    outer loop
      vertex 68.6416 3.15485 0
      vertex 69.12 3.25 1.3
      vertex 68.6416 3.15485 1.3
    endloop
  endfacet
  facet normal 0.195091 -0.980785 0
    outer loop
      vertex 69.12 3.25 1.3
      vertex 68.6416 3.15485 0
      vertex 69.12 3.25 0
    endloop
  endfacet
  facet normal -0.555566 0.831472 0
    outer loop
      vertex 70.0039 1.11612 0
      vertex 69.5984 0.84515 1.3
      vertex 70.0039 1.11612 1.3
    endloop
  endfacet
  facet normal -0.555566 0.831472 0
    outer loop
      vertex 69.5984 0.84515 1.3
      vertex 70.0039 1.11612 0
      vertex 69.5984 0.84515 0
    endloop
  endfacet
  facet normal -0.555566 -0.831472 0
    outer loop
      vertex 69.5984 3.15485 0
      vertex 70.0039 2.88388 1.3
      vertex 69.5984 3.15485 1.3
    endloop
  endfacet
  facet normal -0.555566 -0.831472 -0
    outer loop
      vertex 70.0039 2.88388 1.3
      vertex 69.5984 3.15485 0
      vertex 70.0039 2.88388 0
    endloop
  endfacet
  facet normal -0.83147 -0.555569 0
    outer loop
      vertex 70.2748 2.47835 0
      vertex 70.0039 2.88388 1.3
      vertex 70.0039 2.88388 0
    endloop
  endfacet
  facet normal -0.83147 -0.555569 0
    outer loop
      vertex 70.0039 2.88388 1.3
      vertex 70.2748 2.47835 0
      vertex 70.2748 2.47835 1.3
    endloop
  endfacet
  facet normal -0.195094 -0.980785 0
    outer loop
      vertex 69.12 3.25 0
      vertex 69.5984 3.15485 1.3
      vertex 69.12 3.25 1.3
    endloop
  endfacet
  facet normal -0.195094 -0.980785 -0
    outer loop
      vertex 69.5984 3.15485 1.3
      vertex 69.12 3.25 0
      vertex 69.5984 3.15485 0
    endloop
  endfacet
  facet normal 0.83147 -0.555569 0
    outer loop
      vertex 67.9651 2.47835 1.3
      vertex 68.2361 2.88388 0
      vertex 68.2361 2.88388 1.3
    endloop
  endfacet
  facet normal 0.83147 -0.555569 0
    outer loop
      vertex 68.2361 2.88388 0
      vertex 67.9651 2.47835 1.3
      vertex 67.9651 2.47835 0
    endloop
  endfacet
  facet normal 0.980787 -0.195082 0
    outer loop
      vertex 67.87 2 1.3
      vertex 67.9651 2.47835 0
      vertex 67.9651 2.47835 1.3
    endloop
  endfacet
  facet normal 0.980787 -0.195082 0
    outer loop
      vertex 67.9651 2.47835 0
      vertex 67.87 2 1.3
      vertex 67.87 2 0
    endloop
  endfacet
  facet normal 0.555566 -0.831472 0
    outer loop
      vertex 68.2361 2.88388 0
      vertex 68.6416 3.15485 1.3
      vertex 68.2361 2.88388 1.3
    endloop
  endfacet
  facet normal 0.555566 -0.831472 0
    outer loop
      vertex 68.6416 3.15485 1.3
      vertex 68.2361 2.88388 0
      vertex 68.6416 3.15485 0
    endloop
  endfacet
  facet normal 0.195089 0.980786 -0
    outer loop
      vertex 69.12 0.75 0
      vertex 68.6416 0.84515 1.3
      vertex 69.12 0.75 1.3
    endloop
  endfacet
  facet normal 0.195089 0.980786 0
    outer loop
      vertex 68.6416 0.84515 1.3
      vertex 69.12 0.75 0
      vertex 68.6416 0.84515 0
    endloop
  endfacet
  facet normal 0.83147 0.555569 0
    outer loop
      vertex 68.2361 1.11612 1.3
      vertex 67.9651 1.52165 0
      vertex 67.9651 1.52165 1.3
    endloop
  endfacet
  facet normal 0.83147 0.555569 0
    outer loop
      vertex 67.9651 1.52165 0
      vertex 68.2361 1.11612 1.3
      vertex 68.2361 1.11612 0
    endloop
  endfacet
  facet normal 0.980787 0.195082 0
    outer loop
      vertex 67.9651 1.52165 1.3
      vertex 67.87 2 0
      vertex 67.87 2 1.3
    endloop
  endfacet
  facet normal 0.980787 0.195082 0
    outer loop
      vertex 67.87 2 0
      vertex 67.9651 1.52165 1.3
      vertex 67.9651 1.52165 0
    endloop
  endfacet
  facet normal -0.83147 0.555569 0
    outer loop
      vertex 70.0039 1.11612 0
      vertex 70.2748 1.52165 1.3
      vertex 70.2748 1.52165 0
    endloop
  endfacet
  facet normal -0.83147 0.555569 0
    outer loop
      vertex 70.2748 1.52165 1.3
      vertex 70.0039 1.11612 0
      vertex 70.0039 1.11612 1.3
    endloop
  endfacet
  facet normal -0.195092 0.980785 0
    outer loop
      vertex 69.5984 0.84515 0
      vertex 69.12 0.75 1.3
      vertex 69.5984 0.84515 1.3
    endloop
  endfacet
  facet normal -0.195092 0.980785 0
    outer loop
      vertex 69.12 0.75 1.3
      vertex 69.5984 0.84515 0
      vertex 69.12 0.75 0
    endloop
  endfacet
  facet normal 0.555566 0.831472 -0
    outer loop
      vertex 68.6416 0.84515 0
      vertex 68.2361 1.11612 1.3
      vertex 68.6416 0.84515 1.3
    endloop
  endfacet
  facet normal 0.555566 0.831472 0
    outer loop
      vertex 68.2361 1.11612 1.3
      vertex 68.6416 0.84515 0
      vertex 68.2361 1.11612 0
    endloop
  endfacet
  facet normal -0.980784 0.195097 0
    outer loop
      vertex 70.2748 1.52165 0
      vertex 70.37 2 1.3
      vertex 70.37 2 0
    endloop
  endfacet
  facet normal -0.980784 0.195097 0
    outer loop
      vertex 70.37 2 1.3
      vertex 70.2748 1.52165 0
      vertex 70.2748 1.52165 1.3
    endloop
  endfacet
  facet normal -1 0 0
    outer loop
      vertex 0 22.86 0
      vertex 0 14.33 1.3
      vertex 0 22.86 1.3
    endloop
  endfacet
  facet normal -1 0 0
    outer loop
      vertex 0 22.86 0
      vertex 0 8.53 1.3
      vertex 0 14.33 1.3
    endloop
  endfacet
  facet normal -1 0 0
    outer loop
      vertex 0 0 0
      vertex 0 8.53 1.3
      vertex 0 22.86 0
    endloop
  endfacet
  facet normal -1 -0 0
    outer loop
      vertex 0 8.53 1.3
      vertex 0 0 0
      vertex 0 0 1.3
    endloop
  endfacet
  facet normal -0 0 1
    outer loop
      vertex 0 22.86 1.3
      vertex 2 20.26 1.3
      vertex 2 22.86 1.3
    endloop
  endfacet
  facet normal 0 0 1
    outer loop
      vertex 2 20.26 1.3
      vertex 0 22.86 1.3
      vertex 1.61612 19.7439 1.3
    endloop
  endfacet
  facet normal 0 0 1
    outer loop
      vertex 1.61612 19.7439 1.3
      vertex 0 22.86 1.3
      vertex 1.34515 19.3384 1.3
    endloop
  endfacet
  facet normal 0 0 1
    outer loop
      vertex 1.34515 19.3384 1.3
      vertex 0 22.86 1.3
      vertex 1.25 18.86 1.3
    endloop
  endfacet
  facet normal 0 0 1
    outer loop
      vertex 66 20.26 1.3
      vertex 64 11.43 1.3
      vertex 66 11.43 1.3
    endloop
  endfacet
  facet normal 0 0 1
    outer loop
      vertex 5.5 8.53 1.3
      vertex 64 11.43 1.3
      vertex 5.5 14.33 1.3
    endloop
  endfacet
  facet normal 0 0 1
    outer loop
      vertex 66 20.26 1.3
      vertex 5.5 14.33 1.3
      vertex 64 11.43 1.3
    endloop
  endfacet
  facet normal -0 0 1
    outer loop
      vertex 3.65485 19.3384 1.3
      vertex 5.5 14.33 1.3
      vertex 66 20.26 1.3
    endloop
  endfacet
  facet normal 0 0 1
    outer loop
      vertex 5.5 14.33 1.3
      vertex 3.65485 19.3384 1.3
      vertex 3.75 18.86 1.3
    endloop
  endfacet
  facet normal 0 0 1
    outer loop
      vertex 66 20.26 1.3
      vertex 3.38388 19.7439 1.3
      vertex 3.65485 19.3384 1.3
    endloop
  endfacet
  facet normal 0 0 1
    outer loop
      vertex 66 20.26 1.3
      vertex 2.97835 20.0148 1.3
      vertex 3.38388 19.7439 1.3
    endloop
  endfacet
  facet normal -0 0 1
    outer loop
      vertex 2 20.26 1.3
      vertex 2.97835 20.0148 1.3
      vertex 66 20.26 1.3
    endloop
  endfacet
  facet normal 0 0 1
    outer loop
      vertex 2.97835 20.0148 1.3
      vertex 2 20.26 1.3
      vertex 2.5 20.11 1.3
    endloop
  endfacet
  facet normal 0 0 1
    outer loop
      vertex 2 20.26 1.3
      vertex 2.02165 20.0148 1.3
      vertex 2.5 20.11 1.3
    endloop
  endfacet
  facet normal 0 0 1
    outer loop
      vertex 2.02165 20.0148 1.3
      vertex 2 20.26 1.3
      vertex 1.61612 19.7439 1.3
    endloop
  endfacet
  facet normal 0 0 1
    outer loop
      vertex 64 11.43 1.3
      vertex 5.5 8.53 1.3
      vertex 64 2.6 1.3
    endloop
  endfacet
  facet normal 0 0 1
    outer loop
      vertex 5.5 8.53 1.3
      vertex 2 2.6 1.3
      vertex 64 2.6 1.3
    endloop
  endfacet
  facet normal -0 0 1
    outer loop
      vertex 0 8.53 1.3
      vertex 2 2.6 1.3
      vertex 5.5 8.53 1.3
    endloop
  endfacet
  facet normal 0 0 1
    outer loop
      vertex 0 0 1.3
      vertex 2 2.6 1.3
      vertex 0 8.53 1.3
    endloop
  endfacet
  facet normal 0 0 1
    outer loop
      vertex 2 2.6 1.3
      vertex 0 0 1.3
      vertex 2 0 1.3
    endloop
  endfacet
  facet normal -0 0 1
    outer loop
      vertex 3.65485 18.3816 1.3
      vertex 5.5 14.33 1.3
      vertex 3.75 18.86 1.3
    endloop
  endfacet
  facet normal -0 0 1
    outer loop
      vertex 3.38388 17.9761 1.3
      vertex 5.5 14.33 1.3
      vertex 3.65485 18.3816 1.3
    endloop
  endfacet
  facet normal -0 0 1
    outer loop
      vertex 2.97835 17.7052 1.3
      vertex 5.5 14.33 1.3
      vertex 3.38388 17.9761 1.3
    endloop
  endfacet
  facet normal -0 0 1
    outer loop
      vertex 2.5 17.61 1.3
      vertex 5.5 14.33 1.3
      vertex 2.97835 17.7052 1.3
    endloop
  endfacet
  facet normal 0 0 1
    outer loop
      vertex 0 14.33 1.3
      vertex 2.5 17.61 1.3
      vertex 2.02165 17.7052 1.3
    endloop
  endfacet
  facet normal 0 0 1
    outer loop
      vertex 0 14.33 1.3
      vertex 2.02165 17.7052 1.3
      vertex 1.61612 17.9761 1.3
    endloop
  endfacet
  facet normal 0 0 1
    outer loop
      vertex 0 14.33 1.3
      vertex 1.25 18.86 1.3
      vertex 0 22.86 1.3
    endloop
  endfacet
  facet normal 0 0 1
    outer loop
      vertex 2.5 17.61 1.3
      vertex 0 14.33 1.3
      vertex 5.5 14.33 1.3
    endloop
  endfacet
  facet normal 0 0 1
    outer loop
      vertex 1.34515 18.3816 1.3
      vertex 0 14.33 1.3
      vertex 1.61612 17.9761 1.3
    endloop
  endfacet
  facet normal 0 0 1
    outer loop
      vertex 1.25 18.86 1.3
      vertex 0 14.33 1.3
      vertex 1.34515 18.3816 1.3
    endloop
  endfacet
  facet normal -0 0 1
    outer loop
      vertex 69.7558 9.72597 1.3
      vertex 69.87 6.5 1.3
      vertex 69.87 10.3 1.3
    endloop
  endfacet
  facet normal 0 0 1
    outer loop
      vertex 69.7558 9.72597 1.3
      vertex 69.7558 7.07402 1.3
      vertex 69.87 6.5 1.3
    endloop
  endfacet
  facet normal -0 0 1
    outer loop
      vertex 69.4307 9.23934 1.3
      vertex 69.7558 7.07402 1.3
      vertex 69.7558 9.72597 1.3
    endloop
  endfacet
  facet normal 0 0 1
    outer loop
      vertex 69.4307 9.23934 1.3
      vertex 69.4307 7.56066 1.3
      vertex 69.7558 7.07402 1.3
    endloop
  endfacet
  facet normal -0 0 1
    outer loop
      vertex 68.944 8.91418 1.3
      vertex 69.4307 7.56066 1.3
      vertex 69.4307 9.23934 1.3
    endloop
  endfacet
  facet normal 0 0 1
    outer loop
      vertex 68.944 8.91418 1.3
      vertex 68.944 7.88582 1.3
      vertex 69.4307 7.56066 1.3
    endloop
  endfacet
  facet normal -0 0 1
    outer loop
      vertex 68.37 8.8 1.3
      vertex 68.944 7.88582 1.3
      vertex 68.944 8.91418 1.3
    endloop
  endfacet
  facet normal 0 0 1
    outer loop
      vertex 68.37 8.8 1.3
      vertex 68.37 8 1.3
      vertex 68.944 7.88582 1.3
    endloop
  endfacet
  facet normal 0 0 1
    outer loop
      vertex 67.796 8.91418 1.3
      vertex 68.37 8 1.3
      vertex 68.37 8.8 1.3
    endloop
  endfacet
  facet normal 0 0 1
    outer loop
      vertex 67.796 8.91418 1.3
      vertex 67.796 7.88582 1.3
      vertex 68.37 8 1.3
    endloop
  endfacet
  facet normal 0 0 1
    outer loop
      vertex 67.3093 9.23934 1.3
      vertex 67.796 7.88582 1.3
      vertex 67.796 8.91418 1.3
    endloop
  endfacet
  facet normal 0 0 1
    outer loop
      vertex 67.3093 9.23934 1.3
      vertex 67.3093 7.56066 1.3
      vertex 67.796 7.88582 1.3
    endloop
  endfacet
  facet normal 0 0 1
    outer loop
      vertex 66.9842 9.72597 1.3
      vertex 67.3093 7.56066 1.3
      vertex 67.3093 9.23934 1.3
    endloop
  endfacet
  facet normal 0 0 1
    outer loop
      vertex 66.9842 9.72597 1.3
      vertex 66.9842 7.07402 1.3
      vertex 67.3093 7.56066 1.3
    endloop
  endfacet
  facet normal 0 0 1
    outer loop
      vertex 66 11.43 1.3
      vertex 66.9842 9.72597 1.3
      vertex 66.87 10.3 1.3
    endloop
  endfacet
  facet normal 0 0 1
    outer loop
      vertex 66.9842 9.72597 1.3
      vertex 66 11.43 1.3
      vertex 66.9842 7.07402 1.3
    endloop
  endfacet
  facet normal -0 0 1
    outer loop
      vertex 69.87 10.3 1.3
      vertex 71.12 0 1.3
      vertex 71.12 22.86 1.3
    endloop
  endfacet
  facet normal -0 0 1
    outer loop
      vertex 69.87 6.5 1.3
      vertex 71.12 0 1.3
      vertex 69.87 10.3 1.3
    endloop
  endfacet
  facet normal -0 -0 1
    outer loop
      vertex 70.2748 2.47835 1.3
      vertex 71.12 0 1.3
      vertex 69.87 6.5 1.3
    endloop
  endfacet
  facet normal 0 0 1
    outer loop
      vertex 71.12 0 1.3
      vertex 70.2748 2.47835 1.3
      vertex 70.37 2 1.3
    endloop
  endfacet
  facet normal 0 0 1
    outer loop
      vertex 71.12 22.86 1.3
      vertex 69.7558 10.874 1.3
      vertex 69.87 10.3 1.3
    endloop
  endfacet
  facet normal 0 0 1
    outer loop
      vertex 71.12 22.86 1.3
      vertex 69.4307 11.3607 1.3
      vertex 69.7558 10.874 1.3
    endloop
  endfacet
  facet normal 0 0 1
    outer loop
      vertex 71.12 22.86 1.3
      vertex 68.944 11.6858 1.3
      vertex 69.4307 11.3607 1.3
    endloop
  endfacet
  facet normal -0 0 1
    outer loop
      vertex 66 20.26 1.3
      vertex 68.944 11.6858 1.3
      vertex 71.12 22.86 1.3
    endloop
  endfacet
  facet normal 0 0 1
    outer loop
      vertex 68.944 11.6858 1.3
      vertex 66 20.26 1.3
      vertex 68.37 11.8 1.3
    endloop
  endfacet
  facet normal 0 0 1
    outer loop
      vertex 68.37 11.8 1.3
      vertex 66 20.26 1.3
      vertex 67.796 11.6858 1.3
    endloop
  endfacet
  facet normal 0 0 1
    outer loop
      vertex 66 11.43 1.3
      vertex 67.796 11.6858 1.3
      vertex 66 20.26 1.3
    endloop
  endfacet
  facet normal 0 0 1
    outer loop
      vertex 67.3093 11.3607 1.3
      vertex 66 11.43 1.3
      vertex 66.9842 10.874 1.3
    endloop
  endfacet
  facet normal 0 0 1
    outer loop
      vertex 67.796 11.6858 1.3
      vertex 66 11.43 1.3
      vertex 67.3093 11.3607 1.3
    endloop
  endfacet
  facet normal 0 0 1
    outer loop
      vertex 66 20.26 1.3
      vertex 71.12 22.86 1.3
      vertex 66 22.86 1.3
    endloop
  endfacet
  facet normal -0 0 1
    outer loop
      vertex 70.2748 1.52165 1.3
      vertex 71.12 0 1.3
      vertex 70.37 2 1.3
    endloop
  endfacet
  facet normal -0 0 1
    outer loop
      vertex 70.0039 1.11612 1.3
      vertex 71.12 0 1.3
      vertex 70.2748 1.52165 1.3
    endloop
  endfacet
  facet normal -0 0 1
    outer loop
      vertex 69.5984 0.84515 1.3
      vertex 71.12 0 1.3
      vertex 70.0039 1.11612 1.3
    endloop
  endfacet
  facet normal -0 0 1
    outer loop
      vertex 69.12 0.75 1.3
      vertex 71.12 0 1.3
      vertex 69.5984 0.84515 1.3
    endloop
  endfacet
  facet normal 0 0 1
    outer loop
      vertex 66 0 1.3
      vertex 69.12 0.75 1.3
      vertex 68.6416 0.84515 1.3
    endloop
  endfacet
  facet normal 0 0 1
    outer loop
      vertex 66 0 1.3
      vertex 67.9651 2.47835 1.3
      vertex 67.3093 5.43934 1.3
    endloop
  endfacet
  facet normal 0 0 1
    outer loop
      vertex 66 0 1.3
      vertex 67.3093 5.43934 1.3
      vertex 66.9842 5.92597 1.3
    endloop
  endfacet
  facet normal 0 0 1
    outer loop
      vertex 67.9651 2.47835 1.3
      vertex 66 0 1.3
      vertex 67.87 2 1.3
    endloop
  endfacet
  facet normal 0 0 1
    outer loop
      vertex 66.9842 10.874 1.3
      vertex 66 11.43 1.3
      vertex 66.87 10.3 1.3
    endloop
  endfacet
  facet normal 0 0 1
    outer loop
      vertex 66.9842 7.07402 1.3
      vertex 66 11.43 1.3
      vertex 66.87 6.5 1.3
    endloop
  endfacet
  facet normal 0 0 1
    outer loop
      vertex 69.12 0.75 1.3
      vertex 66 0 1.3
      vertex 71.12 0 1.3
    endloop
  endfacet
  facet normal 0 0 1
    outer loop
      vertex 68.2361 1.11612 1.3
      vertex 66 0 1.3
      vertex 68.6416 0.84515 1.3
    endloop
  endfacet
  facet normal 0 0 1
    outer loop
      vertex 67.9651 1.52165 1.3
      vertex 66 0 1.3
      vertex 68.2361 1.11612 1.3
    endloop
  endfacet
  facet normal 0 0 1
    outer loop
      vertex 67.87 2 1.3
      vertex 66 0 1.3
      vertex 67.9651 1.52165 1.3
    endloop
  endfacet
  facet normal 0 0 1
    outer loop
      vertex 66.87 6.5 1.3
      vertex 66 0 1.3
      vertex 66.9842 5.92597 1.3
    endloop
  endfacet
  facet normal 0 0 1
    outer loop
      vertex 66 0 1.3
      vertex 66.87 6.5 1.3
      vertex 66 11.43 1.3
    endloop
  endfacet
  facet normal -0 0 1
    outer loop
      vertex 69.7558 5.92597 1.3
      vertex 70.2748 2.47835 1.3
      vertex 69.87 6.5 1.3
    endloop
  endfacet
  facet normal 0 0 1
    outer loop
      vertex 70.2748 2.47835 1.3
      vertex 69.7558 5.92597 1.3
      vertex 70.0039 2.88388 1.3
    endloop
  endfacet
  facet normal -0 0 1
    outer loop
      vertex 69.4307 5.43934 1.3
      vertex 70.0039 2.88388 1.3
      vertex 69.7558 5.92597 1.3
    endloop
  endfacet
  facet normal 0 0 1
    outer loop
      vertex 70.0039 2.88388 1.3
      vertex 69.4307 5.43934 1.3
      vertex 69.5984 3.15485 1.3
    endloop
  endfacet
  facet normal -0 0 1
    outer loop
      vertex 68.944 5.11418 1.3
      vertex 69.5984 3.15485 1.3
      vertex 69.4307 5.43934 1.3
    endloop
  endfacet
  facet normal 0 0 1
    outer loop
      vertex 69.5984 3.15485 1.3
      vertex 68.944 5.11418 1.3
      vertex 69.12 3.25 1.3
    endloop
  endfacet
  facet normal -0 0 1
    outer loop
      vertex 68.37 5 1.3
      vertex 69.12 3.25 1.3
      vertex 68.944 5.11418 1.3
    endloop
  endfacet
  facet normal 0 0 1
    outer loop
      vertex 69.12 3.25 1.3
      vertex 68.37 5 1.3
      vertex 68.6416 3.15485 1.3
    endloop
  endfacet
  facet normal 0 0 1
    outer loop
      vertex 67.796 5.11418 1.3
      vertex 68.6416 3.15485 1.3
      vertex 68.37 5 1.3
    endloop
  endfacet
  facet normal 0 0 1
    outer loop
      vertex 68.6416 3.15485 1.3
      vertex 67.796 5.11418 1.3
      vertex 68.2361 2.88388 1.3
    endloop
  endfacet
  facet normal 0 0 1
    outer loop
      vertex 68.2361 2.88388 1.3
      vertex 67.796 5.11418 1.3
      vertex 67.9651 2.47835 1.3
    endloop
  endfacet
  facet normal 0 0 1
    outer loop
      vertex 67.3093 5.43934 1.3
      vertex 67.9651 2.47835 1.3
      vertex 67.796 5.11418 1.3
    endloop
  endfacet
  facet normal 0 0 -1
    outer loop
      vertex -2 8.53 1.3
      vertex 0 14.33 1.3
      vertex 0 8.53 1.3
    endloop
  endfacet
  facet normal -0 0 -1
    outer loop
      vertex 0 14.33 1.3
      vertex -2 8.53 1.3
      vertex -2 14.33 1.3
    endloop
  endfacet
  facet normal 1 -0 0
    outer loop
      vertex 71.12 0 1.3
      vertex 71.12 22.86 0
      vertex 71.12 22.86 1.3
    endloop
  endfacet
  facet normal 1 0 0
    outer loop
      vertex 71.12 22.86 0
      vertex 71.12 0 1.3
      vertex 71.12 0 0
    endloop
  endfacet
  facet normal 0 1 -0
    outer loop
      vertex 66 22.86 -9.2
      vertex 2 22.86 0
      vertex 66 22.86 0
    endloop
  endfacet
  facet normal 0 1 0
    outer loop
      vertex 2 22.86 0
      vertex 66 22.86 -9.2
      vertex 2 22.86 -9.2
    endloop
  endfacet
  facet normal 0 1 0
    outer loop
      vertex 66 22.86 0
      vertex 66 22.86 1.3
      vertex 71.12 22.86 1.3
    endloop
  endfacet
  facet normal 0 1 0
    outer loop
      vertex 66 22.86 1.3
      vertex 66 22.86 0
      vertex 2 22.86 1.3
    endloop
  endfacet
  facet normal 0 1 0
    outer loop
      vertex 66 22.86 0
      vertex 71.12 22.86 1.3
      vertex 71.12 22.86 0
    endloop
  endfacet
  facet normal 0 1 0
    outer loop
      vertex 2 22.86 0
      vertex 2 22.86 1.3
      vertex 66 22.86 0
    endloop
  endfacet
  facet normal 0 1 0
    outer loop
      vertex 2 22.86 1.3
      vertex 2 22.86 0
      vertex 0 22.86 1.3
    endloop
  endfacet
  facet normal 0 1 0
    outer loop
      vertex 0 22.86 1.3
      vertex 2 22.86 0
      vertex 0 22.86 0
    endloop
  endfacet
  facet normal 0 1 -0
    outer loop
      vertex 66 22.86 1.3
      vertex 2 22.86 9.2
      vertex 66 22.86 9.2
    endloop
  endfacet
  facet normal 0 1 0
    outer loop
      vertex 2 22.86 9.2
      vertex 66 22.86 1.3
      vertex 2 22.86 1.3
    endloop
  endfacet
  facet normal 0 0 -1
    outer loop
      vertex 0 0 0
      vertex 2 2.6 0
      vertex 2 0 0
    endloop
  endfacet
  facet normal -0 0 -1
    outer loop
      vertex 2 2.6 0
      vertex 0 0 0
      vertex 1.61612 17.9761 0
    endloop
  endfacet
  facet normal -0 0 -1
    outer loop
      vertex 1.61612 17.9761 0
      vertex 0 0 0
      vertex 1.34515 18.3816 0
    endloop
  endfacet
  facet normal 0 0 -1
    outer loop
      vertex 0 22.86 0
      vertex 1.34515 18.3816 0
      vertex 0 0 0
    endloop
  endfacet
  facet normal 0 0 -1
    outer loop
      vertex 3.65485 18.3816 0
      vertex 66 20.26 0
      vertex 66 2.6 0
    endloop
  endfacet
  facet normal 0 0 -1
    outer loop
      vertex 66 20.26 0
      vertex 3.65485 18.3816 0
      vertex 3.75 18.86 0
    endloop
  endfacet
  facet normal 0 0 -1
    outer loop
      vertex 2 2.6 0
      vertex 3.65485 18.3816 0
      vertex 66 2.6 0
    endloop
  endfacet
  facet normal 0 0 -1
    outer loop
      vertex 3.65485 18.3816 0
      vertex 2 2.6 0
      vertex 3.38388 17.9761 0
    endloop
  endfacet
  facet normal 0 0 -1
    outer loop
      vertex 3.38388 17.9761 0
      vertex 2 2.6 0
      vertex 2.97835 17.7052 0
    endloop
  endfacet
  facet normal 0 0 -1
    outer loop
      vertex 2.97835 17.7052 0
      vertex 2 2.6 0
      vertex 2.5 17.61 0
    endloop
  endfacet
  facet normal -0 0 -1
    outer loop
      vertex 2.5 17.61 0
      vertex 2 2.6 0
      vertex 2.02165 17.7052 0
    endloop
  endfacet
  facet normal -0 0 -1
    outer loop
      vertex 2.02165 17.7052 0
      vertex 2 2.6 0
      vertex 1.61612 17.9761 0
    endloop
  endfacet
  facet normal 0 0 -1
    outer loop
      vertex 3.65485 19.3384 0
      vertex 66 20.26 0
      vertex 3.75 18.86 0
    endloop
  endfacet
  facet normal 0 0 -1
    outer loop
      vertex 3.38388 19.7439 0
      vertex 66 20.26 0
      vertex 3.65485 19.3384 0
    endloop
  endfacet
  facet normal 0 0 -1
    outer loop
      vertex 2.97835 20.0148 0
      vertex 66 20.26 0
      vertex 3.38388 19.7439 0
    endloop
  endfacet
  facet normal 0 0 -1
    outer loop
      vertex 2 20.26 0
      vertex 2.97835 20.0148 0
      vertex 2.5 20.11 0
    endloop
  endfacet
  facet normal 0 0 -1
    outer loop
      vertex 2.97835 20.0148 0
      vertex 2 20.26 0
      vertex 66 20.26 0
    endloop
  endfacet
  facet normal 0 0 -1
    outer loop
      vertex 2.02165 20.0148 0
      vertex 2 20.26 0
      vertex 2.5 20.11 0
    endloop
  endfacet
  facet normal 0 0 -1
    outer loop
      vertex 1.61612 19.7439 0
      vertex 2 20.26 0
      vertex 2.02165 20.0148 0
    endloop
  endfacet
  facet normal 0 0 -1
    outer loop
      vertex 0 22.86 0
      vertex 2 20.26 0
      vertex 1.61612 19.7439 0
    endloop
  endfacet
  facet normal 0 0 -1
    outer loop
      vertex 0 22.86 0
      vertex 1.61612 19.7439 0
      vertex 1.34515 19.3384 0
    endloop
  endfacet
  facet normal 0 0 -1
    outer loop
      vertex 0 22.86 0
      vertex 1.34515 19.3384 0
      vertex 1.25 18.86 0
    endloop
  endfacet
  facet normal 0 0 -1
    outer loop
      vertex 2 20.26 0
      vertex 0 22.86 0
      vertex 2 22.86 0
    endloop
  endfacet
  facet normal 0 0 -1
    outer loop
      vertex 1.34515 18.3816 0
      vertex 0 22.86 0
      vertex 1.25 18.86 0
    endloop
  endfacet
  facet normal 0 0 -1
    outer loop
      vertex 71.12 0 0
      vertex 70.62 7.5 0
      vertex 71.12 22.86 0
    endloop
  endfacet
  facet normal 0 0 -1
    outer loop
      vertex 71.12 0 0
      vertex 70.5058 6.92597 0
      vertex 70.62 7.5 0
    endloop
  endfacet
  facet normal 0 0 -1
    outer loop
      vertex 70.2748 2.47835 0
      vertex 71.12 0 0
      vertex 70.37 2 0
    endloop
  endfacet
  facet normal 0 0 -1
    outer loop
      vertex 71.12 0 0
      vertex 70.2748 1.52165 0
      vertex 70.37 2 0
    endloop
  endfacet
  facet normal 0 0 -1
    outer loop
      vertex 71.12 0 0
      vertex 70.0039 1.11612 0
      vertex 70.2748 1.52165 0
    endloop
  endfacet
  facet normal 0 0 -1
    outer loop
      vertex 71.12 0 0
      vertex 69.5984 0.84515 0
      vertex 70.0039 1.11612 0
    endloop
  endfacet
  facet normal 0 0 -1
    outer loop
      vertex 71.12 0 0
      vertex 69.12 0.75 0
      vertex 69.5984 0.84515 0
    endloop
  endfacet
  facet normal 0 0 -1
    outer loop
      vertex 66 0 0
      vertex 69.12 0.75 0
      vertex 71.12 0 0
    endloop
  endfacet
  facet normal -0 0 -1
    outer loop
      vertex 68.0593 6.43934 0
      vertex 66 2.6 0
      vertex 67.7342 6.92597 0
    endloop
  endfacet
  facet normal 0 0 -1
    outer loop
      vertex 67.9651 1.52165 0
      vertex 66 2.6 0
      vertex 67.87 2 0
    endloop
  endfacet
  facet normal 0 0 -1
    outer loop
      vertex 66 2.6 0
      vertex 67.9651 1.52165 0
      vertex 66 0 0
    endloop
  endfacet
  facet normal -0 0 -1
    outer loop
      vertex 68.2361 1.11612 0
      vertex 66 0 0
      vertex 67.9651 1.52165 0
    endloop
  endfacet
  facet normal -0 0 -1
    outer loop
      vertex 68.6416 0.84515 0
      vertex 66 0 0
      vertex 68.2361 1.11612 0
    endloop
  endfacet
  facet normal -0 0 -1
    outer loop
      vertex 69.12 0.75 0
      vertex 66 0 0
      vertex 68.6416 0.84515 0
    endloop
  endfacet
  facet normal 0 0 -1
    outer loop
      vertex 70.5058 8.07402 0
      vertex 71.12 22.86 0
      vertex 70.62 7.5 0
    endloop
  endfacet
  facet normal 0 0 -1
    outer loop
      vertex 70.1807 8.56066 0
      vertex 71.12 22.86 0
      vertex 70.5058 8.07402 0
    endloop
  endfacet
  facet normal 0 0 -1
    outer loop
      vertex 69.694 8.88582 0
      vertex 71.12 22.86 0
      vertex 70.1807 8.56066 0
    endloop
  endfacet
  facet normal 0 0 -1
    outer loop
      vertex 66 20.26 0
      vertex 69.694 8.88582 0
      vertex 69.12 9 0
    endloop
  endfacet
  facet normal 0 0 -1
    outer loop
      vertex 66 20.26 0
      vertex 69.12 9 0
      vertex 68.546 8.88582 0
    endloop
  endfacet
  facet normal 0 0 -1
    outer loop
      vertex 66 20.26 0
      vertex 68.546 8.88582 0
      vertex 68.0593 8.56066 0
    endloop
  endfacet
  facet normal 0 0 -1
    outer loop
      vertex 66 20.26 0
      vertex 68.0593 8.56066 0
      vertex 67.7342 8.07402 0
    endloop
  endfacet
  facet normal -0 0 -1
    outer loop
      vertex 67.7342 6.92597 0
      vertex 66 2.6 0
      vertex 67.62 7.5 0
    endloop
  endfacet
  facet normal 0 0 -1
    outer loop
      vertex 66 20.26 0
      vertex 67.62 7.5 0
      vertex 66 2.6 0
    endloop
  endfacet
  facet normal 0 0 -1
    outer loop
      vertex 67.62 7.5 0
      vertex 66 20.26 0
      vertex 67.7342 8.07402 0
    endloop
  endfacet
  facet normal 0 0 -1
    outer loop
      vertex 69.694 8.88582 0
      vertex 66 20.26 0
      vertex 71.12 22.86 0
    endloop
  endfacet
  facet normal -0 0 -1
    outer loop
      vertex 71.12 22.86 0
      vertex 66 20.26 0
      vertex 66 22.86 0
    endloop
  endfacet
  facet normal 0 0 -1
    outer loop
      vertex 71.12 0 0
      vertex 70.2748 2.47835 0
      vertex 70.5058 6.92597 0
    endloop
  endfacet
  facet normal 0 0 -1
    outer loop
      vertex 70.2748 2.47835 0
      vertex 70.1807 6.43934 0
      vertex 70.5058 6.92597 0
    endloop
  endfacet
  facet normal 0 0 -1
    outer loop
      vertex 70.0039 2.88388 0
      vertex 70.1807 6.43934 0
      vertex 70.2748 2.47835 0
    endloop
  endfacet
  facet normal 0 0 -1
    outer loop
      vertex 70.0039 2.88388 0
      vertex 69.694 6.11418 0
      vertex 70.1807 6.43934 0
    endloop
  endfacet
  facet normal 0 0 -1
    outer loop
      vertex 69.5984 3.15485 0
      vertex 69.694 6.11418 0
      vertex 70.0039 2.88388 0
    endloop
  endfacet
  facet normal 0 0 -1
    outer loop
      vertex 69.12 6 0
      vertex 69.5984 3.15485 0
      vertex 69.12 3.25 0
    endloop
  endfacet
  facet normal 0 0 -1
    outer loop
      vertex 69.5984 3.15485 0
      vertex 69.12 6 0
      vertex 69.694 6.11418 0
    endloop
  endfacet
  facet normal 0 0 -1
    outer loop
      vertex 68.6416 3.15485 0
      vertex 69.12 6 0
      vertex 69.12 3.25 0
    endloop
  endfacet
  facet normal 0 0 -1
    outer loop
      vertex 68.6416 3.15485 0
      vertex 68.546 6.11418 0
      vertex 69.12 6 0
    endloop
  endfacet
  facet normal 0 0 -1
    outer loop
      vertex 68.2361 2.88388 0
      vertex 68.546 6.11418 0
      vertex 68.6416 3.15485 0
    endloop
  endfacet
  facet normal 0 0 -1
    outer loop
      vertex 68.2361 2.88388 0
      vertex 68.0593 6.43934 0
      vertex 68.546 6.11418 0
    endloop
  endfacet
  facet normal 0 0 -1
    outer loop
      vertex 66 2.6 0
      vertex 68.2361 2.88388 0
      vertex 67.9651 2.47835 0
    endloop
  endfacet
  facet normal 0 0 -1
    outer loop
      vertex 66 2.6 0
      vertex 67.9651 2.47835 0
      vertex 67.87 2 0
    endloop
  endfacet
  facet normal -0 0 -1
    outer loop
      vertex 68.2361 2.88388 0
      vertex 66 2.6 0
      vertex 68.0593 6.43934 0
    endloop
  endfacet
  facet normal 0 -1 0
    outer loop
      vertex 2 0 -9.2
      vertex 66 0 0
      vertex 2 0 0
    endloop
  endfacet
  facet normal 0 -1 -0
    outer loop
      vertex 66 0 0
      vertex 2 0 -9.2
      vertex 66 0 -9.2
    endloop
  endfacet
  facet normal 0 -1 0
    outer loop
      vertex 2 0 0
      vertex 2 0 1.3
      vertex 0 0 1.3
    endloop
  endfacet
  facet normal 0 -1 0
    outer loop
      vertex 2 0 1.3
      vertex 2 0 0
      vertex 66 0 1.3
    endloop
  endfacet
  facet normal 0 -1 0
    outer loop
      vertex 2 0 0
      vertex 0 0 1.3
      vertex 0 0 0
    endloop
  endfacet
  facet normal 0 -1 -0
    outer loop
      vertex 66 0 1.3
      vertex 2 0 0
      vertex 66 0 0
    endloop
  endfacet
  facet normal 0 -1 0
    outer loop
      vertex 66 0 1.3
      vertex 66 0 0
      vertex 71.12 0 1.3
    endloop
  endfacet
  facet normal 0 -1 -0
    outer loop
      vertex 71.12 0 1.3
      vertex 66 0 0
      vertex 71.12 0 0
    endloop
  endfacet
  facet normal 0 -1 0
    outer loop
      vertex 2 0 1.3
      vertex 66 0 10.5
      vertex 2 0 10.5
    endloop
  endfacet
  facet normal 0 -1 -0
    outer loop
      vertex 66 0 10.5
      vertex 2 0 1.3
      vertex 66 0 1.3
    endloop
  endfacet
  facet normal -1 0 0
    outer loop
      vertex -2 8.53 1.3
      vertex -2 14.33 4.3
      vertex -2 14.33 1.3
    endloop
  endfacet
  facet normal -1 -0 0
    outer loop
      vertex -2 14.33 4.3
      vertex -2 8.53 1.3
      vertex -2 8.53 4.3
    endloop
  endfacet
  facet normal -0 0 1
    outer loop
      vertex -2 14.33 4.3
      vertex 5.5 8.53 4.3
      vertex 5.5 14.33 4.3
    endloop
  endfacet
  facet normal 0 0 1
    outer loop
      vertex 5.5 8.53 4.3
      vertex -2 14.33 4.3
      vertex -2 8.53 4.3
    endloop
  endfacet
  facet normal 1 -0 0
    outer loop
      vertex 5.5 8.53 4.3
      vertex 5.5 14.33 1.3
      vertex 5.5 14.33 4.3
    endloop
  endfacet
  facet normal 1 0 0
    outer loop
      vertex 5.5 14.33 1.3
      vertex 5.5 8.53 4.3
      vertex 5.5 8.53 1.3
    endloop
  endfacet
  facet normal 0 1 0
    outer loop
      vertex 0 14.33 1.3
      vertex 5.5 14.33 4.3
      vertex 5.5 14.33 1.3
    endloop
  endfacet
  facet normal 0 1 0
    outer loop
      vertex 5.5 14.33 4.3
      vertex 0 14.33 1.3
      vertex -2 14.33 4.3
    endloop
  endfacet
  facet normal 0 1 0
    outer loop
      vertex -2 14.33 4.3
      vertex 0 14.33 1.3
      vertex -2 14.33 1.3
    endloop
  endfacet
  facet normal 0 -1 0
    outer loop
      vertex 0 8.53 1.3
      vertex -2 8.53 4.3
      vertex -2 8.53 1.3
    endloop
  endfacet
  facet normal 0 -1 0
    outer loop
      vertex -2 8.53 4.3
      vertex 0 8.53 1.3
      vertex 5.5 8.53 4.3
    endloop
  endfacet
  facet normal 0 -1 -0
    outer loop
      vertex 5.5 8.53 4.3
      vertex 0 8.53 1.3
      vertex 5.5 8.53 1.3
    endloop
  endfacet
  facet normal -1 0 0
    outer loop
      vertex 64 2.6 1.3
      vertex 64 11.43 2.3
      vertex 64 11.43 1.3
    endloop
  endfacet
  facet normal -1 -0 0
    outer loop
      vertex 64 11.43 2.3
      vertex 64 2.6 1.3
      vertex 64 2.6 2.3
    endloop
  endfacet
  facet normal -0 0 1
    outer loop
      vertex 64 11.43 2.3
      vertex 66 2.6 2.3
      vertex 66 11.43 2.3
    endloop
  endfacet
  facet normal 0 0 1
    outer loop
      vertex 66 2.6 2.3
      vertex 64 11.43 2.3
      vertex 64 2.6 2.3
    endloop
  endfacet
  facet normal 1 0 0
    outer loop
      vertex 66 2.6 10.5
      vertex 66 0 10.5
      vertex 66 2.6 2.3
    endloop
  endfacet
  facet normal 1 -0 0
    outer loop
      vertex 66 2.6 2.3
      vertex 66 11.43 1.3
      vertex 66 11.43 2.3
    endloop
  endfacet
  facet normal 1 0 0
    outer loop
      vertex 66 2.6 2.3
      vertex 66 0 1.3
      vertex 66 11.43 1.3
    endloop
  endfacet
  facet normal 1 0 0
    outer loop
      vertex 66 0 1.3
      vertex 66 2.6 2.3
      vertex 66 0 10.5
    endloop
  endfacet
  facet normal 0 1 -0
    outer loop
      vertex 66 11.43 1.3
      vertex 64 11.43 2.3
      vertex 66 11.43 2.3
    endloop
  endfacet
  facet normal 0 1 0
    outer loop
      vertex 64 11.43 2.3
      vertex 66 11.43 1.3
      vertex 64 11.43 1.3
    endloop
  endfacet
  facet normal 0.980785 0.195092 0
    outer loop
      vertex 69.87 6.5 2.3
      vertex 69.7558 7.07402 1.3
      vertex 69.7558 7.07402 2.3
    endloop
  endfacet
  facet normal 0.980785 0.195092 0
    outer loop
      vertex 69.7558 7.07402 1.3
      vertex 69.87 6.5 2.3
      vertex 69.87 6.5 1.3
    endloop
  endfacet
  facet normal -0.195091 0.980785 0
    outer loop
      vertex 68.37 8 1.3
      vertex 67.796 7.88582 2.3
      vertex 68.37 8 2.3
    endloop
  endfacet
  facet normal -0.195091 0.980785 0
    outer loop
      vertex 67.796 7.88582 2.3
      vertex 68.37 8 1.3
      vertex 67.796 7.88582 1.3
    endloop
  endfacet
  facet normal 0.195092 -0.980785 0
    outer loop
      vertex 68.37 5 1.3
      vertex 68.944 5.11418 2.3
      vertex 68.37 5 2.3
    endloop
  endfacet
  facet normal 0.195092 -0.980785 0
    outer loop
      vertex 68.944 5.11418 2.3
      vertex 68.37 5 1.3
      vertex 68.944 5.11418 1.3
    endloop
  endfacet
  facet normal 0.555572 0.831469 -0
    outer loop
      vertex 69.4307 7.56066 1.3
      vertex 68.944 7.88582 2.3
      vertex 69.4307 7.56066 2.3
    endloop
  endfacet
  facet normal 0.555572 0.831469 0
    outer loop
      vertex 68.944 7.88582 2.3
      vertex 69.4307 7.56066 1.3
      vertex 68.944 7.88582 1.3
    endloop
  endfacet
  facet normal 0.831465 0.555577 0
    outer loop
      vertex 69.7558 7.07402 2.3
      vertex 69.4307 7.56066 1.3
      vertex 69.4307 7.56066 2.3
    endloop
  endfacet
  facet normal 0.831465 0.555577 0
    outer loop
      vertex 69.4307 7.56066 1.3
      vertex 69.7558 7.07402 2.3
      vertex 69.7558 7.07402 1.3
    endloop
  endfacet
  facet normal 0.195093 0.980785 -0
    outer loop
      vertex 68.944 7.88582 1.3
      vertex 68.37 8 2.3
      vertex 68.944 7.88582 2.3
    endloop
  endfacet
  facet normal 0.195093 0.980785 0
    outer loop
      vertex 68.37 8 2.3
      vertex 68.944 7.88582 1.3
      vertex 68.37 8 1.3
    endloop
  endfacet
  facet normal -0.831465 0.555577 0
    outer loop
      vertex 66.9842 7.07402 1.3
      vertex 67.3093 7.56066 2.3
      vertex 67.3093 7.56066 1.3
    endloop
  endfacet
  facet normal -0.831465 0.555577 0
    outer loop
      vertex 67.3093 7.56066 2.3
      vertex 66.9842 7.07402 1.3
      vertex 66.9842 7.07402 2.3
    endloop
  endfacet
  facet normal -0.980787 0.195079 0
    outer loop
      vertex 66.87 6.5 1.3
      vertex 66.9842 7.07402 2.3
      vertex 66.9842 7.07402 1.3
    endloop
  endfacet
  facet normal -0.980787 0.195079 0
    outer loop
      vertex 66.9842 7.07402 2.3
      vertex 66.87 6.5 1.3
      vertex 66.87 6.5 2.3
    endloop
  endfacet
  facet normal 0 0 1
    outer loop
      vertex 69.7558 7.07402 2.3
      vertex 69.7558 5.92597 2.3
      vertex 69.87 6.5 2.3
    endloop
  endfacet
  facet normal 0 0 1
    outer loop
      vertex 69.4307 7.56066 2.3
      vertex 69.7558 5.92597 2.3
      vertex 69.7558 7.07402 2.3
    endloop
  endfacet
  facet normal 0 0 1
    outer loop
      vertex 69.4307 7.56066 2.3
      vertex 69.4307 5.43934 2.3
      vertex 69.7558 5.92597 2.3
    endloop
  endfacet
  facet normal 0 0 1
    outer loop
      vertex 68.944 7.88582 2.3
      vertex 69.4307 5.43934 2.3
      vertex 69.4307 7.56066 2.3
    endloop
  endfacet
  facet normal 0 0 1
    outer loop
      vertex 68.944 7.88582 2.3
      vertex 68.944 5.11418 2.3
      vertex 69.4307 5.43934 2.3
    endloop
  endfacet
  facet normal 0 0 1
    outer loop
      vertex 68.37 8 2.3
      vertex 68.944 5.11418 2.3
      vertex 68.944 7.88582 2.3
    endloop
  endfacet
  facet normal 0 0 1
    outer loop
      vertex 68.37 8 2.3
      vertex 68.37 5 2.3
      vertex 68.944 5.11418 2.3
    endloop
  endfacet
  facet normal -0 0 1
    outer loop
      vertex 67.796 7.88582 2.3
      vertex 68.37 5 2.3
      vertex 68.37 8 2.3
    endloop
  endfacet
  facet normal 0 0 1
    outer loop
      vertex 67.796 7.88582 2.3
      vertex 67.796 5.11418 2.3
      vertex 68.37 5 2.3
    endloop
  endfacet
  facet normal -0 0 1
    outer loop
      vertex 67.3093 7.56066 2.3
      vertex 67.796 5.11418 2.3
      vertex 67.796 7.88582 2.3
    endloop
  endfacet
  facet normal 0 0 1
    outer loop
      vertex 67.3093 7.56066 2.3
      vertex 67.3093 5.43934 2.3
      vertex 67.796 5.11418 2.3
    endloop
  endfacet
  facet normal -0 0 1
    outer loop
      vertex 66.9842 7.07402 2.3
      vertex 67.3093 5.43934 2.3
      vertex 67.3093 7.56066 2.3
    endloop
  endfacet
  facet normal 0 0 1
    outer loop
      vertex 66.9842 7.07402 2.3
      vertex 66.9842 5.92597 2.3
      vertex 67.3093 5.43934 2.3
    endloop
  endfacet
  facet normal 0 -0 1
    outer loop
      vertex 66.9842 5.92597 2.3
      vertex 66.9842 7.07402 2.3
      vertex 66.87 6.5 2.3
    endloop
  endfacet
  facet normal -0.555572 0.831469 0
    outer loop
      vertex 67.796 7.88582 1.3
      vertex 67.3093 7.56066 2.3
      vertex 67.796 7.88582 2.3
    endloop
  endfacet
  facet normal -0.555572 0.831469 0
    outer loop
      vertex 67.3093 7.56066 2.3
      vertex 67.796 7.88582 1.3
      vertex 67.3093 7.56066 1.3
    endloop
  endfacet
  facet normal 0.980785 -0.195092 0
    outer loop
      vertex 69.7558 5.92597 2.3
      vertex 69.87 6.5 1.3
      vertex 69.87 6.5 2.3
    endloop
  endfacet
  facet normal 0.980785 -0.195092 0
    outer loop
      vertex 69.87 6.5 1.3
      vertex 69.7558 5.92597 2.3
      vertex 69.7558 5.92597 1.3
    endloop
  endfacet
  facet normal -0.195089 -0.980786 0
    outer loop
      vertex 67.796 5.11418 1.3
      vertex 68.37 5 2.3
      vertex 67.796 5.11418 2.3
    endloop
  endfacet
  facet normal -0.195089 -0.980786 -0
    outer loop
      vertex 68.37 5 2.3
      vertex 67.796 5.11418 1.3
      vertex 68.37 5 1.3
    endloop
  endfacet
  facet normal -0.831465 -0.555577 0
    outer loop
      vertex 67.3093 5.43934 1.3
      vertex 66.9842 5.92597 2.3
      vertex 66.9842 5.92597 1.3
    endloop
  endfacet
  facet normal -0.831465 -0.555577 0
    outer loop
      vertex 66.9842 5.92597 2.3
      vertex 67.3093 5.43934 1.3
      vertex 67.3093 5.43934 2.3
    endloop
  endfacet
  facet normal -0.980788 -0.195079 0
    outer loop
      vertex 66.9842 5.92597 1.3
      vertex 66.87 6.5 2.3
      vertex 66.87 6.5 1.3
    endloop
  endfacet
  facet normal -0.980788 -0.195079 0
    outer loop
      vertex 66.87 6.5 2.3
      vertex 66.9842 5.92597 1.3
      vertex 66.9842 5.92597 2.3
    endloop
  endfacet
  facet normal 0.831465 -0.555577 0
    outer loop
      vertex 69.4307 5.43934 2.3
      vertex 69.7558 5.92597 1.3
      vertex 69.7558 5.92597 2.3
    endloop
  endfacet
  facet normal 0.831465 -0.555577 0
    outer loop
      vertex 69.7558 5.92597 1.3
      vertex 69.4307 5.43934 2.3
      vertex 69.4307 5.43934 1.3
    endloop
  endfacet
  facet normal 0.555572 -0.831469 0
    outer loop
      vertex 68.944 5.11418 1.3
      vertex 69.4307 5.43934 2.3
      vertex 68.944 5.11418 2.3
    endloop
  endfacet
  facet normal 0.555572 -0.831469 0
    outer loop
      vertex 69.4307 5.43934 2.3
      vertex 68.944 5.11418 1.3
      vertex 69.4307 5.43934 1.3
    endloop
  endfacet
  facet normal -0.555572 -0.831469 0
    outer loop
      vertex 67.3093 5.43934 1.3
      vertex 67.796 5.11418 2.3
      vertex 67.3093 5.43934 2.3
    endloop
  endfacet
  facet normal -0.555572 -0.831469 -0
    outer loop
      vertex 67.796 5.11418 2.3
      vertex 67.3093 5.43934 1.3
      vertex 67.796 5.11418 1.3
    endloop
  endfacet
  facet normal 0.980785 0.195092 0
    outer loop
      vertex 69.87 10.3 2.3
      vertex 69.7558 10.874 1.3
      vertex 69.7558 10.874 2.3
    endloop
  endfacet
  facet normal 0.980785 0.195092 0
    outer loop
      vertex 69.7558 10.874 1.3
      vertex 69.87 10.3 2.3
      vertex 69.87 10.3 1.3
    endloop
  endfacet
  facet normal -0.195089 0.980786 0
    outer loop
      vertex 68.37 11.8 1.3
      vertex 67.796 11.6858 2.3
      vertex 68.37 11.8 2.3
    endloop
  endfacet
  facet normal -0.195089 0.980786 0
    outer loop
      vertex 67.796 11.6858 2.3
      vertex 68.37 11.8 1.3
      vertex 67.796 11.6858 1.3
    endloop
  endfacet
  facet normal 0.195092 -0.980785 0
    outer loop
      vertex 68.37 8.8 1.3
      vertex 68.944 8.91418 2.3
      vertex 68.37 8.8 2.3
    endloop
  endfacet
  facet normal 0.195092 -0.980785 0
    outer loop
      vertex 68.944 8.91418 2.3
      vertex 68.37 8.8 1.3
      vertex 68.944 8.91418 1.3
    endloop
  endfacet
  facet normal 0.555572 0.831469 -0
    outer loop
      vertex 69.4307 11.3607 1.3
      vertex 68.944 11.6858 2.3
      vertex 69.4307 11.3607 2.3
    endloop
  endfacet
  facet normal 0.555572 0.831469 0
    outer loop
      vertex 68.944 11.6858 2.3
      vertex 69.4307 11.3607 1.3
      vertex 68.944 11.6858 1.3
    endloop
  endfacet
  facet normal 0.831465 0.555577 0
    outer loop
      vertex 69.7558 10.874 2.3
      vertex 69.4307 11.3607 1.3
      vertex 69.4307 11.3607 2.3
    endloop
  endfacet
  facet normal 0.831465 0.555577 0
    outer loop
      vertex 69.4307 11.3607 1.3
      vertex 69.7558 10.874 2.3
      vertex 69.7558 10.874 1.3
    endloop
  endfacet
  facet normal 0.195092 0.980785 -0
    outer loop
      vertex 68.944 11.6858 1.3
      vertex 68.37 11.8 2.3
      vertex 68.944 11.6858 2.3
    endloop
  endfacet
  facet normal 0.195092 0.980785 0
    outer loop
      vertex 68.37 11.8 2.3
      vertex 68.944 11.6858 1.3
      vertex 68.37 11.8 1.3
    endloop
  endfacet
  facet normal -0.831465 0.555577 0
    outer loop
      vertex 66.9842 10.874 1.3
      vertex 67.3093 11.3607 2.3
      vertex 67.3093 11.3607 1.3
    endloop
  endfacet
  facet normal -0.831465 0.555577 0
    outer loop
      vertex 67.3093 11.3607 2.3
      vertex 66.9842 10.874 1.3
      vertex 66.9842 10.874 2.3
    endloop
  endfacet
  facet normal -0.980788 0.195079 0
    outer loop
      vertex 66.87 10.3 1.3
      vertex 66.9842 10.874 2.3
      vertex 66.9842 10.874 1.3
    endloop
  endfacet
  facet normal -0.980788 0.195079 0
    outer loop
      vertex 66.9842 10.874 2.3
      vertex 66.87 10.3 1.3
      vertex 66.87 10.3 2.3
    endloop
  endfacet
  facet normal 0 0 1
    outer loop
      vertex 69.7558 10.874 2.3
      vertex 69.7558 9.72597 2.3
      vertex 69.87 10.3 2.3
    endloop
  endfacet
  facet normal 0 0 1
    outer loop
      vertex 69.4307 11.3607 2.3
      vertex 69.7558 9.72597 2.3
      vertex 69.7558 10.874 2.3
    endloop
  endfacet
  facet normal 0 0 1
    outer loop
      vertex 69.4307 11.3607 2.3
      vertex 69.4307 9.23934 2.3
      vertex 69.7558 9.72597 2.3
    endloop
  endfacet
  facet normal 0 0 1
    outer loop
      vertex 68.944 11.6858 2.3
      vertex 69.4307 9.23934 2.3
      vertex 69.4307 11.3607 2.3
    endloop
  endfacet
  facet normal 0 0 1
    outer loop
      vertex 68.944 11.6858 2.3
      vertex 68.944 8.91418 2.3
      vertex 69.4307 9.23934 2.3
    endloop
  endfacet
  facet normal 0 0 1
    outer loop
      vertex 68.37 11.8 2.3
      vertex 68.944 8.91418 2.3
      vertex 68.944 11.6858 2.3
    endloop
  endfacet
  facet normal 0 0 1
    outer loop
      vertex 68.37 11.8 2.3
      vertex 68.37 8.8 2.3
      vertex 68.944 8.91418 2.3
    endloop
  endfacet
  facet normal -0 0 1
    outer loop
      vertex 67.796 11.6858 2.3
      vertex 68.37 8.8 2.3
      vertex 68.37 11.8 2.3
    endloop
  endfacet
  facet normal 0 0 1
    outer loop
      vertex 67.796 11.6858 2.3
      vertex 67.796 8.91418 2.3
      vertex 68.37 8.8 2.3
    endloop
  endfacet
  facet normal -0 0 1
    outer loop
      vertex 67.3093 11.3607 2.3
      vertex 67.796 8.91418 2.3
      vertex 67.796 11.6858 2.3
    endloop
  endfacet
  facet normal 0 0 1
    outer loop
      vertex 67.3093 11.3607 2.3
      vertex 67.3093 9.23934 2.3
      vertex 67.796 8.91418 2.3
    endloop
  endfacet
  facet normal -0 0 1
    outer loop
      vertex 66.9842 10.874 2.3
      vertex 67.3093 9.23934 2.3
      vertex 67.3093 11.3607 2.3
    endloop
  endfacet
  facet normal 0 0 1
    outer loop
      vertex 66.9842 10.874 2.3
      vertex 66.9842 9.72597 2.3
      vertex 67.3093 9.23934 2.3
    endloop
  endfacet
  facet normal 0 -0 1
    outer loop
      vertex 66.9842 9.72597 2.3
      vertex 66.9842 10.874 2.3
      vertex 66.87 10.3 2.3
    endloop
  endfacet
  facet normal -0.555572 0.831469 0
    outer loop
      vertex 67.796 11.6858 1.3
      vertex 67.3093 11.3607 2.3
      vertex 67.796 11.6858 2.3
    endloop
  endfacet
  facet normal -0.555572 0.831469 0
    outer loop
      vertex 67.3093 11.3607 2.3
      vertex 67.796 11.6858 1.3
      vertex 67.3093 11.3607 1.3
    endloop
  endfacet
  facet normal -0.195089 -0.980786 0
    outer loop
      vertex 67.796 8.91418 1.3
      vertex 68.37 8.8 2.3
      vertex 67.796 8.91418 2.3
    endloop
  endfacet
  facet normal -0.195089 -0.980786 -0
    outer loop
      vertex 68.37 8.8 2.3
      vertex 67.796 8.91418 1.3
      vertex 68.37 8.8 1.3
    endloop
  endfacet
  facet normal -0.831465 -0.555577 0
    outer loop
      vertex 67.3093 9.23934 1.3
      vertex 66.9842 9.72597 2.3
      vertex 66.9842 9.72597 1.3
    endloop
  endfacet
  facet normal -0.831465 -0.555577 0
    outer loop
      vertex 66.9842 9.72597 2.3
      vertex 67.3093 9.23934 1.3
      vertex 67.3093 9.23934 2.3
    endloop
  endfacet
  facet normal -0.980788 -0.195079 0
    outer loop
      vertex 66.9842 9.72597 1.3
      vertex 66.87 10.3 2.3
      vertex 66.87 10.3 1.3
    endloop
  endfacet
  facet normal -0.980788 -0.195079 0
    outer loop
      vertex 66.87 10.3 2.3
      vertex 66.9842 9.72597 1.3
      vertex 66.9842 9.72597 2.3
    endloop
  endfacet
  facet normal 0.831465 -0.555577 0
    outer loop
      vertex 69.4307 9.23934 2.3
      vertex 69.7558 9.72597 1.3
      vertex 69.7558 9.72597 2.3
    endloop
  endfacet
  facet normal 0.831465 -0.555577 0
    outer loop
      vertex 69.7558 9.72597 1.3
      vertex 69.4307 9.23934 2.3
      vertex 69.4307 9.23934 1.3
    endloop
  endfacet
  facet normal 0.555572 -0.831469 0
    outer loop
      vertex 68.944 8.91418 1.3
      vertex 69.4307 9.23934 2.3
      vertex 68.944 8.91418 2.3
    endloop
  endfacet
  facet normal 0.555572 -0.831469 0
    outer loop
      vertex 69.4307 9.23934 2.3
      vertex 68.944 8.91418 1.3
      vertex 69.4307 9.23934 1.3
    endloop
  endfacet
  facet normal 0.980785 -0.195092 0
    outer loop
      vertex 69.7558 9.72597 2.3
      vertex 69.87 10.3 1.3
      vertex 69.87 10.3 2.3
    endloop
  endfacet
  facet normal 0.980785 -0.195092 0
    outer loop
      vertex 69.87 10.3 1.3
      vertex 69.7558 9.72597 2.3
      vertex 69.7558 9.72597 1.3
    endloop
  endfacet
  facet normal -0.555572 -0.831469 0
    outer loop
      vertex 67.3093 9.23934 1.3
      vertex 67.796 8.91418 2.3
      vertex 67.3093 9.23934 2.3
    endloop
  endfacet
  facet normal -0.555572 -0.831469 -0
    outer loop
      vertex 67.796 8.91418 2.3
      vertex 67.3093 9.23934 1.3
      vertex 67.796 8.91418 1.3
    endloop
  endfacet
  facet normal 0.980785 0.195092 0
    outer loop
      vertex 70.62 7.5 0
      vertex 70.5058 8.07402 -1
      vertex 70.5058 8.07402 0
    endloop
  endfacet
  facet normal 0.980785 0.195092 0
    outer loop
      vertex 70.5058 8.07402 -1
      vertex 70.62 7.5 0
      vertex 70.62 7.5 -1
    endloop
  endfacet
  facet normal -0.195091 0.980785 0
    outer loop
      vertex 69.12 9 -1
      vertex 68.546 8.88582 0
      vertex 69.12 9 0
    endloop
  endfacet
  facet normal -0.195091 0.980785 0
    outer loop
      vertex 68.546 8.88582 0
      vertex 69.12 9 -1
      vertex 68.546 8.88582 -1
    endloop
  endfacet
  facet normal 0.195092 -0.980785 0
    outer loop
      vertex 69.12 6 -1
      vertex 69.694 6.11418 0
      vertex 69.12 6 0
    endloop
  endfacet
  facet normal 0.195092 -0.980785 0
    outer loop
      vertex 69.694 6.11418 0
      vertex 69.12 6 -1
      vertex 69.694 6.11418 -1
    endloop
  endfacet
  facet normal 0.555572 -0.831469 0
    outer loop
      vertex 69.694 6.11418 -1
      vertex 70.1807 6.43934 0
      vertex 69.694 6.11418 0
    endloop
  endfacet
  facet normal 0.555572 -0.831469 0
    outer loop
      vertex 70.1807 6.43934 0
      vertex 69.694 6.11418 -1
      vertex 70.1807 6.43934 -1
    endloop
  endfacet
  facet normal 0.555572 0.831469 -0
    outer loop
      vertex 70.1807 8.56066 -1
      vertex 69.694 8.88582 0
      vertex 70.1807 8.56066 0
    endloop
  endfacet
  facet normal 0.555572 0.831469 0
    outer loop
      vertex 69.694 8.88582 0
      vertex 70.1807 8.56066 -1
      vertex 69.694 8.88582 -1
    endloop
  endfacet
  facet normal 0.831465 0.555577 0
    outer loop
      vertex 70.5058 8.07402 0
      vertex 70.1807 8.56066 -1
      vertex 70.1807 8.56066 0
    endloop
  endfacet
  facet normal 0.831465 0.555577 0
    outer loop
      vertex 70.1807 8.56066 -1
      vertex 70.5058 8.07402 0
      vertex 70.5058 8.07402 -1
    endloop
  endfacet
  facet normal 0.195093 0.980785 -0
    outer loop
      vertex 69.694 8.88582 -1
      vertex 69.12 9 0
      vertex 69.694 8.88582 0
    endloop
  endfacet
  facet normal 0.195093 0.980785 0
    outer loop
      vertex 69.12 9 0
      vertex 69.694 8.88582 -1
      vertex 69.12 9 -1
    endloop
  endfacet
  facet normal -0.831465 0.555577 0
    outer loop
      vertex 67.7342 8.07402 -1
      vertex 68.0593 8.56066 0
      vertex 68.0593 8.56066 -1
    endloop
  endfacet
  facet normal -0.831465 0.555577 0
    outer loop
      vertex 68.0593 8.56066 0
      vertex 67.7342 8.07402 -1
      vertex 67.7342 8.07402 0
    endloop
  endfacet
  facet normal 0 0 -1
    outer loop
      vertex 70.5058 6.92597 -1
      vertex 70.5058 8.07402 -1
      vertex 70.62 7.5 -1
    endloop
  endfacet
  facet normal 0 0 -1
    outer loop
      vertex 70.1807 6.43934 -1
      vertex 70.5058 8.07402 -1
      vertex 70.5058 6.92597 -1
    endloop
  endfacet
  facet normal 0 0 -1
    outer loop
      vertex 70.1807 6.43934 -1
      vertex 70.1807 8.56066 -1
      vertex 70.5058 8.07402 -1
    endloop
  endfacet
  facet normal 0 0 -1
    outer loop
      vertex 69.694 6.11418 -1
      vertex 70.1807 8.56066 -1
      vertex 70.1807 6.43934 -1
    endloop
  endfacet
  facet normal 0 0 -1
    outer loop
      vertex 69.694 6.11418 -1
      vertex 69.694 8.88582 -1
      vertex 70.1807 8.56066 -1
    endloop
  endfacet
  facet normal 0 0 -1
    outer loop
      vertex 69.12 6 -1
      vertex 69.694 8.88582 -1
      vertex 69.694 6.11418 -1
    endloop
  endfacet
  facet normal 0 0 -1
    outer loop
      vertex 69.12 6 -1
      vertex 69.12 9 -1
      vertex 69.694 8.88582 -1
    endloop
  endfacet
  facet normal 0 0 -1
    outer loop
      vertex 68.546 6.11418 -1
      vertex 69.12 9 -1
      vertex 69.12 6 -1
    endloop
  endfacet
  facet normal 0 0 -1
    outer loop
      vertex 68.546 6.11418 -1
      vertex 68.546 8.88582 -1
      vertex 69.12 9 -1
    endloop
  endfacet
  facet normal 0 0 -1
    outer loop
      vertex 68.0593 6.43934 -1
      vertex 68.546 8.88582 -1
      vertex 68.546 6.11418 -1
    endloop
  endfacet
  facet normal 0 0 -1
    outer loop
      vertex 68.0593 6.43934 -1
      vertex 68.0593 8.56066 -1
      vertex 68.546 8.88582 -1
    endloop
  endfacet
  facet normal 0 0 -1
    outer loop
      vertex 67.7342 6.92597 -1
      vertex 68.0593 8.56066 -1
      vertex 68.0593 6.43934 -1
    endloop
  endfacet
  facet normal 0 0 -1
    outer loop
      vertex 67.7342 6.92597 -1
      vertex 67.7342 8.07402 -1
      vertex 68.0593 8.56066 -1
    endloop
  endfacet
  facet normal 0 -0 -1
    outer loop
      vertex 67.7342 8.07402 -1
      vertex 67.7342 6.92597 -1
      vertex 67.62 7.5 -1
    endloop
  endfacet
  facet normal -0.980787 0.195079 0
    outer loop
      vertex 67.62 7.5 -1
      vertex 67.7342 8.07402 0
      vertex 67.7342 8.07402 -1
    endloop
  endfacet
  facet normal -0.980787 0.195079 0
    outer loop
      vertex 67.7342 8.07402 0
      vertex 67.62 7.5 -1
      vertex 67.62 7.5 0
    endloop
  endfacet
  facet normal -0.555572 0.831469 0
    outer loop
      vertex 68.546 8.88582 -1
      vertex 68.0593 8.56066 0
      vertex 68.546 8.88582 0
    endloop
  endfacet
  facet normal -0.555572 0.831469 0
    outer loop
      vertex 68.0593 8.56066 0
      vertex 68.546 8.88582 -1
      vertex 68.0593 8.56066 -1
    endloop
  endfacet
  facet normal -0.195089 -0.980786 0
    outer loop
      vertex 68.546 6.11418 -1
      vertex 69.12 6 0
      vertex 68.546 6.11418 0
    endloop
  endfacet
  facet normal -0.195089 -0.980786 -0
    outer loop
      vertex 69.12 6 0
      vertex 68.546 6.11418 -1
      vertex 69.12 6 -1
    endloop
  endfacet
  facet normal -0.831465 -0.555577 0
    outer loop
      vertex 68.0593 6.43934 -1
      vertex 67.7342 6.92597 0
      vertex 67.7342 6.92597 -1
    endloop
  endfacet
  facet normal -0.831465 -0.555577 0
    outer loop
      vertex 67.7342 6.92597 0
      vertex 68.0593 6.43934 -1
      vertex 68.0593 6.43934 0
    endloop
  endfacet
  facet normal -0.980788 -0.195079 0
    outer loop
      vertex 67.7342 6.92597 -1
      vertex 67.62 7.5 0
      vertex 67.62 7.5 -1
    endloop
  endfacet
  facet normal -0.980788 -0.195079 0
    outer loop
      vertex 67.62 7.5 0
      vertex 67.7342 6.92597 -1
      vertex 67.7342 6.92597 0
    endloop
  endfacet
  facet normal 0.831465 -0.555577 0
    outer loop
      vertex 70.1807 6.43934 0
      vertex 70.5058 6.92597 -1
      vertex 70.5058 6.92597 0
    endloop
  endfacet
  facet normal 0.831465 -0.555577 0
    outer loop
      vertex 70.5058 6.92597 -1
      vertex 70.1807 6.43934 0
      vertex 70.1807 6.43934 -1
    endloop
  endfacet
  facet normal 0.980785 -0.195092 0
    outer loop
      vertex 70.5058 6.92597 0
      vertex 70.62 7.5 -1
      vertex 70.62 7.5 0
    endloop
  endfacet
  facet normal 0.980785 -0.195092 0
    outer loop
      vertex 70.62 7.5 -1
      vertex 70.5058 6.92597 0
      vertex 70.5058 6.92597 -1
    endloop
  endfacet
  facet normal -0.555572 -0.831469 0
    outer loop
      vertex 68.0593 6.43934 -1
      vertex 68.546 6.11418 0
      vertex 68.0593 6.43934 0
    endloop
  endfacet
  facet normal -0.555572 -0.831469 -0
    outer loop
      vertex 68.546 6.11418 0
      vertex 68.0593 6.43934 -1
      vertex 68.546 6.11418 -1
    endloop
  endfacet
  facet normal -1 0 0
    outer loop
      vertex 2 0 1.3
      vertex 2 2.6 10.5
      vertex 2 2.6 1.3
    endloop
  endfacet
  facet normal -1 -0 0
    outer loop
      vertex 2 2.6 10.5
      vertex 2 0 1.3
      vertex 2 0 10.5
    endloop
  endfacet
  facet normal -0 0 1
    outer loop
      vertex 2 2.6 10.5
      vertex 66 0 10.5
      vertex 66 2.6 10.5
    endloop
  endfacet
  facet normal 0 0 1
    outer loop
      vertex 66 0 10.5
      vertex 2 2.6 10.5
      vertex 2 0 10.5
    endloop
  endfacet
  facet normal 0 1 0
    outer loop
      vertex 64 2.6 2.3
      vertex 66 2.6 10.5
      vertex 66 2.6 2.3
    endloop
  endfacet
  facet normal 0 1 0
    outer loop
      vertex 66 2.6 10.5
      vertex 64 2.6 2.3
      vertex 2 2.6 10.5
    endloop
  endfacet
  facet normal 0 1 0
    outer loop
      vertex 2 2.6 1.3
      vertex 64 2.6 2.3
      vertex 64 2.6 1.3
    endloop
  endfacet
  facet normal 0 1 0
    outer loop
      vertex 64 2.6 2.3
      vertex 2 2.6 1.3
      vertex 2 2.6 10.5
    endloop
  endfacet
  facet normal -1 0 0
    outer loop
      vertex 2 20.26 1.3
      vertex 2 22.86 9.2
      vertex 2 22.86 1.3
    endloop
  endfacet
  facet normal -1 -0 0
    outer loop
      vertex 2 22.86 9.2
      vertex 2 20.26 1.3
      vertex 2 20.26 9.2
    endloop
  endfacet
  facet normal -0 0 1
    outer loop
      vertex 2 22.86 9.2
      vertex 66 20.26 9.2
      vertex 66 22.86 9.2
    endloop
  endfacet
  facet normal 0 0 1
    outer loop
      vertex 66 20.26 9.2
      vertex 2 22.86 9.2
      vertex 2 20.26 9.2
    endloop
  endfacet
  facet normal 1 -0 0
    outer loop
      vertex 66 20.26 9.2
      vertex 66 22.86 1.3
      vertex 66 22.86 9.2
    endloop
  endfacet
  facet normal 1 0 0
    outer loop
      vertex 66 22.86 1.3
      vertex 66 20.26 9.2
      vertex 66 20.26 1.3
    endloop
  endfacet
  facet normal 0 -1 0
    outer loop
      vertex 2 20.26 1.3
      vertex 66 20.26 9.2
      vertex 2 20.26 9.2
    endloop
  endfacet
  facet normal 0 -1 -0
    outer loop
      vertex 66 20.26 9.2
      vertex 2 20.26 1.3
      vertex 66 20.26 1.3
    endloop
  endfacet
  facet normal -1 0 0
    outer loop
      vertex 2 0 -9.2
      vertex 2 2.6 0
      vertex 2 2.6 -9.2
    endloop
  endfacet
  facet normal -1 -0 0
    outer loop
      vertex 2 2.6 0
      vertex 2 0 -9.2
      vertex 2 0 0
    endloop
  endfacet
  facet normal 1 -0 0
    outer loop
      vertex 66 0 0
      vertex 66 2.6 -9.2
      vertex 66 2.6 0
    endloop
  endfacet
  facet normal 1 0 0
    outer loop
      vertex 66 2.6 -9.2
      vertex 66 0 0
      vertex 66 0 -9.2
    endloop
  endfacet
  facet normal 0 1 -0
    outer loop
      vertex 66 2.6 -9.2
      vertex 2 2.6 0
      vertex 66 2.6 0
    endloop
  endfacet
  facet normal 0 1 0
    outer loop
      vertex 2 2.6 0
      vertex 66 2.6 -9.2
      vertex 2 2.6 -9.2
    endloop
  endfacet
  facet normal 0 0 -1
    outer loop
      vertex 2 0 -9.2
      vertex 66 2.6 -9.2
      vertex 66 0 -9.2
    endloop
  endfacet
  facet normal -0 0 -1
    outer loop
      vertex 66 2.6 -9.2
      vertex 2 0 -9.2
      vertex 2 2.6 -9.2
    endloop
  endfacet
  facet normal -1 0 0
    outer loop
      vertex 2 20.26 -9.2
      vertex 2 22.86 0
      vertex 2 22.86 -9.2
    endloop
  endfacet
  facet normal -1 -0 0
    outer loop
      vertex 2 22.86 0
      vertex 2 20.26 -9.2
      vertex 2 20.26 0
    endloop
  endfacet
  facet normal 1 -0 0
    outer loop
      vertex 66 20.26 0
      vertex 66 22.86 -9.2
      vertex 66 22.86 0
    endloop
  endfacet
  facet normal 1 0 0
    outer loop
      vertex 66 22.86 -9.2
      vertex 66 20.26 0
      vertex 66 20.26 -9.2
    endloop
  endfacet
  facet normal 0 0 -1
    outer loop
      vertex 2 20.26 -9.2
      vertex 66 22.86 -9.2
      vertex 66 20.26 -9.2
    endloop
  endfacet
  facet normal -0 0 -1
    outer loop
      vertex 66 22.86 -9.2
      vertex 2 20.26 -9.2
      vertex 2 22.86 -9.2
    endloop
  endfacet
  facet normal 0 -1 0
    outer loop
      vertex 2 20.26 -9.2
      vertex 66 20.26 0
      vertex 2 20.26 0
    endloop
  endfacet
  facet normal 0 -1 -0
    outer loop
      vertex 66 20.26 0
      vertex 2 20.26 -9.2
      vertex 66 20.26 -9.2
    endloop
  endfacet
endsolid OpenSCAD_Model
